<svg width="1319" height="773" viewBox="0 0 1319 773" fill="none" xmlns="http://www.w3.org/2000/svg">
<rect x="0.910645" width="1317.12" height="773" fill="url(#paint0_linear_1_9)"/>
<path d="M623.845 393.787L661.631 431.574M661.631 431.574L699.418 393.787M661.631 431.574V337.108M774.99 384.341C774.99 399.227 772.058 413.968 766.361 427.721C760.664 441.475 752.314 453.971 741.788 464.498C731.262 475.024 718.765 483.374 705.012 489.071C691.259 494.768 676.518 497.7 661.631 497.7C646.745 497.7 632.004 494.768 618.251 489.071C604.497 483.374 592.001 475.024 581.474 464.498C570.948 453.971 562.598 441.475 556.901 427.721C551.204 413.968 548.272 399.227 548.272 384.341C548.272 354.276 560.215 325.443 581.474 304.184C602.733 282.925 631.567 270.982 661.631 270.982C691.696 270.982 720.529 282.925 741.788 304.184C763.047 325.443 774.99 354.276 774.99 384.341Z" stroke="white" stroke-width="18.8932" stroke-linecap="round" stroke-linejoin="round"/>
<defs>
<linearGradient id="paint0_linear_1_9" x1="659.472" y1="0" x2="659.472" y2="773" gradientUnits="userSpaceOnUse">
<stop stop-color="#14172A"/>
<stop offset="1" stop-color="#3D3062"/>
</linearGradient>
</defs>
</svg>
