<svg fill="none" height="184" viewBox="0 0 526 184" width="526" xmlns="http://www.w3.org/2000/svg"><path d="m55.8921 11.7637c.0707-.1618.164-.2888.3102-.388 3.6278-2.46232 56.3447-35.6439 181.2237 24.2345 117.958 56.5607 236.902-9.6296 258.275-22.8628.709-.4385 1.896.6899 1.516 1.4308l-21.482 41.816c-.339.6589.125 1.4434.865 1.4536 5.587.0776 25.068.3014 46.883.0118.905-.012 1.419 1.0178.761 1.6389-14.653 13.8257-118.058 108.5995-199.244 108.5995-87.574 0-135-20.455-191-35.924-55.1431-15.232-81.6821-20.342-115.4217-14.74-.7277.121-1.3436-.555-1.1416-1.264l13.0633-45.8711z" fill="#ec3750"/><g fill="#fff" stroke="#fff" stroke-miterlimit="10" stroke-width=".25"><path d="m83.681 33.1134c-1.3288 7.5138-3.8793 20.4209-9.2407 37.1005-11.136 26.6026 7.856 22.2635 13.2943 11.2109 3.2234-6.1032 6.5386-12.726 6.5386-12.726l17.0678 6.5435s-1.374 7.7724-2.779 14.2029c-5.362 16.6798 10.269 14.6768 14.592 2.355 1.924-6.3367 10.891-32.7944 13.364-46.7858 3.728-8.9535-9.032-17.1278-14.805-2.6602-3.086 5.3259-8.097 16.9897-8.097 16.9897s-14.0882-5.2053-14.2559-5.7702c-.5501-1.4346 1.1759-5.1346 1.2519-8.596-.8581-23.9457-15.1445-21.9696-16.931-11.8643z"/><path d="m158.883 51.7621c4.344-8.648 9.332-10.0984 13.041-9.7043 1.6.1324 3.776 3.3868 5.44 6.5129 5.448 20.5877-4.315 58.4523-6.041 60.9953-5.942 9.598-16.368 7.783-12.408-2.586 1.85-6.299 3.831-12.0251 3.831-12.0251l-13.496-1.507c-10.605 20.6021-20.14 11.9761-14.645 3.076 5.878-10.4263 18.401-33.2526 24.278-44.7618zm-4.461 26.48 13.304 2.2707s3.695-23.4265-.46-20.9551z"/><path d="m227.586 72.5188c1.761-4.9617-1.9-16.1816-14.69-14.3105-18.525.1335-24.934 32.5917-24.934 32.5917s-3.079 15.72 1.78 26.434c4.416 10.33 15.128 10.363 17.208 10.625 12.159-3.656 7.995-11.757 5.916-12.018-2.647-.135-6.238.299-9.138-2.066-4.917-3.963-4.041-14.0223-2.973-19.4326 2.515-9.0989 8.05-27.1676 16.875-22.7463 5.296 6.7676 9.012 3.6588 9.956.9227z"/><path d="m239.769 71.6846c-3.257 9.9471.827 20.4238-7.318 39.3594-1.942 4.625-6.705 13.107-7.269 14.311-4.512 8.548 4.65 13.586 14.742-1.349 2.445-3.418 5.138-12.161 5.138-12.161l4.391-.493s3.836 16.881 4.719 24.113c.944 6.979 13.306 10.949 13.486-2.748-.441-4.695-2.077-11.042-5.155-19.105 0 0-2.011-5.905-3.956-6.672 0 0 13.794-13.7181 15.109-19.0421 1.377-5.576-1.135-9.4525-11.921-.3541-10.785 9.0995-12.038 12.0124-12.038 12.0124s2.565-11.4711 2.309-20.1601c.937-9.192-9.419-15.8836-12.237-7.7115z"/><path d="m309.24 88.9685c-4.628 4.5878-7.54 13.2005-7.215 26.2315.645 19.451 8.704 30.626 22.464 28.401 13.76-2.226 10.52-12.154 9.252-12.483-1.014-.263-1.269-1.43-6.911.692-5.644 2.121-9.893-.356-13.45-8.989-2.35-5.842-3.624-17.191.621-23.53 1.268-1.8764 2.472-2.3917 3.106-2.7788 2.536-1.547 5.136-.0478 5.581.3425 7.106 5.1433 8.497-.5566 5.957-5.6217-5.013-7.0817-11.672-8.5286-19.405-2.2645z"/><path d="m340 89.2622c-.067-7.3833 7.556-13.075 10.236 3.4348 3.31 10.668 2.468 31.296 4.056 33.206s13.41-.756 16.611-1.833c3.2-1.077 9.098.337 7.765 3.543-1.079 3.271-4.13 3.582-4.765 3.966-.636.383-27.356 8.304-28.348 3.031-.992-5.274-1.055-7.701-2.055-16.682-1-8.982-3.432-21.2814-3.5-28.6658z"/><path d="m372.043 82.6536c-.58-5.3377 4.863-8.5989 8.069-2.8677 2.435 4.4428 5.264 23.7381 9.24 31.8511 2.18 3.285 6.663 3.877 8.776.863 2.495-4.557.695-15.9411-.847-25.0747-1.092-4.375-2.35-7.7192-2.287-10.1622.956-8.2259 7.554-6.2767 10.633 2.1541 2.566 9.3945 5.24 24.5718 3.899 29.9678-1.278 5.138-2.62 11.627-9.28 13.214-1.729.381-16.138 2.457-21.206-13.309-4.878-16.5368-6.417-21.2987-6.997-26.6364z"/><path d="m417.228 65.0324c8.861-5.3565 15.509-7.1942 20.702-5.3188 3.04 1.8678 5.006 7.0007 4.186 11.42-.947 3.8422-2.529 6.9772-2.529 6.9772 5.256.5298 9.105 5.7759 10.105 12.6419 1 6.8661-5.468 13.3283-17.496 17.3283-4.052 1.141-8.357 1.127-8.548-.283-.129-2.757-10.341-35.6004-10.341-35.6004-.319-1.9882-1.396-4.1699 3.921-7.1652zm3.675 5.8433 4.439 10.3958s10.762-4.3247 9.492-10.097c-1.269-5.7713-8.042-2.3322-13.931-.2988zm5.963 18.4112s3.046 12.7621 2.92 12.1851c-.065-.833 15.69-3.971 12.33-12.1851-3.362-8.2131-15.25 0-15.25 0z"/></g><path d="m56.2741 6.96607s1.0366-1.19259 2.9957-.94409 1.4758 2.50907.7379 3.98192c-.7379 1.4729-19.3248 39.5841-32.7765 82.5725-13.4516 42.9886-12.4231 88.9236-12.4231 91.4236h-14.79826305c-.20170095-4.5 2.60182305-47.749 17.41156305-91.4236 14.8098-43.675 36.89-84.09239 38.8527-85.61033z" fill="#d98b51"/></svg>