<svg width="140" height="24" viewBox="0 0 140 24" fill="none" xmlns="http://www.w3.org/2000/svg">
<path d="M19.0866 14.1876C19.1089 14.6599 19.314 17.7439 19.3079 18.2243C19.3018 18.7046 19.3079 19.1487 19.2957 19.6109C19.2774 20.2055 19.2245 20.7985 19.1373 21.387C19.1129 21.5384 19.0845 21.6877 19.0521 21.8371C18.9691 22.199 18.7515 22.5163 18.4429 22.7252C18.0912 22.9749 17.702 23.1677 17.2896 23.2964C13.688 24.3595 5.59643 23.9235 4.3126 23.8461C4.20783 23.8398 4.10549 23.8305 4.00136 23.8176C3.31094 23.7322 1.76031 23.5685 1.2571 23.3317C0.838292 23.1347 0.4635 22.8363 0.241295 22.4336C0.171572 22.3072 0.114358 22.1737 0.0709203 22.0349C0.00436445 21.7712 -0.0155337 21.498 0.0120176 21.2275C0.0697064 20.6713 0.188567 20.1232 0.366331 19.5932C0.409294 19.465 0.458908 19.3395 0.509841 19.2143C1.23356 17.435 6.9258 3.38953 9.40516 1.02088C9.46443 0.964225 9.75145 0.667236 9.99165 0.52908C10.4838 0.246032 10.9048 0.127978 11.4681 0.0452204H11.4884L11.5737 0.0290866C12.1921 -0.0480845 12.8201 0.0288777 13.4011 0.253133C14.2946 0.604319 15.722 1.13919 15.9738 1.2502C16.4324 1.44751 16.8263 1.76841 17.1109 2.17661C17.1412 2.21979 17.1712 2.26324 17.2008 2.30689C17.5652 2.84379 17.8089 3.449 17.9395 4.08271C18.2051 5.37154 18.6334 8.19168 19.0866 14.1877V14.1876Z" fill="url(#paint0_linear_1_152)"/>
<path d="M38.5261 12.1544C38.5261 13.6839 38.2342 14.9851 37.6504 16.0579C37.0666 17.1308 36.2728 17.9492 35.2691 18.513C34.2653 19.0769 33.1381 19.3587 31.8875 19.3587C30.6276 19.3587 29.4969 19.0757 28.4955 18.5095C27.494 17.9435 26.7025 17.1239 26.1211 16.051C25.5396 14.9782 25.2489 13.6793 25.2489 12.1544C25.2489 10.6296 25.5396 9.32396 26.1211 8.25103C26.7026 7.17826 27.494 6.35987 28.4955 5.79597C29.4969 5.23217 30.6276 4.95027 31.8875 4.95027C33.1381 4.95027 34.2653 5.23217 35.2691 5.79597C36.2729 6.35987 37.0666 7.17826 37.6504 8.25103C38.2342 9.32396 38.5261 10.6251 38.5261 12.1544V12.1544ZM35.4872 12.1544C35.4872 11.1638 35.3383 10.3283 35.0406 9.64805C34.743 8.96787 34.3242 8.452 33.7842 8.10034C33.2443 7.7489 32.612 7.57304 31.8874 7.57304C31.1629 7.57304 30.5306 7.74885 29.9907 8.10034C29.4507 8.45195 29.0319 8.96781 28.7342 9.64805C28.4365 10.3283 28.2877 11.1638 28.2877 12.1544C28.2877 13.145 28.4365 13.9807 28.7342 14.6609C29.0319 15.3412 29.4507 15.857 29.9907 16.2085C30.5306 16.5601 31.1628 16.7359 31.8874 16.7359C32.6121 16.7359 33.2443 16.5602 33.7842 16.2085C34.3241 15.8571 34.743 15.3412 35.0406 14.6609C35.3383 13.9807 35.4872 13.1452 35.4872 12.1544Z" fill="white"/>
<path d="M39.6331 23.1113V8.64812H42.5405V10.4149H42.6721C42.8012 10.1319 42.9893 9.84313 43.2362 9.54865C43.483 9.25416 43.8062 9.00766 44.2053 8.80905C44.6045 8.61043 45.1018 8.51117 45.6972 8.51117C46.4725 8.51117 47.1877 8.71094 47.8431 9.11037C48.4984 9.5099 49.0222 10.1102 49.4145 10.9114C49.8067 11.7127 50.0029 12.7159 50.0029 13.9212C50.0029 15.0946 49.8125 16.0841 49.4318 16.8898C49.051 17.6956 48.5341 18.3051 47.8812 18.7183C47.2281 19.1315 46.4977 19.338 45.6902 19.338C45.1179 19.338 44.6321 19.2444 44.233 19.0572C43.8338 18.8701 43.5073 18.6338 43.2534 18.3484C42.9996 18.0632 42.8058 17.7744 42.672 17.4822H42.582V23.1113H39.633L39.6331 23.1113ZM42.5198 13.9075C42.5198 14.533 42.6074 15.0785 42.7828 15.5442C42.9581 16.0099 43.212 16.3718 43.5443 16.6296C43.8766 16.8876 44.2803 17.0165 44.7557 17.0165C45.2356 17.0165 45.6418 16.8853 45.9741 16.6227C46.3063 16.3603 46.559 15.9951 46.732 15.5271C46.9051 15.0591 46.9917 14.5193 46.9917 13.9075C46.9917 13.3003 46.9062 12.7662 46.7355 12.305C46.5647 11.844 46.3132 11.4833 45.9809 11.223C45.6487 10.9628 45.2403 10.8327 44.7556 10.8327C44.2756 10.8327 43.8706 10.9582 43.5407 11.2093C43.2107 11.4605 42.958 11.8165 42.7828 12.2776C42.6073 12.7388 42.5197 13.282 42.5197 13.9075H42.5198Z" fill="white"/>
<path d="M56.3591 19.3722C55.2654 19.3722 54.325 19.152 53.5383 18.7114C52.7514 18.2709 52.1456 17.6454 51.7211 16.835C51.2964 16.0246 51.0842 15.0648 51.0842 13.9554C51.0842 12.8734 51.2965 11.9239 51.7211 11.1066C52.1456 10.2894 52.7444 9.6525 53.5175 9.19595C54.2904 8.7395 55.1985 8.51117 56.2414 8.51117C56.9428 8.51117 57.5971 8.62191 58.204 8.84325C58.8107 9.06473 59.3415 9.39691 59.7961 9.83968C60.2506 10.2825 60.6048 10.8384 60.8587 11.5072C61.1125 12.1761 61.2395 12.9579 61.2395 13.8527V14.6539H52.2611V12.846H58.4636C58.4636 12.4261 58.3712 12.054 58.1867 11.7298C58.0021 11.4057 57.7472 11.1511 57.4218 10.9662C57.0964 10.7813 56.7192 10.6889 56.29 10.6889C55.8423 10.6889 55.4466 10.7905 55.1028 10.9936C54.7589 11.1969 54.4902 11.4685 54.2963 11.8085C54.1025 12.1487 54.0032 12.5265 53.9987 12.9419V14.6608C53.9987 15.1812 54.0966 15.631 54.2929 16.0099C54.489 16.3888 54.767 16.681 55.127 16.8864C55.487 17.0919 55.9138 17.1945 56.4077 17.1945C56.7353 17.1945 57.0353 17.149 57.3076 17.0576C57.5798 16.9663 57.813 16.8294 58.0068 16.6467C58.2006 16.4642 58.3483 16.2404 58.4499 15.9756L61.1773 16.1536C61.0388 16.8019 60.7562 17.3669 60.3293 17.8485C59.9024 18.3303 59.3533 18.7045 58.6818 18.9716C58.0103 19.2387 57.236 19.3722 56.3593 19.3722H56.3591Z" fill="white"/>
<path d="M65.3604 13.0857V19.1668H62.4115V8.64812H65.2219V10.5039H65.3466C65.5819 9.89221 65.9765 9.4072 66.5303 9.04876C67.0841 8.69042 67.7556 8.51117 68.5447 8.51117C69.2831 8.51117 69.9269 8.67105 70.4761 8.99054C71.0252 9.31014 71.4522 9.76554 71.7568 10.3567C72.0614 10.948 72.2136 11.6522 72.2136 12.4693V19.1668H69.2647V12.9898C69.2692 12.3461 69.1031 11.8427 68.7663 11.4798C68.4293 11.1168 67.9656 10.9353 67.3749 10.9353C66.9779 10.9353 66.6283 11.0199 66.3262 11.1888C66.0238 11.3577 65.7884 11.6031 65.6201 11.9249C65.4515 12.2468 65.365 12.6337 65.3604 13.0857L65.3604 13.0857Z" fill="white"/>
<path d="M81.4659 9.17542C81.4105 8.62311 81.1728 8.19391 80.7528 7.888C80.3329 7.58224 79.7629 7.4292 79.043 7.4292C78.5537 7.4292 78.1407 7.49661 77.8038 7.63121C77.4669 7.76592 77.2096 7.95201 77.032 8.18927C76.8543 8.42673 76.7655 8.69605 76.7655 8.99737C76.7562 9.24852 76.8105 9.46765 76.9281 9.65484C77.0458 9.84208 77.2085 10.003 77.4162 10.1376C77.6239 10.2723 77.8637 10.3887 78.1361 10.4868C78.4083 10.5851 78.6991 10.6683 79.0083 10.7368L80.2821 11.0381C80.9005 11.1751 81.4681 11.3577 81.985 11.5859C82.5018 11.8143 82.9495 12.0951 83.3279 12.4283C83.7063 12.7616 84.0005 13.1542 84.2106 13.6062C84.4205 14.0581 84.5278 14.5763 84.5325 15.1607C84.5278 16.019 84.3075 16.762 83.8714 17.3897C83.4353 18.0175 82.8077 18.5037 81.9885 18.8484C81.1693 19.193 80.1828 19.3654 79.0292 19.3654C77.8846 19.3654 76.889 19.1918 76.0421 18.8449C75.1952 18.498 74.5353 17.9832 74.0623 17.3007C73.5892 16.6182 73.3412 15.7724 73.3181 14.7634H76.2186C76.2508 15.2337 76.3882 15.6253 76.6305 15.9379C76.8728 16.2506 77.1981 16.4857 77.6066 16.6433C78.015 16.8008 78.4776 16.8795 78.9945 16.8795C79.5021 16.8795 79.944 16.8065 80.3201 16.6603C80.6963 16.5143 80.9882 16.3111 81.1959 16.0508C81.4036 15.7907 81.5073 15.4917 81.5073 15.1538C81.5073 14.8388 81.4139 14.574 81.227 14.3594C81.0401 14.1449 80.7677 13.9622 80.4101 13.8115C80.0524 13.6608 79.6151 13.5239 79.0983 13.4007L77.5546 13.0172C76.3593 12.7295 75.4155 12.2799 74.7233 11.6681C74.031 11.0563 73.6872 10.2323 73.6918 9.19588C73.6872 8.34669 73.9168 7.6049 74.3806 6.97025C74.8444 6.33575 75.4824 5.8403 76.2947 5.48421C77.1069 5.12817 78.0299 4.95012 79.0637 4.95012C80.1159 4.95012 81.0354 5.12817 81.8223 5.48421C82.6091 5.8403 83.2217 6.33575 83.6602 6.97025C84.0986 7.6049 84.3247 8.33985 84.3386 9.17531H81.4658L81.4659 9.17542Z" fill="white"/>
<path d="M89.0876 19.3654C88.4091 19.3654 87.8045 19.2478 87.2739 19.0127C86.7431 18.7776 86.3243 18.4284 86.0175 17.9649C85.7105 17.5016 85.5571 16.923 85.5571 16.2289C85.5571 15.6446 85.6655 15.1538 85.8824 14.7566C86.0993 14.3594 86.3947 14.0399 86.7685 13.7979C87.1423 13.556 87.568 13.3734 88.0457 13.2501C88.5233 13.1269 89.0252 13.0401 89.5513 12.9899C90.1697 12.926 90.6681 12.8655 91.0466 12.8084C91.4249 12.7513 91.6995 12.6658 91.8703 12.5516C92.0409 12.4375 92.1264 12.2686 92.1264 12.0448V12.0037C92.1264 11.5701 91.9891 11.2345 91.7146 10.9971C91.4399 10.7598 91.0511 10.641 90.5481 10.641C90.0173 10.641 89.5951 10.7563 89.2813 10.9868C88.9674 11.2174 88.7597 11.5062 88.6583 11.8531L85.9308 11.634C86.0692 10.9949 86.3415 10.4413 86.7477 9.97333C87.1537 9.5054 87.6788 9.14471 88.3225 8.89132C88.9663 8.63788 89.7128 8.51126 90.5619 8.51126C91.1526 8.51126 91.7191 8.57977 92.2614 8.71672C92.8036 8.85368 93.2859 9.06592 93.7082 9.35356C94.1305 9.64121 94.4638 10.0099 94.7085 10.4595C94.953 10.9093 95.0754 11.4468 95.0754 12.0723V19.1669H92.2787V17.7082H92.1956C92.0249 18.037 91.7965 18.3257 91.5103 18.5745C91.2241 18.8235 90.8804 19.0174 90.4789 19.1566C90.0774 19.2958 89.6136 19.3655 89.0875 19.3655L89.0876 19.3654ZM89.9321 17.352C90.3659 17.352 90.749 17.2664 91.0812 17.0952C91.4135 16.924 91.6741 16.6923 91.8634 16.4001C92.0526 16.108 92.1472 15.7769 92.1472 15.4072V14.2909C92.0549 14.3503 91.9292 14.4039 91.77 14.4518C91.6107 14.4998 91.4319 14.5432 91.2335 14.5819C91.035 14.6208 90.8365 14.655 90.6382 14.6847C90.4397 14.7144 90.2597 14.7406 90.0983 14.7634C89.7521 14.8138 89.4498 14.8935 89.1914 15.0031C88.9329 15.1127 88.7321 15.2599 88.5892 15.4449C88.446 15.6297 88.3746 15.8592 88.3746 16.1331C88.3746 16.5303 88.521 16.8327 88.8142 17.0404C89.1072 17.2482 89.4798 17.352 89.9322 17.352L89.9321 17.352Z" fill="white"/>
<path d="M103.191 14.6881V8.64812H106.14V19.1668H103.309V17.2561H103.198C102.958 17.8725 102.56 18.3679 102.004 18.7422C101.448 19.1166 100.77 19.3037 99.9721 19.3037C99.2613 19.3037 98.636 19.144 98.0961 18.8244C97.5561 18.5048 97.1349 18.0505 96.8327 17.4615C96.5304 16.8726 96.3769 16.1673 96.3723 15.3455V8.64812H99.3213V14.8251C99.3259 15.4461 99.4943 15.9368 99.8266 16.2974C100.159 16.6581 100.604 16.8384 101.163 16.8384C101.518 16.8384 101.85 16.7574 102.159 16.5953C102.469 16.4333 102.719 16.1925 102.911 15.8729C103.102 15.5533 103.195 15.1584 103.191 14.6881H103.191Z" fill="white"/>
<path d="M112.475 19.3722C111.386 19.3722 110.45 19.1428 109.668 18.684C108.886 18.2252 108.286 17.5872 107.868 16.7699C107.45 15.9528 107.242 15.0123 107.242 13.9485C107.242 12.8711 107.453 11.9249 107.875 11.11C108.297 10.2951 108.898 9.65824 109.678 9.19939C110.458 8.74059 111.386 8.51117 112.461 8.51117C113.389 8.51117 114.201 8.67783 114.898 9.01106C115.595 9.34439 116.146 9.81227 116.552 10.4149C116.958 11.0176 117.182 11.7253 117.224 12.5378H114.441C114.363 12.0128 114.156 11.5893 113.822 11.2675C113.487 10.9457 113.05 10.7847 112.51 10.7847C112.053 10.7847 111.655 10.9069 111.316 11.1511C110.976 11.3954 110.712 11.7504 110.523 12.216C110.334 12.6817 110.239 13.2456 110.239 13.9075C110.239 14.5787 110.333 15.1493 110.52 15.6195C110.706 16.0898 110.971 16.4481 111.312 16.6947C111.654 16.9412 112.053 17.0645 112.51 17.0645C112.847 17.0645 113.15 16.996 113.42 16.859C113.69 16.7221 113.914 16.5224 114.091 16.2598C114.269 15.9973 114.386 15.6811 114.441 15.3114H117.224C117.178 16.1149 116.957 16.8214 116.563 17.4308C116.168 18.0403 115.625 18.5163 114.933 18.8587C114.24 19.2011 113.421 19.3723 112.475 19.3723V19.3722Z" fill="white"/>
<path d="M123.479 19.3722C122.385 19.3722 121.445 19.152 120.658 18.7114C119.871 18.2709 119.265 17.6454 118.841 16.835C118.416 16.0246 118.204 15.0648 118.204 13.9554C118.204 12.8734 118.416 11.9239 118.841 11.1066C119.265 10.2894 119.864 9.6525 120.637 9.19595C121.41 8.7395 122.318 8.51117 123.361 8.51117C124.063 8.51117 124.717 8.62191 125.324 8.84325C125.931 9.06473 126.461 9.39691 126.916 9.83968C127.37 10.2825 127.725 10.8384 127.979 11.5072C128.232 12.1761 128.359 12.9579 128.359 13.8527V14.6539H119.381V12.846H125.583C125.583 12.4261 125.491 12.054 125.307 11.7298C125.122 11.4057 124.867 11.1511 124.542 10.9662C124.216 10.7813 123.839 10.6889 123.41 10.6889C122.962 10.6889 122.566 10.7905 122.223 10.9936C121.879 11.1969 121.61 11.4685 121.416 11.8085C121.222 12.1487 121.123 12.5265 121.119 12.9419V14.6608C121.119 15.1812 121.216 15.631 121.413 16.0099C121.609 16.3888 121.887 16.681 122.247 16.8864C122.607 17.0919 123.034 17.1945 123.528 17.1945C123.855 17.1945 124.155 17.149 124.427 17.0576C124.7 16.9663 124.933 16.8294 125.127 16.6467C125.32 16.4642 125.468 16.2404 125.57 15.9756L128.297 16.1536C128.159 16.8019 127.876 17.3669 127.449 17.8485C127.022 18.3303 126.473 18.7045 125.802 18.9716C125.13 19.2387 124.356 19.3722 123.479 19.3722H123.479Z" fill="white"/>
<path d="M133.812 19.338C133.004 19.338 132.274 19.1315 131.621 18.7183C130.968 18.3051 130.451 17.6956 130.07 16.8898C129.69 16.084 129.499 15.0945 129.499 13.9212C129.499 12.7159 129.695 11.7127 130.088 10.9114C130.48 10.1102 131.003 9.50989 131.656 9.11035C132.309 8.71098 133.025 8.51116 133.805 8.51116C134.4 8.51116 134.898 8.61041 135.297 8.80903C135.696 9.00765 136.019 9.25415 136.266 9.54863C136.513 9.84311 136.701 10.1319 136.83 10.4149H136.92V5.14189H139.862V19.1668H136.955V17.4821H136.83C136.692 17.7743 136.497 18.0631 136.245 18.3484C135.994 18.6338 135.668 18.87 135.269 19.0572C134.87 19.2443 134.384 19.3379 133.812 19.3379V19.338ZM134.746 17.0165C135.222 17.0165 135.624 16.8876 135.954 16.6296C136.284 16.3717 136.538 16.0099 136.716 15.5442C136.894 15.0785 136.982 14.533 136.982 13.9074C136.982 13.2819 136.895 12.7388 136.719 12.2776C136.544 11.8165 136.29 11.4605 135.958 11.2093C135.626 10.9582 135.222 10.8327 134.747 10.8327C134.262 10.8327 133.854 10.9628 133.521 11.223C133.189 11.4832 132.937 11.844 132.767 12.305C132.596 12.7662 132.511 13.3003 132.511 13.9074C132.511 14.5193 132.597 15.0591 132.77 15.527C132.943 15.9951 133.195 16.3603 133.525 16.6227C133.855 16.8853 134.262 17.0165 134.746 17.0165Z" fill="white"/>
<defs>
<linearGradient id="paint0_linear_1_152" x1="-1.63103e-05" y1="12.0001" x2="19.308" y2="12.0001" gradientUnits="userSpaceOnUse">
<stop stop-color="#FCB60A"/>
<stop offset="0.115" stop-color="#F69319"/>
<stop offset="0.305" stop-color="#EF6D2A"/>
<stop offset="0.727" stop-color="#ED5332"/>
<stop offset="1" stop-color="#ED6A32"/>
</linearGradient>
</defs>
</svg>
