<svg version="1.1" xmlns="http://www.w3.org/2000/svg" viewBox="0 0 1052.3391616078839 671.7951823703618" width="2104.6783232157677" height="1343.5903647407235">
  <!-- svg-source:excalidraw -->
  
  <defs>
    <style class="style-fonts">
      @font-face {
        font-family: "Virgil";
        src: url("https://excalidraw.com/Virgil.woff2");
      }
      @font-face {
        font-family: "Cascadia";
        src: url("https://excalidraw.com/Cascadia.woff2");
      }
    </style>
  </defs>
  <rect x="0" y="0" width="1052.3391616078839" height="671.7951823703618" fill="#ffffff"></rect><g stroke-linecap="round" transform="translate(209.54267021666305 98.98138561491692) rotate(0 65.28553777382496 65.28553777382501)"><path d="M32 0 M32 0 C47.96 1.25, 59.25 0.94, 98.57 0 M32 0 C47.63 0.6, 64.75 0.42, 98.57 0 M98.57 0 C117.95 -0.13, 132.5 11.76, 130.57 32 M98.57 0 C120.43 2.09, 129.19 11.08, 130.57 32 M130.57 32 C128.86 55.74, 130.71 78.4, 130.57 98.57 M130.57 32 C131.89 48.89, 132.13 67.69, 130.57 98.57 M130.57 98.57 C129.22 120.38, 119.56 129.88, 98.57 130.57 M130.57 98.57 C131.24 118.01, 118.95 129.73, 98.57 130.57 M98.57 130.57 C85.18 130.86, 73.45 128.96, 32 130.57 M98.57 130.57 C79.64 130.76, 59.56 131.46, 32 130.57 M32 130.57 C10.67 130.49, 1.96 119.59, 0 98.57 M32 130.57 C9.49 131.92, -2.2 120.59, 0 98.57 M0 98.57 C2.14 71.98, -0.45 49.48, 0 32 M0 98.57 C0.43 78.03, 0.02 56.32, 0 32 M0 32 C1.84 12.34, 8.88 0.98, 32 0 M0 32 C-1.3 10.68, 11.7 0.95, 32 0" stroke="#000000" stroke-width="1" fill="none"></path></g><g transform="translate(238.82599348990027 136.8205536948085) rotate(0 35.75390625 24.412741600913023)"><text x="0" y="0" font-family="Cascadia, Segoe UI Emoji" font-size="40.68790266818846px" fill="#000000" text-anchor="start" style="white-space: pre;" direction="ltr" dominant-baseline="text-before-edge">div</text></g><g stroke-linecap="round" transform="translate(110.36834346562 284.5518093974963) rotate(0 65.28553777382507 65.28553777382501)"><path d="M32 0 M32 0 C48.33 -1.26, 60.1 0.31, 98.57 0 M32 0 C49.81 0.75, 66.7 0.4, 98.57 0 M98.57 0 C121.55 -0.23, 131.07 9.69, 130.57 32 M98.57 0 C117.72 -1.78, 129.4 10.48, 130.57 32 M130.57 32 C131.45 45.3, 131.76 60.1, 130.57 98.57 M130.57 32 C130.94 47.42, 130.81 61.93, 130.57 98.57 M130.57 98.57 C129.71 118.13, 120.85 131.81, 98.57 130.57 M130.57 98.57 C128.99 119.03, 119.07 132.37, 98.57 130.57 M98.57 130.57 C84.59 131.46, 69.95 130.91, 32 130.57 M98.57 130.57 C72.94 131.04, 48.24 131.61, 32 130.57 M32 130.57 C11.12 132.25, -0.33 118.03, 0 98.57 M32 130.57 C11.15 129.69, -0.46 118.32, 0 98.57 M0 98.57 C-0.97 79.04, 2.5 54.98, 0 32 M0 98.57 C0.32 81.81, -1.13 62.86, 0 32 M0 32 C1.76 11.83, 12.05 1.34, 32 0 M0 32 C0.5 9.45, 11.73 0.75, 32 0" stroke="#000000" stroke-width="1" fill="none"></path></g><g transform="translate(139.65166673885722 322.39097747738765) rotate(0 35.75390625 24.412741600913023)"><text x="0" y="0" font-family="Cascadia, Segoe UI Emoji" font-size="40.68790266818846px" fill="#000000" text-anchor="start" style="white-space: pre;" direction="ltr" dominant-baseline="text-before-edge">div</text></g><g stroke-linecap="round" transform="translate(309.67505736341434 283.35265878283485) rotate(0 65.28553777382501 65.28553777382501)"><path d="M32 0 M32 0 C50.11 -1.23, 70.49 -0.77, 98.57 0 M32 0 C50.01 -0.27, 66.29 -0.13, 98.57 0 M98.57 0 C120.79 0.74, 130.53 10.29, 130.57 32 M98.57 0 C119.49 -2.18, 130.81 11.73, 130.57 32 M130.57 32 C130.43 58.66, 132.56 81.29, 130.57 98.57 M130.57 32 C131.55 48.86, 129.91 66.33, 130.57 98.57 M130.57 98.57 C131.74 120.62, 118.06 132.35, 98.57 130.57 M130.57 98.57 C128.33 118.34, 120.7 130.98, 98.57 130.57 M98.57 130.57 C79.56 131.8, 58.15 131.26, 32 130.57 M98.57 130.57 C82.08 131.14, 65.59 130.38, 32 130.57 M32 130.57 C9.18 132.25, 1.57 121.32, 0 98.57 M32 130.57 C11.48 131.62, 0.07 120.83, 0 98.57 M0 98.57 C-1.57 78.56, 0.12 60.93, 0 32 M0 98.57 C0.28 78.44, 0.74 57.99, 0 32 M0 32 C-0.57 11.49, 12.03 -0.02, 32 0 M0 32 C-0.42 8.82, 10.02 -0.57, 32 0" stroke="#000000" stroke-width="1" fill="none"></path></g><g transform="translate(338.95838063665167 321.1918268627262) rotate(0 35.75390625 24.412741600913023)"><text x="0" y="0" font-family="Cascadia, Segoe UI Emoji" font-size="40.68790266818846px" fill="#000000" text-anchor="start" style="white-space: pre;" direction="ltr" dominant-baseline="text-before-edge">div</text></g><g stroke-linecap="round" transform="translate(10 470.54119569444265) rotate(0 65.28553777382501 65.28553777382501)"><path d="M32 0 M32 0 C50.08 -0.77, 65.86 1.3, 98.57 0 M32 0 C53.48 -0.84, 74.41 -0.61, 98.57 0 M98.57 0 C119.11 1.58, 129.74 8.86, 130.57 32 M98.57 0 C119.17 1.58, 129.04 9.96, 130.57 32 M130.57 32 C131.44 48.61, 131.57 63.74, 130.57 98.57 M130.57 32 C130.99 47.74, 131.16 63.19, 130.57 98.57 M130.57 98.57 C129.61 120.89, 121.5 130.74, 98.57 130.57 M130.57 98.57 C132.06 118.24, 118.01 131.98, 98.57 130.57 M98.57 130.57 C71.91 131.85, 46.85 129.39, 32 130.57 M98.57 130.57 C76.51 130.71, 55.3 129.46, 32 130.57 M32 130.57 C11.61 130.01, 1.51 119.71, 0 98.57 M32 130.57 C9.39 131.29, 2.16 120.53, 0 98.57 M0 98.57 C-0.82 73.61, 1.13 49.14, 0 32 M0 98.57 C0.94 83.09, 1.12 66.67, 0 32 M0 32 C-0.89 9.29, 8.98 -1.33, 32 0 M0 32 C0.64 12.12, 8.87 -0.74, 32 0" stroke="#000000" stroke-width="1" fill="none"></path></g><g transform="translate(39.08789902811054 512.6676082184927) rotate(0 35.75390625 24.412741600913023)"><text x="0" y="0" font-family="Cascadia, Segoe UI Emoji" font-size="40.68790266818846px" fill="red" text-anchor="start" style="white-space: pre;" direction="ltr" dominant-baseline="text-before-edge">"1"</text></g><g stroke-linecap="round" transform="translate(209.30671389779445 469.3420450797812) rotate(0 65.28553777382507 65.28553777382501)"><path d="M32 0 M32 0 C52.4 1.63, 74.49 2.14, 98.57 0 M32 0 C56.76 0.13, 82.83 0.97, 98.57 0 M98.57 0 C119.07 -1.8, 129.93 12.04, 130.57 32 M98.57 0 C118.37 -0.71, 129.36 10.59, 130.57 32 M130.57 32 C131.89 45, 129.64 60.85, 130.57 98.57 M130.57 32 C131.18 48.04, 130.26 65.73, 130.57 98.57 M130.57 98.57 C132.17 120.07, 121.2 129.12, 98.57 130.57 M130.57 98.57 C128.67 121.32, 121.83 129.36, 98.57 130.57 M98.57 130.57 C84.1 130.64, 71.52 130.26, 32 130.57 M98.57 130.57 C80.8 129.78, 61.87 130.48, 32 130.57 M32 130.57 C12.17 130.38, -1.11 120.53, 0 98.57 M32 130.57 C12.82 131.2, 1.97 117.73, 0 98.57 M0 98.57 C0.98 76.01, -0.76 48.17, 0 32 M0 98.57 C0.33 81.58, -0.76 64.3, 0 32 M0 32 C-1.68 9.34, 11.22 1.26, 32 0 M0 32 C-1.8 9.93, 11.54 0.07, 32 0" stroke="#000000" stroke-width="1" fill="none"></path></g><g transform="translate(238.5900371710319 507.18121315967255) rotate(0 35.75390625 24.412741600913023)"><text x="0" y="0" font-family="Cascadia, Segoe UI Emoji" font-size="40.68790266818846px" fill="#000000" text-anchor="start" style="white-space: pre;" direction="ltr" dominant-baseline="text-before-edge">div</text></g><g stroke-linecap="round"><g transform="translate(272.942589075048 230.85258081633629) rotate(0 -48.89171266646571 26.82854903415398)"><path d="M0.39 0.47 C-15.64 9.65, -80.85 45.01, -97.36 53.98 M-0.86 -0.33 C-16.93 8.58, -82.26 43.27, -98.18 52.04" stroke="#000000" stroke-width="1" fill="none"></path></g><g transform="translate(272.942589075048 230.85258081633629) rotate(0 -48.89171266646571 26.82854903415398)"><path d="M-77.46 30.05 C-81.94 32.46, -85.47 40.51, -99.49 52.29 M-77.75 30.41 C-84.35 36.13, -88.79 42.2, -98.87 51.71" stroke="#000000" stroke-width="1" fill="none"></path></g><g transform="translate(272.942589075048 230.85258081633629) rotate(0 -48.89171266646571 26.82854903415398)"><path d="M-67.71 48.11 C-74.01 46.86, -79.53 51.23, -99.49 52.29 M-68.01 48.47 C-77.29 49.22, -84.44 50.26, -98.87 51.71" stroke="#000000" stroke-width="1" fill="none"></path></g></g><mask></mask><g stroke-linecap="round"><g transform="translate(272.821109705871 231.8581600389682) rotate(0 51.733860533263964 25.87506535418163)"><path d="M-0.6 0.66 C16.6 9.12, 86.67 43.47, 104.07 51.78 M1.29 -0.03 C18.22 8.62, 86.04 41.58, 102.95 50.21" stroke="#000000" stroke-width="1" fill="none"></path></g><g transform="translate(272.821109705871 231.8581600389682) rotate(0 51.733860533263964 25.87506535418163)"><path d="M74.24 46.31 C86.06 47.27, 95.14 50.74, 101.99 50.06 M73.42 47.51 C85.27 48.4, 95.08 49.89, 103.85 49.37" stroke="#000000" stroke-width="1" fill="none"></path></g><g transform="translate(272.821109705871 231.8581600389682) rotate(0 51.733860533263964 25.87506535418163)"><path d="M83.37 27.94 C91.94 35.72, 97.59 46.07, 101.99 50.06 M82.55 29.13 C91.09 36.93, 97.47 45.35, 103.85 49.37" stroke="#000000" stroke-width="1" fill="none"></path></g></g><mask></mask><g stroke-linecap="round"><g transform="translate(171.1766219739111 416.9792209570762) rotate(0 49.65273478766312 25.751443358315896)"><path d="M-1.06 -0.36 C15.64 8.67, 83.44 44.45, 100.36 53.1 M0.59 -1.6 C17.08 7.22, 82.73 42.54, 99.23 51.58" stroke="#000000" stroke-width="1" fill="none"></path></g><g transform="translate(171.1766219739111 416.9792209570762) rotate(0 49.65273478766312 25.751443358315896)"><path d="M68.95 46.59 C80.84 48.42, 87.67 49.41, 98.15 52.15 M69.34 48.07 C78.46 48.84, 87.53 51.17, 99.56 50.81" stroke="#000000" stroke-width="1" fill="none"></path></g><g transform="translate(171.1766219739111 416.9792209570762) rotate(0 49.65273478766312 25.751443358315896)"><path d="M78.73 28.55 C87.36 36.01, 91.08 42.72, 98.15 52.15 M79.12 30.03 C85.28 36.41, 91.25 44.45, 99.56 50.81" stroke="#000000" stroke-width="1" fill="none"></path></g></g><mask></mask><g stroke-linecap="round"><g transform="translate(171.33015839884285 416.7058923764291) rotate(0 -49.87368425624754 26.097624945777397)"><path d="M-0.19 -0.08 C-16.6 8.71, -83.31 43.39, -99.56 52.2 M-1.75 -1.16 C-17.68 7.81, -81.23 44.16, -97.26 53.36" stroke="#000000" stroke-width="1" fill="none"></path></g><g transform="translate(171.33015839884285 416.7058923764291) rotate(0 -49.87368425624754 26.097624945777397)"><path d="M-78.02 29.13 C-83.22 36.95, -86.24 40.16, -95.54 54.14 M-77.68 30.62 C-83.97 37.53, -89.28 42.29, -98.04 53.82" stroke="#000000" stroke-width="1" fill="none"></path></g><g transform="translate(171.33015839884285 416.7058923764291) rotate(0 -49.87368425624754 26.097624945777397)"><path d="M-67.82 46.94 C-75.06 51.05, -80.19 50.57, -95.54 54.14 M-67.48 48.43 C-76.68 50.2, -84.88 49.92, -98.04 53.82" stroke="#000000" stroke-width="1" fill="none"></path></g></g><mask></mask><g stroke-linecap="round" transform="translate(811.6356989134828 91.24537614853875) rotate(0 65.28553777382501 65.28553777382501)"><path d="M32 0 M32 0 C47.09 -1.3, 65.06 -1.77, 98.57 0 M32 0 C47.99 1.16, 63.4 -0.46, 98.57 0 M98.57 0 C120.3 -0.36, 130.25 12.1, 130.57 32 M98.57 0 C118.71 1.69, 132.07 11.89, 130.57 32 M130.57 32 C131.1 55.48, 130.77 78.2, 130.57 98.57 M130.57 32 C130.33 54.95, 130.51 77.77, 130.57 98.57 M130.57 98.57 C130.52 118.65, 119.2 130.98, 98.57 130.57 M130.57 98.57 C128.52 120.32, 118.83 131.15, 98.57 130.57 M98.57 130.57 C72.65 129.4, 51.2 130.02, 32 130.57 M98.57 130.57 C74.14 130.91, 47.18 130.49, 32 130.57 M32 130.57 C10.95 129.8, -0.04 121.43, 0 98.57 M32 130.57 C9.38 131.38, -0.63 118.15, 0 98.57 M0 98.57 C-1.23 79.13, -0.93 61.62, 0 32 M0 98.57 C0.43 79.69, 0.86 60.33, 0 32 M0 32 C1.62 11.37, 10.93 -1.07, 32 0 M0 32 C-2.11 9.39, 8.99 1.58, 32 0" stroke="#000000" stroke-width="1" fill="none"></path></g><g transform="translate(840.9190221867196 129.08454422843033) rotate(0 35.75390625 24.412741600913023)"><text x="0" y="0" font-family="Cascadia, Segoe UI Emoji" font-size="40.68790266818846px" fill="#000000" text-anchor="start" style="white-space: pre;" direction="ltr" dominant-baseline="text-before-edge">div</text></g><g stroke-linecap="round" transform="translate(712.4613721624395 276.81579993111814) rotate(0 65.28553777382501 65.28553777382501)"><path d="M32 0 M32 0 C53.87 -1.31, 71.57 -1.57, 98.57 0 M32 0 C46.56 -1.38, 63.1 -0.66, 98.57 0 M98.57 0 C119.58 1.44, 129.53 12.13, 130.57 32 M98.57 0 C121.4 1.22, 131.32 8.68, 130.57 32 M130.57 32 C131.72 56.04, 131.91 75.75, 130.57 98.57 M130.57 32 C130.64 48.27, 130.5 65.24, 130.57 98.57 M130.57 98.57 C129.87 120.31, 118.12 130.93, 98.57 130.57 M130.57 98.57 C129.5 120.48, 121.47 131.97, 98.57 130.57 M98.57 130.57 C78.46 129.4, 56.73 128.18, 32 130.57 M98.57 130.57 C73.66 130.05, 50.8 130.15, 32 130.57 M32 130.57 C10.63 132.1, -1.11 120.61, 0 98.57 M32 130.57 C10.04 128.82, -0.58 120.81, 0 98.57 M0 98.57 C-0.34 81.58, 0.07 65.62, 0 32 M0 98.57 C0.61 80.07, 0.45 61.8, 0 32 M0 32 C0.26 9.59, 8.83 -1.11, 32 0 M0 32 C-1.68 12.24, 8.68 1.31, 32 0" stroke="#000000" stroke-width="1" fill="none"></path></g><g transform="translate(741.7446954356768 314.6549680110095) rotate(0 35.75390625 24.412741600913023)"><text x="0" y="0" font-family="Cascadia, Segoe UI Emoji" font-size="40.68790266818846px" fill="#000000" text-anchor="start" style="white-space: pre;" direction="ltr" dominant-baseline="text-before-edge">div</text></g><g stroke-linecap="round" transform="translate(911.7680860602339 275.6166493164567) rotate(0 65.28553777382501 65.28553777382501)"><path d="M32 0 M32 0 C46.64 -1.41, 62.22 0.27, 98.57 0 M32 0 C56.9 0.42, 81.25 1.32, 98.57 0 M98.57 0 C118.87 1.47, 131.87 11.73, 130.57 32 M98.57 0 C120.66 -1.99, 131.32 11.94, 130.57 32 M130.57 32 C131.8 55.88, 129.92 80.66, 130.57 98.57 M130.57 32 C130.62 49.57, 130.3 68.6, 130.57 98.57 M130.57 98.57 C128.79 120.26, 118.97 131.08, 98.57 130.57 M130.57 98.57 C132.13 121.3, 120.51 128.92, 98.57 130.57 M98.57 130.57 C84.64 128.39, 68.75 131.91, 32 130.57 M98.57 130.57 C79.11 129.86, 59.35 131.01, 32 130.57 M32 130.57 C9.55 131.27, -0.54 118.38, 0 98.57 M32 130.57 C10.09 131.47, -1.15 118.79, 0 98.57 M0 98.57 C-0.03 82.72, -0.2 67.27, 0 32 M0 98.57 C0.16 77.14, -0.52 54.47, 0 32 M0 32 C-1.84 9.55, 9.21 1.37, 32 0 M0 32 C-1.99 11.98, 9.11 0.2, 32 0" stroke="#000000" stroke-width="1" fill="none"></path></g><g transform="translate(941.0514093334713 313.45581739634804) rotate(0 35.75390625 24.412741600913023)"><text x="0" y="0" font-family="Cascadia, Segoe UI Emoji" font-size="40.68790266818846px" fill="#000000" text-anchor="start" style="white-space: pre;" direction="ltr" dominant-baseline="text-before-edge">div</text></g><g stroke-linecap="round" transform="translate(612.0930286968195 462.80518622806426) rotate(0 65.28553777382501 65.28553777382501)"><path d="M32 0 M32 0 C44.86 0.36, 61.85 -1.12, 98.57 0 M32 0 C45.77 0.84, 59.34 0.85, 98.57 0 M98.57 0 C121.21 1.06, 131.23 8.94, 130.57 32 M98.57 0 C120.65 1.27, 132.1 11.56, 130.57 32 M130.57 32 C129.98 58.16, 130.36 84.83, 130.57 98.57 M130.57 32 C130.2 47.78, 129.66 63.33, 130.57 98.57 M130.57 98.57 C129.64 120.41, 121.26 131.78, 98.57 130.57 M130.57 98.57 C131.17 118.26, 118.36 132.42, 98.57 130.57 M98.57 130.57 C82.2 131.5, 63.31 128.02, 32 130.57 M98.57 130.57 C81.8 131.08, 64.5 130.66, 32 130.57 M32 130.57 C10.12 129.04, -0.5 120.69, 0 98.57 M32 130.57 C9.52 129.46, -1.3 119.14, 0 98.57 M0 98.57 C-0.34 80.84, 0.63 62.86, 0 32 M0 98.57 C-0.41 77.68, -1.46 57.31, 0 32 M0 32 C-1.46 12.04, 8.94 1.14, 32 0 M0 32 C-1.55 10.86, 10.82 1.02, 32 0" stroke="#000000" stroke-width="1" fill="none"></path></g><g transform="translate(641.3763519700568 501.3852780379616) rotate(0 35.75390625 24.412741600913023)"><text x="0" y="0" font-family="Cascadia, Segoe UI Emoji" font-size="40.68790266818846px" fill="green" text-anchor="start" style="white-space: pre;" direction="ltr" dominant-baseline="text-before-edge">"2"</text></g><g stroke-linecap="round" transform="translate(811.3997425946139 461.6060356134028) rotate(0 65.28553777382501 65.28553777382501)"><path d="M32 0 M32 0 C46.78 -1.68, 56.9 0.49, 98.57 0 M32 0 C50.24 0.26, 70.17 0.05, 98.57 0 M98.57 0 C120.56 -1.73, 131.22 11.77, 130.57 32 M98.57 0 C121.43 0.89, 132.76 11.79, 130.57 32 M130.57 32 C129.73 50.48, 128.95 68.45, 130.57 98.57 M130.57 32 C129.45 47.99, 129.87 63.86, 130.57 98.57 M130.57 98.57 C131.93 121.12, 120.43 129.14, 98.57 130.57 M130.57 98.57 C129.03 121.75, 119.08 132.39, 98.57 130.57 M98.57 130.57 C84.96 129.19, 70.61 131.38, 32 130.57 M98.57 130.57 C80.61 131.43, 63.49 130.32, 32 130.57 M32 130.57 C10.17 131.36, -1 118.94, 0 98.57 M32 130.57 C9.36 129.8, -0.39 119.62, 0 98.57 M0 98.57 C0.69 79.37, 0.26 57.91, 0 32 M0 98.57 C-1.01 75.71, -0.82 54.65, 0 32 M0 32 C-1.73 11.81, 9.32 0.17, 32 0 M0 32 C0.15 11.69, 11.91 -0.65, 32 0" stroke="#000000" stroke-width="1" fill="none"></path></g><g transform="translate(840.6830658678513 499.44520369329416) rotate(0 35.75390625 24.412741600913023)"><text x="0" y="0" font-family="Cascadia, Segoe UI Emoji" font-size="40.68790266818846px" fill="#000000" text-anchor="start" style="white-space: pre;" direction="ltr" dominant-baseline="text-before-edge">div</text></g><g stroke-linecap="round"><g transform="translate(875.0356177718676 223.11657134995835) rotate(0 -48.81756462334636 26.875772120064084)"><path d="M-1.07 -1.09 C-17.27 7.67, -81.26 44.15, -97.38 53.42 M0.57 0.95 C-15.75 9.83, -81.67 46.23, -98.21 54.84" stroke="#000000" stroke-width="1" fill="none"></path></g><g transform="translate(875.0356177718676 223.11657134995835) rotate(0 -48.81756462334636 26.875772120064084)"><path d="M-80.07 32.83 C-84.15 38.32, -88.03 43.99, -96.74 56.14 M-77.93 32.99 C-84.56 40.57, -91.32 48.57, -98.47 54.38" stroke="#000000" stroke-width="1" fill="none"></path></g><g transform="translate(875.0356177718676 223.11657134995835) rotate(0 -48.81756462334636 26.875772120064084)"><path d="M-70.34 50.9 C-77.32 51.15, -83.97 51.67, -96.74 56.14 M-68.2 51.06 C-78.33 52.17, -88.52 53.8, -98.47 54.38" stroke="#000000" stroke-width="1" fill="none"></path></g></g><mask></mask><g stroke-linecap="round"><g transform="translate(874.9141384026906 224.12215057259004) rotate(0 51.54187705102231 25.645304915209408)"><path d="M-1.09 0.23 C16.13 8.84, 86.45 42.23, 104.17 50.54 M0.54 -0.69 C17.51 8.19, 85.71 43.35, 103.11 51.98" stroke="#000000" stroke-width="1" fill="none"></path></g><g transform="translate(874.9141384026906 224.12215057259004) rotate(0 51.54187705102231 25.645304915209408)"><path d="M73.72 48.01 C84.02 51.42, 94.36 52.79, 104.41 53.04 M73.88 49.04 C83.59 50.43, 93.6 50.42, 102.65 51.91" stroke="#000000" stroke-width="1" fill="none"></path></g><g transform="translate(874.9141384026906 224.12215057259004) rotate(0 51.54187705102231 25.645304915209408)"><path d="M83 29.71 C89.7 39.83, 96.59 47.99, 104.41 53.04 M83.16 30.74 C89.63 38.25, 96.55 44.32, 102.65 51.91" stroke="#000000" stroke-width="1" fill="none"></path></g></g><mask></mask><g stroke-linecap="round"><g transform="translate(773.2696506707306 409.24321149069806) rotate(0 49.705990536137165 25.717821660778327)"><path d="M0.23 -0.22 C17.16 8.77, 83.87 43.97, 100.51 52.81 M-1.1 -1.38 C15.75 7.37, 82.78 42.42, 99.46 51.15" stroke="#000000" stroke-width="1" fill="none"></path></g><g transform="translate(773.2696506707306 409.24321149069806) rotate(0 49.705990536137165 25.717821660778327)"><path d="M69.36 46.85 C77.41 46.92, 83.71 50.1, 100.53 51.8 M70.39 47.57 C77.04 48.35, 82.18 48.25, 99.39 50.88" stroke="#000000" stroke-width="1" fill="none"></path></g><g transform="translate(773.2696506707306 409.24321149069806) rotate(0 49.705990536137165 25.717821660778327)"><path d="M78.87 28.67 C84.74 32.59, 89.04 39.61, 100.53 51.8 M79.9 29.38 C84.58 34.1, 87.69 37.89, 99.39 50.88" stroke="#000000" stroke-width="1" fill="none"></path></g></g><mask></mask><g stroke-linecap="round"><g transform="translate(773.4231870956627 408.96988291005096) rotate(0 -49.311533690205124 26.08945921993518)"><path d="M-0.22 -0.19 C-16.36 8.48, -81.63 43.33, -97.91 52.31 M-1.79 -1.34 C-17.92 7.47, -82.34 44.67, -98.4 53.52" stroke="#000000" stroke-width="1" fill="none"></path></g><g transform="translate(773.4231870956627 408.96988291005096) rotate(0 -49.311533690205124 26.08945921993518)"><path d="M-79.24 32.15 C-83.99 36.92, -85.73 41.28, -97.75 51.79 M-78.53 31.66 C-84.79 38.17, -92.21 45.94, -98.67 53.63" stroke="#000000" stroke-width="1" fill="none"></path></g><g transform="translate(773.4231870956627 408.96988291005096) rotate(0 -49.311533690205124 26.08945921993518)"><path d="M-69.14 50.01 C-76.04 51.02, -79.89 51.65, -97.75 51.79 M-68.43 49.52 C-78.14 50.16, -88.92 51.99, -98.67 53.63" stroke="#000000" stroke-width="1" fill="none"></path></g></g><mask></mask><g transform="translate(98.10930026204676 14.186226755447933) rotate(0 102.9111328125 23.421544390853057)"><text x="0" y="0" font-family="Cascadia, Segoe UI Emoji" font-size="39.035907318088455px" fill="red" text-anchor="start" style="white-space: pre;" direction="ltr" dominant-baseline="text-before-edge">count = 1</text></g><g transform="translate(759.6381409018044 10) rotate(0 102.9111328125 23.421544390853057)"><text x="0" y="0" font-family="Cascadia, Segoe UI Emoji" font-size="39.035907318088455px" fill="green" text-anchor="start" style="white-space: pre;" direction="ltr" dominant-baseline="text-before-edge">count = 2</text></g><g stroke-linecap="round"><g transform="translate(338.3006613534652 141.06954589663337) rotate(0 232.8892075852674 -0.6941534064644657)"><path d="M0.32 -0.52 C37.67 0.1, 147.77 5.19, 225.12 4.31 C302.48 3.43, 424.5 -4.23, 464.44 -5.8 M-0.97 1.82 C36.68 2.05, 149.5 3.68, 227.45 2.57 C305.4 1.46, 427.22 -3.72, 466.75 -4.81" stroke="#364fc7" stroke-width="1" fill="none"></path></g><g transform="translate(338.3006613534652 141.06954589663337) rotate(0 232.8892075852674 -0.6941534064644657)"><path d="M27.93 -11.18 C19.07 -8.13, 5.85 -3.97, 0.41 -0.33 M28.67 -9.49 C21.37 -8.29, 15.31 -4.62, -0.35 0.45" stroke="#364fc7" stroke-width="1" fill="none"></path></g><g transform="translate(338.3006613534652 141.06954589663337) rotate(0 232.8892075852674 -0.6941534064644657)"><path d="M27.34 9.33 C18.61 4.47, 5.62 0.73, 0.41 -0.33 M28.08 11.03 C20.97 7.17, 15.06 5.79, -0.35 0.45" stroke="#364fc7" stroke-width="1" fill="none"></path></g><g transform="translate(338.3006613534652 141.06954589663337) rotate(0 232.8892075852674 -0.6941534064644657)"><path d="M438.05 5.2 C450.8 0.13, 459.28 -3.67, 466.83 -4.62 M438.8 6.89 C445.41 3.2, 453.23 1.78, 466.07 -3.84" stroke="#364fc7" stroke-width="1" fill="none"></path></g><g transform="translate(338.3006613534652 141.06954589663337) rotate(0 232.8892075852674 -0.6941534064644657)"><path d="M437.35 -15.31 C450.46 -12.48, 459.22 -8.37, 466.83 -4.62 M438.09 -13.62 C444.84 -12.25, 452.83 -8.61, 466.07 -3.84" stroke="#364fc7" stroke-width="1" fill="none"></path></g></g><mask></mask><g stroke-linecap="round"><g transform="translate(230.12488717700523 358.5989760604018) rotate(0 245.78332412809903 37.29846295980042)"><path d="M1.07 0.19 C21.66 13.22, 41.44 80.3, 123.16 79.31 C204.88 78.31, 429.97 8.26, 491.39 -5.8 M0.17 -0.76 C21.18 12.91, 43.66 81.06, 125.4 80.39 C207.15 79.72, 429.52 9.27, 490.64 -4.76" stroke="#364fc7" stroke-width="1" fill="none"></path></g><g transform="translate(230.12488717700523 358.5989760604018) rotate(0 245.78332412809903 37.29846295980042)"><path d="M28.43 11.67 C19.34 9.99, 12.66 7.07, 1.44 0.93 M27.54 12.51 C22.19 9.47, 17.31 6.75, 1.16 -0.57" stroke="#364fc7" stroke-width="1" fill="none"></path></g><g transform="translate(230.12488717700523 358.5989760604018) rotate(0 245.78332412809903 37.29846295980042)"><path d="M13.77 26.02 C8.46 20.38, 5.69 13.63, 1.44 0.93 M12.88 26.86 C10.61 21.07, 8.68 15.45, 1.16 -0.57" stroke="#364fc7" stroke-width="1" fill="none"></path></g><g transform="translate(230.12488717700523 358.5989760604018) rotate(0 245.78332412809903 37.29846295980042)"><path d="M466.42 11.02 C471.06 7.73, 478.14 3.67, 491.01 -4.02 M465.53 11.86 C470.61 8.42, 476.12 4.83, 490.73 -5.52" stroke="#364fc7" stroke-width="1" fill="none"></path></g><g transform="translate(230.12488717700523 358.5989760604018) rotate(0 245.78332412809903 37.29846295980042)"><path d="M461.06 -8.79 C467.31 -6.84, 475.83 -5.62, 491.01 -4.02 M460.17 -7.95 C466.16 -7.35, 472.75 -6.95, 490.73 -5.52" stroke="#364fc7" stroke-width="1" fill="none"></path></g></g><mask></mask><g stroke-linecap="round"><g transform="translate(432.22273646173096 289.1409812366385) rotate(0 245.39581434816898 -28.907660428848544)"><path d="M0.46 -1 C55.09 -11.64, 245.9 -65.47, 327.75 -64.33 C409.6 -63.2, 464.34 -5.86, 491.55 5.82 M-0.76 1.09 C53.78 -9.39, 245.21 -64.2, 327.15 -63.3 C409.09 -62.39, 463.57 -5.05, 490.88 6.54" stroke="#364fc7" stroke-width="1" fill="none"></path></g><g transform="translate(432.22273646173096 289.1409812366385) rotate(0 245.39581434816898 -28.907660428848544)"><path d="M24.03 -16.11 C16.57 -12, 8.77 -8.15, -1.53 -1.32 M25.87 -16.67 C14.94 -11.33, 4.89 -3.5, 1.12 -1.08" stroke="#364fc7" stroke-width="1" fill="none"></path></g><g transform="translate(432.22273646173096 289.1409812366385) rotate(0 245.39581434816898 -28.907660428848544)"><path d="M28.55 3.91 C19.84 2.1, 10.7 0.02, -1.53 -1.32 M30.39 3.35 C17.47 0.65, 5.62 0.48, 1.12 -1.08" stroke="#364fc7" stroke-width="1" fill="none"></path></g><g transform="translate(432.22273646173096 289.1409812366385) rotate(0 245.39581434816898 -28.907660428848544)"><path d="M459.88 1.37 C468.63 2.32, 477 3.23, 488.89 6.22 M461.72 0.81 C472.51 2.63, 484.27 6.48, 491.54 6.46" stroke="#364fc7" stroke-width="1" fill="none"></path></g><g transform="translate(432.22273646173096 289.1409812366385) rotate(0 245.39581434816898 -28.907660428848544)"><path d="M470.78 -16.01 C476.23 -9.87, 481.37 -3.81, 488.89 6.22 M472.63 -16.58 C479.21 -7.9, 486.62 2.91, 491.54 6.46" stroke="#364fc7" stroke-width="1" fill="none"></path></g></g><mask></mask><g stroke-linecap="round"><g transform="translate(119.36132552012339 594.8279016147817) rotate(0 245.61765065191616 19.71859938552643)"><path d="M-0.97 -0.17 C19.46 7.31, 39.68 45.88, 121.88 44.98 C204.08 44.08, 430.71 2.89, 492.21 -5.56 M0.71 -1.3 C21.01 5.8, 38.81 43.68, 120.68 43.17 C202.54 42.65, 430.19 3.6, 491.89 -4.41" stroke="#364fc7" stroke-width="1" fill="none"></path></g><g transform="translate(119.36132552012339 594.8279016147817) rotate(0 245.61765065191616 19.71859938552643)"><path d="M28.27 4.33 C22.41 5.05, 13.82 1.56, -1.78 1.74 M28.01 5.43 C20.56 4.2, 12.78 2.52, -1.87 -0.71" stroke="#364fc7" stroke-width="1" fill="none"></path></g><g transform="translate(119.36132552012339 594.8279016147817) rotate(0 245.61765065191616 19.71859938552643)"><path d="M17.95 22.07 C14.55 18.6, 8.45 10.85, -1.78 1.74 M17.69 23.17 C12.97 17.33, 7.86 11.06, -1.87 -0.71" stroke="#364fc7" stroke-width="1" fill="none"></path></g><g transform="translate(119.36132552012339 594.8279016147817) rotate(0 245.61765065191616 19.71859938552643)"><path d="M465.24 9.09 C472.82 8.1, 477.68 2.44, 491.09 -2.5 M464.99 10.19 C472.02 6.52, 478.7 2.51, 491 -4.95" stroke="#364fc7" stroke-width="1" fill="none"></path></g><g transform="translate(119.36132552012339 594.8279016147817) rotate(0 245.61765065191616 19.71859938552643)"><path d="M462.22 -11.21 C470.55 -7.29, 476.14 -8.06, 491.09 -2.5 M461.96 -10.11 C469.7 -8.54, 477.16 -7.29, 491 -4.95" stroke="#364fc7" stroke-width="1" fill="none"></path></g></g><mask></mask><g stroke-linecap="round"><g transform="translate(335.70174505696 515.5383498809549) rotate(0 244.66742747218188 -40.56898368342877)"><path d="M-0.17 -0.49 C54.39 -14.82, 245.62 -88.16, 327.48 -87 C409.35 -85.83, 463.82 -9.36, 491.05 6.49 M-1.71 -1.79 C52.72 -16.37, 244.87 -90.23, 326.84 -88.67 C408.81 -87.11, 462.78 -8.25, 490.12 7.56" stroke="#364fc7" stroke-width="1" fill="none"></path></g><g transform="translate(335.70174505696 515.5383498809549) rotate(0 244.66742747218188 -40.56898368342877)"><path d="M22.95 -17.61 C17.57 -13.48, 7.89 -8.12, 1.74 -1.31 M24.05 -18.95 C17.82 -14.43, 11.18 -10, -0.71 -0.55" stroke="#364fc7" stroke-width="1" fill="none"></path></g><g transform="translate(335.70174505696 515.5383498809549) rotate(0 244.66742747218188 -40.56898368342877)"><path d="M28.98 2 C21.88 0.01, 10.32 -0.76, 1.74 -1.31 M30.08 0.66 C22.22 -0.05, 13.97 -0.82, -0.71 -0.55" stroke="#364fc7" stroke-width="1" fill="none"></path></g><g transform="translate(335.70174505696 515.5383498809549) rotate(0 244.66742747218188 -40.56898368342877)"><path d="M461.26 -2.12 C472.16 -0.24, 478.71 2.79, 492.03 6.73 M462.36 -3.46 C469.9 -0.63, 477.04 1.82, 489.58 7.49" stroke="#364fc7" stroke-width="1" fill="none"></path></g><g transform="translate(335.70174505696 515.5383498809549) rotate(0 244.66742747218188 -40.56898368342877)"><path d="M474.67 -17.66 C481.26 -10.95, 483.62 -3.07, 492.03 6.73 M475.77 -19 C479.78 -12.12, 483.36 -5.55, 489.58 7.49" stroke="#364fc7" stroke-width="1" fill="none"></path></g></g><mask></mask><g transform="translate(485.78205579332155 113.80382987042572) rotate(0 93.75 12)"><text x="0" y="0" font-family="Cascadia, Segoe UI Emoji" font-size="20px" fill="#364fc7" text-anchor="start" style="white-space: pre;" direction="ltr" dominant-baseline="text-before-edge">is it different?</text></g><g transform="translate(514.6562269369718 216.59046007223378) rotate(348.1535208695981 93.75 12)"><text x="0" y="0" font-family="Cascadia, Segoe UI Emoji" font-size="20px" fill="#364fc7" text-anchor="start" style="white-space: pre;" direction="ltr" dominant-baseline="text-before-edge">is it different?</text></g><g transform="translate(449.2366893390007 363.60309416322184) rotate(348.1535208695981 93.75 12)"><text x="0" y="0" font-family="Cascadia, Segoe UI Emoji" font-size="20px" fill="#364fc7" text-anchor="start" style="white-space: pre;" direction="ltr" dominant-baseline="text-before-edge">is it different?</text></g><g transform="translate(421.0380675512139 475.13014121766946) rotate(344.6591610436371 93.75 12)"><text x="0" y="0" font-family="Cascadia, Segoe UI Emoji" font-size="20px" fill="#364fc7" text-anchor="start" style="white-space: pre;" direction="ltr" dominant-baseline="text-before-edge">is it different?</text></g><g transform="translate(320.75411032425825 626.9361784967314) rotate(353.2980792081768 93.75 12)"><text x="0" y="0" font-family="Cascadia, Segoe UI Emoji" font-size="20px" fill="#364fc7" text-anchor="start" style="white-space: pre;" direction="ltr" dominant-baseline="text-before-edge">is it different?</text></g></svg>