<svg xmlns="http://www.w3.org/2000/svg" height="40" viewBox="0 -960 960 960" width="40"><path d="M480-405.667 288-214.334Q272.666-199 250.667-198.667q-22 .333-36.333-15.667-16-15.333-16-36.833 0-21.499 16-37.499l192-191.334-192-192.334q-16-15.333-16-36.833t16-37.499q14.333-15.334 36.333-15Q272.666-761.333 288-746l192 191.334L672-746q15.334-15.333 37.333-15.666 22-.334 36.333 15 16 15.999 16 37.499t-15.333 36.833L554.333-480l192 191.334q15.333 16 15.333 37.499 0 21.5-16 36.833-14.333 16-36.333 15.667Q687.334-199 672-214.334L480-405.667Z"/></svg>