<svg xmlns="http://www.w3.org/2000/svg" height="40" viewBox="0 -960 960 960" width="40"><path d="M276-390.001V-144q0 22.1-14.951 37.716-14.95 15.617-37.333 15.617-23.049 0-38.382-15.617Q170-121.9 170-144v-632.667q0-21.433 15.617-37.383Q201.234-830 223.333-830H530q17.666 0 33.166 13.334 15.5 13.333 19.167 30.333l8.539 40.667h186.461q21.433 0 37.383 15.25 15.95 15.25 15.95 38.083v332.666q0 22.1-15.95 37.716-15.95 15.617-37.383 15.617H555.667q-18.666 0-34.166-12.667-15.5-12.666-18.167-29.666l-10-41.334H276Z"/></svg>