<svg width="1328" height="667" viewBox="0 0 1328 667" fill="none" xmlns="http://www.w3.org/2000/svg">
<rect width="1328" height="667" fill="black"/>
<path fill-rule="evenodd" clip-rule="evenodd" d="M491.641 61L321.681 441H436.418L556.85 61H562.095L441.663 441H552.285L620.903 61H625.984L557.366 441H664.134L670.981 61H675.982L669.135 441H777.347L722.978 61H728.029L782.398 441H889.287L777.5 61H782.712L894.498 441H1002.57L832.623 61H838.1L1008.05 441H1124.75L899.845 61H905.655L1130.56 441H1241.07L968.383 61H974.537L1247.22 441H1328V446H1250.81L1284.54 493H1328V498H1288.12L1328 553.568V562.144L1327.18 561H1201.59L1241.24 628H1328V633H1244.2L1264.33 667H1258.52L1238.39 633H1093.91L1109.12 667H1103.64L1088.44 633H950.98L960.982 667H955.77L945.768 633H809.868L814.733 667H809.682L804.817 633H665.676L665.063 667H660.062L660.675 633H522.696L516.557 667H511.476L517.615 633H380.813L370.037 667H364.792L375.568 633H235.806L220.599 667H215.122L230.329 633H91.0187L71.24 667H65.4555L85.2342 633H0V628H88.1429L127.119 561H9.1207L0 573.902V565.24L2.99758 561H0V556H6.53207L47.5321 498H0V493H51.0665L84.2907 446H0V441H87.8252L356.446 61H362.569L93.9483 441H196.926L417.982 61H423.767L202.71 441H316.204L486.164 61H491.641ZM804.102 628H665.766L666.973 561H794.516L804.102 628ZM660.765 628L661.972 561H535.697L523.599 628H660.765ZM793.8 556H667.063L668.108 498H785.502L793.8 556ZM662.062 556L663.107 498H547.073L536.6 556H662.062ZM784.787 493H668.198L669.045 446H778.062L784.787 493ZM663.197 493L664.044 446H556.463L547.976 493H663.197ZM798.851 556L790.553 498H906.055L923.117 556H798.851ZM809.153 628L799.567 561H924.588L944.297 628H809.153ZM789.837 493L783.113 446H890.758L904.584 493H789.837ZM1086.2 628H949.509L929.8 561H1056.24L1086.2 628ZM1054 556H928.329L911.267 498H1028.06L1054 556ZM1025.83 493H909.796L895.969 446H1004.81L1025.83 493ZM1244.66 446H1133.52L1161.34 493H1278.38L1244.66 446ZM1281.97 498H1164.3L1198.63 556H1323.59L1281.97 498ZM1195.78 561L1235.43 628H1091.68L1061.71 561H1195.78ZM1158.49 498L1192.82 556H1059.48L1033.54 498H1158.49ZM1127.71 446L1155.53 493H1031.3L1010.28 446H1127.71ZM530.617 561L518.518 628H382.397L403.631 561H530.617ZM541.993 498L531.519 556H405.216L423.598 498H541.993ZM551.382 446L542.896 493H425.182L440.078 446H551.382ZM434.833 446H319.445L298.423 493H419.937L434.833 446ZM418.353 498H296.187L270.246 556H399.971L418.353 498ZM398.386 561H268.009L238.043 628H377.152L398.386 561ZM199.802 446H313.967L292.946 493H172.461L199.802 446ZM90.4138 446H194.017L166.676 493H57.1897L90.4138 446ZM53.6552 498L12.6552 556H130.027L163.767 498H53.6552ZM169.552 498L135.812 556H264.768L290.71 498H169.552ZM232.565 628L262.532 561H132.903L93.9273 628H232.565Z" fill="url(#paint0_linear_207_49)"/>
<path d="M355.024 253.727L372.922 315.261H373.603L391.501 253.727H418.262L389.456 341H357.069L328.262 253.727H355.024ZM421.009 341V275.545H444.532V341H421.009ZM432.77 268.727C429.588 268.727 426.861 267.676 424.588 265.574C422.316 263.472 421.179 260.943 421.179 257.989C421.179 255.034 422.316 252.506 424.588 250.403C426.861 248.301 429.588 247.25 432.77 247.25C435.98 247.25 438.708 248.301 440.952 250.403C443.225 252.506 444.361 255.034 444.361 257.989C444.361 260.943 443.225 263.472 440.952 265.574C438.708 267.676 435.98 268.727 432.77 268.727ZM450.517 341V275.545H473.358V287.989H474.039C475.233 283.386 477.122 280.02 479.707 277.889C482.321 275.759 485.375 274.693 488.869 274.693C489.892 274.693 490.9 274.778 491.895 274.949C492.917 275.091 493.897 275.304 494.835 275.588V295.659C493.67 295.261 492.235 294.963 490.531 294.764C488.826 294.565 487.363 294.466 486.142 294.466C483.841 294.466 481.767 294.991 479.92 296.043C478.102 297.065 476.667 298.514 475.616 300.389C474.565 302.236 474.039 304.409 474.039 306.909V341H450.517ZM538.277 275.545V292.591H495.152V275.545H538.277ZM503.505 259.864H527.027V319.949C527.027 320.858 527.184 321.625 527.496 322.25C527.809 322.847 528.292 323.301 528.945 323.614C529.598 323.898 530.436 324.04 531.459 324.04C532.169 324.04 532.993 323.955 533.931 323.784C534.897 323.614 535.607 323.472 536.061 323.358L539.471 339.892C538.419 340.205 536.914 340.588 534.953 341.043C533.022 341.497 530.721 341.795 528.05 341.938C522.652 342.222 518.121 341.668 514.456 340.276C510.792 338.855 508.036 336.625 506.189 333.585C504.343 330.545 503.448 326.739 503.505 322.165V259.864ZM584.319 312.364V275.545H607.842V341H585.512V328.557H584.831C583.41 332.733 580.924 336 577.373 338.358C573.822 340.687 569.603 341.852 564.717 341.852C560.143 341.852 556.137 340.801 552.7 338.699C549.291 336.597 546.635 333.699 544.731 330.006C542.856 326.312 541.904 322.08 541.876 317.307V275.545H565.399V312.364C565.427 315.602 566.251 318.145 567.87 319.991C569.518 321.838 571.819 322.761 574.774 322.761C576.734 322.761 578.424 322.349 579.845 321.526C581.294 320.673 582.402 319.48 583.169 317.946C583.964 316.384 584.348 314.523 584.319 312.364ZM632.044 342.023C627.868 342.023 624.175 341.341 620.965 339.977C617.783 338.585 615.283 336.483 613.465 333.67C611.647 330.858 610.738 327.278 610.738 322.932C610.738 319.352 611.348 316.298 612.57 313.77C613.792 311.213 615.496 309.125 617.684 307.506C619.871 305.886 622.414 304.651 625.311 303.798C628.238 302.946 631.391 302.392 634.772 302.136C638.436 301.852 641.377 301.511 643.593 301.114C645.837 300.687 647.456 300.105 648.451 299.366C649.445 298.599 649.942 297.591 649.942 296.341V296.17C649.942 294.466 649.289 293.159 647.982 292.25C646.675 291.341 644.999 290.886 642.953 290.886C640.709 290.886 638.877 291.384 637.456 292.378C636.064 293.344 635.226 294.835 634.942 296.852H613.294C613.578 292.875 614.843 289.21 617.087 285.858C619.36 282.477 622.669 279.778 627.016 277.761C631.363 275.716 636.789 274.693 643.294 274.693C647.982 274.693 652.186 275.247 655.908 276.355C659.63 277.435 662.797 278.955 665.411 280.915C668.025 282.847 670.013 285.119 671.377 287.733C672.769 290.318 673.465 293.131 673.465 296.17V341H651.476V331.795H650.965C649.658 334.239 648.067 336.213 646.192 337.719C644.346 339.224 642.229 340.318 639.843 341C637.485 341.682 634.885 342.023 632.044 342.023ZM639.715 327.193C641.505 327.193 643.181 326.824 644.743 326.085C646.334 325.347 647.627 324.281 648.621 322.889C649.615 321.497 650.113 319.807 650.113 317.818V312.364C649.488 312.619 648.82 312.861 648.11 313.088C647.428 313.315 646.689 313.528 645.894 313.727C645.127 313.926 644.303 314.111 643.422 314.281C642.57 314.452 641.675 314.608 640.738 314.75C638.919 315.034 637.428 315.503 636.263 316.156C635.127 316.781 634.275 317.562 633.706 318.5C633.167 319.409 632.897 320.432 632.897 321.568C632.897 323.386 633.536 324.778 634.814 325.744C636.093 326.71 637.726 327.193 639.715 327.193ZM702.227 253.727V341H678.704V253.727H702.227ZM759.357 341H725.777V253.727H759.016C767.993 253.727 775.749 255.474 782.283 258.969C788.846 262.435 793.902 267.435 797.453 273.969C801.033 280.474 802.823 288.273 802.823 297.364C802.823 306.455 801.047 314.267 797.496 320.801C793.945 327.307 788.917 332.307 782.411 335.801C775.905 339.267 768.221 341 759.357 341ZM749.471 320.886H758.505C762.823 320.886 766.502 320.19 769.542 318.798C772.61 317.406 774.939 315.006 776.53 311.597C778.15 308.187 778.959 303.443 778.959 297.364C778.959 291.284 778.135 286.54 776.488 283.131C774.868 279.722 772.482 277.321 769.328 275.929C766.203 274.537 762.368 273.841 757.823 273.841H749.471V320.886ZM892.331 297.364C892.331 307.08 890.441 315.276 886.663 321.952C882.885 328.599 877.785 333.642 871.365 337.08C864.944 340.489 857.785 342.193 849.887 342.193C841.933 342.193 834.745 340.474 828.325 337.037C821.933 333.571 816.848 328.514 813.069 321.866C809.319 315.19 807.444 307.023 807.444 297.364C807.444 287.648 809.319 279.466 813.069 272.818C816.848 266.142 821.933 261.099 828.325 257.69C834.745 254.253 841.933 252.534 849.887 252.534C857.785 252.534 864.944 254.253 871.365 257.69C877.785 261.099 882.885 266.142 886.663 272.818C890.441 279.466 892.331 287.648 892.331 297.364ZM867.956 297.364C867.956 292.136 867.26 287.733 865.868 284.153C864.504 280.545 862.473 277.818 859.774 275.972C857.103 274.097 853.808 273.159 849.887 273.159C845.967 273.159 842.657 274.097 839.958 275.972C837.288 277.818 835.257 280.545 833.865 284.153C832.501 287.733 831.819 292.136 831.819 297.364C831.819 302.591 832.501 307.009 833.865 310.616C835.257 314.196 837.288 316.923 839.958 318.798C842.657 320.645 845.967 321.568 849.887 321.568C853.808 321.568 857.103 320.645 859.774 318.798C862.473 316.923 864.504 314.196 865.868 310.616C867.26 307.009 867.956 302.591 867.956 297.364ZM897.293 253.727H926.782L947.066 303.159H948.088L968.373 253.727H997.861V341H974.679V290.545H973.998L954.566 340.318H940.588L921.157 290.205H920.475V341H897.293V253.727Z" fill="white"/>
<path d="M267.458 486V420.545H290.981V486H267.458ZM279.219 413.727C276.038 413.727 273.31 412.676 271.038 410.574C268.765 408.472 267.629 405.943 267.629 402.989C267.629 400.034 268.765 397.506 271.038 395.403C273.31 393.301 276.038 392.25 279.219 392.25C282.43 392.25 285.157 393.301 287.401 395.403C289.674 397.506 290.81 400.034 290.81 402.989C290.81 405.943 289.674 408.472 287.401 410.574C285.157 412.676 282.43 413.727 279.219 413.727ZM320.489 449.182V486H296.966V420.545H319.295V432.989H319.977C321.398 428.841 323.898 425.588 327.477 423.23C331.085 420.872 335.29 419.693 340.091 419.693C344.722 419.693 348.741 420.759 352.151 422.889C355.588 424.991 358.244 427.889 360.119 431.582C362.023 435.276 362.96 439.494 362.932 444.239V486H339.409V449.182C339.438 445.943 338.614 443.401 336.938 441.554C335.29 439.707 332.989 438.784 330.034 438.784C328.102 438.784 326.412 439.21 324.963 440.062C323.543 440.886 322.449 442.08 321.682 443.642C320.915 445.176 320.517 447.023 320.489 449.182ZM407.578 420.545V437.591H364.453V420.545H407.578ZM372.805 404.864H396.328V464.949C396.328 465.858 396.484 466.625 396.797 467.25C397.109 467.847 397.592 468.301 398.246 468.614C398.899 468.898 399.737 469.04 400.76 469.04C401.47 469.04 402.294 468.955 403.232 468.784C404.197 468.614 404.908 468.472 405.362 468.358L408.771 484.892C407.72 485.205 406.214 485.588 404.254 486.043C402.322 486.497 400.021 486.795 397.351 486.938C391.953 487.222 387.422 486.668 383.757 485.276C380.092 483.855 377.337 481.625 375.49 478.585C373.643 475.545 372.749 471.739 372.805 467.165V404.864ZM442.008 487.193C434.906 487.193 428.826 485.787 423.769 482.974C418.712 480.134 414.835 476.185 412.136 471.128C409.437 466.043 408.087 460.148 408.087 453.443C408.087 446.739 409.437 440.858 412.136 435.801C414.835 430.716 418.712 426.767 423.769 423.955C428.826 421.114 434.906 419.693 442.008 419.693C449.11 419.693 455.19 421.114 460.246 423.955C465.303 426.767 469.181 430.716 471.88 435.801C474.579 440.858 475.928 446.739 475.928 453.443C475.928 460.148 474.579 466.043 471.88 471.128C469.181 476.185 465.303 480.134 460.246 482.974C455.19 485.787 449.11 487.193 442.008 487.193ZM442.178 469.807C444.167 469.807 445.886 469.139 447.335 467.804C448.783 466.469 449.906 464.565 450.701 462.094C451.496 459.622 451.894 456.682 451.894 453.273C451.894 449.835 451.496 446.895 450.701 444.452C449.906 441.98 448.783 440.077 447.335 438.741C445.886 437.406 444.167 436.739 442.178 436.739C440.076 436.739 438.272 437.406 436.766 438.741C435.261 440.077 434.11 441.98 433.315 444.452C432.519 446.895 432.121 449.835 432.121 453.273C432.121 456.682 432.519 459.622 433.315 462.094C434.11 464.565 435.261 466.469 436.766 467.804C438.272 469.139 440.076 469.807 442.178 469.807ZM536.414 420.545V437.591H493.289V420.545H536.414ZM501.641 404.864H525.164V464.949C525.164 465.858 525.32 466.625 525.633 467.25C525.945 467.847 526.428 468.301 527.082 468.614C527.735 468.898 528.573 469.04 529.596 469.04C530.306 469.04 531.13 468.955 532.067 468.784C533.033 468.614 533.744 468.472 534.198 468.358L537.607 484.892C536.556 485.205 535.05 485.588 533.09 486.043C531.158 486.497 528.857 486.795 526.187 486.938C520.789 487.222 516.258 486.668 512.593 485.276C508.928 483.855 506.173 481.625 504.326 478.585C502.479 475.545 501.585 471.739 501.641 467.165V404.864ZM564.942 449.182V486H541.419V398.727H564.089V432.989H564.771C566.249 428.812 568.706 425.56 572.143 423.23C575.581 420.872 579.714 419.693 584.544 419.693C589.175 419.693 593.195 420.744 596.604 422.847C600.041 424.949 602.697 427.847 604.572 431.54C606.476 435.233 607.413 439.466 607.385 444.239V486H583.862V449.182C583.891 445.943 583.081 443.401 581.433 441.554C579.814 439.707 577.499 438.784 574.487 438.784C572.584 438.784 570.908 439.21 569.459 440.062C568.038 440.886 566.93 442.08 566.135 443.642C565.368 445.176 564.97 447.023 564.942 449.182ZM644.361 487.193C637.372 487.193 631.349 485.858 626.293 483.188C621.264 480.489 617.386 476.625 614.659 471.597C611.96 466.54 610.611 460.489 610.611 453.443C610.611 446.682 611.974 440.773 614.702 435.716C617.429 430.659 621.278 426.724 626.25 423.912C631.222 421.099 637.088 419.693 643.849 419.693C648.793 419.693 653.267 420.46 657.273 421.994C661.278 423.528 664.702 425.759 667.543 428.685C670.384 431.582 672.571 435.105 674.105 439.253C675.639 443.401 676.406 448.074 676.406 453.273V458.727H617.94V445.773H654.759C654.73 443.898 654.247 442.25 653.31 440.83C652.401 439.381 651.165 438.259 649.602 437.463C648.068 436.639 646.321 436.227 644.361 436.227C642.457 436.227 640.71 436.639 639.119 437.463C637.528 438.259 636.25 439.366 635.284 440.787C634.347 442.207 633.849 443.869 633.793 445.773V459.75C633.793 461.852 634.233 463.727 635.114 465.375C635.994 467.023 637.259 468.315 638.906 469.253C640.554 470.19 642.543 470.659 644.872 470.659C646.491 470.659 647.969 470.432 649.304 469.977C650.668 469.523 651.832 468.869 652.798 468.017C653.764 467.136 654.474 466.085 654.929 464.864H676.406C675.668 469.409 673.92 473.358 671.165 476.71C668.409 480.034 664.759 482.619 660.213 484.466C655.696 486.284 650.412 487.193 644.361 487.193ZM737.116 420.545V437.591H693.309V420.545H737.116ZM701.661 486V418.67C701.661 413.273 702.627 408.798 704.559 405.247C706.491 401.696 709.218 399.04 712.741 397.278C716.263 395.517 720.411 394.636 725.184 394.636C728.167 394.636 731.065 394.864 733.877 395.318C736.718 395.773 738.82 396.17 740.184 396.511L736.775 413.386C735.923 413.131 734.928 412.932 733.792 412.79C732.656 412.619 731.661 412.534 730.809 412.534C728.593 412.534 727.102 413.003 726.335 413.94C725.567 414.878 725.184 416.114 725.184 417.648V486H701.661ZM782.636 457.364V420.545H806.158V486H783.829V473.557H783.147C781.727 477.733 779.241 481 775.69 483.358C772.138 485.687 767.92 486.852 763.033 486.852C758.46 486.852 754.454 485.801 751.016 483.699C747.607 481.597 744.951 478.699 743.048 475.006C741.173 471.312 740.221 467.08 740.192 462.307V420.545H763.715V457.364C763.744 460.602 764.567 463.145 766.187 464.991C767.835 466.838 770.136 467.761 773.09 467.761C775.05 467.761 776.741 467.349 778.161 466.526C779.61 465.673 780.718 464.48 781.485 462.946C782.281 461.384 782.664 459.523 782.636 457.364ZM851.156 420.545V437.591H808.031V420.545H851.156ZM816.384 404.864H839.906V464.949C839.906 465.858 840.062 466.625 840.375 467.25C840.688 467.847 841.17 468.301 841.824 468.614C842.477 468.898 843.315 469.04 844.338 469.04C845.048 469.04 845.872 468.955 846.81 468.784C847.776 468.614 848.486 468.472 848.94 468.358L852.349 484.892C851.298 485.205 849.793 485.588 847.832 486.043C845.901 486.497 843.599 486.795 840.929 486.938C835.531 487.222 831 486.668 827.335 485.276C823.67 483.855 820.915 481.625 819.068 478.585C817.222 475.545 816.327 471.739 816.384 467.165V404.864ZM897.198 457.364V420.545H920.721V486H898.391V473.557H897.71C896.289 477.733 893.803 481 890.252 483.358C886.701 485.687 882.482 486.852 877.596 486.852C873.022 486.852 869.016 485.801 865.579 483.699C862.17 481.597 859.513 478.699 857.61 475.006C855.735 471.312 854.783 467.08 854.755 462.307V420.545H878.278V457.364C878.306 460.602 879.13 463.145 880.749 464.991C882.397 466.838 884.698 467.761 887.653 467.761C889.613 467.761 891.303 467.349 892.724 466.526C894.173 465.673 895.281 464.48 896.048 462.946C896.843 461.384 897.227 459.523 897.198 457.364ZM926.685 486V420.545H949.526V432.989H950.207C951.401 428.386 953.29 425.02 955.875 422.889C958.489 420.759 961.543 419.693 965.037 419.693C966.06 419.693 967.068 419.778 968.062 419.949C969.085 420.091 970.065 420.304 971.003 420.588V440.659C969.838 440.261 968.403 439.963 966.699 439.764C964.994 439.565 963.531 439.466 962.31 439.466C960.009 439.466 957.935 439.991 956.088 441.043C954.27 442.065 952.835 443.514 951.784 445.389C950.733 447.236 950.207 449.409 950.207 451.909V486H926.685ZM1000.33 487.193C993.341 487.193 987.318 485.858 982.261 483.188C977.233 480.489 973.355 476.625 970.628 471.597C967.929 466.54 966.58 460.489 966.58 453.443C966.58 446.682 967.943 440.773 970.67 435.716C973.398 430.659 977.247 426.724 982.219 423.912C987.19 421.099 993.057 419.693 999.818 419.693C1004.76 419.693 1009.24 420.46 1013.24 421.994C1017.25 423.528 1020.67 425.759 1023.51 428.685C1026.35 431.582 1028.54 435.105 1030.07 439.253C1031.61 443.401 1032.38 448.074 1032.38 453.273V458.727H973.909V445.773H1010.73C1010.7 443.898 1010.22 442.25 1009.28 440.83C1008.37 439.381 1007.13 438.259 1005.57 437.463C1004.04 436.639 1002.29 436.227 1000.33 436.227C998.426 436.227 996.679 436.639 995.088 437.463C993.497 438.259 992.219 439.366 991.253 440.787C990.315 442.207 989.818 443.869 989.761 445.773V459.75C989.761 461.852 990.202 463.727 991.082 465.375C991.963 467.023 993.227 468.315 994.875 469.253C996.523 470.19 998.511 470.659 1000.84 470.659C1002.46 470.659 1003.94 470.432 1005.27 469.977C1006.64 469.523 1007.8 468.869 1008.77 468.017C1009.73 467.136 1010.44 466.085 1010.9 464.864H1032.38C1031.64 469.409 1029.89 473.358 1027.13 476.71C1024.38 480.034 1020.73 482.619 1016.18 484.466C1011.66 486.284 1006.38 487.193 1000.33 487.193ZM1048.76 487.364C1045.46 487.364 1042.64 486.213 1040.28 483.912C1037.95 481.582 1036.8 478.756 1036.83 475.432C1036.8 472.193 1037.95 469.423 1040.28 467.122C1042.64 464.821 1045.46 463.67 1048.76 463.67C1051.88 463.67 1054.64 464.821 1057.02 467.122C1059.44 469.423 1060.66 472.193 1060.69 475.432C1060.66 477.648 1060.08 479.665 1058.94 481.483C1057.83 483.273 1056.39 484.707 1054.6 485.787C1052.81 486.838 1050.86 487.364 1048.76 487.364Z" fill="url(#paint1_radial_207_49)"/>
<path fill-rule="evenodd" clip-rule="evenodd" d="M626.59 166.332C633.583 156.073 647.814 149.049 664.232 149.049C680.65 149.049 694.881 156.073 701.874 166.332C694.881 176.592 680.65 183.616 664.232 183.616C647.814 183.616 633.583 176.592 626.59 166.332Z" fill="url(#paint2_linear_207_49)"/>
<path d="M626.337 90.1C633.325 79.9492 647.547 73 663.954 73C680.362 73 694.583 79.9492 701.572 90.1C694.583 100.251 680.362 107.2 663.954 107.2C647.547 107.2 633.325 100.251 626.337 90.1Z" fill="url(#paint3_linear_207_49)"/>
<path d="M664.673 128.51C654.506 138.576 640.716 144.231 626.337 144.231C611.958 144.231 598.167 138.576 588 128.51L626.337 90.1L664.673 128.51Z" fill="url(#paint4_linear_207_49)"/>
<path d="M740 128.529C729.833 138.595 716.042 144.25 701.663 144.25C687.284 144.25 673.494 138.595 663.327 128.529L701.663 90.1L740 128.529Z" fill="url(#paint5_linear_207_49)"/>
<path d="M555.59 612.182H561.279L564.869 626.841H565.125L573.552 612.182H579.241L575.619 634H571.144L573.509 619.799H573.318L565.349 633.893H562.291L559.01 619.746H558.829L556.443 634H551.968L555.59 612.182ZM586.154 612.182L582.532 634H577.919L581.542 612.182H586.154ZM584.828 634L588.45 612.182H593.063L590.08 630.197H599.433L598.794 634H584.828ZM600.349 634L603.971 612.182H608.584L605.601 630.197H614.955L614.316 634H600.349ZM624.106 612.182L620.483 634H615.871L619.493 612.182H624.106ZM644.597 623.389C644.199 625.719 643.429 627.697 642.285 629.323C641.149 630.95 639.76 632.185 638.12 633.031C636.486 633.876 634.725 634.298 632.836 634.298C630.854 634.298 629.146 633.847 627.711 632.945C626.284 632.043 625.25 630.74 624.611 629.036C623.972 627.324 623.851 625.261 624.249 622.846C624.632 620.509 625.396 618.528 626.539 616.901C627.683 615.268 629.078 614.025 630.726 613.173C632.374 612.313 634.146 611.884 636.042 611.884C638.01 611.884 639.707 612.338 641.135 613.247C642.569 614.156 643.603 615.47 644.235 617.189C644.874 618.901 644.995 620.967 644.597 623.389ZM640.005 622.846C640.254 621.347 640.243 620.09 639.973 619.075C639.711 618.052 639.228 617.278 638.525 616.752C637.821 616.227 636.934 615.964 635.861 615.964C634.696 615.964 633.627 616.255 632.654 616.837C631.689 617.42 630.872 618.265 630.204 619.373C629.544 620.474 629.086 621.812 628.83 623.389C628.574 624.895 628.581 626.152 628.851 627.161C629.128 628.169 629.622 628.933 630.332 629.451C631.049 629.962 631.941 630.218 633.006 630.218C634.164 630.218 635.222 629.934 636.181 629.366C637.147 628.79 637.96 627.956 638.62 626.862C639.281 625.761 639.743 624.423 640.005 622.846ZM666.617 612.182L662.995 634H659.01L651.819 620.268H651.649L649.358 634H644.746L648.368 612.182H652.416L659.575 625.903H659.756L662.025 612.182H666.617ZM668.076 634.277C667.359 634.277 666.769 634.028 666.308 633.531C665.853 633.034 665.647 632.43 665.69 631.72C665.739 631.017 666.034 630.424 666.574 629.941C667.121 629.451 667.749 629.206 668.46 629.206C669.141 629.206 669.717 629.451 670.185 629.941C670.654 630.431 670.86 631.024 670.803 631.72C670.768 632.189 670.615 632.619 670.345 633.009C670.082 633.393 669.749 633.702 669.344 633.936C668.939 634.163 668.516 634.277 668.076 634.277ZM685.1 612.182H689.659L687.145 627.427C686.904 628.84 686.392 630.062 685.611 631.092C684.83 632.114 683.839 632.906 682.639 633.467C681.438 634.021 680.1 634.298 678.622 634.298C677.294 634.298 676.129 634.064 675.128 633.595C674.134 633.126 673.399 632.416 672.923 631.464C672.454 630.513 672.337 629.312 672.571 627.864H677.131C677.06 628.453 677.095 628.95 677.237 629.355C677.387 629.76 677.639 630.069 677.994 630.282C678.349 630.495 678.793 630.602 679.325 630.602C679.901 630.602 680.412 630.477 680.86 630.229C681.307 629.98 681.676 629.614 681.968 629.131C682.266 628.648 682.475 628.059 682.596 627.363L685.1 612.182ZM702.744 618.521C702.779 617.633 702.52 616.947 701.966 616.464C701.419 615.982 700.592 615.74 699.484 615.74C698.731 615.74 698.078 615.847 697.524 616.06C696.97 616.266 696.526 616.553 696.192 616.923C695.865 617.285 695.663 617.704 695.585 618.18C695.507 618.57 695.531 618.911 695.659 619.202C695.794 619.494 696.004 619.746 696.288 619.959C696.579 620.165 696.923 620.346 697.321 620.502C697.719 620.651 698.142 620.779 698.589 620.886L700.464 621.354C701.38 621.567 702.204 621.852 702.936 622.207C703.674 622.562 704.292 622.999 704.789 623.517C705.294 624.036 705.649 624.646 705.855 625.349C706.061 626.053 706.089 626.859 705.94 627.768C705.713 629.103 705.183 630.261 704.352 631.241C703.521 632.214 702.431 632.97 701.082 633.51C699.732 634.043 698.17 634.309 696.394 634.309C694.633 634.309 693.145 634.039 691.931 633.499C690.716 632.96 689.832 632.161 689.278 631.102C688.731 630.037 688.568 628.719 688.788 627.15H693.252C693.173 627.881 693.28 628.492 693.571 628.982C693.869 629.465 694.313 629.831 694.903 630.08C695.492 630.321 696.185 630.442 696.98 630.442C697.769 630.442 698.468 630.328 699.079 630.101C699.697 629.874 700.198 629.558 700.581 629.153C700.965 628.748 701.199 628.283 701.284 627.757C701.369 627.267 701.295 626.855 701.061 626.521C700.826 626.187 700.45 625.903 699.931 625.669C699.42 625.428 698.784 625.214 698.024 625.03L695.744 624.433C693.983 623.986 692.651 623.286 691.749 622.335C690.847 621.383 690.524 620.101 690.78 618.489C691.007 617.168 691.558 616.013 692.431 615.026C693.312 614.032 694.42 613.261 695.755 612.714C697.097 612.161 698.564 611.884 700.155 611.884C701.774 611.884 703.142 612.164 704.257 612.725C705.372 613.279 706.185 614.053 706.696 615.048C707.208 616.042 707.364 617.2 707.165 618.521H702.744ZM709.279 634.277C708.562 634.277 707.972 634.028 707.511 633.531C707.056 633.034 706.85 632.43 706.893 631.72C706.942 631.017 707.237 630.424 707.777 629.941C708.324 629.451 708.952 629.206 709.663 629.206C710.344 629.206 710.92 629.451 711.388 629.941C711.857 630.431 712.063 631.024 712.006 631.72C711.971 632.189 711.818 632.619 711.548 633.009C711.286 633.393 710.952 633.702 710.547 633.936C710.142 634.163 709.719 634.277 709.279 634.277ZM735.763 623.389C735.365 625.719 734.595 627.697 733.451 629.323C732.315 630.95 730.926 632.185 729.286 633.031C727.652 633.876 725.891 634.298 724.002 634.298C722.02 634.298 720.312 633.847 718.877 632.945C717.45 632.043 716.416 630.74 715.777 629.036C715.138 627.324 715.017 625.261 715.415 622.846C715.798 620.509 716.562 618.528 717.705 616.901C718.849 615.268 720.244 614.025 721.892 613.173C723.54 612.313 725.312 611.884 727.208 611.884C729.176 611.884 730.873 612.338 732.301 613.247C733.735 614.156 734.769 615.47 735.401 617.189C736.04 618.901 736.161 620.967 735.763 623.389ZM731.171 622.846C731.42 621.347 731.409 620.09 731.139 619.075C730.877 618.052 730.394 617.278 729.691 616.752C728.987 616.227 728.1 615.964 727.027 615.964C725.862 615.964 724.794 616.255 723.82 616.837C722.855 617.42 722.038 618.265 721.37 619.373C720.71 620.474 720.252 621.812 719.996 623.389C719.74 624.895 719.747 626.152 720.017 627.161C720.294 628.169 720.788 628.933 721.498 629.451C722.215 629.962 723.107 630.218 724.172 630.218C725.33 630.218 726.388 629.934 727.347 629.366C728.313 628.79 729.126 627.956 729.786 626.862C730.447 625.761 730.909 624.423 731.171 622.846ZM735.912 634L739.534 612.182H748.142C749.789 612.182 751.146 612.473 752.211 613.055C753.284 613.638 754.037 614.465 754.47 615.538C754.91 616.603 755.013 617.86 754.779 619.309C754.537 620.758 754.015 622.001 753.213 623.038C752.417 624.075 751.38 624.874 750.102 625.435C748.831 625.989 747.357 626.266 745.681 626.266H739.917L740.556 622.558H745.564C746.444 622.558 747.197 622.437 747.822 622.196C748.447 621.955 748.941 621.592 749.303 621.109C749.672 620.626 749.914 620.026 750.027 619.309C750.148 618.577 750.105 617.967 749.9 617.477C749.694 616.979 749.321 616.603 748.781 616.347C748.241 616.085 747.531 615.953 746.65 615.953H743.539L740.525 634H735.912ZM749.335 624.071L753.117 634H748.025L744.36 624.071H749.335ZM771.192 619.234C771.136 618.716 771.015 618.258 770.83 617.86C770.653 617.455 770.408 617.114 770.095 616.837C769.783 616.553 769.403 616.337 768.955 616.188C768.508 616.038 767.989 615.964 767.4 615.964C766.285 615.964 765.241 616.241 764.268 616.795C763.302 617.349 762.478 618.155 761.796 619.213C761.114 620.264 760.649 621.55 760.401 623.07C760.145 624.589 760.145 625.882 760.401 626.947C760.663 628.013 761.157 628.826 761.881 629.387C762.613 629.941 763.554 630.218 764.705 630.218C765.749 630.218 766.686 630.033 767.517 629.664C768.348 629.288 769.026 628.759 769.552 628.077C770.085 627.395 770.425 626.589 770.575 625.658L771.491 625.797H765.876L766.452 622.324H775.582L775.113 625.072C774.808 626.99 774.136 628.638 773.099 630.016C772.062 631.393 770.77 632.452 769.222 633.19C767.68 633.929 765.99 634.298 764.151 634.298C762.105 634.298 760.383 633.847 758.984 632.945C757.592 632.036 756.601 630.747 756.011 629.078C755.429 627.402 755.326 625.413 755.702 623.112C755.994 621.344 756.512 619.767 757.258 618.382C758.011 616.99 758.93 615.811 760.017 614.845C761.104 613.879 762.308 613.144 763.629 612.64C764.957 612.136 766.338 611.884 767.773 611.884C769.009 611.884 770.127 612.065 771.129 612.427C772.137 612.782 773 613.286 773.717 613.94C774.442 614.593 774.989 615.371 775.358 616.273C775.734 617.168 775.908 618.155 775.88 619.234H771.192Z" fill="white"/>
<defs>
<linearGradient id="paint0_linear_207_49" x1="664" y1="61" x2="664" y2="667" gradientUnits="userSpaceOnUse">
<stop offset="0.328125" stop-color="#E295A6" stop-opacity="0"/>
<stop offset="1" stop-color="white" stop-opacity="0.31"/>
</linearGradient>
<radialGradient id="paint1_radial_207_49" cx="0" cy="0" r="1" gradientUnits="userSpaceOnUse" gradientTransform="translate(664.5 370) rotate(90.1106) scale(259 720.736)">
<stop stop-color="#6A4AE3"/>
<stop offset="0.453125" stop-color="#ED9CA2"/>
<stop offset="1" stop-color="#6A4AE3"/>
</radialGradient>
<linearGradient id="paint2_linear_207_49" x1="664.232" y1="149.049" x2="664.232" y2="183.616" gradientUnits="userSpaceOnUse">
<stop stop-color="#6E4FED"/>
<stop offset="0.692708" stop-color="#A96FDC"/>
</linearGradient>
<linearGradient id="paint3_linear_207_49" x1="664" y1="73" x2="664" y2="144.25" gradientUnits="userSpaceOnUse">
<stop offset="0.265625" stop-color="#ED9CA2"/>
<stop offset="0.9999" stop-color="#A96FDC"/>
<stop offset="1" stop-color="#A96FDC"/>
</linearGradient>
<linearGradient id="paint4_linear_207_49" x1="664" y1="73" x2="664" y2="144.25" gradientUnits="userSpaceOnUse">
<stop offset="0.265625" stop-color="#ED9CA2"/>
<stop offset="0.9999" stop-color="#A96FDC"/>
<stop offset="1" stop-color="#A96FDC"/>
</linearGradient>
<linearGradient id="paint5_linear_207_49" x1="664" y1="73" x2="664" y2="144.25" gradientUnits="userSpaceOnUse">
<stop offset="0.265625" stop-color="#ED9CA2"/>
<stop offset="0.9999" stop-color="#A96FDC"/>
<stop offset="1" stop-color="#A96FDC"/>
</linearGradient>
</defs>
</svg>
