<svg width="1775" height="1725" viewBox="0 0 1775 1725" fill="none" xmlns="http://www.w3.org/2000/svg">
<rect x="425" y="695" width="1328" height="344" fill="url(#paint0_linear_810_10)"/>
<rect x="425" y="695" width="1328" height="344" fill="url(#paint1_radial_810_10)" fill-opacity="0.01"/>
<path fill-rule="evenodd" clip-rule="evenodd" d="M780.335 695L629.138 878.314H741.893L858.142 695H863.864L747.615 878.314H861.955L944.328 695H949.698L867.325 878.314H977.622L1024.55 695H1029.68L982.744 878.314H1089.17L1093.85 695H1098.86L1094.17 878.314H1202.02L1164.84 695H1169.91L1207.1 878.314H1313.56L1237.11 695H1242.42L1318.88 878.314H1426.39L1310.15 695H1315.87L1432.11 878.314H1548.1L1394.26 695H1400.5L1554.33 878.314H1663.96L1477.45 695H1484.21L1670.72 878.314H1753V883.314H1675.81L1708.04 914.989H1753V919.989H1713.13L1753 959.18V965.823L1751.58 964.423H1626.59L1665.01 1010.2H1753V1015.2H1669.2L1689.33 1039.18H1683.1L1662.97 1015.2H1518.91L1534.12 1039.18H1528.4L1513.19 1015.2H1375.98L1385.98 1039.18H1380.66L1370.66 1015.2H1234.87L1239.73 1039.18H1234.66L1229.79 1015.2H1090.68L1090.06 1039.18H1085.06L1085.67 1015.2H947.696L941.557 1039.18H936.435L942.575 1015.2H805.813L795.037 1039.18H789.668L800.443 1015.2H660.807L645.6 1039.18H639.877L655.084 1015.2H516.231L496.452 1039.18H490.243L510.022 1015.2H425V1010.2H514.146L551.906 964.423H434.121L425 973.523V966.827L427.41 964.423H425V959.423H432.421L471.944 919.989H425V914.989H476.956L508.703 883.314H425V878.314H513.715L697.445 695H704.155L520.425 878.314H622.929L774.126 695H780.335ZM1090.8 1010.2H1228.78L1219.49 964.423H1091.97L1090.8 1010.2ZM1086.97 964.423L1085.8 1010.2H948.977L960.698 964.423H1086.97ZM1092.1 959.423H1218.48L1210.48 919.989H1093.11L1092.1 959.423ZM1088.11 919.989L1087.1 959.423H961.978L972.074 919.989H1088.11ZM1093.24 914.989H1209.46L1203.04 883.314H1094.05L1093.24 914.989ZM1089.04 883.314L1088.23 914.989H973.354L981.464 883.314H1089.04ZM1215.55 919.989L1223.55 959.423H1347.39L1330.95 919.989H1215.55ZM1224.57 964.423L1233.85 1010.2H1368.58L1349.48 964.423H1224.57ZM1208.11 883.314L1214.54 914.989H1328.86L1315.65 883.314H1208.11ZM1373.89 1010.2H1510.02L1480.99 964.423H1354.8L1373.89 1010.2ZM1352.71 959.423H1477.82L1452.82 919.989H1336.27L1352.71 959.423ZM1334.18 914.989H1449.65L1429.56 883.314H1320.97L1334.18 914.989ZM1558.52 883.314H1669.05L1701.28 914.989H1585.1L1558.52 883.314ZM1589.3 919.989H1706.37L1746.49 959.423H1622.39L1589.3 919.989ZM1658.78 1010.2L1620.36 964.423H1486.71L1515.74 1010.2H1658.78ZM1616.16 959.423L1583.07 919.989H1458.54L1483.54 959.423H1616.16ZM1578.87 914.989L1552.29 883.314H1435.28L1455.37 914.989H1578.87ZM943.855 1010.2L955.576 964.423H828.632L808.06 1010.2H943.855ZM956.856 959.423L966.952 919.989H848.598L830.878 959.423H956.856ZM968.232 914.989L976.342 883.314H865.078L850.845 914.989H968.232ZM744.445 883.314H859.709L845.475 914.989H724.358L744.445 883.314ZM721.187 919.989H843.228L825.509 959.423H696.18L721.187 919.989ZM693.009 964.423H823.262L802.69 1010.2H663.977L693.009 964.423ZM738.722 883.314H625.014L598.888 914.989H718.635L738.722 883.314ZM618.805 883.314H515.414L483.666 914.989H592.679L618.805 883.314ZM439.132 959.423L478.655 919.989H588.555L556.03 959.423H439.132ZM562.239 959.423L594.764 919.989H715.465L690.458 959.423H562.239ZM687.287 964.423L658.255 1010.2H520.355L558.115 964.423H687.287Z" fill="url(#paint2_linear_810_10)"/>
<g filter="url(#filter0_dd_810_10)">
<path d="M1010.38 826.273H1032.15L1050.61 871.301H1051.47L1069.93 826.273H1091.7V899H1074.58V854.327H1073.98L1056.51 898.538H1045.57L1028.1 854.078H1027.5V899H1010.38V826.273ZM1102.66 899V844.455H1120.03V899H1102.66ZM1111.36 838.098C1108.93 838.098 1106.83 837.293 1105.08 835.683C1103.33 834.05 1102.45 832.085 1102.45 829.788C1102.45 827.516 1103.33 825.574 1105.08 823.964C1106.83 822.331 1108.93 821.514 1111.36 821.514C1113.83 821.514 1115.92 822.331 1117.65 823.964C1119.4 825.574 1120.28 827.516 1120.28 829.788C1120.28 832.085 1119.4 834.05 1117.65 835.683C1115.92 837.293 1113.83 838.098 1111.36 838.098ZM1148.45 826.273V899H1131.08V826.273H1148.45ZM1176.87 826.273V899H1159.5V826.273H1176.87ZM1187.92 899V844.455H1205.28V899H1187.92ZM1196.62 838.098C1194.18 838.098 1192.08 837.293 1190.33 835.683C1188.58 834.05 1187.71 832.085 1187.71 829.788C1187.71 827.516 1188.58 825.574 1190.33 823.964C1192.08 822.331 1194.18 821.514 1196.62 821.514C1199.08 821.514 1201.18 822.331 1202.9 823.964C1204.66 825.574 1205.53 827.516 1205.53 829.788C1205.53 832.085 1204.66 834.05 1202.9 835.683C1201.18 837.293 1199.08 838.098 1196.62 838.098ZM1241.8 900.03C1236.07 900.03 1231.14 898.858 1227.03 896.514C1222.93 894.147 1219.77 890.856 1217.54 886.642C1215.34 882.404 1214.24 877.492 1214.24 871.905C1214.24 866.294 1215.34 861.382 1217.54 857.168C1219.77 852.93 1222.93 849.639 1227.03 847.295C1231.14 844.928 1236.07 843.744 1241.8 843.744C1247.53 843.744 1252.44 844.928 1256.54 847.295C1260.65 849.639 1263.81 852.93 1266.02 857.168C1268.24 861.382 1269.35 866.294 1269.35 871.905C1269.35 877.492 1268.24 882.404 1266.02 886.642C1263.81 890.856 1260.65 894.147 1256.54 896.514C1252.44 898.858 1247.53 900.03 1241.8 900.03ZM1241.9 886.926C1243.99 886.926 1245.75 886.287 1247.2 885.009C1248.64 883.73 1249.74 881.955 1250.5 879.682C1251.28 877.409 1251.67 874.781 1251.67 871.798C1251.67 868.768 1251.28 866.116 1250.5 863.844C1249.74 861.571 1248.64 859.795 1247.2 858.517C1245.75 857.239 1243.99 856.599 1241.9 856.599C1239.75 856.599 1237.93 857.239 1236.44 858.517C1234.97 859.795 1233.84 861.571 1233.06 863.844C1232.3 866.116 1231.93 868.768 1231.93 871.798C1231.93 874.781 1232.3 877.409 1233.06 879.682C1233.84 881.955 1234.97 883.73 1236.44 885.009C1237.93 886.287 1239.75 886.926 1241.9 886.926ZM1295.62 867.892V899H1278.25V844.455H1294.76V854.469H1295.37C1296.57 851.131 1298.63 848.515 1301.55 846.621C1304.46 844.703 1307.93 843.744 1311.95 843.744C1315.79 843.744 1319.11 844.608 1321.93 846.337C1324.77 848.041 1326.97 850.432 1328.53 853.51C1330.12 856.564 1330.9 860.139 1330.88 864.234V899H1313.51V867.643C1313.54 864.613 1312.77 862.246 1311.2 860.541C1309.67 858.837 1307.52 857.984 1304.78 857.984C1302.95 857.984 1301.34 858.387 1299.95 859.192C1298.57 859.973 1297.51 861.098 1296.75 862.565C1296.02 864.033 1295.64 865.809 1295.62 867.892Z" fill="white"/>
</g>
<g filter="url(#filter1_f_810_10)">
<path fill-rule="evenodd" clip-rule="evenodd" d="M844.43 904.832C852.481 893.309 868.865 885.419 887.767 885.419C906.67 885.419 923.054 893.309 931.105 904.832C923.054 916.356 906.67 924.245 887.767 924.245C868.865 924.245 852.481 916.356 844.43 904.832Z" fill="url(#paint3_linear_810_10)" fill-opacity="0.5"/>
<path d="M844.138 819.207C852.183 807.805 868.557 800 887.447 800C906.338 800 922.711 807.805 930.757 819.207C922.711 830.609 906.338 838.414 887.447 838.414C868.557 838.414 852.183 830.609 844.138 819.207Z" fill="url(#paint4_linear_810_10)" fill-opacity="0.5"/>
<path d="M888.275 862.35C876.569 873.656 860.692 880.008 844.138 880.008C827.583 880.008 811.706 873.656 800 862.35L844.138 819.207L888.275 862.35Z" fill="url(#paint5_linear_810_10)" fill-opacity="0.5"/>
<path d="M975 862.371C963.294 873.677 947.417 880.029 930.862 880.029C914.308 880.029 898.431 873.677 886.725 862.371L930.862 819.207L975 862.371Z" fill="url(#paint6_linear_810_10)" fill-opacity="0.5"/>
</g>
<g filter="url(#filter2_f_810_10)">
<path fill-rule="evenodd" clip-rule="evenodd" d="M844.43 904.832C852.481 893.309 868.865 885.419 887.767 885.419C906.67 885.419 923.054 893.309 931.105 904.832C923.054 916.356 906.67 924.245 887.767 924.245C868.865 924.245 852.481 916.356 844.43 904.832Z" fill="url(#paint7_linear_810_10)"/>
<path d="M844.138 819.207C852.183 807.805 868.557 800 887.447 800C906.338 800 922.711 807.805 930.757 819.207C922.711 830.609 906.338 838.414 887.447 838.414C868.557 838.414 852.183 830.609 844.138 819.207Z" fill="url(#paint8_linear_810_10)"/>
<path d="M888.275 862.35C876.569 873.656 860.692 880.008 844.138 880.008C827.583 880.008 811.706 873.656 800 862.35L844.138 819.207L888.275 862.35Z" fill="url(#paint9_linear_810_10)"/>
<path d="M975 862.371C963.294 873.677 947.417 880.029 930.862 880.029C914.308 880.029 898.431 873.677 886.725 862.371L930.862 819.207L975 862.371Z" fill="url(#paint10_linear_810_10)"/>
</g>
<g filter="url(#filter3_d_810_10)">
<path fill-rule="evenodd" clip-rule="evenodd" d="M844.43 904.832C852.481 893.309 868.865 885.419 887.767 885.419C906.67 885.419 923.054 893.309 931.105 904.832C923.054 916.356 906.67 924.245 887.767 924.245C868.865 924.245 852.481 916.356 844.43 904.832Z" fill="url(#paint11_linear_810_10)"/>
<path d="M844.138 819.207C852.183 807.805 868.557 800 887.447 800C906.338 800 922.711 807.805 930.757 819.207C922.711 830.609 906.338 838.414 887.447 838.414C868.557 838.414 852.183 830.609 844.138 819.207Z" fill="url(#paint12_linear_810_10)"/>
<path d="M888.275 862.35C876.569 873.656 860.692 880.008 844.138 880.008C827.583 880.008 811.706 873.656 800 862.35L844.138 819.207L888.275 862.35Z" fill="url(#paint13_linear_810_10)"/>
<path d="M975 862.371C963.294 873.677 947.417 880.029 930.862 880.029C914.308 880.029 898.431 873.677 886.725 862.371L930.862 819.207L975 862.371Z" fill="url(#paint14_linear_810_10)"/>
</g>
<defs>
<filter id="filter0_dd_810_10" x="910.379" y="725.514" width="520.534" height="278.516" filterUnits="userSpaceOnUse" color-interpolation-filters="sRGB">
<feFlood flood-opacity="0" result="BackgroundImageFix"/>
<feColorMatrix in="SourceAlpha" type="matrix" values="0 0 0 0 0 0 0 0 0 0 0 0 0 0 0 0 0 0 127 0" result="hardAlpha"/>
<feOffset dy="4"/>
<feGaussianBlur stdDeviation="50"/>
<feComposite in2="hardAlpha" operator="out"/>
<feColorMatrix type="matrix" values="0 0 0 0 0 0 0 0 0 0 0 0 0 0 0 0 0 0 0.5 0"/>
<feBlend mode="normal" in2="BackgroundImageFix" result="effect1_dropShadow_810_10"/>
<feColorMatrix in="SourceAlpha" type="matrix" values="0 0 0 0 0 0 0 0 0 0 0 0 0 0 0 0 0 0 127 0" result="hardAlpha"/>
<feOffset dy="4"/>
<feGaussianBlur stdDeviation="2"/>
<feComposite in2="hardAlpha" operator="out"/>
<feColorMatrix type="matrix" values="0 0 0 0 0 0 0 0 0 0 0 0 0 0 0 0 0 0 0.25 0"/>
<feBlend mode="normal" in2="effect1_dropShadow_810_10" result="effect2_dropShadow_810_10"/>
<feBlend mode="normal" in="SourceGraphic" in2="effect2_dropShadow_810_10" result="shape"/>
</filter>
<filter id="filter1_f_810_10" x="0" y="0" width="1775" height="1724.25" filterUnits="userSpaceOnUse" color-interpolation-filters="sRGB">
<feFlood flood-opacity="0" result="BackgroundImageFix"/>
<feBlend mode="normal" in="SourceGraphic" in2="BackgroundImageFix" result="shape"/>
<feGaussianBlur stdDeviation="400" result="effect1_foregroundBlur_810_10"/>
</filter>
<filter id="filter2_f_810_10" x="400" y="400" width="975" height="924.245" filterUnits="userSpaceOnUse" color-interpolation-filters="sRGB">
<feFlood flood-opacity="0" result="BackgroundImageFix"/>
<feBlend mode="normal" in="SourceGraphic" in2="BackgroundImageFix" result="shape"/>
<feGaussianBlur stdDeviation="200" result="effect1_foregroundBlur_810_10"/>
</filter>
<filter id="filter3_d_810_10" x="600" y="604" width="575" height="524.245" filterUnits="userSpaceOnUse" color-interpolation-filters="sRGB">
<feFlood flood-opacity="0" result="BackgroundImageFix"/>
<feColorMatrix in="SourceAlpha" type="matrix" values="0 0 0 0 0 0 0 0 0 0 0 0 0 0 0 0 0 0 127 0" result="hardAlpha"/>
<feOffset dy="4"/>
<feGaussianBlur stdDeviation="100"/>
<feComposite in2="hardAlpha" operator="out"/>
<feColorMatrix type="matrix" values="0 0 0 0 0 0 0 0 0 0 0 0 0 0 0 0 0 0 1 0"/>
<feBlend mode="normal" in2="BackgroundImageFix" result="effect1_dropShadow_810_10"/>
<feBlend mode="normal" in="SourceGraphic" in2="effect1_dropShadow_810_10" result="shape"/>
</filter>
<linearGradient id="paint0_linear_810_10" x1="1089" y1="695" x2="1089" y2="1039" gradientUnits="userSpaceOnUse">
<stop stop-color="#10162A"/>
<stop offset="1" stop-color="#433466"/>
</linearGradient>
<radialGradient id="paint1_radial_810_10" cx="0" cy="0" r="1" gradientUnits="userSpaceOnUse" gradientTransform="translate(1100 867.258) rotate(-89.3828) scale(324.936 613.246)">
<stop stop-color="white" stop-opacity="0"/>
<stop offset="1" stop-color="#684EE5" stop-opacity="0.25"/>
</radialGradient>
<linearGradient id="paint2_linear_810_10" x1="1089" y1="611.775" x2="1089" y2="1039.18" gradientUnits="userSpaceOnUse">
<stop offset="0.375" stop-color="#E295A6" stop-opacity="0"/>
<stop offset="1" stop-color="white" stop-opacity="0.1"/>
</linearGradient>
<linearGradient id="paint3_linear_810_10" x1="887.767" y1="885.419" x2="887.767" y2="924.245" gradientUnits="userSpaceOnUse">
<stop stop-color="#6E4FED"/>
<stop offset="0.692708" stop-color="#A96FDC"/>
</linearGradient>
<linearGradient id="paint4_linear_810_10" x1="887.5" y1="800" x2="887.5" y2="880.029" gradientUnits="userSpaceOnUse">
<stop offset="0.265625" stop-color="#ED9CA2"/>
<stop offset="0.9999" stop-color="#A96FDC"/>
<stop offset="1" stop-color="#A96FDC"/>
</linearGradient>
<linearGradient id="paint5_linear_810_10" x1="887.5" y1="800" x2="887.5" y2="880.029" gradientUnits="userSpaceOnUse">
<stop offset="0.265625" stop-color="#ED9CA2"/>
<stop offset="0.9999" stop-color="#A96FDC"/>
<stop offset="1" stop-color="#A96FDC"/>
</linearGradient>
<linearGradient id="paint6_linear_810_10" x1="887.5" y1="800" x2="887.5" y2="880.029" gradientUnits="userSpaceOnUse">
<stop offset="0.265625" stop-color="#ED9CA2"/>
<stop offset="0.9999" stop-color="#A96FDC"/>
<stop offset="1" stop-color="#A96FDC"/>
</linearGradient>
<linearGradient id="paint7_linear_810_10" x1="887.767" y1="885.419" x2="887.767" y2="924.245" gradientUnits="userSpaceOnUse">
<stop stop-color="#6E4FED"/>
<stop offset="0.692708" stop-color="#A96FDC"/>
</linearGradient>
<linearGradient id="paint8_linear_810_10" x1="887.5" y1="800" x2="887.5" y2="880.029" gradientUnits="userSpaceOnUse">
<stop offset="0.265625" stop-color="#ED9CA2"/>
<stop offset="0.9999" stop-color="#A96FDC"/>
<stop offset="1" stop-color="#A96FDC"/>
</linearGradient>
<linearGradient id="paint9_linear_810_10" x1="887.5" y1="800" x2="887.5" y2="880.029" gradientUnits="userSpaceOnUse">
<stop offset="0.265625" stop-color="#ED9CA2"/>
<stop offset="0.9999" stop-color="#A96FDC"/>
<stop offset="1" stop-color="#A96FDC"/>
</linearGradient>
<linearGradient id="paint10_linear_810_10" x1="887.5" y1="800" x2="887.5" y2="880.029" gradientUnits="userSpaceOnUse">
<stop offset="0.265625" stop-color="#ED9CA2"/>
<stop offset="0.9999" stop-color="#A96FDC"/>
<stop offset="1" stop-color="#A96FDC"/>
</linearGradient>
<linearGradient id="paint11_linear_810_10" x1="887.767" y1="885.419" x2="887.767" y2="924.245" gradientUnits="userSpaceOnUse">
<stop stop-color="#6E4FED"/>
<stop offset="0.692708" stop-color="#A96FDC"/>
</linearGradient>
<linearGradient id="paint12_linear_810_10" x1="887.5" y1="800" x2="887.5" y2="880.029" gradientUnits="userSpaceOnUse">
<stop offset="0.265625" stop-color="#ED9CA2"/>
<stop offset="0.9999" stop-color="#A96FDC"/>
<stop offset="1" stop-color="#A96FDC"/>
</linearGradient>
<linearGradient id="paint13_linear_810_10" x1="887.5" y1="800" x2="887.5" y2="880.029" gradientUnits="userSpaceOnUse">
<stop offset="0.265625" stop-color="#ED9CA2"/>
<stop offset="0.9999" stop-color="#A96FDC"/>
<stop offset="1" stop-color="#A96FDC"/>
</linearGradient>
<linearGradient id="paint14_linear_810_10" x1="887.5" y1="800" x2="887.5" y2="880.029" gradientUnits="userSpaceOnUse">
<stop offset="0.265625" stop-color="#ED9CA2"/>
<stop offset="0.9999" stop-color="#A96FDC"/>
<stop offset="1" stop-color="#A96FDC"/>
</linearGradient>
</defs>
</svg>

<svg width="1328" height="344" viewBox="0 0 1328 344" fill="none" xmlns="http://www.w3.org/2000/svg">
<rect width="1328" height="344" fill="#E5E5E5"/>
<rect width="1328" height="344" fill="url(#paint0_linear_0_1)"/>
<rect width="1328" height="344" fill="url(#paint1_radial_0_1)" fill-opacity="0.01"/>
<path fill-rule="evenodd" clip-rule="evenodd" d="M355.335 0L204.138 183.314H316.893L433.142 0H438.864L322.615 183.314H436.955L519.328 0H524.698L442.325 183.314H552.622L599.555 0H604.676L557.744 183.314H664.172L668.855 0H673.856L669.173 183.314H777.022L739.835 0H744.912L782.099 183.314H888.565L812.105 0H817.424L893.884 183.314H1001.39L885.151 0H890.873L1007.11 183.314H1123.1L969.265 0H975.495L1129.33 183.314H1238.96L1052.45 0H1059.21L1245.72 183.314H1328V188.314H1250.81L1283.04 219.989H1328V224.989H1288.13L1328 264.18V270.823L1326.58 269.423H1201.59L1240.01 315.204H1328V320.204H1244.2L1264.33 344.184H1258.1L1237.97 320.204H1093.91L1109.12 344.184H1103.4L1088.19 320.204H950.98L960.982 344.184H955.663L945.661 320.204H809.868L814.733 344.184H809.656L804.791 320.204H665.676L665.063 344.184H660.062L660.674 320.204H522.696L516.557 344.184H511.435L517.575 320.204H380.813L370.037 344.184H364.668L375.443 320.204H235.807L220.6 344.184H214.877L230.084 320.204H91.231L71.4523 344.184H65.2434L85.0221 320.204H0V315.204H89.1461L126.906 269.423H9.12077L0 278.523V271.827L2.41005 269.423H0V264.423H7.4214L46.9444 224.989H0V219.989H51.9558L83.7032 188.314H0V183.314H88.7145L272.445 0H279.155L95.4252 183.314H197.929L349.126 0H355.335ZM665.803 315.204H803.777L794.49 269.423H666.973L665.803 315.204ZM661.972 269.423L660.802 315.204H523.977L535.698 269.423H661.972ZM667.101 264.423H793.476L785.476 224.989H668.108L667.101 264.423ZM663.107 224.989L662.099 264.423H536.978L547.074 224.989H663.107ZM668.236 219.989H784.462L778.036 188.314H669.045L668.236 219.989ZM664.044 188.314L663.235 219.989H548.354L556.464 188.314H664.044ZM790.553 224.989L798.552 264.423H922.395L905.947 224.989H790.553ZM799.567 269.423L808.854 315.204H943.575L924.48 269.423H799.567ZM783.113 188.314L789.539 219.989H903.862L890.65 188.314H783.113ZM948.895 315.204H1085.02L1055.99 269.423H929.8L948.895 315.204ZM927.714 264.423H1052.82L1027.82 224.989H911.267L927.714 264.423ZM909.181 219.989H1024.65L1004.56 188.314H895.969L909.181 219.989ZM1133.52 188.314H1244.05L1276.28 219.989H1160.1L1133.52 188.314ZM1164.3 224.989H1281.37L1321.49 264.423H1197.39L1164.3 224.989ZM1233.78 315.204L1195.36 269.423H1061.71L1090.74 315.204H1233.78ZM1191.16 264.423L1158.07 224.989H1033.54L1058.54 264.423H1191.16ZM1153.87 219.989L1127.29 188.314H1010.28L1030.37 219.989H1153.87ZM518.855 315.204L530.576 269.423H403.632L383.06 315.204H518.855ZM531.856 264.423L541.952 224.989H423.598L405.878 264.423H531.856ZM543.232 219.989L551.342 188.314H440.078L425.845 219.989H543.232ZM319.445 188.314H434.709L420.475 219.989H299.358L319.445 188.314ZM296.187 224.989H418.228L400.509 264.423H271.18L296.187 224.989ZM268.009 269.423H398.262L377.69 315.204H238.977L268.009 269.423ZM313.722 188.314H200.014L173.888 219.989H293.635L313.722 188.314ZM193.805 188.314H90.4139L58.6665 219.989H167.679L193.805 188.314ZM14.1321 264.423L53.6551 224.989H163.555L131.03 264.423H14.1321ZM137.239 264.423L169.764 224.989H290.465L265.458 264.423H137.239ZM262.287 269.423L233.255 315.204H95.355L133.115 269.423H262.287Z" fill="url(#paint2_linear_0_1)"/>
<g filter="url(#filter0_dd_0_1)">
<path d="M585.379 131.273H607.148L625.614 176.301H626.466L644.932 131.273H666.7V204H649.584V159.327H648.98L631.509 203.538H620.571L603.099 159.078H602.496V204H585.379V131.273ZM677.664 204V149.455H695.029V204H677.664ZM686.365 143.098C683.926 143.098 681.831 142.293 680.079 140.683C678.327 139.05 677.451 137.085 677.451 134.788C677.451 132.516 678.327 130.574 680.079 128.964C681.831 127.331 683.926 126.514 686.365 126.514C688.827 126.514 690.922 127.331 692.65 128.964C694.402 130.574 695.278 132.516 695.278 134.788C695.278 137.085 694.402 139.05 692.65 140.683C690.922 142.293 688.827 143.098 686.365 143.098ZM723.447 131.273V204H706.082V131.273H723.447ZM751.865 131.273V204H734.5V131.273H751.865ZM762.918 204V149.455H780.283V204H762.918ZM771.619 143.098C769.18 143.098 767.085 142.293 765.333 140.683C763.581 139.05 762.705 137.085 762.705 134.788C762.705 132.516 763.581 130.574 765.333 128.964C767.085 127.331 769.18 126.514 771.619 126.514C774.081 126.514 776.176 127.331 777.904 128.964C779.656 130.574 780.532 132.516 780.532 134.788C780.532 137.085 779.656 139.05 777.904 140.683C776.176 142.293 774.081 143.098 771.619 143.098ZM816.798 205.03C811.069 205.03 806.145 203.858 802.025 201.514C797.93 199.147 794.769 195.856 792.544 191.642C790.342 187.404 789.241 182.492 789.241 176.905C789.241 171.294 790.342 166.382 792.544 162.168C794.769 157.93 797.93 154.639 802.025 152.295C806.145 149.928 811.069 148.744 816.798 148.744C822.527 148.744 827.44 149.928 831.535 152.295C835.654 154.639 838.815 157.93 841.017 162.168C843.242 166.382 844.355 171.294 844.355 176.905C844.355 182.492 843.242 187.404 841.017 191.642C838.815 195.856 835.654 199.147 831.535 201.514C827.44 203.858 822.527 205.03 816.798 205.03ZM816.904 191.926C818.988 191.926 820.752 191.287 822.196 190.009C823.64 188.73 824.741 186.955 825.498 184.682C826.279 182.409 826.67 179.781 826.67 176.798C826.67 173.768 826.279 171.116 825.498 168.844C824.741 166.571 823.64 164.795 822.196 163.517C820.752 162.239 818.988 161.599 816.904 161.599C814.75 161.599 812.927 162.239 811.436 163.517C809.968 164.795 808.843 166.571 808.062 168.844C807.305 171.116 806.926 173.768 806.926 176.798C806.926 179.781 807.305 182.409 808.062 184.682C808.843 186.955 809.968 188.73 811.436 190.009C812.927 191.287 814.75 191.926 816.904 191.926ZM870.615 172.892V204H853.25V149.455H869.763V159.469H870.367C871.574 156.131 873.634 153.515 876.546 151.621C879.458 149.703 882.926 148.744 886.951 148.744C890.786 148.744 894.112 149.608 896.929 151.337C899.77 153.041 901.972 155.432 903.534 158.51C905.121 161.564 905.902 165.139 905.878 169.234V204H888.513V172.643C888.537 169.613 887.767 167.246 886.205 165.541C884.666 163.837 882.524 162.984 879.777 162.984C877.954 162.984 876.345 163.387 874.948 164.192C873.575 164.973 872.509 166.098 871.752 167.565C871.018 169.033 870.639 170.809 870.615 172.892Z" fill="white"/>
</g>
<g filter="url(#filter1_f_0_1)">
<path fill-rule="evenodd" clip-rule="evenodd" d="M419.43 209.832C427.481 198.309 443.865 190.419 462.767 190.419C481.669 190.419 498.054 198.309 506.105 209.832C498.054 221.356 481.669 229.245 462.767 229.245C443.865 229.245 427.481 221.356 419.43 209.832Z" fill="url(#paint3_linear_0_1)" fill-opacity="0.5"/>
<path d="M419.138 124.207C427.183 112.805 443.557 105 462.447 105C481.338 105 497.711 112.805 505.757 124.207C497.711 135.609 481.338 143.414 462.447 143.414C443.557 143.414 427.183 135.609 419.138 124.207Z" fill="url(#paint4_linear_0_1)" fill-opacity="0.5"/>
<path d="M463.275 167.35C451.569 178.656 435.692 185.008 419.138 185.008C402.583 185.008 386.706 178.656 375 167.35L419.138 124.207L463.275 167.35Z" fill="url(#paint5_linear_0_1)" fill-opacity="0.5"/>
<path d="M550 167.371C538.294 178.677 522.417 185.029 505.862 185.029C489.308 185.029 473.431 178.677 461.725 167.371L505.862 124.207L550 167.371Z" fill="url(#paint6_linear_0_1)" fill-opacity="0.5"/>
</g>
<g filter="url(#filter2_f_0_1)">
<path fill-rule="evenodd" clip-rule="evenodd" d="M419.43 209.832C427.481 198.309 443.865 190.419 462.767 190.419C481.669 190.419 498.054 198.309 506.105 209.832C498.054 221.356 481.669 229.245 462.767 229.245C443.865 229.245 427.481 221.356 419.43 209.832Z" fill="url(#paint7_linear_0_1)"/>
<path d="M419.138 124.207C427.183 112.805 443.557 105 462.447 105C481.338 105 497.711 112.805 505.757 124.207C497.711 135.609 481.338 143.414 462.447 143.414C443.557 143.414 427.183 135.609 419.138 124.207Z" fill="url(#paint8_linear_0_1)"/>
<path d="M463.275 167.35C451.569 178.656 435.692 185.008 419.138 185.008C402.583 185.008 386.706 178.656 375 167.35L419.138 124.207L463.275 167.35Z" fill="url(#paint9_linear_0_1)"/>
<path d="M550 167.371C538.294 178.677 522.417 185.029 505.862 185.029C489.308 185.029 473.431 178.677 461.725 167.371L505.862 124.207L550 167.371Z" fill="url(#paint10_linear_0_1)"/>
</g>
<g filter="url(#filter3_d_0_1)">
<path fill-rule="evenodd" clip-rule="evenodd" d="M419.43 209.832C427.481 198.309 443.865 190.419 462.767 190.419C481.669 190.419 498.054 198.309 506.105 209.832C498.054 221.356 481.669 229.245 462.767 229.245C443.865 229.245 427.481 221.356 419.43 209.832Z" fill="url(#paint11_linear_0_1)"/>
<path d="M419.138 124.207C427.183 112.805 443.557 105 462.447 105C481.338 105 497.711 112.805 505.757 124.207C497.711 135.609 481.338 143.414 462.447 143.414C443.557 143.414 427.183 135.609 419.138 124.207Z" fill="url(#paint12_linear_0_1)"/>
<path d="M463.275 167.35C451.569 178.656 435.692 185.008 419.138 185.008C402.583 185.008 386.706 178.656 375 167.35L419.138 124.207L463.275 167.35Z" fill="url(#paint13_linear_0_1)"/>
<path d="M550 167.371C538.294 178.677 522.417 185.029 505.862 185.029C489.308 185.029 473.431 178.677 461.725 167.371L505.862 124.207L550 167.371Z" fill="url(#paint14_linear_0_1)"/>
</g>
<defs>
<filter id="filter0_dd_0_1" x="485.379" y="30.5142" width="520.534" height="278.516" filterUnits="userSpaceOnUse" color-interpolation-filters="sRGB">
<feFlood flood-opacity="0" result="BackgroundImageFix"/>
<feColorMatrix in="SourceAlpha" type="matrix" values="0 0 0 0 0 0 0 0 0 0 0 0 0 0 0 0 0 0 127 0" result="hardAlpha"/>
<feOffset dy="4"/>
<feGaussianBlur stdDeviation="50"/>
<feComposite in2="hardAlpha" operator="out"/>
<feColorMatrix type="matrix" values="0 0 0 0 0 0 0 0 0 0 0 0 0 0 0 0 0 0 0.5 0"/>
<feBlend mode="normal" in2="BackgroundImageFix" result="effect1_dropShadow_0_1"/>
<feColorMatrix in="SourceAlpha" type="matrix" values="0 0 0 0 0 0 0 0 0 0 0 0 0 0 0 0 0 0 127 0" result="hardAlpha"/>
<feOffset dy="4"/>
<feGaussianBlur stdDeviation="2"/>
<feComposite in2="hardAlpha" operator="out"/>
<feColorMatrix type="matrix" values="0 0 0 0 0 0 0 0 0 0 0 0 0 0 0 0 0 0 0.25 0"/>
<feBlend mode="normal" in2="effect1_dropShadow_0_1" result="effect2_dropShadow_0_1"/>
<feBlend mode="normal" in="SourceGraphic" in2="effect2_dropShadow_0_1" result="shape"/>
</filter>
<filter id="filter1_f_0_1" x="-425" y="-695" width="1775" height="1724.25" filterUnits="userSpaceOnUse" color-interpolation-filters="sRGB">
<feFlood flood-opacity="0" result="BackgroundImageFix"/>
<feBlend mode="normal" in="SourceGraphic" in2="BackgroundImageFix" result="shape"/>
<feGaussianBlur stdDeviation="400" result="effect1_foregroundBlur_0_1"/>
</filter>
<filter id="filter2_f_0_1" x="-25" y="-295" width="975" height="924.245" filterUnits="userSpaceOnUse" color-interpolation-filters="sRGB">
<feFlood flood-opacity="0" result="BackgroundImageFix"/>
<feBlend mode="normal" in="SourceGraphic" in2="BackgroundImageFix" result="shape"/>
<feGaussianBlur stdDeviation="200" result="effect1_foregroundBlur_0_1"/>
</filter>
<filter id="filter3_d_0_1" x="175" y="-91" width="575" height="524.245" filterUnits="userSpaceOnUse" color-interpolation-filters="sRGB">
<feFlood flood-opacity="0" result="BackgroundImageFix"/>
<feColorMatrix in="SourceAlpha" type="matrix" values="0 0 0 0 0 0 0 0 0 0 0 0 0 0 0 0 0 0 127 0" result="hardAlpha"/>
<feOffset dy="4"/>
<feGaussianBlur stdDeviation="100"/>
<feComposite in2="hardAlpha" operator="out"/>
<feColorMatrix type="matrix" values="0 0 0 0 0 0 0 0 0 0 0 0 0 0 0 0 0 0 1 0"/>
<feBlend mode="normal" in2="BackgroundImageFix" result="effect1_dropShadow_0_1"/>
<feBlend mode="normal" in="SourceGraphic" in2="effect1_dropShadow_0_1" result="shape"/>
</filter>
<linearGradient id="paint0_linear_0_1" x1="664" y1="0" x2="664" y2="344" gradientUnits="userSpaceOnUse">
<stop stop-color="#10162A"/>
<stop offset="1" stop-color="#433466"/>
</linearGradient>
<radialGradient id="paint1_radial_0_1" cx="0" cy="0" r="1" gradientUnits="userSpaceOnUse" gradientTransform="translate(675 172.258) rotate(-89.3828) scale(324.936 613.246)">
<stop stop-color="white" stop-opacity="0"/>
<stop offset="1" stop-color="#684EE5" stop-opacity="0.25"/>
</radialGradient>
<linearGradient id="paint2_linear_0_1" x1="664" y1="-83.2248" x2="664" y2="344.184" gradientUnits="userSpaceOnUse">
<stop offset="0.375" stop-color="#E295A6" stop-opacity="0"/>
<stop offset="1" stop-color="white" stop-opacity="0.1"/>
</linearGradient>
<linearGradient id="paint3_linear_0_1" x1="462.767" y1="190.419" x2="462.767" y2="229.245" gradientUnits="userSpaceOnUse">
<stop stop-color="#6E4FED"/>
<stop offset="0.692708" stop-color="#A96FDC"/>
</linearGradient>
<linearGradient id="paint4_linear_0_1" x1="462.5" y1="105" x2="462.5" y2="185.029" gradientUnits="userSpaceOnUse">
<stop offset="0.265625" stop-color="#ED9CA2"/>
<stop offset="0.9999" stop-color="#A96FDC"/>
<stop offset="1" stop-color="#A96FDC"/>
</linearGradient>
<linearGradient id="paint5_linear_0_1" x1="462.5" y1="105" x2="462.5" y2="185.029" gradientUnits="userSpaceOnUse">
<stop offset="0.265625" stop-color="#ED9CA2"/>
<stop offset="0.9999" stop-color="#A96FDC"/>
<stop offset="1" stop-color="#A96FDC"/>
</linearGradient>
<linearGradient id="paint6_linear_0_1" x1="462.5" y1="105" x2="462.5" y2="185.029" gradientUnits="userSpaceOnUse">
<stop offset="0.265625" stop-color="#ED9CA2"/>
<stop offset="0.9999" stop-color="#A96FDC"/>
<stop offset="1" stop-color="#A96FDC"/>
</linearGradient>
<linearGradient id="paint7_linear_0_1" x1="462.767" y1="190.419" x2="462.767" y2="229.245" gradientUnits="userSpaceOnUse">
<stop stop-color="#6E4FED"/>
<stop offset="0.692708" stop-color="#A96FDC"/>
</linearGradient>
<linearGradient id="paint8_linear_0_1" x1="462.5" y1="105" x2="462.5" y2="185.029" gradientUnits="userSpaceOnUse">
<stop offset="0.265625" stop-color="#ED9CA2"/>
<stop offset="0.9999" stop-color="#A96FDC"/>
<stop offset="1" stop-color="#A96FDC"/>
</linearGradient>
<linearGradient id="paint9_linear_0_1" x1="462.5" y1="105" x2="462.5" y2="185.029" gradientUnits="userSpaceOnUse">
<stop offset="0.265625" stop-color="#ED9CA2"/>
<stop offset="0.9999" stop-color="#A96FDC"/>
<stop offset="1" stop-color="#A96FDC"/>
</linearGradient>
<linearGradient id="paint10_linear_0_1" x1="462.5" y1="105" x2="462.5" y2="185.029" gradientUnits="userSpaceOnUse">
<stop offset="0.265625" stop-color="#ED9CA2"/>
<stop offset="0.9999" stop-color="#A96FDC"/>
<stop offset="1" stop-color="#A96FDC"/>
</linearGradient>
<linearGradient id="paint11_linear_0_1" x1="462.767" y1="190.419" x2="462.767" y2="229.245" gradientUnits="userSpaceOnUse">
<stop stop-color="#6E4FED"/>
<stop offset="0.692708" stop-color="#A96FDC"/>
</linearGradient>
<linearGradient id="paint12_linear_0_1" x1="462.5" y1="105" x2="462.5" y2="185.029" gradientUnits="userSpaceOnUse">
<stop offset="0.265625" stop-color="#ED9CA2"/>
<stop offset="0.9999" stop-color="#A96FDC"/>
<stop offset="1" stop-color="#A96FDC"/>
</linearGradient>
<linearGradient id="paint13_linear_0_1" x1="462.5" y1="105" x2="462.5" y2="185.029" gradientUnits="userSpaceOnUse">
<stop offset="0.265625" stop-color="#ED9CA2"/>
<stop offset="0.9999" stop-color="#A96FDC"/>
<stop offset="1" stop-color="#A96FDC"/>
</linearGradient>
<linearGradient id="paint14_linear_0_1" x1="462.5" y1="105" x2="462.5" y2="185.029" gradientUnits="userSpaceOnUse">
<stop offset="0.265625" stop-color="#ED9CA2"/>
<stop offset="0.9999" stop-color="#A96FDC"/>
<stop offset="1" stop-color="#A96FDC"/>
</linearGradient>
</defs>
</svg>
