<svg width="1328" height="345" viewBox="0 0 1328 345" fill="none" xmlns="http://www.w3.org/2000/svg">
<rect width="1328" height="344" fill="#111111"/>
<rect width="1328" height="344" fill="url(#paint0_radial_303_54)" fill-opacity="0.01"/>
<path fill-rule="evenodd" clip-rule="evenodd" d="M355.335 0L204.138 183.314H316.893L433.142 0H438.864L322.615 183.314H436.955L519.328 0H524.698L442.325 183.314H552.622L599.555 0H604.676L557.744 183.314H664.172L668.855 0H673.856L669.173 183.314H777.022L739.835 0H744.912L782.099 183.314H888.565L812.105 0H817.424L893.884 183.314H1001.39L885.151 0H890.873L1007.11 183.314H1123.1L969.265 0H975.495L1129.33 183.314H1238.96L1052.45 0H1059.21L1245.72 183.314H1328V188.314H1250.81L1283.04 219.989H1328V224.989H1288.13L1328 264.18V270.823L1326.58 269.423H1201.59L1240.01 315.204H1328V320.204H1244.2L1264.33 344.184H1258.1L1237.97 320.204H1093.91L1109.12 344.184H1103.4L1088.19 320.204H950.98L960.982 344.184H955.663L945.661 320.204H809.868L814.733 344.184H809.656L804.791 320.204H665.676L665.063 344.184H660.062L660.674 320.204H522.696L516.557 344.184H511.435L517.575 320.204H380.813L370.037 344.184H364.668L375.443 320.204H235.807L220.6 344.184H214.877L230.084 320.204H91.231L71.4523 344.184H65.2434L85.0221 320.204H0V315.204H89.1461L126.906 269.423H9.12077L0 278.523V271.827L2.41005 269.423H0V264.423H7.4214L46.9444 224.989H0V219.989H51.9558L83.7032 188.314H0V183.314H88.7145L272.445 0H279.155L95.4252 183.314H197.929L349.126 0H355.335ZM665.803 315.204H803.777L794.49 269.423H666.973L665.803 315.204ZM661.972 269.423L660.802 315.204H523.977L535.698 269.423H661.972ZM667.101 264.423H793.476L785.476 224.989H668.108L667.101 264.423ZM663.107 224.989L662.099 264.423H536.978L547.074 224.989H663.107ZM668.236 219.989H784.462L778.036 188.314H669.045L668.236 219.989ZM664.044 188.314L663.235 219.989H548.354L556.464 188.314H664.044ZM790.553 224.989L798.552 264.423H922.395L905.947 224.989H790.553ZM799.567 269.423L808.854 315.204H943.575L924.48 269.423H799.567ZM783.113 188.314L789.539 219.989H903.862L890.65 188.314H783.113ZM948.895 315.204H1085.02L1055.99 269.423H929.8L948.895 315.204ZM927.714 264.423H1052.82L1027.82 224.989H911.267L927.714 264.423ZM909.181 219.989H1024.65L1004.56 188.314H895.969L909.181 219.989ZM1133.52 188.314H1244.05L1276.28 219.989H1160.1L1133.52 188.314ZM1164.3 224.989H1281.37L1321.49 264.423H1197.39L1164.3 224.989ZM1233.78 315.204L1195.36 269.423H1061.71L1090.74 315.204H1233.78ZM1191.16 264.423L1158.07 224.989H1033.54L1058.54 264.423H1191.16ZM1153.87 219.989L1127.29 188.314H1010.28L1030.37 219.989H1153.87ZM518.855 315.204L530.576 269.423H403.632L383.06 315.204H518.855ZM531.856 264.423L541.952 224.989H423.598L405.878 264.423H531.856ZM543.232 219.989L551.342 188.314H440.078L425.845 219.989H543.232ZM319.445 188.314H434.709L420.475 219.989H299.358L319.445 188.314ZM296.187 224.989H418.228L400.509 264.423H271.18L296.187 224.989ZM268.009 269.423H398.262L377.69 315.204H238.977L268.009 269.423ZM313.722 188.314H200.014L173.888 219.989H293.635L313.722 188.314ZM193.805 188.314H90.4139L58.6665 219.989H167.679L193.805 188.314ZM14.1321 264.423L53.6551 224.989H163.555L131.03 264.423H14.1321ZM137.239 264.423L169.764 224.989H290.465L265.458 264.423H137.239ZM262.287 269.423L233.255 315.204H95.355L133.115 269.423H262.287Z" fill="url(#paint1_linear_303_54)"/>
<g filter="url(#filter0_d_303_54)">
<path d="M470.577 87.4545L481.763 125.913H482.19L493.376 87.4545H510.102L492.097 142H471.856L453.852 87.4545H470.577ZM511.818 142V101.091H526.52V142H511.818ZM519.169 96.8295C517.18 96.8295 515.476 96.1726 514.055 94.8587C512.635 93.5447 511.925 91.9645 511.925 90.1179C511.925 88.2713 512.635 86.6911 514.055 85.3771C515.476 84.0632 517.18 83.4062 519.169 83.4062C521.175 83.4062 522.88 84.0632 524.283 85.3771C525.703 86.6911 526.413 88.2713 526.413 90.1179C526.413 91.9645 525.703 93.5447 524.283 94.8587C522.88 96.1726 521.175 96.8295 519.169 96.8295ZM530.26 142V101.091H544.536V108.868H544.962C545.708 105.991 546.889 103.887 548.504 102.556C550.138 101.224 552.047 100.558 554.231 100.558C554.87 100.558 555.5 100.612 556.122 100.718C556.761 100.807 557.373 100.94 557.959 101.118V113.662C557.231 113.413 556.335 113.227 555.269 113.103C554.204 112.978 553.29 112.916 552.526 112.916C551.088 112.916 549.792 113.245 548.638 113.902C547.501 114.541 546.605 115.446 545.948 116.618C545.291 117.772 544.962 119.131 544.962 120.693V142H530.26ZM585.111 101.091V111.744H558.158V101.091H585.111ZM563.378 91.2898H578.08V128.843C578.08 129.411 578.177 129.891 578.373 130.281C578.568 130.654 578.87 130.938 579.278 131.134C579.686 131.311 580.21 131.4 580.849 131.4C581.293 131.4 581.808 131.347 582.394 131.24C582.998 131.134 583.442 131.045 583.726 130.974L585.857 141.308C585.2 141.503 584.259 141.743 583.033 142.027C581.826 142.311 580.388 142.497 578.719 142.586C575.345 142.763 572.513 142.417 570.223 141.547C567.932 140.659 566.21 139.266 565.056 137.366C563.902 135.466 563.342 133.087 563.378 130.228V91.2898ZM613.887 124.102V101.091H628.589V142H614.633V134.223H614.207C613.319 136.833 611.765 138.875 609.546 140.349C607.326 141.805 604.69 142.533 601.636 142.533C598.777 142.533 596.273 141.876 594.125 140.562C591.994 139.248 590.334 137.437 589.144 135.129C587.973 132.82 587.378 130.175 587.36 127.192V101.091H602.062V124.102C602.08 126.126 602.594 127.716 603.606 128.87C604.636 130.024 606.075 130.601 607.921 130.601C609.146 130.601 610.203 130.343 611.091 129.828C611.996 129.296 612.689 128.55 613.168 127.591C613.665 126.615 613.905 125.452 613.887 124.102ZM643.715 142.639C641.105 142.639 638.797 142.213 636.791 141.361C634.802 140.491 633.239 139.177 632.103 137.419C630.967 135.661 630.398 133.424 630.398 130.707C630.398 128.47 630.78 126.561 631.544 124.981C632.307 123.383 633.373 122.078 634.74 121.066C636.107 120.054 637.696 119.282 639.507 118.749C641.336 118.216 643.307 117.87 645.42 117.71C647.71 117.533 649.548 117.32 650.933 117.071C652.336 116.805 653.348 116.441 653.969 115.979C654.591 115.5 654.901 114.869 654.901 114.088V113.982C654.901 112.916 654.493 112.099 653.676 111.531C652.859 110.963 651.812 110.679 650.533 110.679C649.131 110.679 647.985 110.99 647.098 111.611C646.228 112.215 645.704 113.147 645.526 114.408H631.996C632.174 111.922 632.964 109.631 634.367 107.536C635.787 105.423 637.856 103.737 640.572 102.476C643.289 101.197 646.68 100.558 650.746 100.558C653.676 100.558 656.304 100.904 658.63 101.597C660.956 102.272 662.936 103.222 664.569 104.447C666.203 105.654 667.446 107.075 668.298 108.708C669.168 110.324 669.603 112.082 669.603 113.982V142H655.86V136.247H655.541C654.724 137.774 653.729 139.008 652.558 139.949C651.403 140.89 650.081 141.574 648.589 142C647.115 142.426 645.491 142.639 643.715 142.639ZM648.509 133.371C649.628 133.371 650.675 133.14 651.652 132.678C652.646 132.217 653.454 131.551 654.076 130.681C654.697 129.811 655.008 128.754 655.008 127.511V124.102C654.617 124.262 654.2 124.413 653.756 124.555C653.33 124.697 652.868 124.83 652.371 124.955C651.892 125.079 651.377 125.194 650.826 125.301C650.294 125.407 649.734 125.505 649.148 125.594C648.012 125.771 647.08 126.064 646.352 126.473C645.642 126.863 645.109 127.352 644.754 127.938C644.417 128.506 644.248 129.145 644.248 129.855C644.248 130.991 644.647 131.862 645.446 132.465C646.245 133.069 647.266 133.371 648.509 133.371ZM687.579 87.4545V142H672.878V87.4545H687.579ZM723.286 142H702.298V87.4545H723.072C728.683 87.4545 733.531 88.5465 737.614 90.7305C741.716 92.8967 744.876 96.0217 747.096 100.105C749.333 104.172 750.452 109.045 750.452 114.727C750.452 120.409 749.342 125.292 747.123 129.376C744.903 133.442 741.76 136.567 737.694 138.751C733.628 140.917 728.825 142 723.286 142ZM717.107 129.429H722.753C725.452 129.429 727.751 128.994 729.651 128.124C731.569 127.254 733.025 125.754 734.019 123.623C735.031 121.492 735.537 118.527 735.537 114.727C735.537 110.928 735.022 107.962 733.992 105.832C732.98 103.701 731.489 102.201 729.518 101.331C727.565 100.461 725.168 100.026 722.327 100.026H717.107V129.429ZM806.394 114.727C806.394 120.8 805.213 125.922 802.852 130.095C800.49 134.25 797.303 137.401 793.29 139.55C789.278 141.68 784.803 142.746 779.867 142.746C774.896 142.746 770.403 141.672 766.391 139.523C762.396 137.357 759.217 134.196 756.856 130.042C754.512 125.869 753.34 120.764 753.34 114.727C753.34 108.655 754.512 103.541 756.856 99.3864C759.217 95.2138 762.396 92.0621 766.391 89.9315C770.403 87.783 774.896 86.7088 779.867 86.7088C784.803 86.7088 789.278 87.783 793.29 89.9315C797.303 92.0621 800.49 95.2138 802.852 99.3864C805.213 103.541 806.394 108.655 806.394 114.727ZM791.16 114.727C791.16 111.46 790.725 108.708 789.855 106.471C789.002 104.216 787.733 102.511 786.046 101.357C784.377 100.185 782.317 99.5994 779.867 99.5994C777.417 99.5994 775.348 100.185 773.662 101.357C771.992 102.511 770.723 104.216 769.853 106.471C769.001 108.708 768.575 111.46 768.575 114.727C768.575 117.994 769.001 120.755 769.853 123.01C770.723 125.248 771.992 126.952 773.662 128.124C775.348 129.278 777.417 129.855 779.867 129.855C782.317 129.855 784.377 129.278 786.046 128.124C787.733 126.952 789.002 125.248 789.855 123.01C790.725 120.755 791.16 117.994 791.16 114.727ZM809.496 87.4545H827.926L840.604 118.349H841.243L853.92 87.4545H872.351V142H857.862V110.466H857.436L845.291 141.574H836.555L824.41 110.253H823.984V142H809.496V87.4545Z" fill="white"/>
<path d="M415.849 233V192.091H430.551V233H415.849ZM423.2 187.83C421.211 187.83 419.506 187.173 418.086 185.859C416.666 184.545 415.955 182.964 415.955 181.118C415.955 179.271 416.666 177.691 418.086 176.377C419.506 175.063 421.211 174.406 423.2 174.406C425.206 174.406 426.911 175.063 428.313 176.377C429.734 177.691 430.444 179.271 430.444 181.118C430.444 182.964 429.734 184.545 428.313 185.859C426.911 187.173 425.206 187.83 423.2 187.83ZM448.993 209.989V233H434.291V192.091H448.247V199.868H448.673C449.561 197.276 451.124 195.243 453.361 193.769C455.616 192.295 458.244 191.558 461.244 191.558C464.138 191.558 466.651 192.224 468.782 193.556C470.93 194.87 472.59 196.681 473.762 198.989C474.952 201.297 475.538 203.934 475.52 206.899V233H460.818V209.989C460.836 207.964 460.321 206.375 459.273 205.221C458.244 204.067 456.805 203.49 454.959 203.49C453.751 203.49 452.695 203.756 451.789 204.289C450.902 204.804 450.218 205.55 449.739 206.526C449.259 207.485 449.011 208.639 448.993 209.989ZM503.424 192.091V202.744H476.471V192.091H503.424ZM481.691 182.29H496.393V219.843C496.393 220.411 496.49 220.891 496.686 221.281C496.881 221.654 497.183 221.938 497.591 222.134C497.999 222.311 498.523 222.4 499.162 222.4C499.606 222.4 500.121 222.347 500.707 222.24C501.311 222.134 501.755 222.045 502.039 221.974L504.17 232.308C503.513 232.503 502.572 232.743 501.346 233.027C500.139 233.311 498.701 233.497 497.032 233.586C493.658 233.763 490.826 233.417 488.536 232.547C486.245 231.659 484.523 230.266 483.369 228.366C482.215 226.466 481.655 224.087 481.691 221.228V182.29ZM524.942 233.746C520.503 233.746 516.704 232.867 513.543 231.109C510.383 229.333 507.959 226.865 506.272 223.705C504.585 220.527 503.742 216.842 503.742 212.652C503.742 208.462 504.585 204.786 506.272 201.626C507.959 198.447 510.383 195.979 513.543 194.222C516.704 192.446 520.503 191.558 524.942 191.558C529.381 191.558 533.181 192.446 536.342 194.222C539.502 195.979 541.926 198.447 543.612 201.626C545.299 204.786 546.143 208.462 546.143 212.652C546.143 216.842 545.299 220.527 543.612 223.705C541.926 226.865 539.502 229.333 536.342 231.109C533.181 232.867 529.381 233.746 524.942 233.746ZM525.049 222.879C526.292 222.879 527.366 222.462 528.272 221.627C529.177 220.793 529.878 219.603 530.376 218.059C530.873 216.514 531.121 214.676 531.121 212.545C531.121 210.397 530.873 208.559 530.376 207.032C529.878 205.488 529.177 204.298 528.272 203.463C527.366 202.629 526.292 202.212 525.049 202.212C523.735 202.212 522.608 202.629 521.666 203.463C520.725 204.298 520.006 205.488 519.509 207.032C519.012 208.559 518.763 210.397 518.763 212.545C518.763 214.676 519.012 216.514 519.509 218.059C520.006 219.603 520.725 220.793 521.666 221.627C522.608 222.462 523.735 222.879 525.049 222.879ZM583.946 192.091V202.744H556.993V192.091H583.946ZM562.213 182.29H576.915V219.843C576.915 220.411 577.013 220.891 577.208 221.281C577.403 221.654 577.705 221.938 578.114 222.134C578.522 222.311 579.046 222.4 579.685 222.4C580.129 222.4 580.644 222.347 581.23 222.24C581.833 222.134 582.277 222.045 582.561 221.974L584.692 232.308C584.035 232.503 583.094 232.743 581.869 233.027C580.661 233.311 579.223 233.497 577.554 233.586C574.181 233.763 571.349 233.417 569.058 232.547C566.768 231.659 565.045 230.266 563.891 228.366C562.737 226.466 562.178 224.087 562.213 221.228V182.29ZM601.776 209.989V233H587.074V178.455H601.243V199.868H601.67C602.593 197.258 604.129 195.225 606.277 193.769C608.426 192.295 611.009 191.558 614.028 191.558C616.922 191.558 619.434 192.215 621.565 193.529C623.713 194.843 625.373 196.654 626.545 198.962C627.735 201.271 628.321 203.916 628.303 206.899V233H613.601V209.989C613.619 207.964 613.113 206.375 612.083 205.221C611.071 204.067 609.624 203.49 607.742 203.49C606.552 203.49 605.505 203.756 604.599 204.289C603.711 204.804 603.019 205.55 602.522 206.526C602.042 207.485 601.794 208.639 601.776 209.989ZM651.413 233.746C647.045 233.746 643.281 232.911 640.12 231.242C636.978 229.555 634.554 227.141 632.849 223.998C631.163 220.837 630.319 217.055 630.319 212.652C630.319 208.426 631.172 204.733 632.876 201.572C634.581 198.412 636.987 195.953 640.094 194.195C643.201 192.437 646.868 191.558 651.093 191.558C654.183 191.558 656.979 192.038 659.483 192.996C661.987 193.955 664.126 195.349 665.902 197.178C667.677 198.989 669.044 201.191 670.003 203.783C670.962 206.375 671.441 209.296 671.441 212.545V215.955H634.9V207.858H657.912C657.894 206.686 657.592 205.656 657.006 204.768C656.438 203.863 655.665 203.162 654.689 202.664C653.73 202.15 652.638 201.892 651.413 201.892C650.223 201.892 649.131 202.15 648.137 202.664C647.143 203.162 646.344 203.854 645.74 204.742C645.154 205.63 644.843 206.668 644.808 207.858V216.594C644.808 217.908 645.083 219.08 645.634 220.109C646.184 221.139 646.974 221.947 648.004 222.533C649.034 223.119 650.277 223.412 651.733 223.412C652.745 223.412 653.668 223.27 654.502 222.986C655.355 222.702 656.083 222.293 656.686 221.761C657.29 221.21 657.734 220.553 658.018 219.79H671.441C670.98 222.631 669.888 225.099 668.165 227.194C666.443 229.271 664.162 230.887 661.321 232.041C658.498 233.178 655.195 233.746 651.413 233.746ZM709.385 192.091V202.744H682.006V192.091H709.385ZM687.226 233V190.919C687.226 187.545 687.829 184.749 689.037 182.529C690.244 180.31 691.949 178.65 694.15 177.549C696.352 176.448 698.945 175.898 701.927 175.898C703.792 175.898 705.603 176.04 707.361 176.324C709.136 176.608 710.45 176.857 711.302 177.07L709.172 187.616C708.639 187.457 708.018 187.332 707.307 187.244C706.597 187.137 705.976 187.084 705.443 187.084C704.058 187.084 703.126 187.377 702.647 187.963C702.167 188.549 701.927 189.321 701.927 190.28V233H687.226ZM737.835 215.102V192.091H752.536V233H738.581V225.223H738.154C737.267 227.833 735.713 229.875 733.494 231.349C731.274 232.805 728.637 233.533 725.583 233.533C722.725 233.533 720.221 232.876 718.073 231.562C715.942 230.248 714.282 228.437 713.092 226.129C711.92 223.82 711.326 221.175 711.308 218.192V192.091H726.009V215.102C726.027 217.126 726.542 218.716 727.554 219.87C728.584 221.024 730.022 221.601 731.869 221.601C733.094 221.601 734.15 221.343 735.038 220.828C735.944 220.296 736.636 219.55 737.116 218.591C737.613 217.615 737.853 216.452 737.835 215.102ZM780.66 192.091V202.744H753.707V192.091H780.66ZM758.927 182.29H773.629V219.843C773.629 220.411 773.727 220.891 773.922 221.281C774.117 221.654 774.419 221.938 774.827 222.134C775.236 222.311 775.76 222.4 776.399 222.4C776.843 222.4 777.358 222.347 777.944 222.24C778.547 222.134 778.991 222.045 779.275 221.974L781.406 232.308C780.749 232.503 779.808 232.743 778.583 233.027C777.375 233.311 775.937 233.497 774.268 233.586C770.895 233.763 768.063 233.417 765.772 232.547C763.482 231.659 761.759 230.266 760.605 228.366C759.451 226.466 758.892 224.087 758.927 221.228V182.29ZM809.436 215.102V192.091H824.138V233H810.182V225.223H809.756C808.868 227.833 807.315 229.875 805.095 231.349C802.876 232.805 800.239 233.533 797.185 233.533C794.326 233.533 791.823 232.876 789.674 231.562C787.544 230.248 785.883 228.437 784.694 226.129C783.522 223.82 782.927 221.175 782.909 218.192V192.091H797.611V215.102C797.629 217.126 798.144 218.716 799.156 219.87C800.186 221.024 801.624 221.601 803.47 221.601C804.696 221.601 805.752 221.343 806.64 220.828C807.545 220.296 808.238 219.55 808.717 218.591C809.214 217.615 809.454 216.452 809.436 215.102ZM827.865 233V192.091H842.141V199.868H842.567C843.313 196.991 844.494 194.887 846.109 193.556C847.743 192.224 849.652 191.558 851.836 191.558C852.475 191.558 853.105 191.612 853.727 191.718C854.366 191.807 854.978 191.94 855.564 192.118V204.662C854.836 204.413 853.94 204.227 852.874 204.103C851.809 203.978 850.895 203.916 850.131 203.916C848.693 203.916 847.397 204.245 846.243 204.902C845.106 205.541 844.21 206.446 843.553 207.618C842.896 208.772 842.567 210.131 842.567 211.693V233H827.865ZM873.893 233.746C869.526 233.746 865.761 232.911 862.601 231.242C859.458 229.555 857.034 227.141 855.33 223.998C853.643 220.837 852.8 217.055 852.8 212.652C852.8 208.426 853.652 204.733 855.357 201.572C857.061 198.412 859.467 195.953 862.574 194.195C865.681 192.437 869.348 191.558 873.574 191.558C876.663 191.558 879.46 192.038 881.963 192.996C884.467 193.955 886.607 195.349 888.382 197.178C890.158 198.989 891.525 201.191 892.484 203.783C893.442 206.375 893.922 209.296 893.922 212.545V215.955H857.381V207.858H880.392C880.374 206.686 880.072 205.656 879.487 204.768C878.918 203.863 878.146 203.162 877.169 202.664C876.211 202.15 875.119 201.892 873.893 201.892C872.704 201.892 871.612 202.15 870.618 202.664C869.623 203.162 868.824 203.854 868.221 204.742C867.635 205.63 867.324 206.668 867.288 207.858V216.594C867.288 217.908 867.564 219.08 868.114 220.109C868.664 221.139 869.455 221.947 870.484 222.533C871.514 223.119 872.757 223.412 874.213 223.412C875.225 223.412 876.148 223.27 876.983 222.986C877.835 222.702 878.563 222.293 879.167 221.761C879.771 221.21 880.214 220.553 880.499 219.79H893.922C893.46 222.631 892.368 225.099 890.646 227.194C888.924 229.271 886.642 230.887 883.801 232.041C880.978 233.178 877.675 233.746 873.893 233.746ZM904.161 233.852C902.101 233.852 900.335 233.133 898.861 231.695C897.405 230.239 896.686 228.472 896.704 226.395C896.686 224.371 897.405 222.64 898.861 221.201C900.335 219.763 902.101 219.044 904.161 219.044C906.114 219.044 907.837 219.763 909.328 221.201C910.837 222.64 911.601 224.371 911.619 226.395C911.601 227.78 911.237 229.04 910.527 230.177C909.834 231.295 908.929 232.192 907.81 232.867C906.691 233.524 905.475 233.852 904.161 233.852Z" fill="url(#paint2_radial_303_54)"/>
</g>
<path fill-rule="evenodd" clip-rule="evenodd" d="M652.43 324.644C654.501 321.605 658.716 319.525 663.579 319.525C668.442 319.525 672.657 321.605 674.728 324.644C672.657 327.683 668.442 329.763 663.579 329.763C658.716 329.763 654.501 327.683 652.43 324.644Z" fill="url(#paint3_linear_303_54)"/>
<path d="M652.355 302.065C654.425 299.058 658.637 297 663.497 297C668.357 297 672.569 299.058 674.639 302.065C672.569 305.071 668.357 307.13 663.497 307.13C658.637 307.13 654.425 305.071 652.355 302.065Z" fill="url(#paint4_linear_303_54)"/>
<path d="M663.71 313.442C660.698 316.423 656.614 318.098 652.355 318.098C648.096 318.098 644.012 316.423 641 313.442L652.355 302.065L663.71 313.442Z" fill="url(#paint5_linear_303_54)"/>
<path d="M686.021 313.447C683.009 316.429 678.925 318.104 674.666 318.104C670.407 318.104 666.323 316.429 663.311 313.447L674.666 302.065L686.021 313.447Z" fill="url(#paint6_linear_303_54)"/>
<defs>
<filter id="filter0_d_303_54" x="399.849" y="77.4062" width="527.77" height="182.446" filterUnits="userSpaceOnUse" color-interpolation-filters="sRGB">
<feFlood flood-opacity="0" result="BackgroundImageFix"/>
<feColorMatrix in="SourceAlpha" type="matrix" values="0 0 0 0 0 0 0 0 0 0 0 0 0 0 0 0 0 0 127 0" result="hardAlpha"/>
<feOffset dy="10"/>
<feGaussianBlur stdDeviation="8"/>
<feComposite in2="hardAlpha" operator="out"/>
<feColorMatrix type="matrix" values="0 0 0 0 0 0 0 0 0 0 0 0 0 0 0 0 0 0 1 0"/>
<feBlend mode="normal" in2="BackgroundImageFix" result="effect1_dropShadow_303_54"/>
<feBlend mode="normal" in="SourceGraphic" in2="effect1_dropShadow_303_54" result="shape"/>
</filter>
<radialGradient id="paint0_radial_303_54" cx="0" cy="0" r="1" gradientUnits="userSpaceOnUse" gradientTransform="translate(675 172.258) rotate(-89.3828) scale(324.936 613.246)">
<stop stop-color="white" stop-opacity="0"/>
<stop offset="1" stop-color="#684EE5" stop-opacity="0.25"/>
</radialGradient>
<linearGradient id="paint1_linear_303_54" x1="664" y1="-83.2248" x2="664" y2="344.184" gradientUnits="userSpaceOnUse">
<stop offset="0.375" stop-color="#E295A6" stop-opacity="0"/>
<stop offset="1" stop-color="white" stop-opacity="0.1"/>
</linearGradient>
<radialGradient id="paint2_radial_303_54" cx="0" cy="0" r="1" gradientUnits="userSpaceOnUse" gradientTransform="translate(664 160) rotate(90.1101) scale(162.545 450.125)">
<stop stop-color="#6A4AE3"/>
<stop offset="0.453125" stop-color="#ED9CA2"/>
<stop offset="1" stop-color="#6A4AE3"/>
</radialGradient>
<linearGradient id="paint3_linear_303_54" x1="663.579" y1="319.525" x2="663.579" y2="329.763" gradientUnits="userSpaceOnUse">
<stop stop-color="#6E4FED"/>
<stop offset="0.692708" stop-color="#A96FDC"/>
</linearGradient>
<linearGradient id="paint4_linear_303_54" x1="663.51" y1="297" x2="663.51" y2="318.104" gradientUnits="userSpaceOnUse">
<stop offset="0.265625" stop-color="#ED9CA2"/>
<stop offset="0.9999" stop-color="#A96FDC"/>
<stop offset="1" stop-color="#A96FDC"/>
</linearGradient>
<linearGradient id="paint5_linear_303_54" x1="663.51" y1="297" x2="663.51" y2="318.104" gradientUnits="userSpaceOnUse">
<stop offset="0.265625" stop-color="#ED9CA2"/>
<stop offset="0.9999" stop-color="#A96FDC"/>
<stop offset="1" stop-color="#A96FDC"/>
</linearGradient>
<linearGradient id="paint6_linear_303_54" x1="663.51" y1="297" x2="663.51" y2="318.104" gradientUnits="userSpaceOnUse">
<stop offset="0.265625" stop-color="#ED9CA2"/>
<stop offset="0.9999" stop-color="#A96FDC"/>
<stop offset="1" stop-color="#A96FDC"/>
</linearGradient>
</defs>
</svg>
