<svg width="1336" height="496" viewBox="0 0 1336 496" fill="none" xmlns="http://www.w3.org/2000/svg">
<g filter="url(#filter0_d_207_49)">
<rect x="4" width="1328" height="488" fill="black"/>
<rect x="4" width="1328" height="488" fill="url(#paint0_radial_207_49)"/>
<path fill-rule="evenodd" clip-rule="evenodd" d="M359.123 0L206.71 262H320.204L437.387 0H442.864L325.681 262H440.418L523.452 0H528.698L445.663 262H556.285L603.595 0H608.676L561.366 262H668.134L672.855 0H677.856L673.135 262H781.347L743.861 0H748.912L786.398 262H893.287L816.213 0H821.424L898.498 262H1006.57L889.396 0H894.873L1012.05 262H1128.75L973.685 0H979.495L1134.56 262H1245.07L1057.06 0H1063.21L1251.22 262H1332V267H1254.81L1288.54 314H1332V319H1292.12L1332 374.568V383.144L1331.18 382H1205.59L1245.24 449H1332V454H1248.2L1268.33 488H1262.52L1242.39 454H1097.91L1113.12 488H1107.64L1092.44 454H954.98L964.982 488H959.77L949.768 454H813.868L818.733 488H813.682L808.817 454H669.676L669.063 488H664.062L664.675 454H526.696L520.557 488H515.476L521.615 454H384.813L374.037 488H368.792L379.568 454H239.806L224.599 488H219.122L234.329 454H95.0187L75.24 488H69.4555L89.2342 454H4V449H92.1429L131.119 382H13.1207L4 394.902V386.241L6.99758 382H4V377H10.5321L51.5321 319H4V314H55.0665L88.2907 267H4V262H91.8252L277.032 0H283.155L97.9483 262H200.926L353.338 0H359.123ZM669.766 449H808.102L798.516 382H670.973L669.766 449ZM665.972 382L664.765 449H527.599L539.697 382H665.972ZM671.063 377H797.8L789.502 319H672.108L671.063 377ZM667.107 319L666.062 377H540.6L551.073 319H667.107ZM672.198 314H788.787L782.062 267H673.045L672.198 314ZM668.044 267L667.197 314H551.976L560.463 267H668.044ZM794.553 319L802.851 377H927.117L910.055 319H794.553ZM803.567 382L813.153 449H948.297L928.588 382H803.567ZM787.113 267L793.837 314H908.584L894.758 267H787.113ZM953.509 449H1090.2L1060.24 382H933.8L953.509 449ZM932.329 377H1058L1032.06 319H915.267L932.329 377ZM913.796 314H1029.83L1008.81 267H899.969L913.796 314ZM1137.52 267H1248.66L1282.38 314H1165.34L1137.52 267ZM1168.3 319H1285.97L1327.59 377H1202.63L1168.3 319ZM1239.43 449L1199.78 382H1065.71L1095.68 449H1239.43ZM1196.82 377L1162.49 319H1037.54L1063.48 377H1196.82ZM1159.53 314L1131.71 267H1014.28L1035.3 314H1159.53ZM522.518 449L534.617 382H407.631L386.397 449H522.518ZM535.519 377L545.993 319H427.598L409.216 377H535.519ZM546.896 314L555.382 267H444.078L429.182 314H546.896ZM323.445 267H438.833L423.937 314H302.423L323.445 267ZM300.187 319H422.353L403.971 377H274.246L300.187 319ZM272.009 382H402.386L381.152 449H242.043L272.009 382ZM317.967 267H203.802L176.461 314H296.946L317.967 267ZM198.017 267H94.4138L61.1897 314H170.676L198.017 267ZM16.6552 377L57.6552 319H167.767L134.027 377H16.6552ZM139.812 377L173.552 319H294.71L268.768 377H139.812ZM266.532 382L236.565 449H97.9273L136.903 382H266.532Z" fill="url(#paint1_linear_207_49)"/>
<g filter="url(#filter1_d_207_49)">
<path d="M410.103 198.273L425.018 249.551H425.586L440.501 198.273H462.802L438.796 271H411.808L387.802 198.273H410.103ZM465.091 271V216.455H484.693V271H465.091ZM474.892 210.773C472.24 210.773 469.968 209.897 468.074 208.145C466.18 206.393 465.233 204.286 465.233 201.824C465.233 199.362 466.18 197.255 468.074 195.503C469.968 193.751 472.24 192.875 474.892 192.875C477.567 192.875 479.84 193.751 481.71 195.503C483.604 197.255 484.551 199.362 484.551 201.824C484.551 204.286 483.604 206.393 481.71 208.145C479.84 209.897 477.567 210.773 474.892 210.773ZM489.681 271V216.455H508.715V226.824H509.283C510.277 222.989 511.852 220.183 514.006 218.408C516.184 216.632 518.729 215.744 521.641 215.744C522.493 215.744 523.334 215.815 524.162 215.957C525.014 216.076 525.831 216.253 526.612 216.49V233.216C525.642 232.884 524.446 232.636 523.026 232.47C521.605 232.304 520.386 232.222 519.368 232.222C517.45 232.222 515.722 232.66 514.183 233.536C512.668 234.388 511.473 235.595 510.597 237.158C509.721 238.696 509.283 240.508 509.283 242.591V271H489.681ZM562.814 216.455V230.659H526.877V216.455H562.814ZM533.837 203.386H553.439V253.457C553.439 254.215 553.57 254.854 553.83 255.375C554.09 255.872 554.493 256.251 555.037 256.511C555.582 256.748 556.28 256.866 557.133 256.866C557.724 256.866 558.411 256.795 559.192 256.653C559.997 256.511 560.589 256.393 560.968 256.298L563.809 270.077C562.933 270.337 561.678 270.657 560.045 271.036C558.435 271.414 556.517 271.663 554.292 271.781C549.794 272.018 546.018 271.556 542.964 270.396C539.91 269.213 537.613 267.354 536.074 264.821C534.536 262.288 533.79 259.116 533.837 255.304V203.386ZM601.183 247.136V216.455H620.785V271H602.177V260.631H601.609C600.425 264.111 598.354 266.833 595.394 268.798C592.435 270.74 588.919 271.71 584.847 271.71C581.036 271.71 577.698 270.834 574.833 269.082C571.992 267.33 569.779 264.916 568.193 261.838C566.63 258.76 565.837 255.233 565.813 251.256V216.455H585.416V247.136C585.439 249.835 586.126 251.954 587.475 253.493C588.848 255.032 590.766 255.801 593.228 255.801C594.862 255.801 596.27 255.458 597.454 254.771C598.661 254.061 599.585 253.067 600.224 251.788C600.887 250.486 601.206 248.936 601.183 247.136ZM640.954 271.852C637.474 271.852 634.396 271.284 631.721 270.148C629.069 268.988 626.986 267.236 625.471 264.892C623.956 262.548 623.198 259.565 623.198 255.943C623.198 252.96 623.707 250.415 624.725 248.308C625.743 246.178 627.163 244.438 628.986 243.088C630.809 241.739 632.928 240.709 635.343 239.999C637.781 239.288 640.409 238.827 643.226 238.614C646.28 238.377 648.731 238.093 650.577 237.761C652.448 237.406 653.797 236.921 654.626 236.305C655.454 235.666 655.868 234.826 655.868 233.784V233.642C655.868 232.222 655.324 231.133 654.235 230.375C653.146 229.617 651.749 229.239 650.045 229.239C648.174 229.239 646.647 229.653 645.464 230.482C644.304 231.286 643.605 232.529 643.368 234.21H625.329C625.565 230.896 626.619 227.842 628.489 225.048C630.383 222.231 633.141 219.982 636.763 218.301C640.385 216.597 644.907 215.744 650.329 215.744C654.235 215.744 657.739 216.206 660.84 217.129C663.941 218.029 666.581 219.295 668.759 220.929C670.937 222.539 672.594 224.433 673.731 226.611C674.891 228.765 675.471 231.109 675.471 233.642V271H657.147V263.33H656.721C655.632 265.366 654.306 267.011 652.743 268.266C651.205 269.52 649.441 270.432 647.452 271C645.487 271.568 643.321 271.852 640.954 271.852ZM647.346 259.494C648.837 259.494 650.234 259.187 651.536 258.571C652.862 257.955 653.939 257.068 654.768 255.908C655.596 254.748 656.01 253.339 656.01 251.682V247.136C655.49 247.349 654.933 247.551 654.341 247.74C653.773 247.929 653.158 248.107 652.495 248.273C651.856 248.438 651.169 248.592 650.435 248.734C649.725 248.876 648.979 249.007 648.198 249.125C646.683 249.362 645.44 249.752 644.469 250.297C643.522 250.818 642.812 251.469 642.339 252.25C641.889 253.008 641.664 253.86 641.664 254.807C641.664 256.322 642.197 257.482 643.262 258.287C644.327 259.092 645.689 259.494 647.346 259.494ZM699.439 198.273V271H679.837V198.273H699.439ZM747.047 271H719.064V198.273H746.763C754.244 198.273 760.707 199.729 766.153 202.641C771.621 205.529 775.835 209.696 778.795 215.141C781.778 220.562 783.269 227.061 783.269 234.636C783.269 242.212 781.789 248.723 778.83 254.168C775.871 259.589 771.68 263.756 766.259 266.668C760.838 269.556 754.434 271 747.047 271ZM738.809 254.239H746.337C749.936 254.239 753.001 253.659 755.535 252.499C758.091 251.339 760.033 249.338 761.358 246.497C762.708 243.656 763.383 239.703 763.383 234.636C763.383 229.57 762.696 225.616 761.323 222.776C759.974 219.935 757.985 217.934 755.357 216.774C752.753 215.614 749.557 215.034 745.769 215.034H738.809V254.239ZM857.859 234.636C857.859 242.733 856.285 249.563 853.136 255.126C849.987 260.666 845.738 264.868 840.387 267.733C835.037 270.574 829.071 271.994 822.49 271.994C815.861 271.994 809.871 270.562 804.521 267.697C799.194 264.809 794.956 260.595 791.808 255.055C788.683 249.492 787.12 242.686 787.12 234.636C787.12 226.54 788.683 219.722 791.808 214.182C794.956 208.618 799.194 204.416 804.521 201.575C809.871 198.711 815.861 197.278 822.49 197.278C829.071 197.278 835.037 198.711 840.387 201.575C845.738 204.416 849.987 208.618 853.136 214.182C856.285 219.722 857.859 226.54 857.859 234.636ZM837.546 234.636C837.546 230.28 836.966 226.611 835.806 223.628C834.67 220.621 832.977 218.348 830.728 216.81C828.503 215.247 825.757 214.466 822.49 214.466C819.222 214.466 816.464 215.247 814.215 216.81C811.99 218.348 810.297 220.621 809.137 223.628C808.001 226.611 807.433 230.28 807.433 234.636C807.433 238.992 808.001 242.674 809.137 245.68C810.297 248.663 811.99 250.936 814.215 252.499C816.464 254.037 819.222 254.807 822.49 254.807C825.757 254.807 828.503 254.037 830.728 252.499C832.977 250.936 834.67 248.663 835.806 245.68C836.966 242.674 837.546 238.992 837.546 234.636ZM861.994 198.273H886.568L903.471 239.466H904.324L921.227 198.273H945.801V271H926.483V228.955H925.915L909.721 270.432H898.074L881.881 228.67H881.312V271H861.994V198.273Z" fill="white"/>
<path d="M337.132 392V337.455H356.734V392H337.132ZM346.933 331.773C344.281 331.773 342.009 330.897 340.115 329.145C338.221 327.393 337.274 325.286 337.274 322.824C337.274 320.362 338.221 318.255 340.115 316.503C342.009 314.751 344.281 313.875 346.933 313.875C349.608 313.875 351.881 314.751 353.751 316.503C355.645 318.255 356.592 320.362 356.592 322.824C356.592 325.286 355.645 327.393 353.751 329.145C351.881 330.897 349.608 331.773 346.933 331.773ZM381.324 361.318V392H361.722V337.455H380.33V347.824H380.898C382.081 344.367 384.165 341.657 387.148 339.692C390.154 337.727 393.658 336.744 397.659 336.744C401.518 336.744 404.868 337.632 407.709 339.408C410.573 341.16 412.787 343.574 414.349 346.652C415.936 349.73 416.717 353.245 416.693 357.199V392H397.091V361.318C397.115 358.619 396.428 356.5 395.031 354.962C393.658 353.423 391.741 352.653 389.278 352.653C387.669 352.653 386.26 353.009 385.053 353.719C383.869 354.405 382.957 355.4 382.318 356.702C381.679 357.98 381.348 359.519 381.324 361.318ZM453.898 337.455V351.659H417.961V337.455H453.898ZM424.921 324.386H444.523V374.457C444.523 375.215 444.654 375.854 444.914 376.375C445.174 376.872 445.577 377.251 446.121 377.511C446.666 377.748 447.364 377.866 448.217 377.866C448.808 377.866 449.495 377.795 450.276 377.653C451.081 377.511 451.673 377.393 452.052 377.298L454.893 391.077C454.017 391.337 452.762 391.657 451.129 392.036C449.519 392.414 447.601 392.663 445.376 392.781C440.878 393.018 437.102 392.556 434.048 391.396C430.994 390.213 428.697 388.354 427.158 385.821C425.62 383.288 424.874 380.116 424.921 376.304V324.386ZM482.59 392.994C476.671 392.994 471.605 391.822 467.391 389.479C463.177 387.111 459.945 383.821 457.696 379.607C455.447 375.369 454.323 370.456 454.323 364.869C454.323 359.282 455.447 354.382 457.696 350.168C459.945 345.93 463.177 342.639 467.391 340.295C471.605 337.928 476.671 336.744 482.59 336.744C488.508 336.744 493.575 337.928 497.789 340.295C502.003 342.639 505.234 345.93 507.483 350.168C509.732 354.382 510.857 359.282 510.857 364.869C510.857 370.456 509.732 375.369 507.483 379.607C505.234 383.821 502.003 387.111 497.789 389.479C493.575 391.822 488.508 392.994 482.59 392.994ZM482.732 378.506C484.389 378.506 485.821 377.949 487.029 376.837C488.236 375.724 489.171 374.138 489.834 372.078C490.497 370.018 490.828 367.568 490.828 364.727C490.828 361.863 490.497 359.412 489.834 357.376C489.171 355.317 488.236 353.731 487.029 352.618C485.821 351.505 484.389 350.949 482.732 350.949C480.98 350.949 479.477 351.505 478.222 352.618C476.967 353.731 476.008 355.317 475.346 357.376C474.683 359.412 474.351 361.863 474.351 364.727C474.351 367.568 474.683 370.018 475.346 372.078C476.008 374.138 476.967 375.724 478.222 376.837C479.477 377.949 480.98 378.506 482.732 378.506ZM561.262 337.455V351.659H525.324V337.455H561.262ZM532.284 324.386H551.887V374.457C551.887 375.215 552.017 375.854 552.277 376.375C552.538 376.872 552.94 377.251 553.485 377.511C554.029 377.748 554.728 377.866 555.58 377.866C556.172 377.866 556.858 377.795 557.64 377.653C558.444 377.511 559.036 377.393 559.415 377.298L562.256 391.077C561.38 391.337 560.125 391.657 558.492 392.036C556.882 392.414 554.964 392.663 552.739 392.781C548.241 393.018 544.465 392.556 541.411 391.396C538.357 390.213 536.06 388.354 534.522 385.821C532.983 383.288 532.237 380.116 532.284 376.304V324.386ZM585.035 361.318V392H565.433V319.273H584.325V347.824H584.893C586.124 344.344 588.172 341.633 591.036 339.692C593.901 337.727 597.345 336.744 601.37 336.744C605.229 336.744 608.579 337.62 611.42 339.372C614.284 341.124 616.498 343.539 618.06 346.616C619.647 349.694 620.428 353.222 620.404 357.199V392H600.802V361.318C600.826 358.619 600.151 356.5 598.778 354.962C597.428 353.423 595.499 352.653 592.989 352.653C591.403 352.653 590.006 353.009 588.799 353.719C587.615 354.405 586.692 355.4 586.029 356.702C585.39 357.98 585.058 359.519 585.035 361.318ZM651.217 392.994C645.393 392.994 640.375 391.882 636.161 389.656C631.97 387.407 628.739 384.187 626.466 379.997C624.217 375.783 623.092 370.741 623.092 364.869C623.092 359.235 624.229 354.311 626.501 350.097C628.774 345.883 631.982 342.604 636.125 340.26C640.268 337.916 645.157 336.744 650.791 336.744C654.911 336.744 658.639 337.384 661.977 338.662C665.315 339.94 668.168 341.799 670.536 344.237C672.903 346.652 674.726 349.588 676.004 353.044C677.283 356.5 677.922 360.395 677.922 364.727V369.273H629.2V358.477H659.882C659.858 356.915 659.456 355.542 658.675 354.358C657.917 353.151 656.887 352.215 655.585 351.553C654.307 350.866 652.851 350.523 651.217 350.523C649.631 350.523 648.175 350.866 646.849 351.553C645.524 352.215 644.458 353.139 643.653 354.322C642.872 355.506 642.458 356.891 642.411 358.477V370.125C642.411 371.877 642.777 373.439 643.511 374.812C644.245 376.186 645.299 377.263 646.672 378.044C648.045 378.825 649.702 379.216 651.643 379.216C652.993 379.216 654.224 379.027 655.337 378.648C656.473 378.269 657.444 377.724 658.249 377.014C659.054 376.28 659.645 375.404 660.024 374.386H677.922C677.306 378.174 675.85 381.465 673.554 384.259C671.258 387.028 668.215 389.183 664.428 390.722C660.663 392.237 656.26 392.994 651.217 392.994ZM728.513 337.455V351.659H692.007V337.455H728.513ZM698.968 392V335.892C698.968 331.394 699.773 327.665 701.382 324.706C702.992 321.747 705.265 319.533 708.201 318.065C711.136 316.598 714.593 315.864 718.57 315.864C721.056 315.864 723.471 316.053 725.814 316.432C728.182 316.811 729.934 317.142 731.07 317.426L728.229 331.489C727.519 331.276 726.69 331.11 725.743 330.991C724.796 330.849 723.968 330.778 723.257 330.778C721.411 330.778 720.168 331.169 719.529 331.95C718.89 332.732 718.57 333.761 718.57 335.04V392H698.968ZM766.446 368.136V337.455H786.049V392H767.441V381.631H766.873C765.689 385.111 763.617 387.833 760.658 389.798C757.699 391.74 754.183 392.71 750.111 392.71C746.3 392.71 742.962 391.834 740.097 390.082C737.256 388.33 735.042 385.916 733.456 382.838C731.894 379.76 731.101 376.233 731.077 372.256V337.455H750.679V368.136C750.703 370.835 751.39 372.954 752.739 374.493C754.112 376.032 756.03 376.801 758.492 376.801C760.125 376.801 761.534 376.458 762.718 375.771C763.925 375.061 764.848 374.067 765.488 372.788C766.15 371.486 766.47 369.936 766.446 368.136ZM823.547 337.455V351.659H787.609V337.455H823.547ZM794.57 324.386H814.172V374.457C814.172 375.215 814.302 375.854 814.562 376.375C814.823 376.872 815.225 377.251 815.77 377.511C816.314 377.748 817.013 377.866 817.865 377.866C818.457 377.866 819.143 377.795 819.925 377.653C820.73 377.511 821.321 377.393 821.7 377.298L824.541 391.077C823.665 391.337 822.411 391.657 820.777 392.036C819.167 392.414 817.25 392.663 815.024 392.781C810.526 393.018 806.75 392.556 803.696 391.396C800.642 390.213 798.346 388.354 796.807 385.821C795.268 383.288 794.522 380.116 794.57 376.304V324.386ZM861.915 368.136V337.455H881.517V392H862.909V381.631H862.341C861.158 385.111 859.086 387.833 856.127 389.798C853.167 391.74 849.652 392.71 845.58 392.71C841.768 392.71 838.43 391.834 835.566 390.082C832.725 388.33 830.511 385.916 828.925 382.838C827.363 379.76 826.569 376.233 826.546 372.256V337.455H846.148V368.136C846.172 370.835 846.858 372.954 848.208 374.493C849.581 376.032 851.498 376.801 853.961 376.801C855.594 376.801 857.003 376.458 858.186 375.771C859.394 375.061 860.317 374.067 860.956 372.788C861.619 371.486 861.939 369.936 861.915 368.136ZM886.487 392V337.455H905.521V347.824H906.089C907.084 343.989 908.658 341.183 910.812 339.408C912.991 337.632 915.536 336.744 918.447 336.744C919.3 336.744 920.14 336.815 920.969 336.957C921.821 337.076 922.638 337.253 923.419 337.49V354.216C922.448 353.884 921.253 353.636 919.832 353.47C918.412 353.304 917.193 353.222 916.175 353.222C914.257 353.222 912.529 353.66 910.99 354.536C909.475 355.388 908.279 356.595 907.403 358.158C906.527 359.696 906.089 361.508 906.089 363.591V392H886.487ZM947.858 392.994C942.034 392.994 937.015 391.882 932.801 389.656C928.611 387.407 925.379 384.187 923.107 379.997C920.857 375.783 919.733 370.741 919.733 364.869C919.733 359.235 920.869 354.311 923.142 350.097C925.415 345.883 928.623 342.604 932.766 340.26C936.909 337.916 941.797 336.744 947.432 336.744C951.551 336.744 955.28 337.384 958.618 338.662C961.956 339.94 964.809 341.799 967.176 344.237C969.544 346.652 971.366 349.588 972.645 353.044C973.923 356.5 974.562 360.395 974.562 364.727V369.273H925.841V358.477H956.523C956.499 356.915 956.097 355.542 955.315 354.358C954.558 353.151 953.528 352.215 952.226 351.553C950.947 350.866 949.491 350.523 947.858 350.523C946.272 350.523 944.816 350.866 943.49 351.553C942.164 352.215 941.099 353.139 940.294 354.322C939.513 355.506 939.098 356.891 939.051 358.477V370.125C939.051 371.877 939.418 373.439 940.152 374.812C940.886 376.186 941.939 377.263 943.312 378.044C944.686 378.825 946.343 379.216 948.284 379.216C949.634 379.216 950.865 379.027 951.977 378.648C953.114 378.269 954.084 377.724 954.889 377.014C955.694 376.28 956.286 375.404 956.665 374.386H974.562C973.947 378.174 972.491 381.465 970.195 384.259C967.898 387.028 964.856 389.183 961.068 390.722C957.304 392.237 952.901 392.994 947.858 392.994ZM988.215 393.136C985.469 393.136 983.113 392.178 981.148 390.26C979.207 388.319 978.248 385.963 978.272 383.193C978.248 380.494 979.207 378.186 981.148 376.268C983.113 374.351 985.469 373.392 988.215 373.392C990.819 373.392 993.115 374.351 995.104 376.268C997.116 378.186 998.134 380.494 998.158 383.193C998.134 385.04 997.649 386.721 996.702 388.236C995.779 389.727 994.571 390.923 993.08 391.822C991.588 392.698 989.967 393.136 988.215 393.136Z" fill="url(#paint2_radial_207_49)"/>
</g>
<path fill-rule="evenodd" clip-rule="evenodd" d="M638.72 139.297C644.286 131.13 655.615 125.539 668.685 125.539C681.754 125.539 693.083 131.13 698.649 139.297C693.083 147.465 681.754 153.056 668.685 153.056C655.615 153.056 644.286 147.465 638.72 139.297Z" fill="url(#paint3_linear_207_49)"/>
<path d="M638.518 78.6125C644.081 70.5319 655.402 65 668.464 65C681.525 65 692.846 70.5319 698.409 78.6125C692.846 86.6931 681.525 92.225 668.464 92.225C655.402 92.225 644.081 86.6931 638.518 78.6125Z" fill="url(#paint4_linear_207_49)"/>
<path d="M669.036 109.189C660.942 117.202 649.964 121.704 638.518 121.704C627.071 121.704 616.094 117.202 608 109.189L638.518 78.6125L669.036 109.189Z" fill="url(#paint5_linear_207_49)"/>
<path d="M729 109.204C720.906 117.217 709.929 121.719 698.482 121.719C687.036 121.719 676.058 117.217 667.964 109.204L698.482 78.6125L729 109.204Z" fill="url(#paint6_linear_207_49)"/>
</g>
<defs>
<filter id="filter0_d_207_49" x="0" y="0" width="1336" height="496" filterUnits="userSpaceOnUse" color-interpolation-filters="sRGB">
<feFlood flood-opacity="0" result="BackgroundImageFix"/>
<feColorMatrix in="SourceAlpha" type="matrix" values="0 0 0 0 0 0 0 0 0 0 0 0 0 0 0 0 0 0 127 0" result="hardAlpha"/>
<feOffset dy="4"/>
<feGaussianBlur stdDeviation="2"/>
<feComposite in2="hardAlpha" operator="out"/>
<feColorMatrix type="matrix" values="0 0 0 0 0 0 0 0 0 0 0 0 0 0 0 0 0 0 0.25 0"/>
<feBlend mode="normal" in2="BackgroundImageFix" result="effect1_dropShadow_207_49"/>
<feBlend mode="normal" in="SourceGraphic" in2="effect1_dropShadow_207_49" result="shape"/>
</filter>
<filter id="filter1_d_207_49" x="321.132" y="186.875" width="693.026" height="232.261" filterUnits="userSpaceOnUse" color-interpolation-filters="sRGB">
<feFlood flood-opacity="0" result="BackgroundImageFix"/>
<feColorMatrix in="SourceAlpha" type="matrix" values="0 0 0 0 0 0 0 0 0 0 0 0 0 0 0 0 0 0 127 0" result="hardAlpha"/>
<feOffset dy="10"/>
<feGaussianBlur stdDeviation="8"/>
<feComposite in2="hardAlpha" operator="out"/>
<feColorMatrix type="matrix" values="0 0 0 0 0 0 0 0 0 0 0 0 0 0 0 0 0 0 1 0"/>
<feBlend mode="normal" in2="BackgroundImageFix" result="effect1_dropShadow_207_49"/>
<feBlend mode="normal" in="SourceGraphic" in2="effect1_dropShadow_207_49" result="shape"/>
</filter>
<radialGradient id="paint0_radial_207_49" cx="0" cy="0" r="1" gradientUnits="userSpaceOnUse" gradientTransform="translate(679 244.366) rotate(-89.5649) scale(460.943 613.264)">
<stop stop-color="white" stop-opacity="0"/>
<stop offset="1" stop-color="#684EE5" stop-opacity="0.25"/>
</radialGradient>
<linearGradient id="paint1_linear_207_49" x1="668" y1="-118" x2="668" y2="488" gradientUnits="userSpaceOnUse">
<stop offset="0.328125" stop-color="#E295A6" stop-opacity="0"/>
<stop offset="1" stop-color="white" stop-opacity="0.21"/>
</linearGradient>
<radialGradient id="paint2_radial_207_49" cx="0" cy="0" r="1" gradientUnits="userSpaceOnUse" gradientTransform="translate(668 295) rotate(90.1104) scale(216.131 600.167)">
<stop stop-color="#6A4AE3"/>
<stop offset="0.453125" stop-color="#ED9CA2"/>
<stop offset="1" stop-color="#6A4AE3"/>
</radialGradient>
<linearGradient id="paint3_linear_207_49" x1="668.685" y1="125.539" x2="668.685" y2="153.056" gradientUnits="userSpaceOnUse">
<stop stop-color="#6E4FED"/>
<stop offset="0.692708" stop-color="#A96FDC"/>
</linearGradient>
<linearGradient id="paint4_linear_207_49" x1="668.5" y1="65" x2="668.5" y2="121.719" gradientUnits="userSpaceOnUse">
<stop offset="0.265625" stop-color="#ED9CA2"/>
<stop offset="0.9999" stop-color="#A96FDC"/>
<stop offset="1" stop-color="#A96FDC"/>
</linearGradient>
<linearGradient id="paint5_linear_207_49" x1="668.5" y1="65" x2="668.5" y2="121.719" gradientUnits="userSpaceOnUse">
<stop offset="0.265625" stop-color="#ED9CA2"/>
<stop offset="0.9999" stop-color="#A96FDC"/>
<stop offset="1" stop-color="#A96FDC"/>
</linearGradient>
<linearGradient id="paint6_linear_207_49" x1="668.5" y1="65" x2="668.5" y2="121.719" gradientUnits="userSpaceOnUse">
<stop offset="0.265625" stop-color="#ED9CA2"/>
<stop offset="0.9999" stop-color="#A96FDC"/>
<stop offset="1" stop-color="#A96FDC"/>
</linearGradient>
</defs>
</svg>
