
<svg width="1328" height="344" viewBox="0 0 1328 344" fill="none" xmlns="http://www.w3.org/2000/svg">
<rect width="1328" height="344" fill="#E5E5E5"/>
<rect width="1328" height="344" fill="url(#paint0_linear_0_1)"/>
<rect width="1328" height="344" fill="url(#paint1_radial_0_1)" fill-opacity="0.01"/>
<path fill-rule="evenodd" clip-rule="evenodd" d="M355.335 0L204.138 183.314H316.893L433.142 0H438.864L322.615 183.314H436.955L519.328 0H524.698L442.325 183.314H552.622L599.555 0H604.676L557.744 183.314H664.172L668.855 0H673.856L669.173 183.314H777.022L739.835 0H744.912L782.099 183.314H888.565L812.105 0H817.424L893.884 183.314H1001.39L885.151 0H890.873L1007.11 183.314H1123.1L969.265 0H975.495L1129.33 183.314H1238.96L1052.45 0H1059.21L1245.72 183.314H1328V188.314H1250.81L1283.04 219.989H1328V224.989H1288.13L1328 264.18V270.823L1326.58 269.423H1201.59L1240.01 315.204H1328V320.204H1244.2L1264.33 344.184H1258.1L1237.97 320.204H1093.91L1109.12 344.184H1103.4L1088.19 320.204H950.98L960.982 344.184H955.663L945.661 320.204H809.868L814.733 344.184H809.656L804.791 320.204H665.676L665.063 344.184H660.062L660.674 320.204H522.696L516.557 344.184H511.435L517.575 320.204H380.813L370.037 344.184H364.668L375.443 320.204H235.807L220.6 344.184H214.877L230.084 320.204H91.231L71.4523 344.184H65.2434L85.0221 320.204H0V315.204H89.1461L126.906 269.423H9.12077L0 278.523V271.827L2.41005 269.423H0V264.423H7.4214L46.9444 224.989H0V219.989H51.9558L83.7032 188.314H0V183.314H88.7145L272.445 0H279.155L95.4252 183.314H197.929L349.126 0H355.335ZM665.803 315.204H803.777L794.49 269.423H666.973L665.803 315.204ZM661.972 269.423L660.802 315.204H523.977L535.698 269.423H661.972ZM667.101 264.423H793.476L785.476 224.989H668.108L667.101 264.423ZM663.107 224.989L662.099 264.423H536.978L547.074 224.989H663.107ZM668.236 219.989H784.462L778.036 188.314H669.045L668.236 219.989ZM664.044 188.314L663.235 219.989H548.354L556.464 188.314H664.044ZM790.553 224.989L798.552 264.423H922.395L905.947 224.989H790.553ZM799.567 269.423L808.854 315.204H943.575L924.48 269.423H799.567ZM783.113 188.314L789.539 219.989H903.862L890.65 188.314H783.113ZM948.895 315.204H1085.02L1055.99 269.423H929.8L948.895 315.204ZM927.714 264.423H1052.82L1027.82 224.989H911.267L927.714 264.423ZM909.181 219.989H1024.65L1004.56 188.314H895.969L909.181 219.989ZM1133.52 188.314H1244.05L1276.28 219.989H1160.1L1133.52 188.314ZM1164.3 224.989H1281.37L1321.49 264.423H1197.39L1164.3 224.989ZM1233.78 315.204L1195.36 269.423H1061.71L1090.74 315.204H1233.78ZM1191.16 264.423L1158.07 224.989H1033.54L1058.54 264.423H1191.16ZM1153.87 219.989L1127.29 188.314H1010.28L1030.37 219.989H1153.87ZM518.855 315.204L530.576 269.423H403.632L383.06 315.204H518.855ZM531.856 264.423L541.952 224.989H423.598L405.878 264.423H531.856ZM543.232 219.989L551.342 188.314H440.078L425.845 219.989H543.232ZM319.445 188.314H434.709L420.475 219.989H299.358L319.445 188.314ZM296.187 224.989H418.228L400.509 264.423H271.18L296.187 224.989ZM268.009 269.423H398.262L377.69 315.204H238.977L268.009 269.423ZM313.722 188.314H200.014L173.888 219.989H293.635L313.722 188.314ZM193.805 188.314H90.4139L58.6665 219.989H167.679L193.805 188.314ZM14.1321 264.423L53.6551 224.989H163.555L131.03 264.423H14.1321ZM137.239 264.423L169.764 224.989H290.465L265.458 264.423H137.239ZM262.287 269.423L233.255 315.204H95.355L133.115 269.423H262.287Z" fill="url(#paint2_linear_0_1)"/>
<g filter="url(#filter0_dd_0_1)">
<path d="M585.379 131.273H607.148L625.614 176.301H626.466L644.932 131.273H666.7V204H649.584V159.327H648.98L631.509 203.538H620.571L603.099 159.078H602.496V204H585.379V131.273ZM677.664 204V149.455H695.029V204H677.664ZM686.365 143.098C683.926 143.098 681.831 142.293 680.079 140.683C678.327 139.05 677.451 137.085 677.451 134.788C677.451 132.516 678.327 130.574 680.079 128.964C681.831 127.331 683.926 126.514 686.365 126.514C688.827 126.514 690.922 127.331 692.65 128.964C694.402 130.574 695.278 132.516 695.278 134.788C695.278 137.085 694.402 139.05 692.65 140.683C690.922 142.293 688.827 143.098 686.365 143.098ZM723.447 131.273V204H706.082V131.273H723.447ZM751.865 131.273V204H734.5V131.273H751.865ZM762.918 204V149.455H780.283V204H762.918ZM771.619 143.098C769.18 143.098 767.085 142.293 765.333 140.683C763.581 139.05 762.705 137.085 762.705 134.788C762.705 132.516 763.581 130.574 765.333 128.964C767.085 127.331 769.18 126.514 771.619 126.514C774.081 126.514 776.176 127.331 777.904 128.964C779.656 130.574 780.532 132.516 780.532 134.788C780.532 137.085 779.656 139.05 777.904 140.683C776.176 142.293 774.081 143.098 771.619 143.098ZM816.798 205.03C811.069 205.03 806.145 203.858 802.025 201.514C797.93 199.147 794.769 195.856 792.544 191.642C790.342 187.404 789.241 182.492 789.241 176.905C789.241 171.294 790.342 166.382 792.544 162.168C794.769 157.93 797.93 154.639 802.025 152.295C806.145 149.928 811.069 148.744 816.798 148.744C822.527 148.744 827.44 149.928 831.535 152.295C835.654 154.639 838.815 157.93 841.017 162.168C843.242 166.382 844.355 171.294 844.355 176.905C844.355 182.492 843.242 187.404 841.017 191.642C838.815 195.856 835.654 199.147 831.535 201.514C827.44 203.858 822.527 205.03 816.798 205.03ZM816.904 191.926C818.988 191.926 820.752 191.287 822.196 190.009C823.64 188.73 824.741 186.955 825.498 184.682C826.279 182.409 826.67 179.781 826.67 176.798C826.67 173.768 826.279 171.116 825.498 168.844C824.741 166.571 823.64 164.795 822.196 163.517C820.752 162.239 818.988 161.599 816.904 161.599C814.75 161.599 812.927 162.239 811.436 163.517C809.968 164.795 808.843 166.571 808.062 168.844C807.305 171.116 806.926 173.768 806.926 176.798C806.926 179.781 807.305 182.409 808.062 184.682C808.843 186.955 809.968 188.73 811.436 190.009C812.927 191.287 814.75 191.926 816.904 191.926ZM870.615 172.892V204H853.25V149.455H869.763V159.469H870.367C871.574 156.131 873.634 153.515 876.546 151.621C879.458 149.703 882.926 148.744 886.951 148.744C890.786 148.744 894.112 149.608 896.929 151.337C899.77 153.041 901.972 155.432 903.534 158.51C905.121 161.564 905.902 165.139 905.878 169.234V204H888.513V172.643C888.537 169.613 887.767 167.246 886.205 165.541C884.666 163.837 882.524 162.984 879.777 162.984C877.954 162.984 876.345 163.387 874.948 164.192C873.575 164.973 872.509 166.098 871.752 167.565C871.018 169.033 870.639 170.809 870.615 172.892Z" fill="white"/>
</g>
<g filter="url(#filter1_f_0_1)">
<path fill-rule="evenodd" clip-rule="evenodd" d="M419.43 209.832C427.481 198.309 443.865 190.419 462.767 190.419C481.669 190.419 498.054 198.309 506.105 209.832C498.054 221.356 481.669 229.245 462.767 229.245C443.865 229.245 427.481 221.356 419.43 209.832Z" fill="url(#paint3_linear_0_1)" fill-opacity="0.5"/>
<path d="M419.138 124.207C427.183 112.805 443.557 105 462.447 105C481.338 105 497.711 112.805 505.757 124.207C497.711 135.609 481.338 143.414 462.447 143.414C443.557 143.414 427.183 135.609 419.138 124.207Z" fill="url(#paint4_linear_0_1)" fill-opacity="0.5"/>
<path d="M463.275 167.35C451.569 178.656 435.692 185.008 419.138 185.008C402.583 185.008 386.706 178.656 375 167.35L419.138 124.207L463.275 167.35Z" fill="url(#paint5_linear_0_1)" fill-opacity="0.5"/>
<path d="M550 167.371C538.294 178.677 522.417 185.029 505.862 185.029C489.308 185.029 473.431 178.677 461.725 167.371L505.862 124.207L550 167.371Z" fill="url(#paint6_linear_0_1)" fill-opacity="0.5"/>
</g>
<g filter="url(#filter2_f_0_1)">
<path fill-rule="evenodd" clip-rule="evenodd" d="M419.43 209.832C427.481 198.309 443.865 190.419 462.767 190.419C481.669 190.419 498.054 198.309 506.105 209.832C498.054 221.356 481.669 229.245 462.767 229.245C443.865 229.245 427.481 221.356 419.43 209.832Z" fill="url(#paint7_linear_0_1)"/>
<path d="M419.138 124.207C427.183 112.805 443.557 105 462.447 105C481.338 105 497.711 112.805 505.757 124.207C497.711 135.609 481.338 143.414 462.447 143.414C443.557 143.414 427.183 135.609 419.138 124.207Z" fill="url(#paint8_linear_0_1)"/>
<path d="M463.275 167.35C451.569 178.656 435.692 185.008 419.138 185.008C402.583 185.008 386.706 178.656 375 167.35L419.138 124.207L463.275 167.35Z" fill="url(#paint9_linear_0_1)"/>
<path d="M550 167.371C538.294 178.677 522.417 185.029 505.862 185.029C489.308 185.029 473.431 178.677 461.725 167.371L505.862 124.207L550 167.371Z" fill="url(#paint10_linear_0_1)"/>
</g>
<g filter="url(#filter3_d_0_1)">
<path fill-rule="evenodd" clip-rule="evenodd" d="M419.43 209.832C427.481 198.309 443.865 190.419 462.767 190.419C481.669 190.419 498.054 198.309 506.105 209.832C498.054 221.356 481.669 229.245 462.767 229.245C443.865 229.245 427.481 221.356 419.43 209.832Z" fill="url(#paint11_linear_0_1)"/>
<path d="M419.138 124.207C427.183 112.805 443.557 105 462.447 105C481.338 105 497.711 112.805 505.757 124.207C497.711 135.609 481.338 143.414 462.447 143.414C443.557 143.414 427.183 135.609 419.138 124.207Z" fill="url(#paint12_linear_0_1)"/>
<path d="M463.275 167.35C451.569 178.656 435.692 185.008 419.138 185.008C402.583 185.008 386.706 178.656 375 167.35L419.138 124.207L463.275 167.35Z" fill="url(#paint13_linear_0_1)"/>
<path d="M550 167.371C538.294 178.677 522.417 185.029 505.862 185.029C489.308 185.029 473.431 178.677 461.725 167.371L505.862 124.207L550 167.371Z" fill="url(#paint14_linear_0_1)"/>
</g>
<defs>
<filter id="filter0_dd_0_1" x="485.379" y="30.5142" width="520.534" height="278.516" filterUnits="userSpaceOnUse" color-interpolation-filters="sRGB">
<feFlood flood-opacity="0" result="BackgroundImageFix"/>
<feColorMatrix in="SourceAlpha" type="matrix" values="0 0 0 0 0 0 0 0 0 0 0 0 0 0 0 0 0 0 127 0" result="hardAlpha"/>
<feOffset dy="4"/>
<feGaussianBlur stdDeviation="50"/>
<feComposite in2="hardAlpha" operator="out"/>
<feColorMatrix type="matrix" values="0 0 0 0 0 0 0 0 0 0 0 0 0 0 0 0 0 0 0.5 0"/>
<feBlend mode="normal" in2="BackgroundImageFix" result="effect1_dropShadow_0_1"/>
<feColorMatrix in="SourceAlpha" type="matrix" values="0 0 0 0 0 0 0 0 0 0 0 0 0 0 0 0 0 0 127 0" result="hardAlpha"/>
<feOffset dy="4"/>
<feGaussianBlur stdDeviation="2"/>
<feComposite in2="hardAlpha" operator="out"/>
<feColorMatrix type="matrix" values="0 0 0 0 0 0 0 0 0 0 0 0 0 0 0 0 0 0 0.25 0"/>
<feBlend mode="normal" in2="effect1_dropShadow_0_1" result="effect2_dropShadow_0_1"/>
<feBlend mode="normal" in="SourceGraphic" in2="effect2_dropShadow_0_1" result="shape"/>
</filter>
<filter id="filter1_f_0_1" x="-425" y="-695" width="1775" height="1724.25" filterUnits="userSpaceOnUse" color-interpolation-filters="sRGB">
<feFlood flood-opacity="0" result="BackgroundImageFix"/>
<feBlend mode="normal" in="SourceGraphic" in2="BackgroundImageFix" result="shape"/>
<feGaussianBlur stdDeviation="400" result="effect1_foregroundBlur_0_1"/>
</filter>
<filter id="filter2_f_0_1" x="-25" y="-295" width="975" height="924.245" filterUnits="userSpaceOnUse" color-interpolation-filters="sRGB">
<feFlood flood-opacity="0" result="BackgroundImageFix"/>
<feBlend mode="normal" in="SourceGraphic" in2="BackgroundImageFix" result="shape"/>
<feGaussianBlur stdDeviation="200" result="effect1_foregroundBlur_0_1"/>
</filter>
<filter id="filter3_d_0_1" x="175" y="-91" width="575" height="524.245" filterUnits="userSpaceOnUse" color-interpolation-filters="sRGB">
<feFlood flood-opacity="0" result="BackgroundImageFix"/>
<feColorMatrix in="SourceAlpha" type="matrix" values="0 0 0 0 0 0 0 0 0 0 0 0 0 0 0 0 0 0 127 0" result="hardAlpha"/>
<feOffset dy="4"/>
<feGaussianBlur stdDeviation="100"/>
<feComposite in2="hardAlpha" operator="out"/>
<feColorMatrix type="matrix" values="0 0 0 0 0 0 0 0 0 0 0 0 0 0 0 0 0 0 1 0"/>
<feBlend mode="normal" in2="BackgroundImageFix" result="effect1_dropShadow_0_1"/>
<feBlend mode="normal" in="SourceGraphic" in2="effect1_dropShadow_0_1" result="shape"/>
</filter>
<linearGradient id="paint0_linear_0_1" x1="664" y1="0" x2="664" y2="344" gradientUnits="userSpaceOnUse">
<stop stop-color="#10162A"/>
<stop offset="1" stop-color="#433466"/>
</linearGradient>
<radialGradient id="paint1_radial_0_1" cx="0" cy="0" r="1" gradientUnits="userSpaceOnUse" gradientTransform="translate(675 172.258) rotate(-89.3828) scale(324.936 613.246)">
<stop stop-color="white" stop-opacity="0"/>
<stop offset="1" stop-color="#684EE5" stop-opacity="0.25"/>
</radialGradient>
<linearGradient id="paint2_linear_0_1" x1="664" y1="-83.2248" x2="664" y2="344.184" gradientUnits="userSpaceOnUse">
<stop offset="0.375" stop-color="#E295A6" stop-opacity="0"/>
<stop offset="1" stop-color="white" stop-opacity="0.1"/>
</linearGradient>
<linearGradient id="paint3_linear_0_1" x1="462.767" y1="190.419" x2="462.767" y2="229.245" gradientUnits="userSpaceOnUse">
<stop stop-color="#6E4FED"/>
<stop offset="0.692708" stop-color="#A96FDC"/>
</linearGradient>
<linearGradient id="paint4_linear_0_1" x1="462.5" y1="105" x2="462.5" y2="185.029" gradientUnits="userSpaceOnUse">
<stop offset="0.265625" stop-color="#ED9CA2"/>
<stop offset="0.9999" stop-color="#A96FDC"/>
<stop offset="1" stop-color="#A96FDC"/>
</linearGradient>
<linearGradient id="paint5_linear_0_1" x1="462.5" y1="105" x2="462.5" y2="185.029" gradientUnits="userSpaceOnUse">
<stop offset="0.265625" stop-color="#ED9CA2"/>
<stop offset="0.9999" stop-color="#A96FDC"/>
<stop offset="1" stop-color="#A96FDC"/>
</linearGradient>
<linearGradient id="paint6_linear_0_1" x1="462.5" y1="105" x2="462.5" y2="185.029" gradientUnits="userSpaceOnUse">
<stop offset="0.265625" stop-color="#ED9CA2"/>
<stop offset="0.9999" stop-color="#A96FDC"/>
<stop offset="1" stop-color="#A96FDC"/>
</linearGradient>
<linearGradient id="paint7_linear_0_1" x1="462.767" y1="190.419" x2="462.767" y2="229.245" gradientUnits="userSpaceOnUse">
<stop stop-color="#6E4FED"/>
<stop offset="0.692708" stop-color="#A96FDC"/>
</linearGradient>
<linearGradient id="paint8_linear_0_1" x1="462.5" y1="105" x2="462.5" y2="185.029" gradientUnits="userSpaceOnUse">
<stop offset="0.265625" stop-color="#ED9CA2"/>
<stop offset="0.9999" stop-color="#A96FDC"/>
<stop offset="1" stop-color="#A96FDC"/>
</linearGradient>
<linearGradient id="paint9_linear_0_1" x1="462.5" y1="105" x2="462.5" y2="185.029" gradientUnits="userSpaceOnUse">
<stop offset="0.265625" stop-color="#ED9CA2"/>
<stop offset="0.9999" stop-color="#A96FDC"/>
<stop offset="1" stop-color="#A96FDC"/>
</linearGradient>
<linearGradient id="paint10_linear_0_1" x1="462.5" y1="105" x2="462.5" y2="185.029" gradientUnits="userSpaceOnUse">
<stop offset="0.265625" stop-color="#ED9CA2"/>
<stop offset="0.9999" stop-color="#A96FDC"/>
<stop offset="1" stop-color="#A96FDC"/>
</linearGradient>
<linearGradient id="paint11_linear_0_1" x1="462.767" y1="190.419" x2="462.767" y2="229.245" gradientUnits="userSpaceOnUse">
<stop stop-color="#6E4FED"/>
<stop offset="0.692708" stop-color="#A96FDC"/>
</linearGradient>
<linearGradient id="paint12_linear_0_1" x1="462.5" y1="105" x2="462.5" y2="185.029" gradientUnits="userSpaceOnUse">
<stop offset="0.265625" stop-color="#ED9CA2"/>
<stop offset="0.9999" stop-color="#A96FDC"/>
<stop offset="1" stop-color="#A96FDC"/>
</linearGradient>
<linearGradient id="paint13_linear_0_1" x1="462.5" y1="105" x2="462.5" y2="185.029" gradientUnits="userSpaceOnUse">
<stop offset="0.265625" stop-color="#ED9CA2"/>
<stop offset="0.9999" stop-color="#A96FDC"/>
<stop offset="1" stop-color="#A96FDC"/>
</linearGradient>
<linearGradient id="paint14_linear_0_1" x1="462.5" y1="105" x2="462.5" y2="185.029" gradientUnits="userSpaceOnUse">
<stop offset="0.265625" stop-color="#ED9CA2"/>
<stop offset="0.9999" stop-color="#A96FDC"/>
<stop offset="1" stop-color="#A96FDC"/>
</linearGradient>
</defs>
</svg>
