<svg width="1336" height="496" viewBox="0 0 1336 496" fill="none" xmlns="http://www.w3.org/2000/svg">
<g filter="url(#filter0_d_303_54)">
<rect x="4" y="144" width="1328" height="344" fill="black"/>
<rect x="5" y="116" width="1326" height="27" fill="white" stroke="black" stroke-width="2"/>
<rect x="4" y="144" width="1328" height="344" fill="url(#paint0_radial_303_54)"/>
<path fill-rule="evenodd" clip-rule="evenodd" d="M359.123 0L206.71 262H320.204L437.387 0H442.864L325.681 262H440.418L523.452 0H528.698L445.663 262H556.285L603.595 0H608.676L561.366 262H668.134L672.855 0H677.856L673.135 262H781.347L743.861 0H748.912L786.398 262H893.287L816.213 0H821.424L898.498 262H1006.57L889.396 0H894.873L1012.05 262H1128.75L973.685 0H979.495L1134.56 262H1245.07L1057.06 0H1063.21L1251.22 262H1332V267H1254.81L1288.54 314H1332V319H1292.12L1332 374.568V383.144L1331.18 382H1205.59L1245.24 449H1332V454H1248.2L1268.33 488H1262.52L1242.39 454H1097.91L1113.12 488H1107.64L1092.44 454H954.98L964.982 488H959.77L949.768 454H813.868L818.733 488H813.682L808.817 454H669.676L669.063 488H664.062L664.675 454H526.696L520.557 488H515.476L521.615 454H384.813L374.037 488H368.792L379.568 454H239.806L224.599 488H219.122L234.329 454H95.0187L75.24 488H69.4555L89.2342 454H4V449H92.1429L131.119 382H13.1207L4 394.902V386.241L6.99758 382H4V377H10.5321L51.5321 319H4V314H55.0665L88.2907 267H4V262H91.8252L277.032 0H283.155L97.9483 262H200.926L353.338 0H359.123ZM669.766 449H808.102L798.516 382H670.973L669.766 449ZM665.972 382L664.765 449H527.599L539.697 382H665.972ZM671.063 377H797.8L789.502 319H672.108L671.063 377ZM667.107 319L666.062 377H540.6L551.073 319H667.107ZM672.198 314H788.787L782.062 267H673.045L672.198 314ZM668.044 267L667.197 314H551.976L560.463 267H668.044ZM794.553 319L802.851 377H927.117L910.055 319H794.553ZM803.567 382L813.153 449H948.297L928.588 382H803.567ZM787.113 267L793.837 314H908.584L894.758 267H787.113ZM953.509 449H1090.2L1060.24 382H933.8L953.509 449ZM932.329 377H1058L1032.06 319H915.267L932.329 377ZM913.796 314H1029.83L1008.81 267H899.969L913.796 314ZM1137.52 267H1248.66L1282.38 314H1165.34L1137.52 267ZM1168.3 319H1285.97L1327.59 377H1202.63L1168.3 319ZM1239.43 449L1199.78 382H1065.71L1095.68 449H1239.43ZM1196.82 377L1162.49 319H1037.54L1063.48 377H1196.82ZM1159.53 314L1131.71 267H1014.28L1035.3 314H1159.53ZM522.518 449L534.617 382H407.631L386.397 449H522.518ZM535.519 377L545.993 319H427.598L409.216 377H535.519ZM546.896 314L555.382 267H444.078L429.182 314H546.896ZM323.445 267H438.833L423.937 314H302.423L323.445 267ZM300.187 319H422.353L403.971 377H274.246L300.187 319ZM272.009 382H402.386L381.152 449H242.043L272.009 382ZM317.967 267H203.802L176.461 314H296.946L317.967 267ZM198.017 267H94.4138L61.1897 314H170.676L198.017 267ZM16.6552 377L57.6552 319H167.767L134.027 377H16.6552ZM139.812 377L173.552 319H294.71L268.768 377H139.812ZM266.532 382L236.565 449H97.9273L136.903 382H266.532Z" fill="url(#paint1_linear_303_54)"/>
<g filter="url(#filter1_d_303_54)">
<path d="M474.577 273.455L485.763 311.913H486.19L497.376 273.455H514.102L496.097 328H475.856L457.852 273.455H474.577ZM515.818 328V287.091H530.52V328H515.818ZM523.169 282.83C521.18 282.83 519.476 282.173 518.055 280.859C516.635 279.545 515.925 277.964 515.925 276.118C515.925 274.271 516.635 272.691 518.055 271.377C519.476 270.063 521.18 269.406 523.169 269.406C525.175 269.406 526.88 270.063 528.283 271.377C529.703 272.691 530.413 274.271 530.413 276.118C530.413 277.964 529.703 279.545 528.283 280.859C526.88 282.173 525.175 282.83 523.169 282.83ZM534.26 328V287.091H548.536V294.868H548.962C549.708 291.991 550.889 289.887 552.504 288.556C554.138 287.224 556.047 286.558 558.231 286.558C558.87 286.558 559.5 286.612 560.122 286.718C560.761 286.807 561.373 286.94 561.959 287.118V299.662C561.231 299.413 560.335 299.227 559.269 299.103C558.204 298.978 557.29 298.916 556.526 298.916C555.088 298.916 553.792 299.245 552.638 299.902C551.501 300.541 550.605 301.446 549.948 302.618C549.291 303.772 548.962 305.131 548.962 306.693V328H534.26ZM589.111 287.091V297.744H562.158V287.091H589.111ZM567.378 277.29H582.08V314.843C582.08 315.411 582.177 315.891 582.373 316.281C582.568 316.654 582.87 316.938 583.278 317.134C583.686 317.311 584.21 317.4 584.849 317.4C585.293 317.4 585.808 317.347 586.394 317.24C586.998 317.134 587.442 317.045 587.726 316.974L589.857 327.308C589.2 327.503 588.259 327.743 587.033 328.027C585.826 328.311 584.388 328.497 582.719 328.586C579.345 328.763 576.513 328.417 574.223 327.547C571.932 326.659 570.21 325.266 569.056 323.366C567.902 321.466 567.342 319.087 567.378 316.228V277.29ZM617.887 310.102V287.091H632.589V328H618.633V320.223H618.207C617.319 322.833 615.765 324.875 613.546 326.349C611.326 327.805 608.69 328.533 605.636 328.533C602.777 328.533 600.273 327.876 598.125 326.562C595.994 325.248 594.334 323.437 593.144 321.129C591.973 318.82 591.378 316.175 591.36 313.192V287.091H606.062V310.102C606.08 312.126 606.594 313.716 607.606 314.87C608.636 316.024 610.075 316.601 611.921 316.601C613.146 316.601 614.203 316.343 615.091 315.828C615.996 315.296 616.689 314.55 617.168 313.591C617.665 312.615 617.905 311.452 617.887 310.102ZM647.715 328.639C645.105 328.639 642.797 328.213 640.791 327.361C638.802 326.491 637.239 325.177 636.103 323.419C634.967 321.661 634.398 319.424 634.398 316.707C634.398 314.47 634.78 312.561 635.544 310.981C636.307 309.383 637.373 308.078 638.74 307.066C640.107 306.054 641.696 305.282 643.507 304.749C645.336 304.216 647.307 303.87 649.42 303.71C651.71 303.533 653.548 303.32 654.933 303.071C656.336 302.805 657.348 302.441 657.969 301.979C658.591 301.5 658.901 300.869 658.901 300.088V299.982C658.901 298.916 658.493 298.099 657.676 297.531C656.859 296.963 655.812 296.679 654.533 296.679C653.131 296.679 651.985 296.99 651.098 297.611C650.228 298.215 649.704 299.147 649.526 300.408H635.996C636.174 297.922 636.964 295.631 638.367 293.536C639.787 291.423 641.856 289.737 644.572 288.476C647.289 287.197 650.68 286.558 654.746 286.558C657.676 286.558 660.304 286.904 662.63 287.597C664.956 288.272 666.936 289.222 668.569 290.447C670.203 291.654 671.446 293.075 672.298 294.708C673.168 296.324 673.603 298.082 673.603 299.982V328H659.86V322.247H659.541C658.724 323.774 657.729 325.008 656.558 325.949C655.403 326.89 654.081 327.574 652.589 328C651.115 328.426 649.491 328.639 647.715 328.639ZM652.509 319.371C653.628 319.371 654.675 319.14 655.652 318.678C656.646 318.217 657.454 317.551 658.076 316.681C658.697 315.811 659.008 314.754 659.008 313.511V310.102C658.617 310.262 658.2 310.413 657.756 310.555C657.33 310.697 656.868 310.83 656.371 310.955C655.892 311.079 655.377 311.194 654.826 311.301C654.294 311.407 653.734 311.505 653.148 311.594C652.012 311.771 651.08 312.064 650.352 312.473C649.642 312.863 649.109 313.352 648.754 313.938C648.417 314.506 648.248 315.145 648.248 315.855C648.248 316.991 648.647 317.862 649.446 318.465C650.245 319.069 651.266 319.371 652.509 319.371ZM691.579 273.455V328H676.878V273.455H691.579ZM727.286 328H706.298V273.455H727.072C732.683 273.455 737.531 274.547 741.614 276.73C745.716 278.897 748.876 282.022 751.096 286.105C753.333 290.172 754.452 295.045 754.452 300.727C754.452 306.409 753.342 311.292 751.123 315.376C748.903 319.442 745.76 322.567 741.694 324.751C737.628 326.917 732.825 328 727.286 328ZM721.107 315.429H726.753C729.452 315.429 731.751 314.994 733.651 314.124C735.569 313.254 737.025 311.754 738.019 309.623C739.031 307.492 739.537 304.527 739.537 300.727C739.537 296.928 739.022 293.962 737.992 291.832C736.98 289.701 735.489 288.201 733.518 287.331C731.565 286.461 729.168 286.026 726.327 286.026H721.107V315.429ZM810.394 300.727C810.394 306.8 809.213 311.922 806.852 316.095C804.49 320.25 801.303 323.401 797.29 325.55C793.278 327.68 788.803 328.746 783.867 328.746C778.896 328.746 774.403 327.672 770.391 325.523C766.396 323.357 763.217 320.196 760.856 316.042C758.512 311.869 757.34 306.764 757.34 300.727C757.34 294.655 758.512 289.541 760.856 285.386C763.217 281.214 766.396 278.062 770.391 275.931C774.403 273.783 778.896 272.709 783.867 272.709C788.803 272.709 793.278 273.783 797.29 275.931C801.303 278.062 804.49 281.214 806.852 285.386C809.213 289.541 810.394 294.655 810.394 300.727ZM795.16 300.727C795.16 297.46 794.725 294.708 793.855 292.471C793.002 290.216 791.733 288.511 790.046 287.357C788.377 286.185 786.317 285.599 783.867 285.599C781.417 285.599 779.348 286.185 777.662 287.357C775.992 288.511 774.723 290.216 773.853 292.471C773.001 294.708 772.575 297.46 772.575 300.727C772.575 303.994 773.001 306.755 773.853 309.01C774.723 311.248 775.992 312.952 777.662 314.124C779.348 315.278 781.417 315.855 783.867 315.855C786.317 315.855 788.377 315.278 790.046 314.124C791.733 312.952 793.002 311.248 793.855 309.01C794.725 306.755 795.16 303.994 795.16 300.727ZM813.496 273.455H831.926L844.604 304.349H845.243L857.92 273.455H876.351V328H861.862V296.466H861.436L849.291 327.574H840.555L828.41 296.253H827.984V328H813.496V273.455Z" fill="white"/>
<path d="M419.849 419V378.091H434.551V419H419.849ZM427.2 373.83C425.211 373.83 423.506 373.173 422.086 371.859C420.666 370.545 419.955 368.964 419.955 367.118C419.955 365.271 420.666 363.691 422.086 362.377C423.506 361.063 425.211 360.406 427.2 360.406C429.206 360.406 430.911 361.063 432.313 362.377C433.734 363.691 434.444 365.271 434.444 367.118C434.444 368.964 433.734 370.545 432.313 371.859C430.911 373.173 429.206 373.83 427.2 373.83ZM452.993 395.989V419H438.291V378.091H452.247V385.868H452.673C453.561 383.276 455.124 381.243 457.361 379.769C459.616 378.295 462.244 377.558 465.244 377.558C468.138 377.558 470.651 378.224 472.782 379.556C474.93 380.87 476.59 382.681 477.762 384.989C478.952 387.297 479.538 389.934 479.52 392.899V419H464.818V395.989C464.836 393.964 464.321 392.375 463.273 391.221C462.244 390.067 460.805 389.49 458.959 389.49C457.751 389.49 456.695 389.756 455.789 390.289C454.902 390.804 454.218 391.55 453.739 392.526C453.259 393.485 453.011 394.639 452.993 395.989ZM507.424 378.091V388.744H480.471V378.091H507.424ZM485.691 368.29H500.393V405.843C500.393 406.411 500.49 406.891 500.686 407.281C500.881 407.654 501.183 407.938 501.591 408.134C501.999 408.311 502.523 408.4 503.162 408.4C503.606 408.4 504.121 408.347 504.707 408.24C505.311 408.134 505.755 408.045 506.039 407.974L508.17 418.308C507.513 418.503 506.572 418.743 505.346 419.027C504.139 419.311 502.701 419.497 501.032 419.586C497.658 419.763 494.826 419.417 492.536 418.547C490.245 417.659 488.523 416.266 487.369 414.366C486.215 412.466 485.655 410.087 485.691 407.228V368.29ZM528.942 419.746C524.503 419.746 520.704 418.867 517.543 417.109C514.383 415.333 511.959 412.865 510.272 409.705C508.585 406.527 507.742 402.842 507.742 398.652C507.742 394.462 508.585 390.786 510.272 387.626C511.959 384.447 514.383 381.979 517.543 380.222C520.704 378.446 524.503 377.558 528.942 377.558C533.381 377.558 537.181 378.446 540.342 380.222C543.502 381.979 545.926 384.447 547.612 387.626C549.299 390.786 550.143 394.462 550.143 398.652C550.143 402.842 549.299 406.527 547.612 409.705C545.926 412.865 543.502 415.333 540.342 417.109C537.181 418.867 533.381 419.746 528.942 419.746ZM529.049 408.879C530.292 408.879 531.366 408.462 532.272 407.627C533.177 406.793 533.878 405.603 534.376 404.059C534.873 402.514 535.121 400.676 535.121 398.545C535.121 396.397 534.873 394.559 534.376 393.032C533.878 391.488 533.177 390.298 532.272 389.463C531.366 388.629 530.292 388.212 529.049 388.212C527.735 388.212 526.608 388.629 525.666 389.463C524.725 390.298 524.006 391.488 523.509 393.032C523.012 394.559 522.763 396.397 522.763 398.545C522.763 400.676 523.012 402.514 523.509 404.059C524.006 405.603 524.725 406.793 525.666 407.627C526.608 408.462 527.735 408.879 529.049 408.879ZM587.946 378.091V388.744H560.993V378.091H587.946ZM566.213 368.29H580.915V405.843C580.915 406.411 581.013 406.891 581.208 407.281C581.403 407.654 581.705 407.938 582.114 408.134C582.522 408.311 583.046 408.4 583.685 408.4C584.129 408.4 584.644 408.347 585.23 408.24C585.833 408.134 586.277 408.045 586.561 407.974L588.692 418.308C588.035 418.503 587.094 418.743 585.869 419.027C584.661 419.311 583.223 419.497 581.554 419.586C578.181 419.763 575.349 419.417 573.058 418.547C570.768 417.659 569.045 416.266 567.891 414.366C566.737 412.466 566.178 410.087 566.213 407.228V368.29ZM605.776 395.989V419H591.074V364.455H605.243V385.868H605.67C606.593 383.258 608.129 381.225 610.277 379.769C612.426 378.295 615.009 377.558 618.028 377.558C620.922 377.558 623.434 378.215 625.565 379.529C627.713 380.843 629.373 382.654 630.545 384.962C631.735 387.271 632.321 389.916 632.303 392.899V419H617.601V395.989C617.619 393.964 617.113 392.375 616.083 391.221C615.071 390.067 613.624 389.49 611.742 389.49C610.552 389.49 609.505 389.756 608.599 390.289C607.711 390.804 607.019 391.55 606.522 392.526C606.042 393.485 605.794 394.639 605.776 395.989ZM655.413 419.746C651.045 419.746 647.281 418.911 644.12 417.242C640.978 415.555 638.554 413.141 636.849 409.998C635.163 406.837 634.319 403.055 634.319 398.652C634.319 394.426 635.172 390.733 636.876 387.572C638.581 384.412 640.987 381.953 644.094 380.195C647.201 378.437 650.868 377.558 655.093 377.558C658.183 377.558 660.979 378.038 663.483 378.996C665.987 379.955 668.126 381.349 669.902 383.178C671.677 384.989 673.044 387.191 674.003 389.783C674.962 392.375 675.441 395.296 675.441 398.545V401.955H638.9V393.858H661.912C661.894 392.686 661.592 391.656 661.006 390.768C660.438 389.863 659.665 389.162 658.689 388.664C657.73 388.15 656.638 387.892 655.413 387.892C654.223 387.892 653.131 388.15 652.137 388.664C651.143 389.162 650.344 389.854 649.74 390.742C649.154 391.63 648.843 392.668 648.808 393.858V402.594C648.808 403.908 649.083 405.08 649.634 406.109C650.184 407.139 650.974 407.947 652.004 408.533C653.034 409.119 654.277 409.412 655.733 409.412C656.745 409.412 657.668 409.27 658.502 408.986C659.355 408.702 660.083 408.293 660.686 407.761C661.29 407.21 661.734 406.553 662.018 405.79H675.441C674.98 408.631 673.888 411.099 672.165 413.194C670.443 415.271 668.162 416.887 665.321 418.041C662.498 419.178 659.195 419.746 655.413 419.746ZM713.385 378.091V388.744H686.006V378.091H713.385ZM691.226 419V376.919C691.226 373.545 691.829 370.749 693.037 368.529C694.244 366.31 695.949 364.65 698.15 363.549C700.352 362.448 702.945 361.898 705.927 361.898C707.792 361.898 709.603 362.04 711.361 362.324C713.136 362.608 714.45 362.857 715.302 363.07L713.172 373.616C712.639 373.457 712.018 373.332 711.307 373.244C710.597 373.137 709.976 373.084 709.443 373.084C708.058 373.084 707.126 373.377 706.647 373.963C706.167 374.549 705.927 375.321 705.927 376.28V419H691.226ZM741.835 401.102V378.091H756.536V419H742.581V411.223H742.154C741.267 413.833 739.713 415.875 737.494 417.349C735.274 418.805 732.637 419.533 729.583 419.533C726.725 419.533 724.221 418.876 722.073 417.562C719.942 416.248 718.282 414.437 717.092 412.129C715.92 409.82 715.326 407.175 715.308 404.192V378.091H730.009V401.102C730.027 403.126 730.542 404.716 731.554 405.87C732.584 407.024 734.022 407.601 735.869 407.601C737.094 407.601 738.15 407.343 739.038 406.828C739.944 406.296 740.636 405.55 741.116 404.591C741.613 403.615 741.853 402.452 741.835 401.102ZM784.66 378.091V388.744H757.707V378.091H784.66ZM762.927 368.29H777.629V405.843C777.629 406.411 777.727 406.891 777.922 407.281C778.117 407.654 778.419 407.938 778.827 408.134C779.236 408.311 779.76 408.4 780.399 408.4C780.843 408.4 781.358 408.347 781.944 408.24C782.547 408.134 782.991 408.045 783.275 407.974L785.406 418.308C784.749 418.503 783.808 418.743 782.583 419.027C781.375 419.311 779.937 419.497 778.268 419.586C774.895 419.763 772.063 419.417 769.772 418.547C767.482 417.659 765.759 416.266 764.605 414.366C763.451 412.466 762.892 410.087 762.927 407.228V368.29ZM813.436 401.102V378.091H828.138V419H814.182V411.223H813.756C812.868 413.833 811.315 415.875 809.095 417.349C806.876 418.805 804.239 419.533 801.185 419.533C798.326 419.533 795.823 418.876 793.674 417.562C791.544 416.248 789.883 414.437 788.694 412.129C787.522 409.82 786.927 407.175 786.909 404.192V378.091H801.611V401.102C801.629 403.126 802.144 404.716 803.156 405.87C804.186 407.024 805.624 407.601 807.47 407.601C808.696 407.601 809.752 407.343 810.64 406.828C811.545 406.296 812.238 405.55 812.717 404.591C813.214 403.615 813.454 402.452 813.436 401.102ZM831.865 419V378.091H846.141V385.868H846.567C847.313 382.991 848.494 380.887 850.109 379.556C851.743 378.224 853.652 377.558 855.836 377.558C856.475 377.558 857.105 377.612 857.727 377.718C858.366 377.807 858.978 377.94 859.564 378.118V390.662C858.836 390.413 857.94 390.227 856.874 390.103C855.809 389.978 854.895 389.916 854.131 389.916C852.693 389.916 851.397 390.245 850.243 390.902C849.106 391.541 848.21 392.446 847.553 393.618C846.896 394.772 846.567 396.131 846.567 397.693V419H831.865ZM877.893 419.746C873.526 419.746 869.761 418.911 866.601 417.242C863.458 415.555 861.034 413.141 859.33 409.998C857.643 406.837 856.8 403.055 856.8 398.652C856.8 394.426 857.652 390.733 859.357 387.572C861.061 384.412 863.467 381.953 866.574 380.195C869.681 378.437 873.348 377.558 877.574 377.558C880.663 377.558 883.46 378.038 885.963 378.996C888.467 379.955 890.607 381.349 892.382 383.178C894.158 384.989 895.525 387.191 896.484 389.783C897.442 392.375 897.922 395.296 897.922 398.545V401.955H861.381V393.858H884.392C884.374 392.686 884.072 391.656 883.487 390.768C882.918 389.863 882.146 389.162 881.169 388.664C880.211 388.15 879.119 387.892 877.893 387.892C876.704 387.892 875.612 388.15 874.618 388.664C873.623 389.162 872.824 389.854 872.221 390.742C871.635 391.63 871.324 392.668 871.288 393.858V402.594C871.288 403.908 871.564 405.08 872.114 406.109C872.664 407.139 873.455 407.947 874.484 408.533C875.514 409.119 876.757 409.412 878.213 409.412C879.225 409.412 880.148 409.27 880.983 408.986C881.835 408.702 882.563 408.293 883.167 407.761C883.771 407.21 884.214 406.553 884.499 405.79H897.922C897.46 408.631 896.368 411.099 894.646 413.194C892.924 415.271 890.642 416.887 887.801 418.041C884.978 419.178 881.675 419.746 877.893 419.746ZM908.161 419.852C906.101 419.852 904.335 419.133 902.861 417.695C901.405 416.239 900.686 414.472 900.704 412.395C900.686 410.371 901.405 408.64 902.861 407.201C904.335 405.763 906.101 405.044 908.161 405.044C910.114 405.044 911.837 405.763 913.328 407.201C914.837 408.64 915.601 410.371 915.619 412.395C915.601 413.78 915.237 415.04 914.527 416.177C913.834 417.295 912.929 418.192 911.81 418.867C910.691 419.524 909.475 419.852 908.161 419.852Z" fill="url(#paint2_radial_303_54)"/>
</g>
<path fill-rule="evenodd" clip-rule="evenodd" d="M648.803 234.894C652.391 229.629 659.694 226.025 668.119 226.025C676.544 226.025 683.847 229.629 687.435 234.894C683.847 240.159 676.544 243.763 668.119 243.763C659.694 243.763 652.391 240.159 648.803 234.894Z" fill="url(#paint3_linear_303_54)"/>
<path d="M648.673 195.775C652.259 190.566 659.557 187 667.977 187C676.396 187 683.694 190.566 687.28 195.775C683.694 200.984 676.396 204.55 667.977 204.55C659.557 204.55 652.259 200.984 648.673 195.775Z" fill="url(#paint4_linear_303_54)"/>
<path d="M668.345 215.485C663.128 220.651 656.051 223.553 648.673 223.553C641.294 223.553 634.218 220.651 629 215.485L648.673 195.775L668.345 215.485Z" fill="url(#paint5_linear_303_54)"/>
<path d="M707 215.495C701.782 220.661 694.706 223.563 687.327 223.563C679.949 223.563 672.872 220.661 667.655 215.495L687.327 195.775L707 215.495Z" fill="url(#paint6_linear_303_54)"/>
</g>
<path d="M1198.33 124.091H1201.18L1204.18 131.42H1204.31L1207.32 124.091H1210.16V135H1207.92V127.9H1207.83L1205.01 134.947H1203.49L1200.66 127.873H1200.57V135H1198.33V124.091ZM1214.37 124.091V135H1212.06V124.091H1214.37ZM1216.26 135V124.091H1218.57V133.098H1223.25V135H1216.26ZM1224.78 135V124.091H1227.08V133.098H1231.76V135H1224.78ZM1235.59 124.091V135H1233.29V124.091H1235.59ZM1247.52 129.545C1247.52 130.735 1247.29 131.747 1246.84 132.582C1246.39 133.416 1245.78 134.054 1245.01 134.494C1244.24 134.931 1243.37 135.149 1242.41 135.149C1241.44 135.149 1240.57 134.929 1239.8 134.489C1239.03 134.048 1238.42 133.411 1237.97 132.576C1237.52 131.742 1237.3 130.732 1237.3 129.545C1237.3 128.356 1237.52 127.344 1237.97 126.509C1238.42 125.675 1239.03 125.039 1239.8 124.602C1240.57 124.162 1241.44 123.942 1242.41 123.942C1243.37 123.942 1244.24 124.162 1245.01 124.602C1245.78 125.039 1246.39 125.675 1246.84 126.509C1247.29 127.344 1247.52 128.356 1247.52 129.545ZM1245.18 129.545C1245.18 128.775 1245.06 128.125 1244.83 127.596C1244.6 127.067 1244.28 126.665 1243.87 126.392C1243.45 126.119 1242.96 125.982 1242.41 125.982C1241.85 125.982 1241.36 126.119 1240.95 126.392C1240.53 126.665 1240.21 127.067 1239.98 127.596C1239.75 128.125 1239.64 128.775 1239.64 129.545C1239.64 130.316 1239.75 130.966 1239.98 131.495C1240.21 132.024 1240.53 132.425 1240.95 132.699C1241.36 132.972 1241.85 133.109 1242.41 133.109C1242.96 133.109 1243.45 132.972 1243.87 132.699C1244.28 132.425 1244.6 132.024 1244.83 131.495C1245.06 130.966 1245.18 130.316 1245.18 129.545ZM1258.35 124.091V135H1256.36L1251.61 128.134H1251.53V135H1249.22V124.091H1251.25L1255.96 130.952H1256.05V124.091H1258.35ZM1261.54 135.138C1261.19 135.138 1260.88 135.014 1260.63 134.766C1260.38 134.513 1260.26 134.212 1260.26 133.86C1260.26 133.512 1260.38 133.214 1260.63 132.965C1260.88 132.717 1261.19 132.592 1261.54 132.592C1261.88 132.592 1262.18 132.717 1262.43 132.965C1262.69 133.214 1262.82 133.512 1262.82 133.86C1262.82 134.094 1262.76 134.309 1262.63 134.505C1262.52 134.696 1262.36 134.851 1262.17 134.968C1261.98 135.082 1261.77 135.138 1261.54 135.138ZM1269.09 124.091H1271.37V131.697C1271.37 132.401 1271.21 133.011 1270.9 133.53C1270.58 134.048 1270.15 134.448 1269.59 134.728C1269.03 135.009 1268.38 135.149 1267.65 135.149C1266.99 135.149 1266.39 135.034 1265.86 134.803C1265.32 134.569 1264.9 134.213 1264.59 133.738C1264.28 133.258 1264.12 132.656 1264.12 131.932H1266.42C1266.43 132.219 1266.49 132.466 1266.6 132.672C1266.71 132.875 1266.86 133.031 1267.06 133.141C1267.26 133.248 1267.49 133.301 1267.76 133.301C1268.05 133.301 1268.29 133.24 1268.48 133.12C1268.68 132.995 1268.83 132.814 1268.94 132.576C1269.04 132.338 1269.09 132.045 1269.09 131.697V124.091ZM1279.19 127.228C1279.15 126.799 1278.97 126.465 1278.65 126.227C1278.32 125.989 1277.88 125.87 1277.33 125.87C1276.95 125.87 1276.64 125.923 1276.38 126.03C1276.12 126.133 1275.92 126.277 1275.78 126.461C1275.64 126.646 1275.58 126.855 1275.58 127.09C1275.57 127.285 1275.61 127.456 1275.7 127.601C1275.79 127.747 1275.92 127.873 1276.08 127.979C1276.24 128.082 1276.42 128.173 1276.63 128.251C1276.84 128.326 1277.07 128.39 1277.3 128.443L1278.28 128.677C1278.76 128.784 1279.2 128.926 1279.59 129.103C1279.99 129.281 1280.34 129.499 1280.63 129.759C1280.92 130.018 1281.14 130.323 1281.3 130.675C1281.47 131.026 1281.55 131.429 1281.55 131.884C1281.55 132.551 1281.38 133.13 1281.04 133.62C1280.71 134.107 1280.23 134.485 1279.59 134.755C1278.97 135.021 1278.21 135.154 1277.32 135.154C1276.44 135.154 1275.67 135.02 1275.02 134.75C1274.37 134.48 1273.86 134.08 1273.49 133.551C1273.13 133.018 1272.94 132.36 1272.92 131.575H1275.16C1275.18 131.941 1275.29 132.246 1275.47 132.491C1275.66 132.733 1275.91 132.915 1276.22 133.04C1276.54 133.161 1276.89 133.221 1277.29 133.221C1277.68 133.221 1278.02 133.164 1278.31 133.05C1278.6 132.937 1278.83 132.779 1278.99 132.576C1279.15 132.374 1279.23 132.141 1279.23 131.879C1279.23 131.634 1279.15 131.428 1279.01 131.261C1278.87 131.094 1278.66 130.952 1278.38 130.835C1278.11 130.717 1277.77 130.611 1277.37 130.515L1276.18 130.217C1275.26 129.993 1274.54 129.643 1274.01 129.167C1273.47 128.691 1273.21 128.05 1273.21 127.244C1273.21 126.584 1273.38 126.007 1273.74 125.513C1274.1 125.02 1274.59 124.634 1275.22 124.357C1275.84 124.08 1276.55 123.942 1277.35 123.942C1278.16 123.942 1278.86 124.08 1279.47 124.357C1280.07 124.634 1280.55 125.02 1280.88 125.513C1281.22 126.007 1281.39 126.578 1281.4 127.228H1279.19ZM1284.39 135.138C1284.04 135.138 1283.74 135.014 1283.48 134.766C1283.23 134.513 1283.11 134.212 1283.11 133.86C1283.11 133.512 1283.23 133.214 1283.48 132.965C1283.74 132.717 1284.04 132.592 1284.39 132.592C1284.73 132.592 1285.03 132.717 1285.28 132.965C1285.54 133.214 1285.67 133.512 1285.67 133.86C1285.67 134.094 1285.61 134.309 1285.49 134.505C1285.37 134.696 1285.21 134.851 1285.02 134.968C1284.83 135.082 1284.62 135.138 1284.39 135.138ZM1297.6 129.545C1297.6 130.735 1297.37 131.747 1296.92 132.582C1296.47 133.416 1295.86 134.054 1295.09 134.494C1294.32 134.931 1293.45 135.149 1292.49 135.149C1291.52 135.149 1290.65 134.929 1289.88 134.489C1289.11 134.048 1288.5 133.411 1288.05 132.576C1287.61 131.742 1287.38 130.732 1287.38 129.545C1287.38 128.356 1287.61 127.344 1288.05 126.509C1288.5 125.675 1289.11 125.039 1289.88 124.602C1290.65 124.162 1291.52 123.942 1292.49 123.942C1293.45 123.942 1294.32 124.162 1295.09 124.602C1295.86 125.039 1296.47 125.675 1296.92 126.509C1297.37 127.344 1297.6 128.356 1297.6 129.545ZM1295.26 129.545C1295.26 128.775 1295.14 128.125 1294.91 127.596C1294.69 127.067 1294.36 126.665 1293.95 126.392C1293.53 126.119 1293.05 125.982 1292.49 125.982C1291.93 125.982 1291.45 126.119 1291.03 126.392C1290.61 126.665 1290.29 127.067 1290.06 127.596C1289.83 128.125 1289.72 128.775 1289.72 129.545C1289.72 130.316 1289.83 130.966 1290.06 131.495C1290.29 132.024 1290.61 132.425 1291.03 132.699C1291.45 132.972 1291.93 133.109 1292.49 133.109C1293.05 133.109 1293.53 132.972 1293.95 132.699C1294.36 132.425 1294.69 132.024 1294.91 131.495C1295.14 130.966 1295.26 130.316 1295.26 129.545ZM1299.31 135V124.091H1303.61C1304.43 124.091 1305.14 124.238 1305.72 124.533C1306.31 124.824 1306.75 125.238 1307.06 125.774C1307.37 126.307 1307.52 126.934 1307.52 127.654C1307.52 128.379 1307.36 129.002 1307.05 129.524C1306.74 130.043 1306.29 130.44 1305.69 130.717C1305.1 130.994 1304.39 131.133 1303.55 131.133H1300.67V129.279H1303.18C1303.62 129.279 1303.99 129.219 1304.28 129.098C1304.57 128.977 1304.78 128.796 1304.93 128.555C1305.07 128.313 1305.14 128.013 1305.14 127.654C1305.14 127.292 1305.07 126.987 1304.93 126.738C1304.78 126.49 1304.57 126.301 1304.27 126.174C1303.98 126.042 1303.61 125.977 1303.17 125.977H1301.61V135H1299.31ZM1305.2 130.036L1307.91 135H1305.36L1302.71 130.036H1305.2ZM1316.38 127.617C1316.31 127.358 1316.2 127.129 1316.07 126.93C1315.93 126.728 1315.77 126.557 1315.57 126.419C1315.38 126.277 1315.16 126.168 1314.91 126.094C1314.67 126.019 1314.4 125.982 1314.1 125.982C1313.54 125.982 1313.05 126.12 1312.63 126.397C1312.21 126.674 1311.88 127.077 1311.65 127.607C1311.41 128.132 1311.3 128.775 1311.3 129.535C1311.3 130.295 1311.41 130.941 1311.64 131.474C1311.87 132.006 1312.2 132.413 1312.62 132.694C1313.05 132.971 1313.54 133.109 1314.12 133.109C1314.64 133.109 1315.09 133.017 1315.46 132.832C1315.83 132.644 1316.11 132.379 1316.31 132.038C1316.51 131.697 1316.61 131.294 1316.61 130.829L1317.08 130.898H1314.26V129.162H1318.83V130.536C1318.83 131.495 1318.63 132.319 1318.22 133.008C1317.82 133.693 1317.26 134.222 1316.55 134.595C1315.84 134.964 1315.03 135.149 1314.11 135.149C1313.09 135.149 1312.19 134.924 1311.41 134.473C1310.64 134.018 1310.04 133.374 1309.6 132.539C1309.17 131.701 1308.96 130.707 1308.96 129.556C1308.96 128.672 1309.09 127.884 1309.34 127.191C1309.6 126.495 1309.96 125.906 1310.43 125.423C1310.89 124.94 1311.44 124.572 1312.05 124.32C1312.67 124.068 1313.34 123.942 1314.06 123.942C1314.68 123.942 1315.25 124.032 1315.79 124.213C1316.32 124.391 1316.79 124.643 1317.2 124.97C1317.62 125.297 1317.96 125.685 1318.22 126.136C1318.48 126.584 1318.65 127.077 1318.73 127.617H1316.38Z" fill="#3B3354"/>
<path d="M16.3349 124.091H19.1793L22.1836 131.42H22.3114L25.3157 124.091H28.1602V135H25.9229V127.9H25.8324L23.0092 134.947H21.4858L18.6626 127.873H18.5721V135H16.3349V124.091ZM32.3669 124.091V135H30.0605V124.091H32.3669ZM34.2646 135V124.091H36.571V133.098H41.2479V135H34.2646ZM42.7753 135V124.091H45.0818V133.098H49.7586V135H42.7753ZM53.5925 124.091V135H51.286V124.091H53.5925ZM65.515 129.545C65.515 130.735 65.2895 131.747 64.8385 132.582C64.3911 133.416 63.7803 134.054 63.0061 134.494C62.2355 134.931 61.3691 135.149 60.4067 135.149C59.4372 135.149 58.5672 134.929 57.7966 134.489C57.026 134.048 56.417 133.411 55.9695 132.576C55.5221 131.742 55.2984 130.732 55.2984 129.545C55.2984 128.356 55.5221 127.344 55.9695 126.509C56.417 125.675 57.026 125.039 57.7966 124.602C58.5672 124.162 59.4372 123.942 60.4067 123.942C61.3691 123.942 62.2355 124.162 63.0061 124.602C63.7803 125.039 64.3911 125.675 64.8385 126.509C65.2895 127.344 65.515 128.356 65.515 129.545ZM63.1766 129.545C63.1766 128.775 63.0612 128.125 62.8303 127.596C62.6031 127.067 62.2817 126.665 61.8662 126.392C61.4507 126.119 60.9642 125.982 60.4067 125.982C59.8492 125.982 59.3627 126.119 58.9472 126.392C58.5317 126.665 58.2085 127.067 57.9777 127.596C57.7504 128.125 57.6368 128.775 57.6368 129.545C57.6368 130.316 57.7504 130.966 57.9777 131.495C58.2085 132.024 58.5317 132.425 58.9472 132.699C59.3627 132.972 59.8492 133.109 60.4067 133.109C60.9642 133.109 61.4507 132.972 61.8662 132.699C62.2817 132.425 62.6031 132.024 62.8303 131.495C63.0612 130.966 63.1766 130.316 63.1766 129.545ZM76.3482 124.091V135H74.356L69.6099 128.134H69.53V135H67.2235V124.091H69.2477L73.9565 130.952H74.0524V124.091H76.3482ZM79.5376 135.138C79.186 135.138 78.8841 135.014 78.632 134.766C78.3834 134.513 78.2591 134.212 78.2591 133.86C78.2591 133.512 78.3834 133.214 78.632 132.965C78.8841 132.717 79.186 132.592 79.5376 132.592C79.8785 132.592 80.1768 132.717 80.4324 132.965C80.6881 133.214 80.816 133.512 80.816 133.86C80.816 134.094 80.7556 134.309 80.6349 134.505C80.5177 134.696 80.3632 134.851 80.1714 134.968C79.9797 135.082 79.7684 135.138 79.5376 135.138ZM87.0895 124.091H89.3693V131.697C89.3693 132.401 89.2113 133.011 88.8952 133.53C88.5827 134.048 88.1477 134.448 87.5902 134.728C87.0327 135.009 86.3846 135.149 85.646 135.149C84.989 135.149 84.3924 135.034 83.8562 134.803C83.3235 134.569 82.9009 134.213 82.5884 133.738C82.2759 133.258 82.1214 132.656 82.125 131.932H84.4208C84.4279 132.219 84.4865 132.466 84.5966 132.672C84.7102 132.875 84.8647 133.031 85.06 133.141C85.2589 133.248 85.4933 133.301 85.7631 133.301C86.0472 133.301 86.2869 133.24 86.4822 133.12C86.6811 132.995 86.832 132.814 86.935 132.576C87.038 132.338 87.0895 132.045 87.0895 131.697V124.091ZM97.1942 127.228C97.1516 126.799 96.9688 126.465 96.6456 126.227C96.3224 125.989 95.8839 125.87 95.3299 125.87C94.9535 125.87 94.6357 125.923 94.3764 126.03C94.1172 126.133 93.9183 126.277 93.7798 126.461C93.6449 126.646 93.5774 126.855 93.5774 127.09C93.5703 127.285 93.6112 127.456 93.6999 127.601C93.7923 127.747 93.9183 127.873 94.0781 127.979C94.2379 128.082 94.4226 128.173 94.6321 128.251C94.8416 128.326 95.0653 128.39 95.3033 128.443L96.2834 128.677C96.7592 128.784 97.196 128.926 97.5938 129.103C97.9915 129.281 98.3359 129.499 98.6271 129.759C98.9183 130.018 99.1438 130.323 99.3036 130.675C99.467 131.026 99.5504 131.429 99.554 131.884C99.5504 132.551 99.38 133.13 99.0426 133.62C98.7088 134.107 98.2259 134.485 97.5938 134.755C96.9652 135.021 96.207 135.154 95.3192 135.154C94.4386 135.154 93.6715 135.02 93.0181 134.75C92.3683 134.48 91.8604 134.08 91.4947 133.551C91.1325 133.018 90.9425 132.36 90.9247 131.575H93.1566C93.1815 131.941 93.2862 132.246 93.4709 132.491C93.6591 132.733 93.9094 132.915 94.2219 133.04C94.538 133.161 94.8949 133.221 95.2926 133.221C95.6832 133.221 96.0224 133.164 96.31 133.05C96.6012 132.937 96.8267 132.779 96.9865 132.576C97.1463 132.374 97.2262 132.141 97.2262 131.879C97.2262 131.634 97.1534 131.428 97.0078 131.261C96.8658 131.094 96.6563 130.952 96.3793 130.835C96.1058 130.717 95.7702 130.611 95.3725 130.515L94.1847 130.217C93.2649 129.993 92.5387 129.643 92.006 129.167C91.4734 128.691 91.2088 128.05 91.2124 127.244C91.2088 126.584 91.3846 126.007 91.7397 125.513C92.0984 125.02 92.5902 124.634 93.2152 124.357C93.8402 124.08 94.5504 123.942 95.3459 123.942C96.1555 123.942 96.8622 124.08 97.4659 124.357C98.0732 124.634 98.5455 125.02 98.8828 125.513C99.2202 126.007 99.3942 126.578 99.4048 127.228H97.1942ZM102.389 135.138C102.038 135.138 101.736 135.014 101.484 134.766C101.235 134.513 101.111 134.212 101.111 133.86C101.111 133.512 101.235 133.214 101.484 132.965C101.736 132.717 102.038 132.592 102.389 132.592C102.73 132.592 103.028 132.717 103.284 132.965C103.54 133.214 103.668 133.512 103.668 133.86C103.668 134.094 103.607 134.309 103.486 134.505C103.369 134.696 103.215 134.851 103.023 134.968C102.831 135.082 102.62 135.138 102.389 135.138ZM115.598 129.545C115.598 130.735 115.373 131.747 114.922 132.582C114.474 133.416 113.863 134.054 113.089 134.494C112.319 134.931 111.452 135.149 110.49 135.149C109.52 135.149 108.65 134.929 107.88 134.489C107.109 134.048 106.5 133.411 106.053 132.576C105.605 131.742 105.381 130.732 105.381 129.545C105.381 128.356 105.605 127.344 106.053 126.509C106.5 125.675 107.109 125.039 107.88 124.602C108.65 124.162 109.52 123.942 110.49 123.942C111.452 123.942 112.319 124.162 113.089 124.602C113.863 125.039 114.474 125.675 114.922 126.509C115.373 127.344 115.598 128.356 115.598 129.545ZM113.26 129.545C113.26 128.775 113.144 128.125 112.913 127.596C112.686 127.067 112.365 126.665 111.949 126.392C111.534 126.119 111.047 125.982 110.49 125.982C109.932 125.982 109.446 126.119 109.03 126.392C108.615 126.665 108.292 127.067 108.061 127.596C107.833 128.125 107.72 128.775 107.72 129.545C107.72 130.316 107.833 130.966 108.061 131.495C108.292 132.024 108.615 132.425 109.03 132.699C109.446 132.972 109.932 133.109 110.49 133.109C111.047 133.109 111.534 132.972 111.949 132.699C112.365 132.425 112.686 132.024 112.913 131.495C113.144 130.966 113.26 130.316 113.26 129.545ZM117.307 135V124.091H121.611C122.434 124.091 123.138 124.238 123.72 124.533C124.306 124.824 124.752 125.238 125.057 125.774C125.366 126.307 125.52 126.934 125.52 127.654C125.52 128.379 125.364 129.002 125.052 129.524C124.739 130.043 124.286 130.44 123.693 130.717C123.104 130.994 122.39 131.133 121.552 131.133H118.67V129.279H121.179C121.619 129.279 121.985 129.219 122.276 129.098C122.568 128.977 122.784 128.796 122.926 128.555C123.072 128.313 123.145 128.013 123.145 127.654C123.145 127.292 123.072 126.987 122.926 126.738C122.784 126.49 122.566 126.301 122.271 126.174C121.98 126.042 121.612 125.977 121.168 125.977H119.613V135H117.307ZM123.198 130.036L125.909 135H123.363L120.71 130.036H123.198ZM134.384 127.617C134.309 127.358 134.205 127.129 134.07 126.93C133.935 126.728 133.77 126.557 133.574 126.419C133.383 126.277 133.162 126.168 132.914 126.094C132.669 126.019 132.397 125.982 132.099 125.982C131.541 125.982 131.051 126.12 130.629 126.397C130.21 126.674 129.883 127.077 129.649 127.607C129.414 128.132 129.297 128.775 129.297 129.535C129.297 130.295 129.412 130.941 129.643 131.474C129.874 132.006 130.201 132.413 130.623 132.694C131.046 132.971 131.545 133.109 132.12 133.109C132.642 133.109 133.088 133.017 133.457 132.832C133.83 132.644 134.114 132.379 134.309 132.038C134.508 131.697 134.608 131.294 134.608 130.829L135.076 130.898H132.264V129.162H136.829V130.536C136.829 131.495 136.627 132.319 136.222 133.008C135.817 133.693 135.259 134.222 134.549 134.595C133.839 134.964 133.026 135.149 132.109 135.149C131.087 135.149 130.188 134.924 129.414 134.473C128.64 134.018 128.036 133.374 127.603 132.539C127.173 131.701 126.959 130.707 126.959 129.556C126.959 128.672 127.086 127.884 127.342 127.191C127.601 126.495 127.964 125.906 128.429 125.423C128.894 124.94 129.435 124.572 130.053 124.32C130.671 124.068 131.341 123.942 132.062 123.942C132.679 123.942 133.255 124.032 133.787 124.213C134.32 124.391 134.792 124.643 135.204 124.97C135.62 125.297 135.959 125.685 136.222 126.136C136.484 126.584 136.653 127.077 136.728 127.617H134.384Z" fill="#3B3354"/>
<path d="M424.444 135V124.091H426.75V133.098H431.427V135H424.444ZM432.955 135V124.091H440.305V125.993H435.261V128.592H439.927V130.494H435.261V133.098H440.327V135H432.955ZM448.057 127.228C448.014 126.799 447.832 126.465 447.508 126.227C447.185 125.989 446.747 125.87 446.193 125.87C445.816 125.87 445.498 125.923 445.239 126.03C444.98 126.133 444.781 126.277 444.643 126.461C444.508 126.646 444.44 126.855 444.44 127.09C444.433 127.285 444.474 127.456 444.563 127.601C444.655 127.747 444.781 127.873 444.941 127.979C445.101 128.082 445.285 128.173 445.495 128.251C445.704 128.326 445.928 128.39 446.166 128.443L447.146 128.677C447.622 128.784 448.059 128.926 448.457 129.103C448.854 129.281 449.199 129.499 449.49 129.759C449.781 130.018 450.007 130.323 450.166 130.675C450.33 131.026 450.413 131.429 450.417 131.884C450.413 132.551 450.243 133.13 449.905 133.62C449.572 134.107 449.089 134.485 448.457 134.755C447.828 135.021 447.07 135.154 446.182 135.154C445.301 135.154 444.534 135.02 443.881 134.75C443.231 134.48 442.723 134.08 442.357 133.551C441.995 133.018 441.805 132.36 441.788 131.575H444.019C444.044 131.941 444.149 132.246 444.334 132.491C444.522 132.733 444.772 132.915 445.085 133.04C445.401 133.161 445.758 133.221 446.155 133.221C446.546 133.221 446.885 133.164 447.173 133.05C447.464 132.937 447.689 132.779 447.849 132.576C448.009 132.374 448.089 132.141 448.089 131.879C448.089 131.634 448.016 131.428 447.871 131.261C447.729 131.094 447.519 130.952 447.242 130.835C446.969 130.717 446.633 130.611 446.235 130.515L445.047 130.217C444.128 129.993 443.402 129.643 442.869 129.167C442.336 128.691 442.072 128.05 442.075 127.244C442.072 126.584 442.247 126.007 442.602 125.513C442.961 125.02 443.453 124.634 444.078 124.357C444.703 124.08 445.413 123.942 446.209 123.942C447.018 123.942 447.725 124.08 448.329 124.357C448.936 124.634 449.408 125.02 449.746 125.513C450.083 126.007 450.257 126.578 450.268 127.228H448.057ZM457.886 127.228C457.844 126.799 457.661 126.465 457.337 126.227C457.014 125.989 456.576 125.87 456.022 125.87C455.645 125.87 455.328 125.923 455.068 126.03C454.809 126.133 454.61 126.277 454.472 126.461C454.337 126.646 454.269 126.855 454.269 127.09C454.262 127.285 454.303 127.456 454.392 127.601C454.484 127.747 454.61 127.873 454.77 127.979C454.93 128.082 455.114 128.173 455.324 128.251C455.534 128.326 455.757 128.39 455.995 128.443L456.975 128.677C457.451 128.784 457.888 128.926 458.286 129.103C458.683 129.281 459.028 129.499 459.319 129.759C459.61 130.018 459.836 130.323 459.996 130.675C460.159 131.026 460.242 131.429 460.246 131.884C460.242 132.551 460.072 133.13 459.735 133.62C459.401 134.107 458.918 134.485 458.286 134.755C457.657 135.021 456.899 135.154 456.011 135.154C455.13 135.154 454.363 135.02 453.71 134.75C453.06 134.48 452.552 134.08 452.187 133.551C451.824 133.018 451.634 132.36 451.617 131.575H453.848C453.873 131.941 453.978 132.246 454.163 132.491C454.351 132.733 454.601 132.915 454.914 133.04C455.23 133.161 455.587 133.221 455.985 133.221C456.375 133.221 456.714 133.164 457.002 133.05C457.293 132.937 457.519 132.779 457.678 132.576C457.838 132.374 457.918 132.141 457.918 131.879C457.918 131.634 457.845 131.428 457.7 131.261C457.558 131.094 457.348 130.952 457.071 130.835C456.798 130.717 456.462 130.611 456.064 130.515L454.877 130.217C453.957 129.993 453.231 129.643 452.698 129.167C452.165 128.691 451.901 128.05 451.904 127.244C451.901 126.584 452.076 126.007 452.432 125.513C452.79 125.02 453.282 124.634 453.907 124.357C454.532 124.08 455.242 123.942 456.038 123.942C456.847 123.942 457.554 124.08 458.158 124.357C458.765 124.634 459.237 125.02 459.575 125.513C459.912 126.007 460.086 126.578 460.097 127.228H457.886ZM464.853 125.993V124.091H473.813V125.993H470.473V135H468.193V125.993H464.853ZM475.288 135V124.091H477.595V128.592H482.277V124.091H484.578V135H482.277V130.494H477.595V135H475.288ZM488.36 135H485.889L489.655 124.091H492.627L496.388 135H493.916L491.183 126.584H491.098L488.36 135ZM488.206 130.712H494.044V132.512H488.206V130.712ZM506.825 124.091V135H504.833L500.087 128.134H500.007V135H497.701V124.091H499.725L504.434 130.952H504.529V124.091H506.825ZM516.885 124.091V135H514.578V126.28H514.514L512.016 127.846V125.801L514.717 124.091H516.885ZM519.541 135V124.091H521.848V128.901H521.992L525.917 124.091H528.682L524.634 128.975L528.73 135H525.971L522.982 130.515L521.848 131.9V135H519.541ZM529.883 135V124.091H534.251C535.054 124.091 535.723 124.21 536.259 124.448C536.795 124.686 537.199 125.016 537.468 125.439C537.738 125.858 537.873 126.341 537.873 126.887C537.873 127.314 537.788 127.688 537.618 128.011C537.447 128.331 537.213 128.594 536.914 128.8C536.62 129.002 536.282 129.146 535.902 129.231V129.338C536.318 129.355 536.707 129.473 537.069 129.689C537.435 129.906 537.731 130.21 537.958 130.6C538.186 130.987 538.299 131.449 538.299 131.985C538.299 132.564 538.156 133.081 537.868 133.535C537.584 133.986 537.163 134.343 536.606 134.606C536.048 134.869 535.361 135 534.544 135H529.883ZM532.19 133.114H534.07C534.713 133.114 535.182 132.992 535.476 132.747C535.771 132.498 535.918 132.168 535.918 131.756C535.918 131.454 535.846 131.188 535.7 130.957C535.554 130.726 535.347 130.545 535.077 130.414C534.81 130.282 534.493 130.217 534.123 130.217H532.19V133.114ZM532.19 128.656H533.9C534.216 128.656 534.496 128.601 534.741 128.491C534.99 128.377 535.185 128.217 535.327 128.011C535.473 127.805 535.545 127.559 535.545 127.271C535.545 126.877 535.405 126.559 535.125 126.317C534.848 126.076 534.454 125.955 533.942 125.955H532.19V128.656ZM552.897 127.91H550.564C550.522 127.608 550.435 127.34 550.303 127.106C550.172 126.868 550.003 126.665 549.797 126.499C549.591 126.332 549.353 126.204 549.083 126.115C548.817 126.026 548.528 125.982 548.215 125.982C547.65 125.982 547.159 126.122 546.74 126.403C546.321 126.68 545.996 127.085 545.765 127.617C545.534 128.146 545.419 128.789 545.419 129.545C545.419 130.323 545.534 130.977 545.765 131.506C545.999 132.035 546.326 132.434 546.745 132.704C547.164 132.974 547.649 133.109 548.199 133.109C548.508 133.109 548.794 133.068 549.057 132.987C549.323 132.905 549.559 132.786 549.765 132.63C549.971 132.47 550.142 132.276 550.277 132.049C550.415 131.822 550.511 131.562 550.564 131.271L552.897 131.282C552.837 131.783 552.686 132.266 552.444 132.731C552.207 133.192 551.885 133.606 551.48 133.972C551.079 134.334 550.6 134.622 550.042 134.835C549.488 135.044 548.861 135.149 548.162 135.149C547.189 135.149 546.319 134.929 545.552 134.489C544.788 134.048 544.185 133.411 543.741 132.576C543.3 131.742 543.08 130.732 543.08 129.545C543.08 128.356 543.304 127.344 543.751 126.509C544.199 125.675 544.806 125.039 545.573 124.602C546.34 124.162 547.203 123.942 548.162 123.942C548.794 123.942 549.38 124.031 549.92 124.208C550.463 124.386 550.944 124.645 551.363 124.986C551.782 125.323 552.123 125.737 552.386 126.227C552.652 126.717 552.823 127.278 552.897 127.91ZM564.576 129.545C564.576 130.735 564.351 131.747 563.9 132.582C563.452 133.416 562.841 134.054 562.067 134.494C561.297 134.931 560.43 135.149 559.468 135.149C558.498 135.149 557.628 134.929 556.858 134.489C556.087 134.048 555.478 133.411 555.031 132.576C554.583 131.742 554.359 130.732 554.359 129.545C554.359 128.356 554.583 127.344 555.031 126.509C555.478 125.675 556.087 125.039 556.858 124.602C557.628 124.162 558.498 123.942 559.468 123.942C560.43 123.942 561.297 124.162 562.067 124.602C562.841 125.039 563.452 125.675 563.9 126.509C564.351 127.344 564.576 128.356 564.576 129.545ZM562.238 129.545C562.238 128.775 562.122 128.125 561.891 127.596C561.664 127.067 561.343 126.665 560.927 126.392C560.512 126.119 560.025 125.982 559.468 125.982C558.91 125.982 558.424 126.119 558.008 126.392C557.593 126.665 557.27 127.067 557.039 127.596C556.811 128.125 556.698 128.775 556.698 129.545C556.698 130.316 556.811 130.966 557.039 131.495C557.27 132.024 557.593 132.425 558.008 132.699C558.424 132.972 558.91 133.109 559.468 133.109C560.025 133.109 560.512 132.972 560.927 132.699C561.343 132.425 561.664 132.024 561.891 131.495C562.122 130.966 562.238 130.316 562.238 129.545ZM566.285 124.091H569.129L572.133 131.42H572.261L575.265 124.091H578.11V135H575.873V127.9H575.782L572.959 134.947H571.436L568.612 127.873H568.522V135H566.285V124.091ZM580.01 135V124.091H584.314C585.142 124.091 585.846 124.249 586.429 124.565C587.011 124.877 587.455 125.312 587.761 125.87C588.069 126.424 588.224 127.063 588.224 127.788C588.224 128.512 588.068 129.151 587.755 129.705C587.443 130.259 586.99 130.691 586.397 131C585.807 131.309 585.094 131.463 584.256 131.463H581.512V129.615H583.883C584.327 129.615 584.692 129.538 584.98 129.386C585.271 129.229 585.488 129.015 585.63 128.741C585.775 128.464 585.848 128.146 585.848 127.788C585.848 127.425 585.775 127.109 585.63 126.839C585.488 126.566 585.271 126.355 584.98 126.206C584.689 126.053 584.319 125.977 583.872 125.977H582.317V135H580.01ZM592.029 124.091V135H589.722V124.091H592.029ZM593.926 135V124.091H596.233V133.098H600.909V135H593.926ZM602.437 135V124.091H609.788V125.993H604.743V128.592H609.41V130.494H604.743V133.098H609.809V135H602.437ZM611.621 135V124.091H615.925C616.749 124.091 617.452 124.238 618.035 124.533C618.621 124.824 619.066 125.238 619.372 125.774C619.681 126.307 619.835 126.934 619.835 127.654C619.835 128.379 619.679 129.002 619.367 129.524C619.054 130.043 618.601 130.44 618.008 130.717C617.419 130.994 616.705 131.133 615.867 131.133H612.985V129.279H615.494C615.934 129.279 616.3 129.219 616.591 129.098C616.883 128.977 617.099 128.796 617.241 128.555C617.387 128.313 617.46 128.013 617.46 127.654C617.46 127.292 617.387 126.987 617.241 126.738C617.099 126.49 616.881 126.301 616.586 126.174C616.295 126.042 615.927 125.977 615.483 125.977H613.928V135H611.621ZM617.513 130.036L620.224 135H617.678L615.025 130.036H617.513ZM626.52 128.645V130.446H621.545V128.645H626.52ZM630.377 135H627.905L631.671 124.091H634.644L638.404 135H635.933L633.2 126.584H633.115L630.377 135ZM630.222 130.712H636.06V132.512H630.222V130.712ZM646.455 124.091H648.762V131.175C648.762 131.971 648.572 132.667 648.192 133.263C647.816 133.86 647.288 134.325 646.61 134.659C645.932 134.989 645.142 135.154 644.24 135.154C643.334 135.154 642.542 134.989 641.864 134.659C641.186 134.325 640.658 133.86 640.282 133.263C639.905 132.667 639.717 131.971 639.717 131.175V124.091H642.024V130.978C642.024 131.394 642.114 131.763 642.295 132.086C642.48 132.409 642.739 132.663 643.073 132.848C643.407 133.033 643.796 133.125 644.24 133.125C644.687 133.125 645.076 133.033 645.406 132.848C645.74 132.663 645.997 132.409 646.178 132.086C646.363 131.763 646.455 131.394 646.455 130.978V124.091ZM657.893 127.617C657.819 127.358 657.714 127.129 657.579 126.93C657.444 126.728 657.279 126.557 657.084 126.419C656.892 126.277 656.672 126.168 656.423 126.094C656.178 126.019 655.906 125.982 655.608 125.982C655.051 125.982 654.561 126.12 654.138 126.397C653.719 126.674 653.392 127.077 653.158 127.607C652.923 128.132 652.806 128.775 652.806 129.535C652.806 130.295 652.922 130.941 653.152 131.474C653.383 132.006 653.71 132.413 654.133 132.694C654.555 132.971 655.054 133.109 655.629 133.109C656.151 133.109 656.597 133.017 656.966 132.832C657.339 132.644 657.623 132.379 657.819 132.038C658.018 131.697 658.117 131.294 658.117 130.829L658.586 130.898H655.773V129.162H660.338V130.536C660.338 131.495 660.136 132.319 659.731 133.008C659.326 133.693 658.769 134.222 658.058 134.595C657.348 134.964 656.535 135.149 655.619 135.149C654.596 135.149 653.698 134.924 652.923 134.473C652.149 134.018 651.546 133.374 651.112 132.539C650.683 131.701 650.468 130.707 650.468 129.556C650.468 128.672 650.596 127.884 650.851 127.191C651.111 126.495 651.473 125.906 651.938 125.423C652.403 124.94 652.945 124.572 653.563 124.32C654.181 124.068 654.85 123.942 655.571 123.942C656.189 123.942 656.764 124.032 657.297 124.213C657.829 124.391 658.302 124.643 658.714 124.97C659.129 125.297 659.468 125.685 659.731 126.136C659.994 126.584 660.162 127.077 660.237 127.617H657.893ZM662.071 124.091H664.915L667.919 131.42H668.047L671.052 124.091H673.896V135H671.659V127.9H671.568L668.745 134.947H667.222L664.398 127.873H664.308V135H662.071V124.091ZM675.796 135V124.091H683.147V125.993H678.103V128.592H682.769V130.494H678.103V133.098H683.168V135H675.796ZM694.106 124.091V135H692.113L687.367 128.134H687.287V135H684.981V124.091H687.005L691.714 130.952H691.81V124.091H694.106ZM695.596 125.993V124.091H704.555V125.993H701.215V135H698.936V125.993H695.596ZM706.031 135V124.091H713.382V125.993H708.337V128.592H713.003V130.494H708.337V133.098H713.403V135H706.031ZM719.082 135H715.215V124.091H719.114C720.212 124.091 721.156 124.309 721.948 124.746C722.74 125.179 723.349 125.803 723.775 126.616C724.205 127.429 724.42 128.402 724.42 129.535C724.42 130.671 724.205 131.648 723.775 132.464C723.349 133.281 722.737 133.908 721.938 134.345C721.142 134.782 720.19 135 719.082 135ZM717.522 133.024H718.987C719.668 133.024 720.242 132.903 720.707 132.662C721.176 132.417 721.527 132.038 721.762 131.527C722 131.012 722.119 130.348 722.119 129.535C722.119 128.729 722 128.07 721.762 127.559C721.527 127.047 721.178 126.671 720.712 126.429C720.247 126.188 719.674 126.067 718.992 126.067H717.522V133.024ZM731.571 124.091L734.208 132.379H734.309L736.951 124.091H739.508L735.747 135H732.775L729.009 124.091H731.571ZM743.127 124.091V135H740.821V124.091H743.127ZM745.025 135V124.091H749.329C750.153 124.091 750.856 124.238 751.438 124.533C752.024 124.824 752.47 125.238 752.775 125.774C753.084 126.307 753.239 126.934 753.239 127.654C753.239 128.379 753.082 129.002 752.77 129.524C752.457 130.043 752.005 130.44 751.412 130.717C750.822 130.994 750.108 131.133 749.27 131.133H746.388V129.279H748.897C749.338 129.279 749.703 129.219 749.995 129.098C750.286 128.977 750.502 128.796 750.644 128.555C750.79 128.313 750.863 128.013 750.863 127.654C750.863 127.292 750.79 126.987 750.644 126.738C750.502 126.49 750.284 126.301 749.989 126.174C749.698 126.042 749.331 125.977 748.887 125.977H747.331V135H745.025ZM750.916 130.036L753.627 135H751.081L748.429 130.036H750.916ZM754.453 125.993V124.091H763.413V125.993H760.073V135H757.793V125.993H754.453ZM771.626 124.091H773.933V131.175C773.933 131.971 773.743 132.667 773.363 133.263C772.986 133.86 772.459 134.325 771.781 134.659C771.103 134.989 770.312 135.154 769.41 135.154C768.505 135.154 767.713 134.989 767.035 134.659C766.356 134.325 765.829 133.86 765.453 133.263C765.076 132.667 764.888 131.971 764.888 131.175V124.091H767.195V130.978C767.195 131.394 767.285 131.763 767.466 132.086C767.651 132.409 767.91 132.663 768.244 132.848C768.578 133.033 768.967 133.125 769.41 133.125C769.858 133.125 770.247 133.033 770.577 132.848C770.911 132.663 771.168 132.409 771.349 132.086C771.534 131.763 771.626 131.394 771.626 130.978V124.091ZM777.711 135H775.239L779.005 124.091H781.977L785.738 135H783.267L780.534 126.584H780.449L777.711 135ZM777.556 130.712H783.394V132.512H777.556V130.712ZM787.051 135V124.091H789.358V133.098H794.034V135H787.051ZM802.901 135H799.034V124.091H802.933C804.03 124.091 804.975 124.309 805.767 124.746C806.558 125.179 807.167 125.803 807.594 126.616C808.023 127.429 808.238 128.402 808.238 129.535C808.238 130.671 808.023 131.648 807.594 132.464C807.167 133.281 806.555 133.908 805.756 134.345C804.96 134.782 804.009 135 802.901 135ZM801.34 133.024H802.805C803.487 133.024 804.06 132.903 804.525 132.662C804.994 132.417 805.346 132.038 805.58 131.527C805.818 131.012 805.937 130.348 805.937 129.535C805.937 128.729 805.818 128.07 805.58 127.559C805.346 127.047 804.996 126.671 804.531 126.429C804.066 126.188 803.492 126.067 802.81 126.067H801.34V133.024ZM819.972 129.545C819.972 130.735 819.746 131.747 819.295 132.582C818.848 133.416 818.237 134.054 817.463 134.494C816.692 134.931 815.826 135.149 814.863 135.149C813.894 135.149 813.024 134.929 812.253 134.489C811.483 134.048 810.874 133.411 810.426 132.576C809.979 131.742 809.755 130.732 809.755 129.545C809.755 128.356 809.979 127.344 810.426 126.509C810.874 125.675 811.483 125.039 812.253 124.602C813.024 124.162 813.894 123.942 814.863 123.942C815.826 123.942 816.692 124.162 817.463 124.602C818.237 125.039 818.848 125.675 819.295 126.509C819.746 127.344 819.972 128.356 819.972 129.545ZM817.633 129.545C817.633 128.775 817.518 128.125 817.287 127.596C817.06 127.067 816.738 126.665 816.323 126.392C815.907 126.119 815.421 125.982 814.863 125.982C814.306 125.982 813.819 126.119 813.404 126.392C812.988 126.665 812.665 127.067 812.434 127.596C812.207 128.125 812.093 128.775 812.093 129.545C812.093 130.316 812.207 130.966 812.434 131.495C812.665 132.024 812.988 132.425 813.404 132.699C813.819 132.972 814.306 133.109 814.863 133.109C815.421 133.109 815.907 132.972 816.323 132.699C816.738 132.425 817.06 132.024 817.287 131.495C817.518 130.966 817.633 130.316 817.633 129.545ZM821.68 124.091H824.525L827.529 131.42H827.657L830.661 124.091H833.505V135H831.268V127.9H831.178L828.354 134.947H826.831L824.008 127.873H823.917V135H821.68V124.091ZM836.689 135.138C836.338 135.138 836.036 135.014 835.784 134.766C835.535 134.513 835.411 134.212 835.411 133.86C835.411 133.512 835.535 133.214 835.784 132.965C836.036 132.717 836.338 132.592 836.689 132.592C837.03 132.592 837.329 132.717 837.584 132.965C837.84 133.214 837.968 133.512 837.968 133.86C837.968 134.094 837.907 134.309 837.787 134.505C837.67 134.696 837.515 134.851 837.323 134.968C837.132 135.082 836.92 135.138 836.689 135.138ZM845.139 124.091V135H842.832V124.091H845.139ZM846.621 125.993V124.091H855.581V125.993H852.241V135H849.961V125.993H846.621ZM862.974 127.228C862.931 126.799 862.749 126.465 862.425 126.227C862.102 125.989 861.664 125.87 861.11 125.87C860.733 125.87 860.415 125.923 860.156 126.03C859.897 126.133 859.698 126.277 859.56 126.461C859.425 126.646 859.357 126.855 859.357 127.09C859.35 127.285 859.391 127.456 859.48 127.601C859.572 127.747 859.698 127.873 859.858 127.979C860.018 128.082 860.202 128.173 860.412 128.251C860.621 128.326 860.845 128.39 861.083 128.443L862.063 128.677C862.539 128.784 862.976 128.926 863.374 129.103C863.771 129.281 864.116 129.499 864.407 129.759C864.698 130.018 864.924 130.323 865.083 130.675C865.247 131.026 865.33 131.429 865.334 131.884C865.33 132.551 865.16 133.13 864.822 133.62C864.489 134.107 864.006 134.485 863.374 134.755C862.745 135.021 861.987 135.154 861.099 135.154C860.218 135.154 859.451 135.02 858.798 134.75C858.148 134.48 857.64 134.08 857.274 133.551C856.912 133.018 856.722 132.36 856.705 131.575H858.936C858.961 131.941 859.066 132.246 859.251 132.491C859.439 132.733 859.689 132.915 860.002 133.04C860.318 133.161 860.675 133.221 861.072 133.221C861.463 133.221 861.802 133.164 862.09 133.05C862.381 132.937 862.606 132.779 862.766 132.576C862.926 132.374 863.006 132.141 863.006 131.879C863.006 131.634 862.933 131.428 862.788 131.261C862.646 131.094 862.436 130.952 862.159 130.835C861.886 130.717 861.55 130.611 861.152 130.515L859.964 130.217C859.045 129.993 858.318 129.643 857.786 129.167C857.253 128.691 856.989 128.05 856.992 127.244C856.989 126.584 857.164 126.007 857.519 125.513C857.878 125.02 858.37 124.634 858.995 124.357C859.62 124.08 860.33 123.942 861.126 123.942C861.935 123.942 862.642 124.08 863.246 124.357C863.853 124.634 864.325 125.02 864.663 125.513C865 126.007 865.174 126.578 865.185 127.228H862.974ZM870.357 135V124.091H877.58V125.993H872.663V128.592H877.1V130.494H872.663V135H870.357ZM879.649 135H877.178L880.944 124.091H883.916L887.677 135H885.205L882.472 126.584H882.387L879.649 135ZM879.495 130.712H885.333V132.512H879.495V130.712ZM894.659 127.228C894.616 126.799 894.433 126.465 894.11 126.227C893.787 125.989 893.348 125.87 892.794 125.87C892.418 125.87 892.1 125.923 891.841 126.03C891.582 126.133 891.383 126.277 891.244 126.461C891.109 126.646 891.042 126.855 891.042 127.09C891.035 127.285 891.076 127.456 891.164 127.601C891.257 127.747 891.383 127.873 891.542 127.979C891.702 128.082 891.887 128.173 892.096 128.251C892.306 128.326 892.53 128.39 892.768 128.443L893.748 128.677C894.224 128.784 894.66 128.926 895.058 129.103C895.456 129.281 895.8 129.499 896.091 129.759C896.383 130.018 896.608 130.323 896.768 130.675C896.931 131.026 897.015 131.429 897.018 131.884C897.015 132.551 896.844 133.13 896.507 133.62C896.173 134.107 895.69 134.485 895.058 134.755C894.43 135.021 893.671 135.154 892.784 135.154C891.903 135.154 891.136 135.02 890.482 134.75C889.833 134.48 889.325 134.08 888.959 133.551C888.597 133.018 888.407 132.36 888.389 131.575H890.621C890.646 131.941 890.751 132.246 890.935 132.491C891.123 132.733 891.374 132.915 891.686 133.04C892.002 133.161 892.359 133.221 892.757 133.221C893.148 133.221 893.487 133.164 893.774 133.05C894.066 132.937 894.291 132.779 894.451 132.576C894.611 132.374 894.691 132.141 894.691 131.879C894.691 131.634 894.618 131.428 894.472 131.261C894.33 131.094 894.121 130.952 893.844 130.835C893.57 130.717 893.235 130.611 892.837 130.515L891.649 130.217C890.729 129.993 890.003 129.643 889.47 129.167C888.938 128.691 888.673 128.05 888.677 127.244C888.673 126.584 888.849 126.007 889.204 125.513C889.563 125.02 890.055 124.634 890.68 124.357C891.305 124.08 892.015 123.942 892.81 123.942C893.62 123.942 894.327 124.08 894.93 124.357C895.538 124.634 896.01 125.02 896.347 125.513C896.685 126.007 896.859 126.578 896.869 127.228H894.659ZM898.154 125.993V124.091H907.114V125.993H903.774V135H901.494V125.993H898.154ZM911.258 124.091L911.05 131.729H909.101L908.888 124.091H911.258ZM910.075 135.138C909.724 135.138 909.422 135.014 909.17 134.766C908.918 134.513 908.793 134.212 908.797 133.86C908.793 133.512 908.918 133.214 909.17 132.965C909.422 132.717 909.724 132.592 910.075 132.592C910.413 132.592 910.709 132.717 910.965 132.965C911.221 133.214 911.35 133.512 911.354 133.86C911.35 134.094 911.288 134.309 911.167 134.505C911.05 134.696 910.896 134.851 910.704 134.968C910.512 135.082 910.303 135.138 910.075 135.138Z" fill="#3B3354"/>
<defs>
<filter id="filter0_d_303_54" x="0" y="0" width="1336" height="496" filterUnits="userSpaceOnUse" color-interpolation-filters="sRGB">
<feFlood flood-opacity="0" result="BackgroundImageFix"/>
<feColorMatrix in="SourceAlpha" type="matrix" values="0 0 0 0 0 0 0 0 0 0 0 0 0 0 0 0 0 0 127 0" result="hardAlpha"/>
<feOffset dy="4"/>
<feGaussianBlur stdDeviation="2"/>
<feComposite in2="hardAlpha" operator="out"/>
<feColorMatrix type="matrix" values="0 0 0 0 0 0 0 0 0 0 0 0 0 0 0 0 0 0 0.25 0"/>
<feBlend mode="normal" in2="BackgroundImageFix" result="effect1_dropShadow_303_54"/>
<feBlend mode="normal" in="SourceGraphic" in2="effect1_dropShadow_303_54" result="shape"/>
</filter>
<filter id="filter1_d_303_54" x="403.849" y="263.406" width="527.77" height="182.446" filterUnits="userSpaceOnUse" color-interpolation-filters="sRGB">
<feFlood flood-opacity="0" result="BackgroundImageFix"/>
<feColorMatrix in="SourceAlpha" type="matrix" values="0 0 0 0 0 0 0 0 0 0 0 0 0 0 0 0 0 0 127 0" result="hardAlpha"/>
<feOffset dy="10"/>
<feGaussianBlur stdDeviation="8"/>
<feComposite in2="hardAlpha" operator="out"/>
<feColorMatrix type="matrix" values="0 0 0 0 0 0 0 0 0 0 0 0 0 0 0 0 0 0 1 0"/>
<feBlend mode="normal" in2="BackgroundImageFix" result="effect1_dropShadow_303_54"/>
<feBlend mode="normal" in="SourceGraphic" in2="effect1_dropShadow_303_54" result="shape"/>
</filter>
<radialGradient id="paint0_radial_303_54" cx="0" cy="0" r="1" gradientUnits="userSpaceOnUse" gradientTransform="translate(679 316.258) rotate(-89.3828) scale(324.936 613.246)">
<stop stop-color="white" stop-opacity="0"/>
<stop offset="1" stop-color="#684EE5" stop-opacity="0.25"/>
</radialGradient>
<linearGradient id="paint1_linear_303_54" x1="668" y1="-118" x2="668" y2="488" gradientUnits="userSpaceOnUse">
<stop offset="0.697917" stop-color="#E295A6" stop-opacity="0"/>
<stop offset="1" stop-color="white" stop-opacity="0.1"/>
</linearGradient>
<radialGradient id="paint2_radial_303_54" cx="0" cy="0" r="1" gradientUnits="userSpaceOnUse" gradientTransform="translate(668 346) rotate(90.1101) scale(162.545 450.125)">
<stop stop-color="#6A4AE3"/>
<stop offset="0.453125" stop-color="#ED9CA2"/>
<stop offset="1" stop-color="#6A4AE3"/>
</radialGradient>
<linearGradient id="paint3_linear_303_54" x1="668.119" y1="226.025" x2="668.119" y2="243.763" gradientUnits="userSpaceOnUse">
<stop stop-color="#6E4FED"/>
<stop offset="0.692708" stop-color="#A96FDC"/>
</linearGradient>
<linearGradient id="paint4_linear_303_54" x1="668" y1="187" x2="668" y2="223.562" gradientUnits="userSpaceOnUse">
<stop offset="0.265625" stop-color="#ED9CA2"/>
<stop offset="0.9999" stop-color="#A96FDC"/>
<stop offset="1" stop-color="#A96FDC"/>
</linearGradient>
<linearGradient id="paint5_linear_303_54" x1="668" y1="187" x2="668" y2="223.562" gradientUnits="userSpaceOnUse">
<stop offset="0.265625" stop-color="#ED9CA2"/>
<stop offset="0.9999" stop-color="#A96FDC"/>
<stop offset="1" stop-color="#A96FDC"/>
</linearGradient>
<linearGradient id="paint6_linear_303_54" x1="668" y1="187" x2="668" y2="223.562" gradientUnits="userSpaceOnUse">
<stop offset="0.265625" stop-color="#ED9CA2"/>
<stop offset="0.9999" stop-color="#A96FDC"/>
<stop offset="1" stop-color="#A96FDC"/>
</linearGradient>
</defs>
</svg>
