<svg width="1336" height="675" viewBox="0 0 1336 675" fill="none" xmlns="http://www.w3.org/2000/svg">
<g filter="url(#filter0_d_207_49)">
<rect x="4" width="1328" height="667" fill="black"/>
<rect x="4" width="1328" height="667" fill="url(#paint0_radial_207_49)"/>
<path fill-rule="evenodd" clip-rule="evenodd" d="M495.641 61L325.681 441H440.418L560.85 61H566.095L445.663 441H556.285L624.903 61H629.984L561.366 441H668.134L674.981 61H679.982L673.135 441H781.347L726.978 61H732.029L786.398 441H893.287L781.5 61H786.712L898.498 441H1006.57L836.623 61H842.1L1012.05 441H1128.75L903.845 61H909.655L1134.56 441H1245.07L972.383 61H978.537L1251.22 441H1332V446H1254.81L1288.54 493H1332V498H1292.12L1332 553.568V562.144L1331.18 561H1205.59L1245.24 628H1332V633H1248.2L1268.33 667H1262.52L1242.39 633H1097.91L1113.12 667H1107.64L1092.44 633H954.98L964.982 667H959.77L949.768 633H813.868L818.733 667H813.682L808.817 633H669.676L669.063 667H664.062L664.675 633H526.696L520.557 667H515.476L521.615 633H384.813L374.037 667H368.792L379.568 633H239.806L224.599 667H219.122L234.329 633H95.0187L75.24 667H69.4555L89.2342 633H4V628H92.1429L131.119 561H13.1207L4 573.902V565.24L6.99758 561H4V556H10.5321L51.5321 498H4V493H55.0665L88.2907 446H4V441H91.8252L360.446 61H366.569L97.9483 441H200.926L421.982 61H427.767L206.71 441H320.204L490.164 61H495.641ZM808.102 628H669.766L670.973 561H798.516L808.102 628ZM664.765 628L665.972 561H539.697L527.599 628H664.765ZM797.8 556H671.063L672.108 498H789.502L797.8 556ZM666.062 556L667.107 498H551.073L540.6 556H666.062ZM788.787 493H672.198L673.045 446H782.062L788.787 493ZM667.197 493L668.044 446H560.463L551.976 493H667.197ZM802.851 556L794.553 498H910.055L927.117 556H802.851ZM813.153 628L803.567 561H928.588L948.297 628H813.153ZM793.837 493L787.113 446H894.758L908.584 493H793.837ZM1090.2 628H953.509L933.8 561H1060.24L1090.2 628ZM1058 556H932.329L915.267 498H1032.06L1058 556ZM1029.83 493H913.796L899.969 446H1008.81L1029.83 493ZM1248.66 446H1137.52L1165.34 493H1282.38L1248.66 446ZM1285.97 498H1168.3L1202.63 556H1327.59L1285.97 498ZM1199.78 561L1239.43 628H1095.68L1065.71 561H1199.78ZM1162.49 498L1196.82 556H1063.48L1037.54 498H1162.49ZM1131.71 446L1159.53 493H1035.3L1014.28 446H1131.71ZM534.617 561L522.518 628H386.397L407.631 561H534.617ZM545.993 498L535.519 556H409.216L427.598 498H545.993ZM555.382 446L546.896 493H429.182L444.078 446H555.382ZM438.833 446H323.445L302.423 493H423.937L438.833 446ZM422.353 498H300.187L274.246 556H403.971L422.353 498ZM402.386 561H272.009L242.043 628H381.152L402.386 561ZM203.802 446H317.967L296.946 493H176.461L203.802 446ZM94.4138 446H198.017L170.676 493H61.1897L94.4138 446ZM57.6552 498L16.6552 556H134.027L167.767 498H57.6552ZM173.552 498L139.812 556H268.768L294.71 498H173.552ZM236.565 628L266.532 561H136.903L97.9273 628H236.565Z" fill="url(#paint1_linear_207_49)"/>
<g filter="url(#filter1_d_207_49)">
<path d="M359.024 253.727L376.922 315.261H377.603L395.501 253.727H422.262L393.456 341H361.069L332.262 253.727H359.024ZM425.009 341V275.545H448.532V341H425.009ZM436.77 268.727C433.588 268.727 430.861 267.676 428.588 265.574C426.316 263.472 425.179 260.943 425.179 257.989C425.179 255.034 426.316 252.506 428.588 250.403C430.861 248.301 433.588 247.25 436.77 247.25C439.98 247.25 442.708 248.301 444.952 250.403C447.225 252.506 448.361 255.034 448.361 257.989C448.361 260.943 447.225 263.472 444.952 265.574C442.708 267.676 439.98 268.727 436.77 268.727ZM454.517 341V275.545H477.358V287.989H478.039C479.233 283.386 481.122 280.02 483.707 277.889C486.321 275.759 489.375 274.693 492.869 274.693C493.892 274.693 494.9 274.778 495.895 274.949C496.917 275.091 497.897 275.304 498.835 275.588V295.659C497.67 295.261 496.235 294.963 494.531 294.764C492.826 294.565 491.363 294.466 490.142 294.466C487.841 294.466 485.767 294.991 483.92 296.043C482.102 297.065 480.667 298.514 479.616 300.389C478.565 302.236 478.039 304.409 478.039 306.909V341H454.517ZM542.277 275.545V292.591H499.152V275.545H542.277ZM507.505 259.864H531.027V319.949C531.027 320.858 531.184 321.625 531.496 322.25C531.809 322.847 532.292 323.301 532.945 323.614C533.598 323.898 534.436 324.04 535.459 324.04C536.169 324.04 536.993 323.955 537.931 323.784C538.897 323.614 539.607 323.472 540.061 323.358L543.471 339.892C542.419 340.205 540.914 340.588 538.953 341.043C537.022 341.497 534.721 341.795 532.05 341.938C526.652 342.222 522.121 341.668 518.456 340.276C514.792 338.855 512.036 336.625 510.189 333.585C508.343 330.545 507.448 326.739 507.505 322.165V259.864ZM588.319 312.364V275.545H611.842V341H589.512V328.557H588.831C587.41 332.733 584.924 336 581.373 338.358C577.822 340.687 573.603 341.852 568.717 341.852C564.143 341.852 560.137 340.801 556.7 338.699C553.291 336.597 550.635 333.699 548.731 330.006C546.856 326.312 545.904 322.08 545.876 317.307V275.545H569.399V312.364C569.427 315.602 570.251 318.145 571.87 319.991C573.518 321.838 575.819 322.761 578.774 322.761C580.734 322.761 582.424 322.349 583.845 321.526C585.294 320.673 586.402 319.48 587.169 317.946C587.964 316.384 588.348 314.523 588.319 312.364ZM636.044 342.023C631.868 342.023 628.175 341.341 624.965 339.977C621.783 338.585 619.283 336.483 617.465 333.67C615.647 330.858 614.738 327.278 614.738 322.932C614.738 319.352 615.348 316.298 616.57 313.77C617.792 311.213 619.496 309.125 621.684 307.506C623.871 305.886 626.414 304.651 629.311 303.798C632.238 302.946 635.391 302.392 638.772 302.136C642.436 301.852 645.377 301.511 647.593 301.114C649.837 300.687 651.456 300.105 652.451 299.366C653.445 298.599 653.942 297.591 653.942 296.341V296.17C653.942 294.466 653.289 293.159 651.982 292.25C650.675 291.341 648.999 290.886 646.953 290.886C644.709 290.886 642.877 291.384 641.456 292.378C640.064 293.344 639.226 294.835 638.942 296.852H617.294C617.578 292.875 618.843 289.21 621.087 285.858C623.36 282.477 626.669 279.778 631.016 277.761C635.363 275.716 640.789 274.693 647.294 274.693C651.982 274.693 656.186 275.247 659.908 276.355C663.63 277.435 666.797 278.955 669.411 280.915C672.025 282.847 674.013 285.119 675.377 287.733C676.769 290.318 677.465 293.131 677.465 296.17V341H655.476V331.795H654.965C653.658 334.239 652.067 336.213 650.192 337.719C648.346 339.224 646.229 340.318 643.843 341C641.485 341.682 638.885 342.023 636.044 342.023ZM643.715 327.193C645.505 327.193 647.181 326.824 648.743 326.085C650.334 325.347 651.627 324.281 652.621 322.889C653.615 321.497 654.113 319.807 654.113 317.818V312.364C653.488 312.619 652.82 312.861 652.11 313.088C651.428 313.315 650.689 313.528 649.894 313.727C649.127 313.926 648.303 314.111 647.422 314.281C646.57 314.452 645.675 314.608 644.738 314.75C642.919 315.034 641.428 315.503 640.263 316.156C639.127 316.781 638.275 317.562 637.706 318.5C637.167 319.409 636.897 320.432 636.897 321.568C636.897 323.386 637.536 324.778 638.814 325.744C640.093 326.71 641.726 327.193 643.715 327.193ZM706.227 253.727V341H682.704V253.727H706.227ZM763.357 341H729.777V253.727H763.016C771.993 253.727 779.749 255.474 786.283 258.969C792.846 262.435 797.902 267.435 801.453 273.969C805.033 280.474 806.823 288.273 806.823 297.364C806.823 306.455 805.047 314.267 801.496 320.801C797.945 327.307 792.917 332.307 786.411 335.801C779.905 339.267 772.221 341 763.357 341ZM753.471 320.886H762.505C766.823 320.886 770.502 320.19 773.542 318.798C776.61 317.406 778.939 315.006 780.53 311.597C782.15 308.187 782.959 303.443 782.959 297.364C782.959 291.284 782.135 286.54 780.488 283.131C778.868 279.722 776.482 277.321 773.328 275.929C770.203 274.537 766.368 273.841 761.823 273.841H753.471V320.886ZM896.331 297.364C896.331 307.08 894.441 315.276 890.663 321.952C886.885 328.599 881.785 333.642 875.365 337.08C868.944 340.489 861.785 342.193 853.887 342.193C845.933 342.193 838.745 340.474 832.325 337.037C825.933 333.571 820.848 328.514 817.069 321.866C813.319 315.19 811.444 307.023 811.444 297.364C811.444 287.648 813.319 279.466 817.069 272.818C820.848 266.142 825.933 261.099 832.325 257.69C838.745 254.253 845.933 252.534 853.887 252.534C861.785 252.534 868.944 254.253 875.365 257.69C881.785 261.099 886.885 266.142 890.663 272.818C894.441 279.466 896.331 287.648 896.331 297.364ZM871.956 297.364C871.956 292.136 871.26 287.733 869.868 284.153C868.504 280.545 866.473 277.818 863.774 275.972C861.103 274.097 857.808 273.159 853.887 273.159C849.967 273.159 846.657 274.097 843.958 275.972C841.288 277.818 839.257 280.545 837.865 284.153C836.501 287.733 835.819 292.136 835.819 297.364C835.819 302.591 836.501 307.009 837.865 310.616C839.257 314.196 841.288 316.923 843.958 318.798C846.657 320.645 849.967 321.568 853.887 321.568C857.808 321.568 861.103 320.645 863.774 318.798C866.473 316.923 868.504 314.196 869.868 310.616C871.26 307.009 871.956 302.591 871.956 297.364ZM901.293 253.727H930.782L951.066 303.159H952.088L972.373 253.727H1001.86V341H978.679V290.545H977.998L958.566 340.318H944.588L925.157 290.205H924.475V341H901.293V253.727Z" fill="white"/>
<path d="M271.458 486V420.545H294.981V486H271.458ZM283.219 413.727C280.038 413.727 277.31 412.676 275.038 410.574C272.765 408.472 271.629 405.943 271.629 402.989C271.629 400.034 272.765 397.506 275.038 395.403C277.31 393.301 280.038 392.25 283.219 392.25C286.43 392.25 289.157 393.301 291.401 395.403C293.674 397.506 294.81 400.034 294.81 402.989C294.81 405.943 293.674 408.472 291.401 410.574C289.157 412.676 286.43 413.727 283.219 413.727ZM324.489 449.182V486H300.966V420.545H323.295V432.989H323.977C325.398 428.841 327.898 425.588 331.477 423.23C335.085 420.872 339.29 419.693 344.091 419.693C348.722 419.693 352.741 420.759 356.151 422.889C359.588 424.991 362.244 427.889 364.119 431.582C366.023 435.276 366.96 439.494 366.932 444.239V486H343.409V449.182C343.438 445.943 342.614 443.401 340.938 441.554C339.29 439.707 336.989 438.784 334.034 438.784C332.102 438.784 330.412 439.21 328.963 440.062C327.543 440.886 326.449 442.08 325.682 443.642C324.915 445.176 324.517 447.023 324.489 449.182ZM411.578 420.545V437.591H368.453V420.545H411.578ZM376.805 404.864H400.328V464.949C400.328 465.858 400.484 466.625 400.797 467.25C401.109 467.847 401.592 468.301 402.246 468.614C402.899 468.898 403.737 469.04 404.76 469.04C405.47 469.04 406.294 468.955 407.232 468.784C408.197 468.614 408.908 468.472 409.362 468.358L412.771 484.892C411.72 485.205 410.214 485.588 408.254 486.043C406.322 486.497 404.021 486.795 401.351 486.938C395.953 487.222 391.422 486.668 387.757 485.276C384.092 483.855 381.337 481.625 379.49 478.585C377.643 475.545 376.749 471.739 376.805 467.165V404.864ZM446.008 487.193C438.906 487.193 432.826 485.787 427.769 482.974C422.712 480.134 418.835 476.185 416.136 471.128C413.437 466.043 412.087 460.148 412.087 453.443C412.087 446.739 413.437 440.858 416.136 435.801C418.835 430.716 422.712 426.767 427.769 423.955C432.826 421.114 438.906 419.693 446.008 419.693C453.11 419.693 459.19 421.114 464.246 423.955C469.303 426.767 473.181 430.716 475.88 435.801C478.579 440.858 479.928 446.739 479.928 453.443C479.928 460.148 478.579 466.043 475.88 471.128C473.181 476.185 469.303 480.134 464.246 482.974C459.19 485.787 453.11 487.193 446.008 487.193ZM446.178 469.807C448.167 469.807 449.886 469.139 451.335 467.804C452.783 466.469 453.906 464.565 454.701 462.094C455.496 459.622 455.894 456.682 455.894 453.273C455.894 449.835 455.496 446.895 454.701 444.452C453.906 441.98 452.783 440.077 451.335 438.741C449.886 437.406 448.167 436.739 446.178 436.739C444.076 436.739 442.272 437.406 440.766 438.741C439.261 440.077 438.11 441.98 437.315 444.452C436.519 446.895 436.121 449.835 436.121 453.273C436.121 456.682 436.519 459.622 437.315 462.094C438.11 464.565 439.261 466.469 440.766 467.804C442.272 469.139 444.076 469.807 446.178 469.807ZM540.414 420.545V437.591H497.289V420.545H540.414ZM505.641 404.864H529.164V464.949C529.164 465.858 529.32 466.625 529.633 467.25C529.945 467.847 530.428 468.301 531.082 468.614C531.735 468.898 532.573 469.04 533.596 469.04C534.306 469.04 535.13 468.955 536.067 468.784C537.033 468.614 537.744 468.472 538.198 468.358L541.607 484.892C540.556 485.205 539.05 485.588 537.09 486.043C535.158 486.497 532.857 486.795 530.187 486.938C524.789 487.222 520.258 486.668 516.593 485.276C512.928 483.855 510.173 481.625 508.326 478.585C506.479 475.545 505.585 471.739 505.641 467.165V404.864ZM568.942 449.182V486H545.419V398.727H568.089V432.989H568.771C570.249 428.812 572.706 425.56 576.143 423.23C579.581 420.872 583.714 419.693 588.544 419.693C593.175 419.693 597.195 420.744 600.604 422.847C604.041 424.949 606.697 427.847 608.572 431.54C610.476 435.233 611.413 439.466 611.385 444.239V486H587.862V449.182C587.891 445.943 587.081 443.401 585.433 441.554C583.814 439.707 581.499 438.784 578.487 438.784C576.584 438.784 574.908 439.21 573.459 440.062C572.038 440.886 570.93 442.08 570.135 443.642C569.368 445.176 568.97 447.023 568.942 449.182ZM648.361 487.193C641.372 487.193 635.349 485.858 630.293 483.188C625.264 480.489 621.386 476.625 618.659 471.597C615.96 466.54 614.611 460.489 614.611 453.443C614.611 446.682 615.974 440.773 618.702 435.716C621.429 430.659 625.278 426.724 630.25 423.912C635.222 421.099 641.088 419.693 647.849 419.693C652.793 419.693 657.267 420.46 661.273 421.994C665.278 423.528 668.702 425.759 671.543 428.685C674.384 431.582 676.571 435.105 678.105 439.253C679.639 443.401 680.406 448.074 680.406 453.273V458.727H621.94V445.773H658.759C658.73 443.898 658.247 442.25 657.31 440.83C656.401 439.381 655.165 438.259 653.602 437.463C652.068 436.639 650.321 436.227 648.361 436.227C646.457 436.227 644.71 436.639 643.119 437.463C641.528 438.259 640.25 439.366 639.284 440.787C638.347 442.207 637.849 443.869 637.793 445.773V459.75C637.793 461.852 638.233 463.727 639.114 465.375C639.994 467.023 641.259 468.315 642.906 469.253C644.554 470.19 646.543 470.659 648.872 470.659C650.491 470.659 651.969 470.432 653.304 469.977C654.668 469.523 655.832 468.869 656.798 468.017C657.764 467.136 658.474 466.085 658.929 464.864H680.406C679.668 469.409 677.92 473.358 675.165 476.71C672.409 480.034 668.759 482.619 664.213 484.466C659.696 486.284 654.412 487.193 648.361 487.193ZM741.116 420.545V437.591H697.309V420.545H741.116ZM705.661 486V418.67C705.661 413.273 706.627 408.798 708.559 405.247C710.491 401.696 713.218 399.04 716.741 397.278C720.263 395.517 724.411 394.636 729.184 394.636C732.167 394.636 735.065 394.864 737.877 395.318C740.718 395.773 742.82 396.17 744.184 396.511L740.775 413.386C739.923 413.131 738.928 412.932 737.792 412.79C736.656 412.619 735.661 412.534 734.809 412.534C732.593 412.534 731.102 413.003 730.335 413.94C729.567 414.878 729.184 416.114 729.184 417.648V486H705.661ZM786.636 457.364V420.545H810.158V486H787.829V473.557H787.147C785.727 477.733 783.241 481 779.69 483.358C776.138 485.687 771.92 486.852 767.033 486.852C762.46 486.852 758.454 485.801 755.016 483.699C751.607 481.597 748.951 478.699 747.048 475.006C745.173 471.312 744.221 467.08 744.192 462.307V420.545H767.715V457.364C767.744 460.602 768.567 463.145 770.187 464.991C771.835 466.838 774.136 467.761 777.09 467.761C779.05 467.761 780.741 467.349 782.161 466.526C783.61 465.673 784.718 464.48 785.485 462.946C786.281 461.384 786.664 459.523 786.636 457.364ZM855.156 420.545V437.591H812.031V420.545H855.156ZM820.384 404.864H843.906V464.949C843.906 465.858 844.062 466.625 844.375 467.25C844.688 467.847 845.17 468.301 845.824 468.614C846.477 468.898 847.315 469.04 848.338 469.04C849.048 469.04 849.872 468.955 850.81 468.784C851.776 468.614 852.486 468.472 852.94 468.358L856.349 484.892C855.298 485.205 853.793 485.588 851.832 486.043C849.901 486.497 847.599 486.795 844.929 486.938C839.531 487.222 835 486.668 831.335 485.276C827.67 483.855 824.915 481.625 823.068 478.585C821.222 475.545 820.327 471.739 820.384 467.165V404.864ZM901.198 457.364V420.545H924.721V486H902.391V473.557H901.71C900.289 477.733 897.803 481 894.252 483.358C890.701 485.687 886.482 486.852 881.596 486.852C877.022 486.852 873.016 485.801 869.579 483.699C866.17 481.597 863.513 478.699 861.61 475.006C859.735 471.312 858.783 467.08 858.755 462.307V420.545H882.278V457.364C882.306 460.602 883.13 463.145 884.749 464.991C886.397 466.838 888.698 467.761 891.653 467.761C893.613 467.761 895.303 467.349 896.724 466.526C898.173 465.673 899.281 464.48 900.048 462.946C900.843 461.384 901.227 459.523 901.198 457.364ZM930.685 486V420.545H953.526V432.989H954.207C955.401 428.386 957.29 425.02 959.875 422.889C962.489 420.759 965.543 419.693 969.037 419.693C970.06 419.693 971.068 419.778 972.062 419.949C973.085 420.091 974.065 420.304 975.003 420.588V440.659C973.838 440.261 972.403 439.963 970.699 439.764C968.994 439.565 967.531 439.466 966.31 439.466C964.009 439.466 961.935 439.991 960.088 441.043C958.27 442.065 956.835 443.514 955.784 445.389C954.733 447.236 954.207 449.409 954.207 451.909V486H930.685ZM1004.33 487.193C997.341 487.193 991.318 485.858 986.261 483.188C981.233 480.489 977.355 476.625 974.628 471.597C971.929 466.54 970.58 460.489 970.58 453.443C970.58 446.682 971.943 440.773 974.67 435.716C977.398 430.659 981.247 426.724 986.219 423.912C991.19 421.099 997.057 419.693 1003.82 419.693C1008.76 419.693 1013.24 420.46 1017.24 421.994C1021.25 423.528 1024.67 425.759 1027.51 428.685C1030.35 431.582 1032.54 435.105 1034.07 439.253C1035.61 443.401 1036.38 448.074 1036.38 453.273V458.727H977.909V445.773H1014.73C1014.7 443.898 1014.22 442.25 1013.28 440.83C1012.37 439.381 1011.13 438.259 1009.57 437.463C1008.04 436.639 1006.29 436.227 1004.33 436.227C1002.43 436.227 1000.68 436.639 999.088 437.463C997.497 438.259 996.219 439.366 995.253 440.787C994.315 442.207 993.818 443.869 993.761 445.773V459.75C993.761 461.852 994.202 463.727 995.082 465.375C995.963 467.023 997.227 468.315 998.875 469.253C1000.52 470.19 1002.51 470.659 1004.84 470.659C1006.46 470.659 1007.94 470.432 1009.27 469.977C1010.64 469.523 1011.8 468.869 1012.77 468.017C1013.73 467.136 1014.44 466.085 1014.9 464.864H1036.38C1035.64 469.409 1033.89 473.358 1031.13 476.71C1028.38 480.034 1024.73 482.619 1020.18 484.466C1015.66 486.284 1010.38 487.193 1004.33 487.193ZM1052.76 487.364C1049.46 487.364 1046.64 486.213 1044.28 483.912C1041.95 481.582 1040.8 478.756 1040.83 475.432C1040.8 472.193 1041.95 469.423 1044.28 467.122C1046.64 464.821 1049.46 463.67 1052.76 463.67C1055.88 463.67 1058.64 464.821 1061.02 467.122C1063.44 469.423 1064.66 472.193 1064.69 475.432C1064.66 477.648 1064.08 479.665 1062.94 481.483C1061.83 483.273 1060.39 484.707 1058.6 485.787C1056.81 486.838 1054.86 487.364 1052.76 487.364Z" fill="url(#paint2_radial_207_49)"/>
</g>
<path fill-rule="evenodd" clip-rule="evenodd" d="M630.59 166.332C637.583 156.073 651.814 149.049 668.232 149.049C684.65 149.049 698.881 156.073 705.874 166.332C698.881 176.592 684.65 183.616 668.232 183.616C651.814 183.616 637.583 176.592 630.59 166.332Z" fill="url(#paint3_linear_207_49)"/>
<path d="M630.337 90.1C637.325 79.9492 651.547 73 667.954 73C684.362 73 698.583 79.9492 705.572 90.1C698.583 100.251 684.362 107.2 667.954 107.2C651.547 107.2 637.325 100.251 630.337 90.1Z" fill="url(#paint4_linear_207_49)"/>
<path d="M668.673 128.51C658.506 138.576 644.716 144.231 630.337 144.231C615.958 144.231 602.167 138.576 592 128.51L630.337 90.1L668.673 128.51Z" fill="url(#paint5_linear_207_49)"/>
<path d="M744 128.529C733.833 138.595 720.042 144.25 705.663 144.25C691.284 144.25 677.494 138.595 667.327 128.529L705.663 90.1L744 128.529Z" fill="url(#paint6_linear_207_49)"/>
<path d="M559.59 612.182H565.279L568.869 626.841H569.125L577.552 612.182H583.241L579.619 634H575.144L577.509 619.799H577.318L569.349 633.893H566.291L563.01 619.746H562.829L560.443 634H555.968L559.59 612.182ZM590.154 612.182L586.532 634H581.919L585.542 612.182H590.154ZM588.828 634L592.45 612.182H597.063L594.08 630.197H603.433L602.794 634H588.828ZM604.349 634L607.971 612.182H612.584L609.601 630.197H618.955L618.316 634H604.349ZM628.106 612.182L624.483 634H619.871L623.493 612.182H628.106ZM648.597 623.389C648.199 625.719 647.429 627.697 646.285 629.323C645.149 630.95 643.76 632.185 642.12 633.031C640.486 633.876 638.725 634.298 636.836 634.298C634.854 634.298 633.146 633.847 631.711 632.945C630.284 632.043 629.25 630.74 628.611 629.036C627.972 627.324 627.851 625.261 628.249 622.846C628.632 620.509 629.396 618.528 630.539 616.901C631.683 615.268 633.078 614.025 634.726 613.173C636.374 612.313 638.146 611.884 640.042 611.884C642.01 611.884 643.707 612.338 645.135 613.247C646.569 614.156 647.603 615.47 648.235 617.189C648.874 618.901 648.995 620.967 648.597 623.389ZM644.005 622.846C644.254 621.347 644.243 620.09 643.973 619.075C643.711 618.052 643.228 617.278 642.525 616.752C641.821 616.227 640.934 615.964 639.861 615.964C638.696 615.964 637.627 616.255 636.654 616.837C635.689 617.42 634.872 618.265 634.204 619.373C633.544 620.474 633.086 621.812 632.83 623.389C632.574 624.895 632.581 626.152 632.851 627.161C633.128 628.169 633.622 628.933 634.332 629.451C635.049 629.962 635.941 630.218 637.006 630.218C638.164 630.218 639.222 629.934 640.181 629.366C641.147 628.79 641.96 627.956 642.62 626.862C643.281 625.761 643.743 624.423 644.005 622.846ZM670.617 612.182L666.995 634H663.01L655.819 620.268H655.649L653.358 634H648.746L652.368 612.182H656.416L663.575 625.903H663.756L666.025 612.182H670.617ZM672.076 634.277C671.359 634.277 670.769 634.028 670.308 633.531C669.853 633.034 669.647 632.43 669.69 631.72C669.739 631.017 670.034 630.424 670.574 629.941C671.121 629.451 671.749 629.206 672.46 629.206C673.141 629.206 673.717 629.451 674.185 629.941C674.654 630.431 674.86 631.024 674.803 631.72C674.768 632.189 674.615 632.619 674.345 633.009C674.082 633.393 673.749 633.702 673.344 633.936C672.939 634.163 672.516 634.277 672.076 634.277ZM689.1 612.182H693.659L691.145 627.427C690.904 628.84 690.392 630.062 689.611 631.092C688.83 632.114 687.839 632.906 686.639 633.467C685.438 634.021 684.1 634.298 682.622 634.298C681.294 634.298 680.129 634.064 679.128 633.595C678.134 633.126 677.399 632.416 676.923 631.464C676.454 630.513 676.337 629.312 676.571 627.864H681.131C681.06 628.453 681.095 628.95 681.237 629.355C681.387 629.76 681.639 630.069 681.994 630.282C682.349 630.495 682.793 630.602 683.325 630.602C683.901 630.602 684.412 630.477 684.86 630.229C685.307 629.98 685.676 629.614 685.968 629.131C686.266 628.648 686.475 628.059 686.596 627.363L689.1 612.182ZM706.744 618.521C706.779 617.633 706.52 616.947 705.966 616.464C705.419 615.982 704.592 615.74 703.484 615.74C702.731 615.74 702.078 615.847 701.524 616.06C700.97 616.266 700.526 616.553 700.192 616.923C699.865 617.285 699.663 617.704 699.585 618.18C699.507 618.57 699.531 618.911 699.659 619.202C699.794 619.494 700.004 619.746 700.288 619.959C700.579 620.165 700.923 620.346 701.321 620.502C701.719 620.651 702.142 620.779 702.589 620.886L704.464 621.354C705.38 621.567 706.204 621.852 706.936 622.207C707.674 622.562 708.292 622.999 708.789 623.517C709.294 624.036 709.649 624.646 709.855 625.349C710.061 626.053 710.089 626.859 709.94 627.768C709.713 629.103 709.183 630.261 708.352 631.241C707.521 632.214 706.431 632.97 705.082 633.51C703.732 634.043 702.17 634.309 700.394 634.309C698.633 634.309 697.145 634.039 695.931 633.499C694.716 632.96 693.832 632.161 693.278 631.102C692.731 630.037 692.568 628.719 692.788 627.15H697.252C697.173 627.881 697.28 628.492 697.571 628.982C697.869 629.465 698.313 629.831 698.903 630.08C699.492 630.321 700.185 630.442 700.98 630.442C701.769 630.442 702.468 630.328 703.079 630.101C703.697 629.874 704.198 629.558 704.581 629.153C704.965 628.748 705.199 628.283 705.284 627.757C705.369 627.267 705.295 626.855 705.061 626.521C704.826 626.187 704.45 625.903 703.931 625.669C703.42 625.428 702.784 625.214 702.024 625.03L699.744 624.433C697.983 623.986 696.651 623.286 695.749 622.335C694.847 621.383 694.524 620.101 694.78 618.489C695.007 617.168 695.558 616.013 696.431 615.026C697.312 614.032 698.42 613.261 699.755 612.714C701.097 612.161 702.564 611.884 704.155 611.884C705.774 611.884 707.142 612.164 708.257 612.725C709.372 613.279 710.185 614.053 710.696 615.048C711.208 616.042 711.364 617.2 711.165 618.521H706.744ZM713.279 634.277C712.562 634.277 711.972 634.028 711.511 633.531C711.056 633.034 710.85 632.43 710.893 631.72C710.942 631.017 711.237 630.424 711.777 629.941C712.324 629.451 712.952 629.206 713.663 629.206C714.344 629.206 714.92 629.451 715.388 629.941C715.857 630.431 716.063 631.024 716.006 631.72C715.971 632.189 715.818 632.619 715.548 633.009C715.286 633.393 714.952 633.702 714.547 633.936C714.142 634.163 713.719 634.277 713.279 634.277ZM739.763 623.389C739.365 625.719 738.595 627.697 737.451 629.323C736.315 630.95 734.926 632.185 733.286 633.031C731.652 633.876 729.891 634.298 728.002 634.298C726.02 634.298 724.312 633.847 722.877 632.945C721.45 632.043 720.416 630.74 719.777 629.036C719.138 627.324 719.017 625.261 719.415 622.846C719.798 620.509 720.562 618.528 721.705 616.901C722.849 615.268 724.244 614.025 725.892 613.173C727.54 612.313 729.312 611.884 731.208 611.884C733.176 611.884 734.873 612.338 736.301 613.247C737.735 614.156 738.769 615.47 739.401 617.189C740.04 618.901 740.161 620.967 739.763 623.389ZM735.171 622.846C735.42 621.347 735.409 620.09 735.139 619.075C734.877 618.052 734.394 617.278 733.691 616.752C732.987 616.227 732.1 615.964 731.027 615.964C729.862 615.964 728.794 616.255 727.82 616.837C726.855 617.42 726.038 618.265 725.37 619.373C724.71 620.474 724.252 621.812 723.996 623.389C723.74 624.895 723.747 626.152 724.017 627.161C724.294 628.169 724.788 628.933 725.498 629.451C726.215 629.962 727.107 630.218 728.172 630.218C729.33 630.218 730.388 629.934 731.347 629.366C732.313 628.79 733.126 627.956 733.786 626.862C734.447 625.761 734.909 624.423 735.171 622.846ZM739.912 634L743.534 612.182H752.142C753.789 612.182 755.146 612.473 756.211 613.055C757.284 613.638 758.037 614.465 758.47 615.538C758.91 616.603 759.013 617.86 758.779 619.309C758.537 620.758 758.015 622.001 757.213 623.038C756.417 624.075 755.38 624.874 754.102 625.435C752.831 625.989 751.357 626.266 749.681 626.266H743.917L744.556 622.558H749.564C750.444 622.558 751.197 622.437 751.822 622.196C752.447 621.955 752.941 621.592 753.303 621.109C753.672 620.626 753.914 620.026 754.027 619.309C754.148 618.577 754.105 617.967 753.9 617.477C753.694 616.979 753.321 616.603 752.781 616.347C752.241 616.085 751.531 615.953 750.65 615.953H747.539L744.525 634H739.912ZM753.335 624.071L757.117 634H752.025L748.36 624.071H753.335ZM775.192 619.234C775.136 618.716 775.015 618.258 774.83 617.86C774.653 617.455 774.408 617.114 774.095 616.837C773.783 616.553 773.403 616.337 772.955 616.188C772.508 616.038 771.989 615.964 771.4 615.964C770.285 615.964 769.241 616.241 768.268 616.795C767.302 617.349 766.478 618.155 765.796 619.213C765.114 620.264 764.649 621.55 764.401 623.07C764.145 624.589 764.145 625.882 764.401 626.947C764.663 628.013 765.157 628.826 765.881 629.387C766.613 629.941 767.554 630.218 768.705 630.218C769.749 630.218 770.686 630.033 771.517 629.664C772.348 629.288 773.026 628.759 773.552 628.077C774.085 627.395 774.425 626.589 774.575 625.658L775.491 625.797H769.876L770.452 622.324H779.582L779.113 625.072C778.808 626.99 778.136 628.638 777.099 630.016C776.062 631.393 774.77 632.452 773.222 633.19C771.68 633.929 769.99 634.298 768.151 634.298C766.105 634.298 764.383 633.847 762.984 632.945C761.592 632.036 760.601 630.747 760.011 629.078C759.429 627.402 759.326 625.413 759.702 623.112C759.994 621.344 760.512 619.767 761.258 618.382C762.011 616.99 762.93 615.811 764.017 614.845C765.104 613.879 766.308 613.144 767.629 612.64C768.957 612.136 770.338 611.884 771.773 611.884C773.009 611.884 774.127 612.065 775.129 612.427C776.137 612.782 777 613.286 777.717 613.94C778.442 614.593 778.989 615.371 779.358 616.273C779.734 617.168 779.908 618.155 779.88 619.234H775.192Z" fill="white"/>
</g>
<defs>
<filter id="filter0_d_207_49" x="0" y="0" width="1336" height="675" filterUnits="userSpaceOnUse" color-interpolation-filters="sRGB">
<feFlood flood-opacity="0" result="BackgroundImageFix"/>
<feColorMatrix in="SourceAlpha" type="matrix" values="0 0 0 0 0 0 0 0 0 0 0 0 0 0 0 0 0 0 127 0" result="hardAlpha"/>
<feOffset dy="4"/>
<feGaussianBlur stdDeviation="2"/>
<feComposite in2="hardAlpha" operator="out"/>
<feColorMatrix type="matrix" values="0 0 0 0 0 0 0 0 0 0 0 0 0 0 0 0 0 0 0.25 0"/>
<feBlend mode="normal" in2="BackgroundImageFix" result="effect1_dropShadow_207_49"/>
<feBlend mode="normal" in="SourceGraphic" in2="effect1_dropShadow_207_49" result="shape"/>
</filter>
<filter id="filter1_d_207_49" x="255.458" y="241.25" width="825.232" height="272.114" filterUnits="userSpaceOnUse" color-interpolation-filters="sRGB">
<feFlood flood-opacity="0" result="BackgroundImageFix"/>
<feColorMatrix in="SourceAlpha" type="matrix" values="0 0 0 0 0 0 0 0 0 0 0 0 0 0 0 0 0 0 127 0" result="hardAlpha"/>
<feOffset dy="10"/>
<feGaussianBlur stdDeviation="8"/>
<feComposite in2="hardAlpha" operator="out"/>
<feColorMatrix type="matrix" values="0 0 0 0 0 0 0 0 0 0 0 0 0 0 0 0 0 0 1 0"/>
<feBlend mode="normal" in2="BackgroundImageFix" result="effect1_dropShadow_207_49"/>
<feBlend mode="normal" in="SourceGraphic" in2="effect1_dropShadow_207_49" result="shape"/>
</filter>
<radialGradient id="paint0_radial_207_49" cx="0" cy="0" r="1" gradientUnits="userSpaceOnUse" gradientTransform="translate(679 334) rotate(-89.6817) scale(630.01 613.272)">
<stop stop-color="white" stop-opacity="0"/>
<stop offset="1" stop-color="#684EE5" stop-opacity="0.25"/>
</radialGradient>
<linearGradient id="paint1_linear_207_49" x1="668" y1="61" x2="668" y2="667" gradientUnits="userSpaceOnUse">
<stop offset="0.328125" stop-color="#E295A6" stop-opacity="0"/>
<stop offset="1" stop-color="white" stop-opacity="0.21"/>
</linearGradient>
<radialGradient id="paint2_radial_207_49" cx="0" cy="0" r="1" gradientUnits="userSpaceOnUse" gradientTransform="translate(668.5 370) rotate(90.1106) scale(259 720.736)">
<stop stop-color="#6A4AE3"/>
<stop offset="0.453125" stop-color="#ED9CA2"/>
<stop offset="1" stop-color="#6A4AE3"/>
</radialGradient>
<linearGradient id="paint3_linear_207_49" x1="668.232" y1="149.049" x2="668.232" y2="183.616" gradientUnits="userSpaceOnUse">
<stop stop-color="#6E4FED"/>
<stop offset="0.692708" stop-color="#A96FDC"/>
</linearGradient>
<linearGradient id="paint4_linear_207_49" x1="668" y1="73" x2="668" y2="144.25" gradientUnits="userSpaceOnUse">
<stop offset="0.265625" stop-color="#ED9CA2"/>
<stop offset="0.9999" stop-color="#A96FDC"/>
<stop offset="1" stop-color="#A96FDC"/>
</linearGradient>
<linearGradient id="paint5_linear_207_49" x1="668" y1="73" x2="668" y2="144.25" gradientUnits="userSpaceOnUse">
<stop offset="0.265625" stop-color="#ED9CA2"/>
<stop offset="0.9999" stop-color="#A96FDC"/>
<stop offset="1" stop-color="#A96FDC"/>
</linearGradient>
<linearGradient id="paint6_linear_207_49" x1="668" y1="73" x2="668" y2="144.25" gradientUnits="userSpaceOnUse">
<stop offset="0.265625" stop-color="#ED9CA2"/>
<stop offset="0.9999" stop-color="#A96FDC"/>
<stop offset="1" stop-color="#A96FDC"/>
</linearGradient>
</defs>
</svg>
