<svg width="1328" height="384" viewBox="0 0 1328 384" fill="none" xmlns="http://www.w3.org/2000/svg">
<rect y="40" width="1328" height="344" fill="black"/>
<rect x="1" y="1" width="1326" height="38" fill="white" stroke="black" stroke-width="2"/>
<rect y="40" width="1328" height="344" fill="url(#paint0_radial_303_54)"/>
<path fill-rule="evenodd" clip-rule="evenodd" d="M355.353 53L204.32 229.1H317L433.122 53H438.864L322.742 229.1H437.035L519.318 53H524.698L442.414 229.1H552.67L599.552 53H604.676L557.794 229.1H664.177L668.855 53H673.856L669.178 229.1H776.98L739.833 53H744.912L782.058 229.1H888.473L812.097 53H817.424L893.801 229.1H1001.24L885.131 53H890.873L1006.99 229.1H1122.89L969.23 53H975.495L1129.16 229.1H1238.71L1052.4 53H1059.21L1245.52 229.1H1328V234.1H1250.81L1282.84 264.371H1328V269.371H1288.12L1328 307.061V313.499L1326.52 312.102H1201.59L1239.84 355.939H1328V360.939H1244.2L1264.33 384H1258.06L1237.94 360.939H1093.91L1109.12 384H1103.38L1088.17 360.939H950.98L960.982 384H955.655L945.653 360.939H809.868L814.733 384H809.654L804.789 360.939H665.676L665.063 384H660.062L660.674 360.939H522.696L516.557 384H511.432L517.571 360.939H380.813L370.037 384H364.658L375.433 360.939H235.806L220.599 384H214.858L230.065 360.939H91.2486L71.4699 384H65.2255L85.0043 360.939H0V355.939H89.2925L126.889 312.102H9.12068L0 320.854V314.366L2.35919 312.102H0V307.102H7.57015L46.8937 269.371H0V264.371H52.1046L83.6524 234.1H0V229.1H88.8633L272.394 53H279.155L95.6248 229.1H198.076L349.108 53H355.353ZM665.808 355.939H803.735L794.488 312.102H666.973L665.808 355.939ZM661.972 312.102L660.807 355.939H524.027L535.697 312.102H661.972ZM667.106 307.102H793.433L785.474 269.371H668.108L667.106 307.102ZM663.107 269.371L662.105 307.102H537.029L547.073 269.371H663.107ZM668.241 264.371H784.42L778.034 234.1H669.045L668.241 264.371ZM664.044 234.1L663.24 264.371H548.405L556.463 234.1H664.044ZM790.553 269.371L798.512 307.102H922.303L905.939 269.371H790.553ZM799.567 312.102L808.813 355.939H943.484L924.472 312.102H799.567ZM783.113 234.1L789.498 264.371H903.77L890.642 234.1H783.113ZM948.812 355.939H1084.88L1055.97 312.102H929.8L948.812 355.939ZM927.631 307.102H1052.68L1027.8 269.371H911.267L927.631 307.102ZM909.098 264.371H1024.5L1004.54 234.1H895.969L909.098 264.371ZM1133.52 234.1H1244L1276.02 264.371H1159.94L1133.52 234.1ZM1164.3 269.371H1281.31L1321.23 307.102H1197.22L1164.3 269.371ZM1233.57 355.939L1195.32 312.102H1061.71L1090.62 355.939H1233.57ZM1190.96 307.102L1158.03 269.371H1033.54L1058.42 307.102H1190.96ZM1153.67 264.371L1127.26 234.1H1010.28L1030.24 264.371H1153.67ZM518.903 355.939L530.573 312.102H403.631L383.149 355.939H518.903ZM531.904 307.102L541.949 269.371H423.598L405.968 307.102H531.904ZM543.28 264.371L551.339 234.1H440.078L425.934 264.371H543.28ZM319.445 234.1H434.699L420.555 264.371H299.484L319.445 234.1ZM296.187 269.371H418.218L400.588 307.102H271.306L296.187 269.371ZM268.009 312.102H398.252L377.77 355.939H239.103L268.009 312.102ZM313.703 234.1H200.032L174.07 264.371H293.742L313.703 234.1ZM193.787 234.1H90.4138L58.8661 264.371H167.826L193.787 234.1ZM14.3316 307.102L53.6552 269.371H163.537L131.177 307.102H14.3316ZM137.421 307.102L169.782 269.371H290.445L265.565 307.102H137.421ZM262.268 312.102L233.362 355.939H95.5369L133.133 312.102H262.268Z" fill="url(#paint1_linear_303_54)"/>
<g filter="url(#filter0_d_303_54)">
<path d="M470.577 169.455L481.763 207.913H482.19L493.376 169.455H510.102L492.097 224H471.856L453.852 169.455H470.577ZM511.818 224V183.091H526.52V224H511.818ZM519.169 178.83C517.18 178.83 515.476 178.173 514.055 176.859C512.635 175.545 511.925 173.964 511.925 172.118C511.925 170.271 512.635 168.691 514.055 167.377C515.476 166.063 517.18 165.406 519.169 165.406C521.175 165.406 522.88 166.063 524.283 167.377C525.703 168.691 526.413 170.271 526.413 172.118C526.413 173.964 525.703 175.545 524.283 176.859C522.88 178.173 521.175 178.83 519.169 178.83ZM530.26 224V183.091H544.536V190.868H544.962C545.708 187.991 546.889 185.887 548.504 184.556C550.138 183.224 552.047 182.558 554.231 182.558C554.87 182.558 555.5 182.612 556.122 182.718C556.761 182.807 557.373 182.94 557.959 183.118V195.662C557.231 195.413 556.335 195.227 555.269 195.103C554.204 194.978 553.29 194.916 552.526 194.916C551.088 194.916 549.792 195.245 548.638 195.902C547.501 196.541 546.605 197.446 545.948 198.618C545.291 199.772 544.962 201.131 544.962 202.693V224H530.26ZM585.111 183.091V193.744H558.158V183.091H585.111ZM563.378 173.29H578.08V210.843C578.08 211.411 578.177 211.891 578.373 212.281C578.568 212.654 578.87 212.938 579.278 213.134C579.686 213.311 580.21 213.4 580.849 213.4C581.293 213.4 581.808 213.347 582.394 213.24C582.998 213.134 583.442 213.045 583.726 212.974L585.857 223.308C585.2 223.503 584.259 223.743 583.033 224.027C581.826 224.311 580.388 224.497 578.719 224.586C575.345 224.763 572.513 224.417 570.223 223.547C567.932 222.659 566.21 221.266 565.056 219.366C563.902 217.466 563.342 215.087 563.378 212.228V173.29ZM613.887 206.102V183.091H628.589V224H614.633V216.223H614.207C613.319 218.833 611.765 220.875 609.546 222.349C607.326 223.805 604.69 224.533 601.636 224.533C598.777 224.533 596.273 223.876 594.125 222.562C591.994 221.248 590.334 219.437 589.144 217.129C587.973 214.82 587.378 212.175 587.36 209.192V183.091H602.062V206.102C602.08 208.126 602.594 209.716 603.606 210.87C604.636 212.024 606.075 212.601 607.921 212.601C609.146 212.601 610.203 212.343 611.091 211.828C611.996 211.296 612.689 210.55 613.168 209.591C613.665 208.615 613.905 207.452 613.887 206.102ZM643.715 224.639C641.105 224.639 638.797 224.213 636.791 223.361C634.802 222.491 633.239 221.177 632.103 219.419C630.967 217.661 630.398 215.424 630.398 212.707C630.398 210.47 630.78 208.561 631.544 206.981C632.307 205.383 633.373 204.078 634.74 203.066C636.107 202.054 637.696 201.282 639.507 200.749C641.336 200.216 643.307 199.87 645.42 199.71C647.71 199.533 649.548 199.32 650.933 199.071C652.336 198.805 653.348 198.441 653.969 197.979C654.591 197.5 654.901 196.869 654.901 196.088V195.982C654.901 194.916 654.493 194.099 653.676 193.531C652.859 192.963 651.812 192.679 650.533 192.679C649.131 192.679 647.985 192.99 647.098 193.611C646.228 194.215 645.704 195.147 645.526 196.408H631.996C632.174 193.922 632.964 191.631 634.367 189.536C635.787 187.423 637.856 185.737 640.572 184.476C643.289 183.197 646.68 182.558 650.746 182.558C653.676 182.558 656.304 182.904 658.63 183.597C660.956 184.272 662.936 185.222 664.569 186.447C666.203 187.654 667.446 189.075 668.298 190.708C669.168 192.324 669.603 194.082 669.603 195.982V224H655.86V218.247H655.541C654.724 219.774 653.729 221.008 652.558 221.949C651.403 222.89 650.081 223.574 648.589 224C647.115 224.426 645.491 224.639 643.715 224.639ZM648.509 215.371C649.628 215.371 650.675 215.14 651.652 214.678C652.646 214.217 653.454 213.551 654.076 212.681C654.697 211.811 655.008 210.754 655.008 209.511V206.102C654.617 206.262 654.2 206.413 653.756 206.555C653.33 206.697 652.868 206.83 652.371 206.955C651.892 207.079 651.377 207.194 650.826 207.301C650.294 207.407 649.734 207.505 649.148 207.594C648.012 207.771 647.08 208.064 646.352 208.473C645.642 208.863 645.109 209.352 644.754 209.938C644.417 210.506 644.248 211.145 644.248 211.855C644.248 212.991 644.647 213.862 645.446 214.465C646.245 215.069 647.266 215.371 648.509 215.371ZM687.579 169.455V224H672.878V169.455H687.579ZM723.286 224H702.298V169.455H723.072C728.683 169.455 733.531 170.547 737.614 172.73C741.716 174.897 744.876 178.022 747.096 182.105C749.333 186.172 750.452 191.045 750.452 196.727C750.452 202.409 749.342 207.292 747.123 211.376C744.903 215.442 741.76 218.567 737.694 220.751C733.628 222.917 728.825 224 723.286 224ZM717.107 211.429H722.753C725.452 211.429 727.751 210.994 729.651 210.124C731.569 209.254 733.025 207.754 734.019 205.623C735.031 203.492 735.537 200.527 735.537 196.727C735.537 192.928 735.022 189.962 733.992 187.832C732.98 185.701 731.489 184.201 729.518 183.331C727.565 182.461 725.168 182.026 722.327 182.026H717.107V211.429ZM806.394 196.727C806.394 202.8 805.213 207.922 802.852 212.095C800.49 216.25 797.303 219.401 793.29 221.55C789.278 223.68 784.803 224.746 779.867 224.746C774.896 224.746 770.403 223.672 766.391 221.523C762.396 219.357 759.217 216.196 756.856 212.042C754.512 207.869 753.34 202.764 753.34 196.727C753.34 190.655 754.512 185.541 756.856 181.386C759.217 177.214 762.396 174.062 766.391 171.931C770.403 169.783 774.896 168.709 779.867 168.709C784.803 168.709 789.278 169.783 793.29 171.931C797.303 174.062 800.49 177.214 802.852 181.386C805.213 185.541 806.394 190.655 806.394 196.727ZM791.16 196.727C791.16 193.46 790.725 190.708 789.855 188.471C789.002 186.216 787.733 184.511 786.046 183.357C784.377 182.185 782.317 181.599 779.867 181.599C777.417 181.599 775.348 182.185 773.662 183.357C771.992 184.511 770.723 186.216 769.853 188.471C769.001 190.708 768.575 193.46 768.575 196.727C768.575 199.994 769.001 202.755 769.853 205.01C770.723 207.248 771.992 208.952 773.662 210.124C775.348 211.278 777.417 211.855 779.867 211.855C782.317 211.855 784.377 211.278 786.046 210.124C787.733 208.952 789.002 207.248 789.855 205.01C790.725 202.755 791.16 199.994 791.16 196.727ZM809.496 169.455H827.926L840.604 200.349H841.243L853.92 169.455H872.351V224H857.862V192.466H857.436L845.291 223.574H836.555L824.41 192.253H823.984V224H809.496V169.455Z" fill="white"/>
<path d="M415.849 315V274.091H430.551V315H415.849ZM423.2 269.83C421.211 269.83 419.506 269.173 418.086 267.859C416.666 266.545 415.955 264.964 415.955 263.118C415.955 261.271 416.666 259.691 418.086 258.377C419.506 257.063 421.211 256.406 423.2 256.406C425.206 256.406 426.911 257.063 428.313 258.377C429.734 259.691 430.444 261.271 430.444 263.118C430.444 264.964 429.734 266.545 428.313 267.859C426.911 269.173 425.206 269.83 423.2 269.83ZM448.993 291.989V315H434.291V274.091H448.247V281.868H448.673C449.561 279.276 451.124 277.243 453.361 275.769C455.616 274.295 458.244 273.558 461.244 273.558C464.138 273.558 466.651 274.224 468.782 275.556C470.93 276.87 472.59 278.681 473.762 280.989C474.952 283.297 475.538 285.934 475.52 288.899V315H460.818V291.989C460.836 289.964 460.321 288.375 459.273 287.221C458.244 286.067 456.805 285.49 454.959 285.49C453.751 285.49 452.695 285.756 451.789 286.289C450.902 286.804 450.218 287.55 449.739 288.526C449.259 289.485 449.011 290.639 448.993 291.989ZM503.424 274.091V284.744H476.471V274.091H503.424ZM481.691 264.29H496.393V301.843C496.393 302.411 496.49 302.891 496.686 303.281C496.881 303.654 497.183 303.938 497.591 304.134C497.999 304.311 498.523 304.4 499.162 304.4C499.606 304.4 500.121 304.347 500.707 304.24C501.311 304.134 501.755 304.045 502.039 303.974L504.17 314.308C503.513 314.503 502.572 314.743 501.346 315.027C500.139 315.311 498.701 315.497 497.032 315.586C493.658 315.763 490.826 315.417 488.536 314.547C486.245 313.659 484.523 312.266 483.369 310.366C482.215 308.466 481.655 306.087 481.691 303.228V264.29ZM524.942 315.746C520.503 315.746 516.704 314.867 513.543 313.109C510.383 311.333 507.959 308.865 506.272 305.705C504.585 302.527 503.742 298.842 503.742 294.652C503.742 290.462 504.585 286.786 506.272 283.626C507.959 280.447 510.383 277.979 513.543 276.222C516.704 274.446 520.503 273.558 524.942 273.558C529.381 273.558 533.181 274.446 536.342 276.222C539.502 277.979 541.926 280.447 543.612 283.626C545.299 286.786 546.143 290.462 546.143 294.652C546.143 298.842 545.299 302.527 543.612 305.705C541.926 308.865 539.502 311.333 536.342 313.109C533.181 314.867 529.381 315.746 524.942 315.746ZM525.049 304.879C526.292 304.879 527.366 304.462 528.272 303.627C529.177 302.793 529.878 301.603 530.376 300.059C530.873 298.514 531.121 296.676 531.121 294.545C531.121 292.397 530.873 290.559 530.376 289.032C529.878 287.488 529.177 286.298 528.272 285.463C527.366 284.629 526.292 284.212 525.049 284.212C523.735 284.212 522.608 284.629 521.666 285.463C520.725 286.298 520.006 287.488 519.509 289.032C519.012 290.559 518.763 292.397 518.763 294.545C518.763 296.676 519.012 298.514 519.509 300.059C520.006 301.603 520.725 302.793 521.666 303.627C522.608 304.462 523.735 304.879 525.049 304.879ZM583.946 274.091V284.744H556.993V274.091H583.946ZM562.213 264.29H576.915V301.843C576.915 302.411 577.013 302.891 577.208 303.281C577.403 303.654 577.705 303.938 578.114 304.134C578.522 304.311 579.046 304.4 579.685 304.4C580.129 304.4 580.644 304.347 581.23 304.24C581.833 304.134 582.277 304.045 582.561 303.974L584.692 314.308C584.035 314.503 583.094 314.743 581.869 315.027C580.661 315.311 579.223 315.497 577.554 315.586C574.181 315.763 571.349 315.417 569.058 314.547C566.768 313.659 565.045 312.266 563.891 310.366C562.737 308.466 562.178 306.087 562.213 303.228V264.29ZM601.776 291.989V315H587.074V260.455H601.243V281.868H601.67C602.593 279.258 604.129 277.225 606.277 275.769C608.426 274.295 611.009 273.558 614.028 273.558C616.922 273.558 619.434 274.215 621.565 275.529C623.713 276.843 625.373 278.654 626.545 280.962C627.735 283.271 628.321 285.916 628.303 288.899V315H613.601V291.989C613.619 289.964 613.113 288.375 612.083 287.221C611.071 286.067 609.624 285.49 607.742 285.49C606.552 285.49 605.505 285.756 604.599 286.289C603.711 286.804 603.019 287.55 602.522 288.526C602.042 289.485 601.794 290.639 601.776 291.989ZM651.413 315.746C647.045 315.746 643.281 314.911 640.12 313.242C636.978 311.555 634.554 309.141 632.849 305.998C631.163 302.837 630.319 299.055 630.319 294.652C630.319 290.426 631.172 286.733 632.876 283.572C634.581 280.412 636.987 277.953 640.094 276.195C643.201 274.437 646.868 273.558 651.093 273.558C654.183 273.558 656.979 274.038 659.483 274.996C661.987 275.955 664.126 277.349 665.902 279.178C667.677 280.989 669.044 283.191 670.003 285.783C670.962 288.375 671.441 291.296 671.441 294.545V297.955H634.9V289.858H657.912C657.894 288.686 657.592 287.656 657.006 286.768C656.438 285.863 655.665 285.162 654.689 284.664C653.73 284.15 652.638 283.892 651.413 283.892C650.223 283.892 649.131 284.15 648.137 284.664C647.143 285.162 646.344 285.854 645.74 286.742C645.154 287.63 644.843 288.668 644.808 289.858V298.594C644.808 299.908 645.083 301.08 645.634 302.109C646.184 303.139 646.974 303.947 648.004 304.533C649.034 305.119 650.277 305.412 651.733 305.412C652.745 305.412 653.668 305.27 654.502 304.986C655.355 304.702 656.083 304.293 656.686 303.761C657.29 303.21 657.734 302.553 658.018 301.79H671.441C670.98 304.631 669.888 307.099 668.165 309.194C666.443 311.271 664.162 312.887 661.321 314.041C658.498 315.178 655.195 315.746 651.413 315.746ZM709.385 274.091V284.744H682.006V274.091H709.385ZM687.226 315V272.919C687.226 269.545 687.829 266.749 689.037 264.529C690.244 262.31 691.949 260.65 694.15 259.549C696.352 258.448 698.945 257.898 701.927 257.898C703.792 257.898 705.603 258.04 707.361 258.324C709.136 258.608 710.45 258.857 711.302 259.07L709.172 269.616C708.639 269.457 708.018 269.332 707.307 269.244C706.597 269.137 705.976 269.084 705.443 269.084C704.058 269.084 703.126 269.377 702.647 269.963C702.167 270.549 701.927 271.321 701.927 272.28V315H687.226ZM737.835 297.102V274.091H752.536V315H738.581V307.223H738.154C737.267 309.833 735.713 311.875 733.494 313.349C731.274 314.805 728.637 315.533 725.583 315.533C722.725 315.533 720.221 314.876 718.073 313.562C715.942 312.248 714.282 310.437 713.092 308.129C711.92 305.82 711.326 303.175 711.308 300.192V274.091H726.009V297.102C726.027 299.126 726.542 300.716 727.554 301.87C728.584 303.024 730.022 303.601 731.869 303.601C733.094 303.601 734.15 303.343 735.038 302.828C735.944 302.296 736.636 301.55 737.116 300.591C737.613 299.615 737.853 298.452 737.835 297.102ZM780.66 274.091V284.744H753.707V274.091H780.66ZM758.927 264.29H773.629V301.843C773.629 302.411 773.727 302.891 773.922 303.281C774.117 303.654 774.419 303.938 774.827 304.134C775.236 304.311 775.76 304.4 776.399 304.4C776.843 304.4 777.358 304.347 777.944 304.24C778.547 304.134 778.991 304.045 779.275 303.974L781.406 314.308C780.749 314.503 779.808 314.743 778.583 315.027C777.375 315.311 775.937 315.497 774.268 315.586C770.895 315.763 768.063 315.417 765.772 314.547C763.482 313.659 761.759 312.266 760.605 310.366C759.451 308.466 758.892 306.087 758.927 303.228V264.29ZM809.436 297.102V274.091H824.138V315H810.182V307.223H809.756C808.868 309.833 807.315 311.875 805.095 313.349C802.876 314.805 800.239 315.533 797.185 315.533C794.326 315.533 791.823 314.876 789.674 313.562C787.544 312.248 785.883 310.437 784.694 308.129C783.522 305.82 782.927 303.175 782.909 300.192V274.091H797.611V297.102C797.629 299.126 798.144 300.716 799.156 301.87C800.186 303.024 801.624 303.601 803.47 303.601C804.696 303.601 805.752 303.343 806.64 302.828C807.545 302.296 808.238 301.55 808.717 300.591C809.214 299.615 809.454 298.452 809.436 297.102ZM827.865 315V274.091H842.141V281.868H842.567C843.313 278.991 844.494 276.887 846.109 275.556C847.743 274.224 849.652 273.558 851.836 273.558C852.475 273.558 853.105 273.612 853.727 273.718C854.366 273.807 854.978 273.94 855.564 274.118V286.662C854.836 286.413 853.94 286.227 852.874 286.103C851.809 285.978 850.895 285.916 850.131 285.916C848.693 285.916 847.397 286.245 846.243 286.902C845.106 287.541 844.21 288.446 843.553 289.618C842.896 290.772 842.567 292.131 842.567 293.693V315H827.865ZM873.893 315.746C869.526 315.746 865.761 314.911 862.601 313.242C859.458 311.555 857.034 309.141 855.33 305.998C853.643 302.837 852.8 299.055 852.8 294.652C852.8 290.426 853.652 286.733 855.357 283.572C857.061 280.412 859.467 277.953 862.574 276.195C865.681 274.437 869.348 273.558 873.574 273.558C876.663 273.558 879.46 274.038 881.963 274.996C884.467 275.955 886.607 277.349 888.382 279.178C890.158 280.989 891.525 283.191 892.484 285.783C893.442 288.375 893.922 291.296 893.922 294.545V297.955H857.381V289.858H880.392C880.374 288.686 880.072 287.656 879.487 286.768C878.918 285.863 878.146 285.162 877.169 284.664C876.211 284.15 875.119 283.892 873.893 283.892C872.704 283.892 871.612 284.15 870.618 284.664C869.623 285.162 868.824 285.854 868.221 286.742C867.635 287.63 867.324 288.668 867.288 289.858V298.594C867.288 299.908 867.564 301.08 868.114 302.109C868.664 303.139 869.455 303.947 870.484 304.533C871.514 305.119 872.757 305.412 874.213 305.412C875.225 305.412 876.148 305.27 876.983 304.986C877.835 304.702 878.563 304.293 879.167 303.761C879.771 303.21 880.214 302.553 880.499 301.79H893.922C893.46 304.631 892.368 307.099 890.646 309.194C888.924 311.271 886.642 312.887 883.801 314.041C880.978 315.178 877.675 315.746 873.893 315.746ZM904.161 315.852C902.101 315.852 900.335 315.133 898.861 313.695C897.405 312.239 896.686 310.472 896.704 308.395C896.686 306.371 897.405 304.64 898.861 303.201C900.335 301.763 902.101 301.044 904.161 301.044C906.114 301.044 907.837 301.763 909.328 303.201C910.837 304.64 911.601 306.371 911.619 308.395C911.601 309.78 911.237 311.04 910.527 312.177C909.834 313.295 908.929 314.192 907.81 314.867C906.691 315.524 905.475 315.852 904.161 315.852Z" fill="url(#paint2_radial_303_54)"/>
</g>
<path fill-rule="evenodd" clip-rule="evenodd" d="M644.803 130.894C648.391 125.629 655.694 122.025 664.119 122.025C672.544 122.025 679.847 125.629 683.435 130.894C679.847 136.159 672.544 139.763 664.119 139.763C655.694 139.763 648.391 136.159 644.803 130.894Z" fill="url(#paint3_linear_303_54)"/>
<path d="M644.673 91.775C648.259 86.566 655.557 83 663.977 83C672.396 83 679.694 86.566 683.28 91.775C679.694 96.984 672.396 100.55 663.977 100.55C655.557 100.55 648.259 96.984 644.673 91.775Z" fill="url(#paint4_linear_303_54)"/>
<path d="M664.345 111.485C659.128 116.651 652.051 119.553 644.673 119.553C637.294 119.553 630.218 116.651 625 111.485L644.673 91.775L664.345 111.485Z" fill="url(#paint5_linear_303_54)"/>
<path d="M703 111.495C697.782 116.661 690.706 119.562 683.327 119.562C675.949 119.562 668.872 116.661 663.655 111.495L683.327 91.775L703 111.495Z" fill="url(#paint6_linear_303_54)"/>
<path d="M1164.21 13.2727H1168.01L1171.25 21.1527H1171.4L1174.63 13.2727H1178.44V26H1175.44V18.1822H1175.34L1172.28 25.9192H1170.36L1167.31 18.1387H1167.2V26H1164.21V13.2727ZM1183.87 13.2727V26H1180.79V13.2727H1183.87ZM1186.24 26V13.2727H1189.31V23.5018H1194.61V26H1186.24ZM1196.64 26V13.2727H1199.71V23.5018H1205.01V26H1196.64ZM1210.12 13.2727V26H1207.04V13.2727H1210.12ZM1224.5 19.6364C1224.5 21.0367 1224.23 22.2237 1223.69 23.1973C1223.15 24.1709 1222.42 24.9104 1221.5 25.4158C1220.59 25.9213 1219.56 26.174 1218.42 26.174C1217.28 26.174 1216.25 25.9192 1215.33 25.4096C1214.41 24.9 1213.69 24.1605 1213.15 23.1911C1212.61 22.2174 1212.35 21.0326 1212.35 19.6364C1212.35 18.236 1212.61 17.0491 1213.15 16.0755C1213.69 15.1019 1214.41 14.3623 1215.33 13.8569C1216.25 13.3514 1217.28 13.0987 1218.42 13.0987C1219.56 13.0987 1220.59 13.3514 1221.5 13.8569C1222.42 14.3623 1223.15 15.1019 1223.69 16.0755C1224.23 17.0491 1224.5 18.236 1224.5 19.6364ZM1221.35 19.6364C1221.35 18.8078 1221.23 18.1076 1221 17.5359C1220.77 16.9641 1220.43 16.5312 1219.99 16.237C1219.56 15.9429 1219.03 15.7958 1218.42 15.7958C1217.81 15.7958 1217.29 15.9429 1216.85 16.237C1216.41 16.5312 1216.07 16.9641 1215.83 17.5359C1215.6 18.1076 1215.49 18.8078 1215.49 19.6364C1215.49 20.465 1215.6 21.1651 1215.83 21.7369C1216.07 22.3086 1216.41 22.7415 1216.85 23.0357C1217.29 23.3298 1217.81 23.4769 1218.42 23.4769C1219.03 23.4769 1219.56 23.3298 1219.99 23.0357C1220.43 22.7415 1220.77 22.3086 1221 21.7369C1221.23 21.1651 1221.35 20.465 1221.35 19.6364ZM1237.56 13.2727V26H1234.95L1229.89 18.6545H1229.81V26H1226.73V13.2727H1229.38L1234.39 20.6058H1234.49V13.2727H1237.56ZM1241.64 26.1802C1241.2 26.1802 1240.81 26.0228 1240.49 25.7079C1240.18 25.3931 1240.02 25.0119 1240.03 24.5645C1240.02 24.1253 1240.18 23.7504 1240.49 23.4396C1240.81 23.1248 1241.2 22.9673 1241.64 22.9673C1242.07 22.9673 1242.44 23.1248 1242.76 23.4396C1243.09 23.7504 1243.25 24.1253 1243.26 24.5645C1243.25 24.8627 1243.18 25.1341 1243.02 25.3786C1242.87 25.623 1242.68 25.8177 1242.43 25.9627C1242.19 26.1077 1241.93 26.1802 1241.64 26.1802ZM1250.87 13.2727H1253.91V22.0724C1253.9 22.8969 1253.71 23.6178 1253.32 24.2351C1252.93 24.8482 1252.39 25.3247 1251.7 25.6644C1251.02 26.0041 1250.23 26.174 1249.33 26.174C1248.53 26.174 1247.81 26.0352 1247.16 25.7576C1246.51 25.4801 1246 25.0492 1245.61 24.465C1245.23 23.8809 1245.04 23.133 1245.04 22.2216H1248.11C1248.12 22.5489 1248.18 22.8285 1248.29 23.0605C1248.41 23.2884 1248.57 23.4603 1248.77 23.5763C1248.98 23.6924 1249.22 23.7504 1249.5 23.7504C1249.79 23.7504 1250.04 23.6882 1250.25 23.5639C1250.45 23.4355 1250.6 23.247 1250.71 22.9984C1250.81 22.7498 1250.87 22.4412 1250.87 22.0724V13.2727ZM1263.15 17.0884C1263.11 16.6327 1262.93 16.2785 1262.6 16.0257C1262.28 15.7689 1261.82 15.6404 1261.22 15.6404C1260.82 15.6404 1260.49 15.6922 1260.22 15.7958C1259.96 15.8994 1259.76 16.0423 1259.62 16.2246C1259.49 16.4028 1259.42 16.6078 1259.42 16.8398C1259.41 17.0304 1259.45 17.1982 1259.53 17.3432C1259.62 17.4882 1259.74 17.6167 1259.9 17.7285C1260.07 17.8362 1260.27 17.9315 1260.5 18.0144C1260.73 18.0972 1260.99 18.1697 1261.28 18.2319L1262.38 18.4805C1263.01 18.6172 1263.56 18.7995 1264.04 19.0273C1264.53 19.2552 1264.93 19.5266 1265.26 19.8414C1265.59 20.1563 1265.84 20.5188 1266.01 20.929C1266.18 21.3391 1266.27 21.799 1266.27 22.3086C1266.27 23.1123 1266.07 23.8021 1265.67 24.378C1265.26 24.9539 1264.69 25.3951 1263.93 25.7017C1263.18 26.0083 1262.28 26.1616 1261.22 26.1616C1260.15 26.1616 1259.22 26.0021 1258.43 25.6831C1257.64 25.3641 1257.03 24.8793 1256.59 24.2289C1256.15 23.5784 1255.92 22.756 1255.91 21.7617H1258.85C1258.88 22.1719 1258.99 22.5137 1259.18 22.7871C1259.38 23.0605 1259.65 23.2677 1259.99 23.4086C1260.33 23.5494 1260.73 23.6199 1261.18 23.6199C1261.59 23.6199 1261.94 23.5639 1262.23 23.4521C1262.53 23.3402 1262.75 23.1848 1262.91 22.986C1263.07 22.7871 1263.15 22.5592 1263.15 22.3024C1263.15 22.0621 1263.08 21.857 1262.93 21.6871C1262.79 21.5131 1262.56 21.364 1262.26 21.2397C1261.96 21.1113 1261.58 20.9932 1261.12 20.8855L1259.79 20.5748C1258.68 20.322 1257.82 19.9139 1257.18 19.3505C1256.55 18.7829 1256.23 18.0165 1256.24 17.0511C1256.23 16.264 1256.45 15.5742 1256.87 14.9817C1257.3 14.3893 1257.89 13.9273 1258.64 13.5959C1259.4 13.2644 1260.26 13.0987 1261.22 13.0987C1262.21 13.0987 1263.06 13.2665 1263.79 13.6021C1264.52 13.9335 1265.08 14.3996 1265.49 15.0004C1265.89 15.6011 1266.09 16.2971 1266.1 17.0884H1263.15ZM1269.97 26.1802C1269.53 26.1802 1269.14 26.0228 1268.82 25.7079C1268.51 25.3931 1268.35 25.0119 1268.36 24.5645C1268.35 24.1253 1268.51 23.7504 1268.82 23.4396C1269.14 23.1248 1269.53 22.9673 1269.97 22.9673C1270.4 22.9673 1270.77 23.1248 1271.09 23.4396C1271.42 23.7504 1271.59 24.1253 1271.59 24.5645C1271.59 24.8627 1271.51 25.1341 1271.35 25.3786C1271.2 25.623 1271.01 25.8177 1270.76 25.9627C1270.52 26.1077 1270.26 26.1802 1269.97 26.1802ZM1286.05 19.6364C1286.05 21.0367 1285.78 22.2237 1285.24 23.1973C1284.7 24.1709 1283.97 24.9104 1283.05 25.4158C1282.14 25.9213 1281.11 26.174 1279.97 26.174C1278.83 26.174 1277.8 25.9192 1276.88 25.4096C1275.97 24.9 1275.24 24.1605 1274.7 23.1911C1274.17 22.2174 1273.9 21.0326 1273.9 19.6364C1273.9 18.236 1274.17 17.0491 1274.7 16.0755C1275.24 15.1019 1275.97 14.3623 1276.88 13.8569C1277.8 13.3514 1278.83 13.0987 1279.97 13.0987C1281.11 13.0987 1282.14 13.3514 1283.05 13.8569C1283.97 14.3623 1284.7 15.1019 1285.24 16.0755C1285.78 17.0491 1286.05 18.236 1286.05 19.6364ZM1282.9 19.6364C1282.9 18.8078 1282.79 18.1076 1282.55 17.5359C1282.32 16.9641 1281.98 16.5312 1281.54 16.237C1281.11 15.9429 1280.58 15.7958 1279.97 15.7958C1279.36 15.7958 1278.84 15.9429 1278.4 16.237C1277.96 16.5312 1277.62 16.9641 1277.38 17.5359C1277.15 18.1076 1277.04 18.8078 1277.04 19.6364C1277.04 20.465 1277.15 21.1651 1277.38 21.7369C1277.62 22.3086 1277.96 22.7415 1278.4 23.0357C1278.84 23.3298 1279.36 23.4769 1279.97 23.4769C1280.58 23.4769 1281.11 23.3298 1281.54 23.0357C1281.98 22.7415 1282.32 22.3086 1282.55 21.7369C1282.79 21.1651 1282.9 20.465 1282.9 19.6364ZM1288.28 26V13.2727H1293.54C1294.49 13.2727 1295.31 13.4447 1296.01 13.7885C1296.7 14.1283 1297.24 14.6171 1297.62 15.2551C1297.99 15.889 1298.18 16.641 1298.18 17.511C1298.18 18.3935 1297.99 19.1433 1297.6 19.7607C1297.22 20.3738 1296.67 20.842 1295.96 21.1651C1295.25 21.4841 1294.41 21.6436 1293.45 21.6436H1290.12V19.22H1292.87C1293.34 19.22 1293.73 19.1599 1294.04 19.0398C1294.35 18.9155 1294.59 18.729 1294.75 18.4805C1294.91 18.2277 1294.99 17.9046 1294.99 17.511C1294.99 17.1174 1294.91 16.7922 1294.75 16.5353C1294.59 16.2743 1294.35 16.0796 1294.04 15.9512C1293.72 15.8186 1293.33 15.7523 1292.87 15.7523H1291.36V26H1288.28ZM1295.45 20.1832L1298.62 26H1295.26L1292.15 20.1832H1295.45ZM1308.66 17.4302C1308.59 17.1692 1308.48 16.9393 1308.35 16.7404C1308.21 16.5374 1308.04 16.3655 1307.84 16.2246C1307.64 16.0837 1307.42 15.9781 1307.16 15.9077C1306.9 15.8331 1306.62 15.7958 1306.31 15.7958C1305.7 15.7958 1305.16 15.945 1304.71 16.2433C1304.26 16.5415 1303.92 16.9766 1303.67 17.5483C1303.43 18.1159 1303.31 18.8057 1303.31 19.6177C1303.31 20.4339 1303.43 21.1299 1303.66 21.7058C1303.9 22.2817 1304.24 22.7208 1304.69 23.0233C1305.13 23.3257 1305.68 23.4769 1306.31 23.4769C1306.88 23.4769 1307.35 23.3858 1307.74 23.2035C1308.14 23.017 1308.44 22.754 1308.64 22.4142C1308.84 22.0745 1308.94 21.6747 1308.94 21.2148L1309.52 21.2832H1306.42V19.0398H1311.91V20.7239C1311.91 21.8632 1311.67 22.8389 1311.18 23.6509C1310.7 24.4629 1310.04 25.0865 1309.19 25.5215C1308.35 25.9565 1307.38 26.174 1306.29 26.174C1305.08 26.174 1304.01 25.9109 1303.09 25.3848C1302.17 24.8586 1301.45 24.1087 1300.94 23.1351C1300.43 22.1574 1300.17 20.9973 1300.17 19.655C1300.17 18.611 1300.32 17.685 1300.63 16.8771C1300.95 16.0651 1301.38 15.3774 1301.93 14.8139C1302.49 14.2505 1303.14 13.8237 1303.87 13.5337C1304.61 13.2437 1305.4 13.0987 1306.25 13.0987C1306.99 13.0987 1307.68 13.2044 1308.31 13.4157C1308.95 13.627 1309.51 13.9252 1310 14.3105C1310.49 14.6958 1310.89 15.1536 1311.2 15.6839C1311.51 16.2143 1311.7 16.7963 1311.77 17.4302H1308.66Z" fill="#3B3354"/>
<path d="M13.2054 13.2727H17.0149L20.2464 21.1527H20.3956L23.6271 13.2727H27.4366V26H24.4412V18.1822H24.3356L21.2781 25.9192H19.364L16.3065 18.1387H16.2008V26H13.2054V13.2727ZM32.869 13.2727V26H29.7928V13.2727H32.869ZM35.2377 26V13.2727H38.3138V23.5018H43.6086V26H35.2377ZM45.6385 26V13.2727H48.7147V23.5018H54.0095V26H45.6385ZM59.1156 13.2727V26H56.0394V13.2727H59.1156ZM73.4968 19.6364C73.4968 21.0367 73.2276 22.2237 72.689 23.1973C72.1504 24.1709 71.4212 24.9104 70.5015 25.4158C69.5859 25.9213 68.5584 26.174 67.4191 26.174C66.2756 26.174 65.2461 25.9192 64.3305 25.4096C63.4149 24.9 62.6878 24.1605 62.1492 23.1911C61.6147 22.2174 61.3475 21.0326 61.3475 19.6364C61.3475 18.236 61.6147 17.0491 62.1492 16.0755C62.6878 15.1019 63.4149 14.3623 64.3305 13.8569C65.2461 13.3514 66.2756 13.0987 67.4191 13.0987C68.5584 13.0987 69.5859 13.3514 70.5015 13.8569C71.4212 14.3623 72.1504 15.1019 72.689 16.0755C73.2276 17.0491 73.4968 18.236 73.4968 19.6364ZM70.3523 19.6364C70.3523 18.8078 70.2342 18.1076 69.9981 17.5359C69.7661 16.9641 69.4305 16.5312 68.9913 16.237C68.5563 15.9429 68.0322 15.7958 67.4191 15.7958C66.8101 15.7958 66.286 15.9429 65.8468 16.237C65.4077 16.5312 65.07 16.9641 64.8339 17.5359C64.6018 18.1076 64.4858 18.8078 64.4858 19.6364C64.4858 20.465 64.6018 21.1651 64.8339 21.7369C65.07 22.3086 65.4077 22.7415 65.8468 23.0357C66.286 23.3298 66.8101 23.4769 67.4191 23.4769C68.0322 23.4769 68.5563 23.3298 68.9913 23.0357C69.4305 22.7415 69.7661 22.3086 69.9981 21.7369C70.2342 21.1651 70.3523 20.465 70.3523 19.6364ZM86.5622 13.2727V26H83.9521L78.8873 18.6545H78.8065V26H75.7303V13.2727H78.3777L83.3866 20.6058H83.4922V13.2727H86.5622ZM90.6429 26.1802C90.1955 26.1802 89.8123 26.0228 89.4933 25.7079C89.1784 25.3931 89.023 25.0119 89.0272 24.5645C89.023 24.1253 89.1784 23.7504 89.4933 23.4396C89.8123 23.1248 90.1955 22.9673 90.6429 22.9673C91.0655 22.9673 91.4384 23.1248 91.7615 23.4396C92.0888 23.7504 92.2546 24.1253 92.2587 24.5645C92.2546 24.8627 92.1758 25.1341 92.0225 25.3786C91.8734 25.623 91.6766 25.8177 91.4322 25.9627C91.1919 26.1077 90.9288 26.1802 90.6429 26.1802ZM99.8739 13.2727H102.907V22.0724C102.902 22.8969 102.706 23.6178 102.316 24.2351C101.927 24.8482 101.388 25.3247 100.7 25.6644C100.017 26.0041 99.2256 26.174 98.3265 26.174C97.5311 26.174 96.8081 26.0352 96.1577 25.7576C95.5114 25.4801 94.9956 25.0492 94.6103 24.465C94.2291 23.8809 94.0406 23.133 94.0447 22.2216H97.1085C97.1209 22.5489 97.1831 22.8285 97.2949 23.0605C97.4109 23.2884 97.5704 23.4603 97.7734 23.5763C97.9764 23.6924 98.2188 23.7504 98.5005 23.7504C98.7947 23.7504 99.0433 23.6882 99.2463 23.5639C99.4493 23.4355 99.6026 23.247 99.7061 22.9984C99.8139 22.7498 99.8698 22.4412 99.8739 22.0724V13.2727ZM112.155 17.0884C112.113 16.6327 111.929 16.2785 111.602 16.0257C111.278 15.7689 110.817 15.6404 110.216 15.6404C109.818 15.6404 109.487 15.6922 109.221 15.7958C108.956 15.8994 108.757 16.0423 108.625 16.2246C108.492 16.4028 108.424 16.6078 108.42 16.8398C108.412 17.0304 108.449 17.1982 108.532 17.3432C108.619 17.4882 108.743 17.6167 108.905 17.7285C109.07 17.8362 109.269 17.9315 109.501 18.0144C109.733 18.0972 109.994 18.1697 110.284 18.2319L111.378 18.4805C112.008 18.6172 112.563 18.7995 113.043 19.0273C113.528 19.2552 113.934 19.5266 114.261 19.8414C114.593 20.1563 114.843 20.5188 115.013 20.929C115.183 21.3391 115.27 21.799 115.274 22.3086C115.27 23.1123 115.067 23.8021 114.665 24.378C114.263 24.9539 113.686 25.3951 112.932 25.7017C112.182 26.0083 111.276 26.1616 110.216 26.1616C109.151 26.1616 108.223 26.0021 107.432 25.6831C106.64 25.3641 106.025 24.8793 105.586 24.2289C105.147 23.5784 104.921 22.756 104.909 21.7617H107.854C107.879 22.1719 107.989 22.5137 108.184 22.7871C108.378 23.0605 108.646 23.2677 108.985 23.4086C109.329 23.5494 109.727 23.6199 110.178 23.6199C110.593 23.6199 110.945 23.5639 111.235 23.4521C111.529 23.3402 111.755 23.1848 111.912 22.986C112.07 22.7871 112.151 22.5592 112.155 22.3024C112.151 22.0621 112.076 21.857 111.931 21.6871C111.786 21.5131 111.562 21.364 111.26 21.2397C110.962 21.1113 110.58 20.9932 110.116 20.8855L108.786 20.5748C107.684 20.322 106.816 19.9139 106.183 19.3505C105.549 18.7829 105.234 18.0165 105.238 17.0511C105.234 16.264 105.445 15.5742 105.872 14.9817C106.299 14.3893 106.889 13.9273 107.643 13.5959C108.397 13.2644 109.257 13.0987 110.222 13.0987C111.208 13.0987 112.064 13.2665 112.789 13.6021C113.518 13.9335 114.083 14.3996 114.485 15.0004C114.887 15.6011 115.092 16.2971 115.1 17.0884H112.155ZM118.974 26.1802C118.527 26.1802 118.144 26.0228 117.825 25.7079C117.51 25.3931 117.355 25.0119 117.359 24.5645C117.355 24.1253 117.51 23.7504 117.825 23.4396C118.144 23.1248 118.527 22.9673 118.974 22.9673C119.397 22.9673 119.77 23.1248 120.093 23.4396C120.42 23.7504 120.586 24.1253 120.59 24.5645C120.586 24.8627 120.507 25.1341 120.354 25.3786C120.205 25.623 120.008 25.8177 119.764 25.9627C119.523 26.1077 119.26 26.1802 118.974 26.1802ZM135.048 19.6364C135.048 21.0367 134.778 22.2237 134.24 23.1973C133.701 24.1709 132.972 24.9104 132.052 25.4158C131.137 25.9213 130.109 26.174 128.97 26.174C127.826 26.174 126.797 25.9192 125.881 25.4096C124.966 24.9 124.239 24.1605 123.7 23.1911C123.166 22.2174 122.898 21.0326 122.898 19.6364C122.898 18.236 123.166 17.0491 123.7 16.0755C124.239 15.1019 124.966 14.3623 125.881 13.8569C126.797 13.3514 127.826 13.0987 128.97 13.0987C130.109 13.0987 131.137 13.3514 132.052 13.8569C132.972 14.3623 133.701 15.1019 134.24 16.0755C134.778 17.0491 135.048 18.236 135.048 19.6364ZM131.903 19.6364C131.903 18.8078 131.785 18.1076 131.549 17.5359C131.317 16.9641 130.981 16.5312 130.542 16.237C130.107 15.9429 129.583 15.7958 128.97 15.7958C128.361 15.7958 127.837 15.9429 127.398 16.237C126.958 16.5312 126.621 16.9641 126.385 17.5359C126.153 18.1076 126.037 18.8078 126.037 19.6364C126.037 20.465 126.153 21.1651 126.385 21.7369C126.621 22.3086 126.958 22.7415 127.398 23.0357C127.837 23.3298 128.361 23.4769 128.97 23.4769C129.583 23.4769 130.107 23.3298 130.542 23.0357C130.981 22.7415 131.317 22.3086 131.549 21.7369C131.785 21.1651 131.903 20.465 131.903 19.6364ZM137.281 26V13.2727H142.539C143.491 13.2727 144.314 13.4447 145.006 13.7885C145.702 14.1283 146.238 14.6171 146.615 15.2551C146.992 15.889 147.181 16.641 147.181 17.511C147.181 18.3935 146.988 19.1433 146.603 19.7607C146.218 20.3738 145.671 20.842 144.962 21.1651C144.254 21.4841 143.415 21.6436 142.445 21.6436H139.121V19.22H141.874C142.338 19.22 142.725 19.1599 143.036 19.0398C143.351 18.9155 143.589 18.729 143.75 18.4805C143.912 18.2277 143.993 17.9046 143.993 17.511C143.993 17.1174 143.912 16.7922 143.75 16.5353C143.589 16.2743 143.351 16.0796 143.036 15.9512C142.721 15.8186 142.333 15.7523 141.874 15.7523H140.357V26H137.281ZM144.446 20.1832L147.616 26H144.26L141.153 20.1832H144.446ZM157.658 17.4302C157.587 17.1692 157.484 16.9393 157.347 16.7404C157.21 16.5374 157.043 16.3655 156.844 16.2246C156.645 16.0837 156.417 15.9781 156.16 15.9077C155.903 15.8331 155.622 15.7958 155.315 15.7958C154.698 15.7958 154.163 15.945 153.712 16.2433C153.264 16.5415 152.918 16.9766 152.674 17.5483C152.429 18.1159 152.307 18.8057 152.307 19.6177C152.307 20.4339 152.425 21.1299 152.661 21.7058C152.898 22.2817 153.239 22.7208 153.687 23.0233C154.134 23.3257 154.677 23.4769 155.315 23.4769C155.878 23.4769 156.355 23.3858 156.744 23.2035C157.138 23.017 157.436 22.754 157.639 22.4142C157.842 22.0745 157.944 21.6747 157.944 21.2148L158.515 21.2832H155.421V19.0398H160.908V20.7239C160.908 21.8632 160.666 22.8389 160.181 23.6509C159.7 24.4629 159.037 25.0865 158.192 25.5215C157.351 25.9565 156.384 26.174 155.29 26.174C154.076 26.174 153.009 25.9109 152.09 25.3848C151.17 24.8586 150.453 24.1087 149.939 23.1351C149.426 22.1574 149.169 20.9973 149.169 19.655C149.169 18.611 149.324 17.685 149.635 16.8771C149.946 16.0651 150.379 15.3774 150.934 14.8139C151.493 14.2505 152.139 13.8237 152.873 13.5337C153.61 13.2437 154.403 13.0987 155.253 13.0987C155.99 13.0987 156.676 13.2044 157.31 13.4157C157.948 13.627 158.511 13.9252 159 14.3105C159.493 14.6958 159.893 15.1536 160.2 15.6839C160.506 16.2143 160.697 16.7963 160.771 17.4302H157.658Z" fill="#3B3354"/>
<path d="M366.187 26V13.2727H369.263V23.5018H374.558V26H366.187ZM376.588 26V13.2727H385.462V15.771H379.664V18.381H385.008V20.8855H379.664V23.5018H385.462V26H376.588ZM394.705 17.0884C394.664 16.6327 394.479 16.2785 394.152 16.0257C393.829 15.7689 393.367 15.6404 392.766 15.6404C392.369 15.6404 392.037 15.6922 391.772 15.7958C391.507 15.8994 391.308 16.0423 391.175 16.2246C391.043 16.4028 390.974 16.6078 390.97 16.8398C390.962 17.0304 390.999 17.1982 391.082 17.3432C391.169 17.4882 391.293 17.6167 391.455 17.7285C391.621 17.8362 391.82 17.9315 392.052 18.0144C392.284 18.0972 392.545 18.1697 392.835 18.2319L393.928 18.4805C394.558 18.6172 395.113 18.7995 395.594 19.0273C396.079 19.2552 396.485 19.5266 396.812 19.8414C397.143 20.1563 397.394 20.5188 397.564 20.929C397.734 21.3391 397.821 21.799 397.825 22.3086C397.821 23.1123 397.618 23.8021 397.216 24.378C396.814 24.9539 396.236 25.3951 395.482 25.7017C394.732 26.0083 393.827 26.1616 392.766 26.1616C391.702 26.1616 390.774 26.0021 389.982 25.6831C389.191 25.3641 388.576 24.8793 388.137 24.2289C387.697 23.5784 387.472 22.756 387.459 21.7617H390.405C390.43 22.1719 390.539 22.5137 390.734 22.7871C390.929 23.0605 391.196 23.2677 391.536 23.4086C391.88 23.5494 392.277 23.6199 392.729 23.6199C393.143 23.6199 393.495 23.5639 393.785 23.4521C394.08 23.3402 394.305 23.1848 394.463 22.986C394.62 22.7871 394.701 22.5592 394.705 22.3024C394.701 22.0621 394.627 21.857 394.482 21.6871C394.337 21.5131 394.113 21.364 393.81 21.2397C393.512 21.1113 393.131 20.9932 392.667 20.8855L391.337 20.5748C390.235 20.322 389.367 19.9139 388.733 19.3505C388.099 18.7829 387.784 18.0165 387.789 17.0511C387.784 16.264 387.996 15.5742 388.422 14.9817C388.849 14.3893 389.439 13.9273 390.194 13.5959C390.948 13.2644 391.807 13.0987 392.773 13.0987C393.759 13.0987 394.614 13.2665 395.339 13.6021C396.068 13.9335 396.634 14.3996 397.036 15.0004C397.438 15.6011 397.643 16.2971 397.651 17.0884H394.705ZM406.695 17.0884C406.654 16.6327 406.47 16.2785 406.142 16.0257C405.819 15.7689 405.357 15.6404 404.757 15.6404C404.359 15.6404 404.027 15.6922 403.762 15.7958C403.497 15.8994 403.298 16.0423 403.166 16.2246C403.033 16.4028 402.965 16.6078 402.961 16.8398C402.952 17.0304 402.99 17.1982 403.072 17.3432C403.159 17.4882 403.284 17.6167 403.445 17.7285C403.611 17.8362 403.81 17.9315 404.042 18.0144C404.274 18.0972 404.535 18.1697 404.825 18.2319L405.919 18.4805C406.548 18.6172 407.104 18.7995 407.584 19.0273C408.069 19.2552 408.475 19.5266 408.802 19.8414C409.134 20.1563 409.384 20.5188 409.554 20.929C409.724 21.3391 409.811 21.799 409.815 22.3086C409.811 23.1123 409.608 23.8021 409.206 24.378C408.804 24.9539 408.226 25.3951 407.472 25.7017C406.722 26.0083 405.817 26.1616 404.757 26.1616C403.692 26.1616 402.764 26.0021 401.972 25.6831C401.181 25.3641 400.566 24.8793 400.127 24.2289C399.688 23.5784 399.462 22.756 399.449 21.7617H402.395C402.42 22.1719 402.53 22.5137 402.724 22.7871C402.919 23.0605 403.186 23.2677 403.526 23.4086C403.87 23.5494 404.268 23.6199 404.719 23.6199C405.134 23.6199 405.486 23.5639 405.776 23.4521C406.07 23.3402 406.296 23.1848 406.453 22.986C406.611 22.7871 406.691 22.5592 406.695 22.3024C406.691 22.0621 406.617 21.857 406.472 21.6871C406.327 21.5131 406.103 21.364 405.801 21.2397C405.502 21.1113 405.121 20.9932 404.657 20.8855L403.327 20.5748C402.225 20.322 401.357 19.9139 400.723 19.3505C400.089 18.7829 399.775 18.0165 399.779 17.0511C399.775 16.264 399.986 15.5742 400.413 14.9817C400.839 14.3893 401.43 13.9273 402.184 13.5959C402.938 13.2644 403.797 13.0987 404.763 13.0987C405.749 13.0987 406.604 13.2665 407.329 13.6021C408.059 13.9335 408.624 14.3996 409.026 15.0004C409.428 15.6011 409.633 16.2971 409.641 17.0884H406.695ZM415.587 15.771V13.2727H426.344V15.771H422.485V26H419.453V15.771H415.587ZM428.284 26V13.2727H431.36V18.381H436.376V13.2727H439.446V26H436.376V20.8855H431.36V26H428.284ZM444.566 26H441.26L445.554 13.2727H449.649L453.943 26H450.637L447.648 16.4794H447.549L444.566 26ZM444.124 20.9911H451.035V23.3278H444.124V20.9911ZM466.583 13.2727V26H463.973L458.908 18.6545H458.827V26H455.751V13.2727H458.398L463.407 20.6058H463.513V13.2727H466.583ZM479.012 13.2727V26H475.942V16.1438H475.868L473.021 17.8839V15.2241L476.16 13.2727H479.012ZM482.288 26V13.2727H485.364V18.6545H485.532L489.739 13.2727H493.362L488.851 18.9528L493.443 26H489.764L486.595 20.9973L485.364 22.551V26H482.288ZM495.013 26V13.2727H500.32C501.273 13.2727 502.071 13.4074 502.713 13.6767C503.359 13.946 503.844 14.323 504.167 14.8077C504.495 15.2924 504.658 15.8538 504.658 16.4918C504.658 16.9766 504.557 17.4095 504.354 17.7907C504.151 18.1677 503.871 18.4805 503.515 18.729C503.158 18.9776 502.746 19.1516 502.278 19.2511V19.3754C502.792 19.4002 503.266 19.539 503.701 19.7917C504.14 20.0444 504.492 20.3966 504.758 20.8482C505.023 21.2956 505.155 21.8259 505.155 22.4391C505.155 23.1227 504.981 23.7338 504.633 24.2724C504.285 24.8068 503.782 25.2294 503.123 25.5401C502.464 25.8467 501.665 26 500.724 26H495.013ZM498.089 23.5204H499.991C500.658 23.5204 501.149 23.3941 501.464 23.1413C501.783 22.8886 501.942 22.5365 501.942 22.0849C501.942 21.7576 501.866 21.4759 501.713 21.2397C501.559 20.9994 501.342 20.815 501.06 20.6866C500.778 20.554 500.441 20.4877 500.047 20.4877H498.089V23.5204ZM498.089 18.5053H499.792C500.128 18.5053 500.426 18.4494 500.687 18.3375C500.948 18.2257 501.151 18.0641 501.296 17.8528C501.445 17.6415 501.52 17.3867 501.52 17.0884C501.52 16.6617 501.369 16.3261 501.066 16.0817C500.764 15.8372 500.356 15.715 499.842 15.715H498.089V18.5053ZM522.822 17.8839H519.715C519.673 17.5649 519.588 17.2769 519.46 17.0201C519.331 16.7632 519.162 16.5436 518.95 16.3613C518.739 16.179 518.488 16.0402 518.198 15.945C517.912 15.8455 517.596 15.7958 517.247 15.7958C516.63 15.7958 516.098 15.947 515.65 16.2495C515.207 16.5519 514.865 16.989 514.625 17.5607C514.389 18.1325 514.271 18.8243 514.271 19.6364C514.271 20.4815 514.391 21.19 514.631 21.7617C514.876 22.3293 515.217 22.7581 515.657 23.0481C516.1 23.334 516.624 23.4769 517.229 23.4769C517.569 23.4769 517.877 23.4334 518.155 23.3464C518.437 23.2594 518.683 23.133 518.894 22.9673C519.11 22.7975 519.286 22.5924 519.423 22.3521C519.563 22.1077 519.661 21.8321 519.715 21.5256L522.822 21.5442C522.768 22.1077 522.604 22.6628 522.331 23.2097C522.062 23.7566 521.691 24.2558 521.219 24.7074C520.746 25.1548 520.17 25.5111 519.491 25.7763C518.816 26.0414 518.041 26.174 517.167 26.174C516.015 26.174 514.983 25.9213 514.072 25.4158C513.165 24.9062 512.448 24.1647 511.922 23.1911C511.396 22.2174 511.132 21.0326 511.132 19.6364C511.132 18.236 511.4 17.0491 511.934 16.0755C512.469 15.1019 513.192 14.3623 514.103 13.8569C515.014 13.3514 516.036 13.0987 517.167 13.0987C517.937 13.0987 518.65 13.2064 519.304 13.4219C519.959 13.6332 520.535 13.9439 521.032 14.354C521.529 14.7601 521.933 15.2593 522.244 15.8517C522.555 16.4442 522.747 17.1216 522.822 17.8839ZM537.032 19.6364C537.032 21.0367 536.763 22.2237 536.224 23.1973C535.686 24.1709 534.957 24.9104 534.037 25.4158C533.121 25.9213 532.094 26.174 530.954 26.174C529.811 26.174 528.781 25.9192 527.866 25.4096C526.95 24.9 526.223 24.1605 525.685 23.1911C525.15 22.2174 524.883 21.0326 524.883 19.6364C524.883 18.236 525.15 17.0491 525.685 16.0755C526.223 15.1019 526.95 14.3623 527.866 13.8569C528.781 13.3514 529.811 13.0987 530.954 13.0987C532.094 13.0987 533.121 13.3514 534.037 13.8569C534.957 14.3623 535.686 15.1019 536.224 16.0755C536.763 17.0491 537.032 18.236 537.032 19.6364ZM533.888 19.6364C533.888 18.8078 533.77 18.1076 533.533 17.5359C533.301 16.9641 532.966 16.5312 532.527 16.237C532.092 15.9429 531.568 15.7958 530.954 15.7958C530.345 15.7958 529.821 15.9429 529.382 16.237C528.943 16.5312 528.605 16.9641 528.369 17.5359C528.137 18.1076 528.021 18.8078 528.021 19.6364C528.021 20.465 528.137 21.1651 528.369 21.7369C528.605 22.3086 528.943 22.7415 529.382 23.0357C529.821 23.3298 530.345 23.4769 530.954 23.4769C531.568 23.4769 532.092 23.3298 532.527 23.0357C532.966 22.7415 533.301 22.3086 533.533 21.7369C533.77 21.1651 533.888 20.465 533.888 19.6364ZM539.266 13.2727H543.075L546.307 21.1527H546.456L549.687 13.2727H553.497V26H550.502V18.1822H550.396L547.338 25.9192H545.424L542.367 18.1387H542.261V26H539.266V13.2727ZM555.853 26V13.2727H561.111C562.063 13.2727 562.886 13.4592 563.578 13.832C564.274 14.2008 564.81 14.7166 565.187 15.3794C565.564 16.0382 565.753 16.8046 565.753 17.6788C565.753 18.5571 565.56 19.3256 565.175 19.9844C564.794 20.639 564.249 21.1465 563.54 21.5069C562.832 21.8674 561.991 22.0476 561.017 22.0476H557.773V19.6239H560.446C560.91 19.6239 561.297 19.5431 561.608 19.3816C561.923 19.22 562.161 18.9942 562.322 18.7042C562.484 18.41 562.565 18.0682 562.565 17.6788C562.565 17.2852 562.484 16.9455 562.322 16.6596C562.161 16.3696 561.923 16.1459 561.608 15.9885C561.293 15.831 560.906 15.7523 560.446 15.7523H558.929V26H555.853ZM570.783 13.2727V26H567.707V13.2727H570.783ZM573.151 26V13.2727H576.228V23.5018H581.522V26H573.151ZM583.552 26V13.2727H592.427V15.771H586.629V18.381H591.973V20.8855H586.629V23.5018H592.427V26H583.552ZM594.791 26V13.2727H600.048C601.001 13.2727 601.823 13.4447 602.515 13.7885C603.211 14.1283 603.748 14.6171 604.125 15.2551C604.502 15.889 604.69 16.641 604.69 17.511C604.69 18.3935 604.498 19.1433 604.112 19.7607C603.727 20.3738 603.18 20.842 602.472 21.1651C601.763 21.4841 600.924 21.6436 599.955 21.6436H596.63V19.22H599.383C599.847 19.22 600.235 19.1599 600.545 19.0398C600.86 18.9155 601.098 18.729 601.26 18.4805C601.421 18.2277 601.502 17.9046 601.502 17.511C601.502 17.1174 601.421 16.7922 601.26 16.5353C601.098 16.2743 600.86 16.0796 600.545 15.9512C600.23 15.8186 599.843 15.7523 599.383 15.7523H597.867V26H594.791ZM601.956 20.1832L605.125 26H601.77L598.662 20.1832H601.956ZM612.924 18.468V20.8047H607.033V18.468H612.924ZM618.26 26H614.954L619.248 13.2727H623.343L627.638 26H624.332L621.342 16.4794H621.243L618.26 26ZM617.819 20.9911H624.729V23.3278H617.819V20.9911ZM637.145 13.2727H640.215V21.4821C640.215 22.4308 639.989 23.2573 639.538 23.9616C639.086 24.6618 638.456 25.2045 637.649 25.5898C636.841 25.971 635.902 26.1616 634.833 26.1616C633.752 26.1616 632.807 25.971 632 25.5898C631.192 25.2045 630.564 24.6618 630.117 23.9616C629.669 23.2573 629.445 22.4308 629.445 21.4821V13.2727H632.522V21.2148C632.522 21.654 632.617 22.0455 632.807 22.3894C633.002 22.7333 633.274 23.0025 633.622 23.1973C633.97 23.392 634.374 23.4893 634.833 23.4893C635.293 23.4893 635.695 23.392 636.039 23.1973C636.387 23.0025 636.658 22.7333 636.853 22.3894C637.048 22.0455 637.145 21.654 637.145 21.2148V13.2727ZM650.933 17.4302C650.863 17.1692 650.759 16.9393 650.622 16.7404C650.486 16.5374 650.318 16.3655 650.119 16.2246C649.92 16.0837 649.692 15.9781 649.435 15.9077C649.178 15.8331 648.897 15.7958 648.59 15.7958C647.973 15.7958 647.438 15.945 646.987 16.2433C646.539 16.5415 646.193 16.9766 645.949 17.5483C645.704 18.1159 645.582 18.8057 645.582 19.6177C645.582 20.4339 645.7 21.1299 645.937 21.7058C646.173 22.2817 646.514 22.7208 646.962 23.0233C647.409 23.3257 647.952 23.4769 648.59 23.4769C649.154 23.4769 649.63 23.3858 650.019 23.2035C650.413 23.017 650.711 22.754 650.914 22.4142C651.117 22.0745 651.219 21.6747 651.219 21.2148L651.791 21.2832H648.696V19.0398H654.183V20.7239C654.183 21.8632 653.941 22.8389 653.456 23.6509C652.975 24.4629 652.313 25.0865 651.467 25.5215C650.626 25.9565 649.659 26.174 648.565 26.174C647.351 26.174 646.285 25.9109 645.365 25.3848C644.445 24.8586 643.728 24.1087 643.215 23.1351C642.701 22.1574 642.444 20.9973 642.444 19.655C642.444 18.611 642.599 17.685 642.91 16.8771C643.221 16.0651 643.654 15.3774 644.209 14.8139C644.768 14.2505 645.414 13.8237 646.148 13.5337C646.885 13.2437 647.679 13.0987 648.528 13.0987C649.265 13.0987 649.951 13.2044 650.585 13.4157C651.223 13.627 651.786 13.9252 652.275 14.3105C652.768 14.6958 653.168 15.1536 653.475 15.6839C653.781 16.2143 653.972 16.7963 654.046 17.4302H650.933ZM656.434 13.2727H660.243L663.475 21.1527H663.624L666.855 13.2727H670.665V26H667.67V18.1822H667.564L664.506 25.9192H662.592L659.535 18.1387H659.429V26H656.434V13.2727ZM673.021 26V13.2727H681.895V15.771H676.097V18.381H681.442V20.8855H676.097V23.5018H681.895V26H673.021ZM695.091 13.2727V26H692.481L687.416 18.6545H687.336V26H684.259V13.2727H686.907L691.916 20.6058H692.021V13.2727H695.091ZM697.047 15.771V13.2727H707.804V15.771H703.945V26H700.912V15.771H697.047ZM709.744 26V13.2727H718.618V15.771H712.82V18.381H718.164V20.8855H712.82V23.5018H718.618V26H709.744ZM725.686 26H720.982V13.2727H725.68C726.977 13.2727 728.093 13.5275 729.03 14.0371C729.97 14.5426 730.695 15.2717 731.205 16.2246C731.714 17.1734 731.969 18.3085 731.969 19.6301C731.969 20.9559 731.714 22.0952 731.205 23.0481C730.699 24.001 729.976 24.7322 729.036 25.2418C728.096 25.7473 726.979 26 725.686 26ZM724.058 23.3775H725.568C726.281 23.3775 726.884 23.2573 727.377 23.017C727.874 22.7726 728.249 22.377 728.502 21.8301C728.758 21.2791 728.887 20.5458 728.887 19.6301C728.887 18.7145 728.758 17.9854 728.502 17.4426C728.245 16.8958 727.866 16.5022 727.364 16.2619C726.867 16.0175 726.254 15.8952 725.525 15.8952H724.058V23.3775ZM741.29 13.2727L744.136 22.5945H744.242L747.088 13.2727H750.531L746.236 26H742.141L737.847 13.2727H741.29ZM755.415 13.2727V26H752.338V13.2727H755.415ZM757.783 26V13.2727H763.041C763.994 13.2727 764.816 13.4447 765.508 13.7885C766.204 14.1283 766.74 14.6171 767.117 15.2551C767.494 15.889 767.683 16.641 767.683 17.511C767.683 18.3935 767.49 19.1433 767.105 19.7607C766.72 20.3738 766.173 20.842 765.464 21.1651C764.756 21.4841 763.917 21.6436 762.948 21.6436H759.623V19.22H762.376C762.84 19.22 763.227 19.1599 763.538 19.0398C763.853 18.9155 764.091 18.729 764.253 18.4805C764.414 18.2277 764.495 17.9046 764.495 17.511C764.495 17.1174 764.414 16.7922 764.253 16.5353C764.091 16.2743 763.853 16.0796 763.538 15.9512C763.223 15.8186 762.836 15.7523 762.376 15.7523H760.859V26H757.783ZM764.949 20.1832L768.118 26H764.762L761.655 20.1832H764.949ZM769.391 15.771V13.2727H780.149V15.771H776.289V26H773.257V15.771H769.391ZM789.788 13.2727H792.858V21.4821C792.858 22.4308 792.632 23.2573 792.181 23.9616C791.729 24.6618 791.099 25.2045 790.292 25.5898C789.484 25.971 788.545 26.1616 787.476 26.1616C786.395 26.1616 785.451 25.971 784.643 25.5898C783.835 25.2045 783.207 24.6618 782.76 23.9616C782.312 23.2573 782.088 22.4308 782.088 21.4821V13.2727H785.165V21.2148C785.165 21.654 785.26 22.0455 785.451 22.3894C785.645 22.7333 785.917 23.0025 786.265 23.1973C786.613 23.392 787.017 23.4893 787.476 23.4893C787.936 23.4893 788.338 23.392 788.682 23.1973C789.03 23.0025 789.301 22.7333 789.496 22.3894C789.691 22.0455 789.788 21.654 789.788 21.2148V13.2727ZM797.977 26H794.671L798.965 13.2727H803.06L807.354 26H804.048L801.059 16.4794H800.96L797.977 26ZM797.536 20.9911H804.446V23.3278H797.536V20.9911ZM809.162 26V13.2727H812.238V23.5018H817.533V26H809.162ZM828.465 26H823.76V13.2727H828.459C829.755 13.2727 830.872 13.5275 831.808 14.0371C832.749 14.5426 833.474 15.2717 833.983 16.2246C834.493 17.1734 834.748 18.3085 834.748 19.6301C834.748 20.9559 834.493 22.0952 833.983 23.0481C833.478 24.001 832.755 24.7322 831.814 25.2418C830.874 25.7473 829.757 26 828.465 26ZM826.837 23.3775H828.347C829.059 23.3775 829.662 23.2573 830.155 23.017C830.652 22.7726 831.027 22.377 831.28 21.8301C831.537 21.2791 831.665 20.5458 831.665 19.6301C831.665 18.7145 831.537 17.9854 831.28 17.4426C831.023 16.8958 830.644 16.5022 830.143 16.2619C829.645 16.0175 829.032 15.8952 828.303 15.8952H826.837V23.3775ZM848.994 19.6364C848.994 21.0367 848.724 22.2237 848.186 23.1973C847.647 24.1709 846.918 24.9104 845.998 25.4158C845.083 25.9213 844.055 26.174 842.916 26.174C841.772 26.174 840.743 25.9192 839.827 25.4096C838.912 24.9 838.185 24.1605 837.646 23.1911C837.112 22.2174 836.844 21.0326 836.844 19.6364C836.844 18.236 837.112 17.0491 837.646 16.0755C838.185 15.1019 838.912 14.3623 839.827 13.8569C840.743 13.3514 841.772 13.0987 842.916 13.0987C844.055 13.0987 845.083 13.3514 845.998 13.8569C846.918 14.3623 847.647 15.1019 848.186 16.0755C848.724 17.0491 848.994 18.236 848.994 19.6364ZM845.849 19.6364C845.849 18.8078 845.731 18.1076 845.495 17.5359C845.263 16.9641 844.927 16.5312 844.488 16.237C844.053 15.9429 843.529 15.7958 842.916 15.7958C842.307 15.7958 841.783 15.9429 841.344 16.237C840.904 16.5312 840.567 16.9641 840.331 17.5359C840.099 18.1076 839.983 18.8078 839.983 19.6364C839.983 20.465 840.099 21.1651 840.331 21.7369C840.567 22.3086 840.904 22.7415 841.344 23.0357C841.783 23.3298 842.307 23.4769 842.916 23.4769C843.529 23.4769 844.053 23.3298 844.488 23.0357C844.927 22.7415 845.263 22.3086 845.495 21.7369C845.731 21.1651 845.849 20.465 845.849 19.6364ZM851.227 13.2727H855.037L858.268 21.1527H858.417L861.649 13.2727H865.458V26H862.463V18.1822H862.357L859.3 25.9192H857.386L854.328 18.1387H854.223V26H851.227V13.2727ZM869.524 26.1802C869.076 26.1802 868.693 26.0228 868.374 25.7079C868.059 25.3931 867.904 25.0119 867.908 24.5645C867.904 24.1253 868.059 23.7504 868.374 23.4396C868.693 23.1248 869.076 22.9673 869.524 22.9673C869.946 22.9673 870.319 23.1248 870.642 23.4396C870.969 23.7504 871.135 24.1253 871.139 24.5645C871.135 24.8627 871.056 25.1341 870.903 25.3786C870.754 25.623 870.557 25.8177 870.313 25.9627C870.072 26.1077 869.809 26.1802 869.524 26.1802ZM880.054 13.2727V26H876.978V13.2727H880.054ZM882.007 15.771V13.2727H892.764V15.771H888.905V26H885.872V15.771H882.007ZM901.583 17.0884C901.542 16.6327 901.357 16.2785 901.03 16.0257C900.707 15.7689 900.245 15.6404 899.644 15.6404C899.247 15.6404 898.915 15.6922 898.65 15.7958C898.385 15.8994 898.186 16.0423 898.053 16.2246C897.921 16.4028 897.852 16.6078 897.848 16.8398C897.84 17.0304 897.877 17.1982 897.96 17.3432C898.047 17.4882 898.171 17.6167 898.333 17.7285C898.499 17.8362 898.698 17.9315 898.93 18.0144C899.162 18.0972 899.423 18.1697 899.713 18.2319L900.806 18.4805C901.436 18.6172 901.991 18.7995 902.472 19.0273C902.957 19.2552 903.363 19.5266 903.69 19.8414C904.021 20.1563 904.272 20.5188 904.442 20.929C904.612 21.3391 904.699 21.799 904.703 22.3086C904.699 23.1123 904.496 23.8021 904.094 24.378C903.692 24.9539 903.114 25.3951 902.36 25.7017C901.61 26.0083 900.705 26.1616 899.644 26.1616C898.579 26.1616 897.651 26.0021 896.86 25.6831C896.069 25.3641 895.454 24.8793 895.014 24.2289C894.575 23.5784 894.349 22.756 894.337 21.7617H897.283C897.308 22.1719 897.417 22.5137 897.612 22.7871C897.807 23.0605 898.074 23.2677 898.414 23.4086C898.758 23.5494 899.155 23.6199 899.607 23.6199C900.021 23.6199 900.373 23.5639 900.663 23.4521C900.958 23.3402 901.183 23.1848 901.341 22.986C901.498 22.7871 901.579 22.5592 901.583 22.3024C901.579 22.0621 901.504 21.857 901.359 21.6871C901.214 21.5131 900.991 21.364 900.688 21.2397C900.39 21.1113 900.009 20.9932 899.545 20.8855L898.215 20.5748C897.113 20.322 896.245 19.9139 895.611 19.3505C894.977 18.7829 894.662 18.0165 894.666 17.0511C894.662 16.264 894.874 15.5742 895.3 14.9817C895.727 14.3893 896.317 13.9273 897.071 13.5959C897.825 13.2644 898.685 13.0987 899.65 13.0987C900.636 13.0987 901.492 13.2665 902.217 13.6021C902.946 13.9335 903.512 14.3996 903.914 15.0004C904.315 15.6011 904.521 16.2971 904.529 17.0884H901.583ZM910.891 26V13.2727H919.579V15.771H913.967V18.381H919.026V20.8855H913.967V26H910.891ZM922.729 26H919.423L923.717 13.2727H927.813L932.107 26H928.801L925.812 16.4794H925.712L922.729 26ZM922.288 20.9911H929.198V23.3278H922.288V20.9911ZM940.401 17.0884C940.36 16.6327 940.175 16.2785 939.848 16.0257C939.525 15.7689 939.063 15.6404 938.462 15.6404C938.064 15.6404 937.733 15.6922 937.468 15.7958C937.203 15.8994 937.004 16.0423 936.871 16.2246C936.739 16.4028 936.67 16.6078 936.666 16.8398C936.658 17.0304 936.695 17.1982 936.778 17.3432C936.865 17.4882 936.989 17.6167 937.151 17.7285C937.317 17.8362 937.515 17.9315 937.747 18.0144C937.979 18.0972 938.24 18.1697 938.53 18.2319L939.624 18.4805C940.254 18.6172 940.809 18.7995 941.29 19.0273C941.774 19.2552 942.18 19.5266 942.508 19.8414C942.839 20.1563 943.09 20.5188 943.26 20.929C943.43 21.3391 943.517 21.799 943.521 22.3086C943.517 23.1123 943.314 23.8021 942.912 24.378C942.51 24.9539 941.932 25.3951 941.178 25.7017C940.428 26.0083 939.523 26.1616 938.462 26.1616C937.397 26.1616 936.469 26.0021 935.678 25.6831C934.887 25.3641 934.271 24.8793 933.832 24.2289C933.393 23.5784 933.167 22.756 933.155 21.7617H936.101C936.125 22.1719 936.235 22.5137 936.43 22.7871C936.625 23.0605 936.892 23.2677 937.232 23.4086C937.576 23.5494 937.973 23.6199 938.425 23.6199C938.839 23.6199 939.191 23.5639 939.481 23.4521C939.775 23.3402 940.001 23.1848 940.159 22.986C940.316 22.7871 940.397 22.5592 940.401 22.3024C940.397 22.0621 940.322 21.857 940.177 21.6871C940.032 21.5131 939.809 21.364 939.506 21.2397C939.208 21.1113 938.827 20.9932 938.363 20.8855L937.033 20.5748C935.931 20.322 935.063 19.9139 934.429 19.3505C933.795 18.7829 933.48 18.0165 933.484 17.0511C933.48 16.264 933.691 15.5742 934.118 14.9817C934.545 14.3893 935.135 13.9273 935.889 13.5959C936.643 13.2644 937.503 13.0987 938.468 13.0987C939.454 13.0987 940.31 13.2665 941.035 13.6021C941.764 13.9335 942.33 14.3996 942.731 15.0004C943.133 15.6011 943.338 16.2971 943.347 17.0884H940.401ZM945.095 15.771V13.2727H955.853V15.771H951.994V26H948.961V15.771H945.095ZM961.366 13.2727L961.08 22.1035H958.526L958.24 13.2727H961.366ZM959.8 26.1802C959.357 26.1802 958.975 26.0228 958.656 25.7079C958.342 25.3931 958.184 25.0119 958.184 24.5645C958.184 24.1253 958.342 23.7504 958.656 23.4396C958.975 23.1248 959.357 22.9673 959.8 22.9673C960.227 22.9673 960.602 23.1248 960.925 23.4396C961.252 23.7504 961.416 24.1253 961.416 24.5645C961.416 24.8627 961.339 25.1341 961.186 25.3786C961.037 25.623 960.84 25.8177 960.595 25.9627C960.355 26.1077 960.09 26.1802 959.8 26.1802Z" fill="#3B3354"/>
<defs>
<filter id="filter0_d_303_54" x="399.849" y="159.406" width="527.77" height="182.446" filterUnits="userSpaceOnUse" color-interpolation-filters="sRGB">
<feFlood flood-opacity="0" result="BackgroundImageFix"/>
<feColorMatrix in="SourceAlpha" type="matrix" values="0 0 0 0 0 0 0 0 0 0 0 0 0 0 0 0 0 0 127 0" result="hardAlpha"/>
<feOffset dy="10"/>
<feGaussianBlur stdDeviation="8"/>
<feComposite in2="hardAlpha" operator="out"/>
<feColorMatrix type="matrix" values="0 0 0 0 0 0 0 0 0 0 0 0 0 0 0 0 0 0 1 0"/>
<feBlend mode="normal" in2="BackgroundImageFix" result="effect1_dropShadow_303_54"/>
<feBlend mode="normal" in="SourceGraphic" in2="effect1_dropShadow_303_54" result="shape"/>
</filter>
<radialGradient id="paint0_radial_303_54" cx="0" cy="0" r="1" gradientUnits="userSpaceOnUse" gradientTransform="translate(675 212.258) rotate(-89.3828) scale(324.936 613.246)">
<stop stop-color="white" stop-opacity="0"/>
<stop offset="1" stop-color="#684EE5" stop-opacity="0.25"/>
</radialGradient>
<linearGradient id="paint1_linear_303_54" x1="664" y1="-27.0369" x2="664" y2="384" gradientUnits="userSpaceOnUse">
<stop offset="0.697917" stop-color="#E295A6" stop-opacity="0"/>
<stop offset="1" stop-color="white" stop-opacity="0.1"/>
</linearGradient>
<radialGradient id="paint2_radial_303_54" cx="0" cy="0" r="1" gradientUnits="userSpaceOnUse" gradientTransform="translate(664 242) rotate(90.1101) scale(162.545 450.125)">
<stop stop-color="#6A4AE3"/>
<stop offset="0.453125" stop-color="#ED9CA2"/>
<stop offset="1" stop-color="#6A4AE3"/>
</radialGradient>
<linearGradient id="paint3_linear_303_54" x1="664.119" y1="122.025" x2="664.119" y2="139.763" gradientUnits="userSpaceOnUse">
<stop stop-color="#6E4FED"/>
<stop offset="0.692708" stop-color="#A96FDC"/>
</linearGradient>
<linearGradient id="paint4_linear_303_54" x1="664" y1="83" x2="664" y2="119.562" gradientUnits="userSpaceOnUse">
<stop offset="0.265625" stop-color="#ED9CA2"/>
<stop offset="0.9999" stop-color="#A96FDC"/>
<stop offset="1" stop-color="#A96FDC"/>
</linearGradient>
<linearGradient id="paint5_linear_303_54" x1="664" y1="83" x2="664" y2="119.562" gradientUnits="userSpaceOnUse">
<stop offset="0.265625" stop-color="#ED9CA2"/>
<stop offset="0.9999" stop-color="#A96FDC"/>
<stop offset="1" stop-color="#A96FDC"/>
</linearGradient>
<linearGradient id="paint6_linear_303_54" x1="664" y1="83" x2="664" y2="119.562" gradientUnits="userSpaceOnUse">
<stop offset="0.265625" stop-color="#ED9CA2"/>
<stop offset="0.9999" stop-color="#A96FDC"/>
<stop offset="1" stop-color="#A96FDC"/>
</linearGradient>
</defs>
</svg>
