<svg width="194" height="194" viewBox="0 0 194 194" fill="none" xmlns="http://www.w3.org/2000/svg">
<path fill-rule="evenodd" clip-rule="evenodd" d="M54.4296 140.455C62.4806 128.643 78.8647 120.556 97.7671 120.556C116.669 120.556 133.054 128.643 141.105 140.455C133.054 152.267 116.669 160.354 97.7671 160.354C78.8647 160.354 62.4806 152.267 54.4296 140.455Z" fill="url(#paint0_linear_208_71)"/>
<path d="M54.1375 52.6875C62.1834 41.0008 78.557 33 97.4473 33C116.338 33 132.711 41.0008 140.757 52.6875C132.711 64.3742 116.338 72.375 97.4473 72.375C78.557 72.375 62.1834 64.3742 54.1375 52.6875Z" fill="url(#paint1_linear_208_71)"/>
<path d="M98.275 96.9096C86.569 108.499 70.6923 115.009 54.1375 115.009C37.5827 115.009 21.706 108.499 10 96.9096L54.1375 52.6875L98.275 96.9096Z" fill="url(#paint2_linear_208_71)"/>
<path d="M185 96.9314C173.294 108.521 157.417 115.031 140.862 115.031C124.308 115.031 108.431 108.521 96.725 96.9314L140.862 52.6875L185 96.9314Z" fill="url(#paint3_linear_208_71)"/>
<defs>
<linearGradient id="paint0_linear_208_71" x1="97.7671" y1="120.556" x2="97.7671" y2="160.354" gradientUnits="userSpaceOnUse">
<stop stop-color="#6E4FED"/>
<stop offset="0.692708" stop-color="#A96FDC"/>
</linearGradient>
<linearGradient id="paint1_linear_208_71" x1="97.5" y1="33" x2="97.5" y2="115.031" gradientUnits="userSpaceOnUse">
<stop offset="0.265625" stop-color="#ED9CA2"/>
<stop offset="0.9999" stop-color="#A96FDC"/>
<stop offset="1" stop-color="#A96FDC"/>
</linearGradient>
<linearGradient id="paint2_linear_208_71" x1="97.5" y1="33" x2="97.5" y2="115.031" gradientUnits="userSpaceOnUse">
<stop offset="0.265625" stop-color="#ED9CA2"/>
<stop offset="0.9999" stop-color="#A96FDC"/>
<stop offset="1" stop-color="#A96FDC"/>
</linearGradient>
<linearGradient id="paint3_linear_208_71" x1="97.5" y1="33" x2="97.5" y2="115.031" gradientUnits="userSpaceOnUse">
<stop offset="0.265625" stop-color="#ED9CA2"/>
<stop offset="0.9999" stop-color="#A96FDC"/>
<stop offset="1" stop-color="#A96FDC"/>
</linearGradient>
</defs>
</svg>
