<svg width="1213" height="1213" viewBox="0 0 1213 1213" fill="none" xmlns="http://www.w3.org/2000/svg">
<g clip-path="url(#clip0)">
<path fill-rule="evenodd" clip-rule="evenodd" d="M0 563.246C0 563.246 166.242 467.622 251.736 418.441C282.378 400.816 320.093 400.869 350.685 418.579C412.982 454.647 518.366 515.659 571.866 546.632C592.463 558.559 617.87 558.559 638.467 546.632C692.039 515.616 797.639 454.481 859.904 418.433C890.354 400.803 927.88 400.68 958.448 418.107C1044.53 467.187 1213 563.246 1213 563.246V808.512C1213 808.512 1025.66 700.051 945.147 653.44C922.839 640.523 895.326 640.523 873.018 653.44C816.412 686.212 706.992 749.56 647.008 784.286C621.127 799.272 589.205 799.272 563.325 784.286C503.389 749.587 394.094 686.313 337.451 653.517C315.07 640.561 287.459 640.614 265.13 653.656C185.125 700.384 0 808.512 0 808.512V563.246Z" fill="#47BB78"/>
</g>
<defs>
<clipPath id="clip0">
<rect width="1213" height="1213" fill="white"/>
</clipPath>
</defs>
</svg>
