<svg width="576" height="100" viewBox="0 0 576 100" fill="none" xmlns="http://www.w3.org/2000/svg">
<path d="M166.403 19.8182H183.818L198.591 55.8409H199.273L214.045 19.8182H231.46V78H217.767V42.2614H217.284L203.307 77.6307H194.557L180.58 42.0625H180.097V78H166.403V19.8182ZM236.232 78V34.3636H250.124V78H236.232ZM243.192 29.2784C241.241 29.2784 239.565 28.6345 238.163 27.3466C236.762 26.0398 236.061 24.4678 236.061 22.6307C236.061 20.8125 236.762 19.2595 238.163 17.9716C239.565 16.6648 241.241 16.0114 243.192 16.0114C245.161 16.0114 246.838 16.6648 248.22 17.9716C249.622 19.2595 250.322 20.8125 250.322 22.6307C250.322 24.4678 249.622 26.0398 248.22 27.3466C246.838 28.6345 245.161 29.2784 243.192 29.2784ZM268.858 19.8182V78H254.966V19.8182H268.858ZM287.592 19.8182V78H273.7V19.8182H287.592ZM292.435 78V34.3636H306.327V78H292.435ZM299.395 29.2784C297.444 29.2784 295.768 28.6345 294.366 27.3466C292.965 26.0398 292.264 24.4678 292.264 22.6307C292.264 20.8125 292.965 19.2595 294.366 17.9716C295.768 16.6648 297.444 16.0114 299.395 16.0114C301.365 16.0114 303.041 16.6648 304.423 17.9716C305.825 19.2595 306.526 20.8125 306.526 22.6307C306.526 24.4678 305.825 26.0398 304.423 27.3466C303.041 28.6345 301.365 29.2784 299.395 29.2784ZM331.538 78.8239C326.955 78.8239 323.016 77.8864 319.72 76.0114C316.444 74.1174 313.915 71.4848 312.135 68.1136C310.374 64.7235 309.493 60.7936 309.493 56.3239C309.493 51.8352 310.374 47.9053 312.135 44.5341C313.915 41.1439 316.444 38.5114 319.72 36.6364C323.016 34.7424 326.955 33.7955 331.538 33.7955C336.122 33.7955 340.052 34.7424 343.328 36.6364C346.624 38.5114 349.152 41.1439 350.913 44.5341C352.694 47.9053 353.584 51.8352 353.584 56.3239C353.584 60.7936 352.694 64.7235 350.913 68.1136C349.152 71.4848 346.624 74.1174 343.328 76.0114C340.052 77.8864 336.122 78.8239 331.538 78.8239ZM331.624 68.3409C333.29 68.3409 334.701 67.8295 335.857 66.8068C337.012 65.7841 337.893 64.3636 338.499 62.5455C339.124 60.7273 339.436 58.625 339.436 56.2386C339.436 53.8144 339.124 51.6932 338.499 49.875C337.893 48.0568 337.012 46.6364 335.857 45.6136C334.701 44.5909 333.29 44.0795 331.624 44.0795C329.9 44.0795 328.442 44.5909 327.249 45.6136C326.074 46.6364 325.175 48.0568 324.55 49.875C323.944 51.6932 323.641 53.8144 323.641 56.2386C323.641 58.625 323.944 60.7273 324.55 62.5455C325.175 64.3636 326.074 65.7841 327.249 66.8068C328.442 67.8295 329.9 68.3409 331.624 68.3409ZM370.592 53.1136V78H356.7V34.3636H369.911V42.375H370.393C371.359 39.7045 373.007 37.6117 375.337 36.0966C377.666 34.5625 380.441 33.7955 383.661 33.7955C386.729 33.7955 389.39 34.4867 391.643 35.8693C393.916 37.233 395.678 39.1458 396.928 41.608C398.196 44.0511 398.821 46.911 398.803 50.1875V78H384.911V52.9148C384.929 50.4905 384.314 48.5966 383.064 47.233C381.833 45.8693 380.119 45.1875 377.922 45.1875C376.464 45.1875 375.176 45.5095 374.058 46.1534C372.96 46.7784 372.107 47.678 371.501 48.8523C370.914 50.0265 370.611 51.447 370.592 53.1136Z" fill="black"/>
<path fill-rule="evenodd" clip-rule="evenodd" d="M34.5281 83.5078C40.7849 74.3281 53.5177 68.0437 68.2076 68.0437C82.8974 68.0437 95.6302 74.3281 101.887 83.5078C95.6302 92.6875 82.8974 98.972 68.2076 98.972C53.5177 98.972 40.7849 92.6875 34.5281 83.5078Z" fill="url(#paint0_linear_211_3)"/>
<path d="M34.3012 15.3C40.554 6.21773 53.2786 0 67.9591 0C82.6395 0 95.3642 6.21773 101.617 15.3C95.3642 24.3823 82.6395 30.6 67.9591 30.6C53.2786 30.6 40.554 24.3823 34.3012 15.3Z" fill="url(#paint1_linear_211_3)"/>
<path d="M68.6023 49.6669C59.5051 58.6733 47.1666 63.7331 34.3012 63.7331C21.4357 63.7331 9.09723 58.6733 0 49.6669L34.3012 15.3L68.6023 49.6669Z" fill="url(#paint2_linear_211_3)"/>
<path d="M136 49.6838C126.903 58.6902 114.564 63.75 101.699 63.75C88.8334 63.75 76.4949 58.6902 67.3977 49.6838L101.699 15.3L136 49.6838Z" fill="url(#paint3_linear_211_3)"/>
<defs>
<linearGradient id="paint0_linear_211_3" x1="68.2075" y1="68.0437" x2="68.2075" y2="98.972" gradientUnits="userSpaceOnUse">
<stop stop-color="#6E4FED"/>
<stop offset="0.692708" stop-color="#A96FDC"/>
</linearGradient>
<linearGradient id="paint1_linear_211_3" x1="68" y1="0" x2="68" y2="63.75" gradientUnits="userSpaceOnUse">
<stop offset="0.265625" stop-color="#ED9CA2"/>
<stop offset="0.9999" stop-color="#A96FDC"/>
<stop offset="1" stop-color="#A96FDC"/>
</linearGradient>
<linearGradient id="paint2_linear_211_3" x1="68" y1="0" x2="68" y2="63.75" gradientUnits="userSpaceOnUse">
<stop offset="0.265625" stop-color="#ED9CA2"/>
<stop offset="0.9999" stop-color="#A96FDC"/>
<stop offset="1" stop-color="#A96FDC"/>
</linearGradient>
<linearGradient id="paint3_linear_211_3" x1="68" y1="0" x2="68" y2="63.75" gradientUnits="userSpaceOnUse">
<stop offset="0.265625" stop-color="#ED9CA2"/>
<stop offset="0.9999" stop-color="#A96FDC"/>
<stop offset="1" stop-color="#A96FDC"/>
</linearGradient>
</defs>
</svg>
