<svg width="577" height="100" viewBox="0 0 577 100" fill="none" xmlns="http://www.w3.org/2000/svg">
<path d="M167.403 19.8182H184.818L199.591 55.8409H200.273L215.045 19.8182H232.46V78H218.767V42.2614H218.284L204.307 77.6307H195.557L181.58 42.0625H181.097V78H167.403V19.8182ZM237.232 78V34.3636H251.124V78H237.232ZM244.192 29.2784C242.241 29.2784 240.565 28.6345 239.163 27.3466C237.762 26.0398 237.061 24.4678 237.061 22.6307C237.061 20.8125 237.762 19.2595 239.163 17.9716C240.565 16.6648 242.241 16.0114 244.192 16.0114C246.161 16.0114 247.838 16.6648 249.22 17.9716C250.622 19.2595 251.322 20.8125 251.322 22.6307C251.322 24.4678 250.622 26.0398 249.22 27.3466C247.838 28.6345 246.161 29.2784 244.192 29.2784ZM269.858 19.8182V78H255.966V19.8182H269.858ZM288.592 19.8182V78H274.7V19.8182H288.592ZM293.435 78V34.3636H307.327V78H293.435ZM300.395 29.2784C298.444 29.2784 296.768 28.6345 295.366 27.3466C293.965 26.0398 293.264 24.4678 293.264 22.6307C293.264 20.8125 293.965 19.2595 295.366 17.9716C296.768 16.6648 298.444 16.0114 300.395 16.0114C302.365 16.0114 304.041 16.6648 305.423 17.9716C306.825 19.2595 307.526 20.8125 307.526 22.6307C307.526 24.4678 306.825 26.0398 305.423 27.3466C304.041 28.6345 302.365 29.2784 300.395 29.2784ZM332.538 78.8239C327.955 78.8239 324.016 77.8864 320.72 76.0114C317.444 74.1174 314.915 71.4848 313.135 68.1136C311.374 64.7235 310.493 60.7936 310.493 56.3239C310.493 51.8352 311.374 47.9053 313.135 44.5341C314.915 41.1439 317.444 38.5114 320.72 36.6364C324.016 34.7424 327.955 33.7955 332.538 33.7955C337.122 33.7955 341.052 34.7424 344.328 36.6364C347.624 38.5114 350.152 41.1439 351.913 44.5341C353.694 47.9053 354.584 51.8352 354.584 56.3239C354.584 60.7936 353.694 64.7235 351.913 68.1136C350.152 71.4848 347.624 74.1174 344.328 76.0114C341.052 77.8864 337.122 78.8239 332.538 78.8239ZM332.624 68.3409C334.29 68.3409 335.701 67.8295 336.857 66.8068C338.012 65.7841 338.893 64.3636 339.499 62.5455C340.124 60.7273 340.436 58.625 340.436 56.2386C340.436 53.8144 340.124 51.6932 339.499 49.875C338.893 48.0568 338.012 46.6364 336.857 45.6136C335.701 44.5909 334.29 44.0795 332.624 44.0795C330.9 44.0795 329.442 44.5909 328.249 45.6136C327.074 46.6364 326.175 48.0568 325.55 49.875C324.944 51.6932 324.641 53.8144 324.641 56.2386C324.641 58.625 324.944 60.7273 325.55 62.5455C326.175 64.3636 327.074 65.7841 328.249 66.8068C329.442 67.8295 330.9 68.3409 332.624 68.3409ZM371.592 53.1136V78H357.7V34.3636H370.911V42.375H371.393C372.359 39.7045 374.007 37.6117 376.337 36.0966C378.666 34.5625 381.441 33.7955 384.661 33.7955C387.729 33.7955 390.39 34.4867 392.643 35.8693C394.916 37.233 396.678 39.1458 397.928 41.608C399.196 44.0511 399.821 46.911 399.803 50.1875V78H385.911V52.9148C385.929 50.4905 385.314 48.5966 384.064 47.233C382.833 45.8693 381.119 45.1875 378.922 45.1875C377.464 45.1875 376.176 45.5095 375.058 46.1534C373.96 46.7784 373.107 47.678 372.501 48.8523C371.914 50.0265 371.611 51.447 371.592 53.1136Z" fill="white"/>
<path fill-rule="evenodd" clip-rule="evenodd" d="M34.5281 84.5078C40.7849 75.3281 53.5177 69.0437 68.2075 69.0437C82.8974 69.0437 95.6301 75.3281 101.887 84.5078C95.6301 93.6875 82.8974 99.972 68.2075 99.972C53.5177 99.972 40.7849 93.6875 34.5281 84.5078Z" fill="url(#paint0_linear_208_51)"/>
<path d="M34.3012 16.3C40.554 7.21773 53.2786 1 67.9591 1C82.6395 1 95.3642 7.21773 101.617 16.3C95.3642 25.3823 82.6395 31.6 67.9591 31.6C53.2786 31.6 40.554 25.3823 34.3012 16.3Z" fill="url(#paint1_linear_208_51)"/>
<path d="M68.6023 50.6669C59.5051 59.6733 47.1666 64.7331 34.3012 64.7331C21.4357 64.7331 9.09723 59.6733 0 50.6669L34.3012 16.3L68.6023 50.6669Z" fill="url(#paint2_linear_208_51)"/>
<path d="M136 50.6838C126.903 59.6902 114.564 64.75 101.699 64.75C88.8334 64.75 76.4949 59.6902 67.3977 50.6838L101.699 16.3L136 50.6838Z" fill="url(#paint3_linear_208_51)"/>
<defs>
<linearGradient id="paint0_linear_208_51" x1="68.2075" y1="69.0437" x2="68.2075" y2="99.972" gradientUnits="userSpaceOnUse">
<stop stop-color="#6E4FED"/>
<stop offset="0.692708" stop-color="#A96FDC"/>
</linearGradient>
<linearGradient id="paint1_linear_208_51" x1="68" y1="1" x2="68" y2="64.75" gradientUnits="userSpaceOnUse">
<stop offset="0.265625" stop-color="#ED9CA2"/>
<stop offset="0.9999" stop-color="#A96FDC"/>
<stop offset="1" stop-color="#A96FDC"/>
</linearGradient>
<linearGradient id="paint2_linear_208_51" x1="68" y1="1" x2="68" y2="64.75" gradientUnits="userSpaceOnUse">
<stop offset="0.265625" stop-color="#ED9CA2"/>
<stop offset="0.9999" stop-color="#A96FDC"/>
<stop offset="1" stop-color="#A96FDC"/>
</linearGradient>
<linearGradient id="paint3_linear_208_51" x1="68" y1="1" x2="68" y2="64.75" gradientUnits="userSpaceOnUse">
<stop offset="0.265625" stop-color="#ED9CA2"/>
<stop offset="0.9999" stop-color="#A96FDC"/>
<stop offset="1" stop-color="#A96FDC"/>
</linearGradient>
</defs>
</svg>
