<svg width="4213" height="996" viewBox="0 0 4213 996" fill="none" xmlns="http://www.w3.org/2000/svg">
<path d="M4063 0H150C67.1573 0 0 67.1573 0 150V846C0 928.843 67.1572 996 150 996H4063C4145.84 996 4213 928.843 4213 846V150C4213 67.1573 4145.84 0 4063 0Z" fill="white"/>
<path d="M1828.94 742.527H1731.53V382.185H1824.54V426.129C1834.06 409.284 1848.71 396.101 1868.49 386.58C1888.26 377.058 1908.77 371.932 1930.01 371.932C1982.01 371.932 2017.9 391.706 2036.94 431.988C2062.57 391.706 2100.66 371.932 2151.19 371.932C2187.81 371.932 2218.58 383.65 2244.21 406.354C2269.11 429.059 2281.56 463.482 2281.56 508.891V742.527H2187.08V528.666C2187.08 508.158 2181.96 491.313 2171.7 478.862C2160.72 466.411 2144.6 460.552 2123.36 460.552C2103.59 460.552 2087.48 467.144 2075.02 481.059C2062.57 494.975 2056.71 511.82 2056.71 531.595V742.527H1960.04V528.666C1960.04 508.158 1954.91 491.313 1943.92 478.862C1932.94 466.411 1917.56 460.552 1896.32 460.552C1875.81 460.552 1859.7 467.144 1847.25 480.327C1834.8 494.243 1828.94 511.088 1828.94 531.595V742.527Z" fill="black"/>
<path d="M2477.85 742.538H2380.44V382.196H2477.85V742.538ZM2368.72 264.279C2368.72 247.434 2374.58 233.518 2386.3 221.068C2398.02 209.349 2411.93 203.49 2428.78 203.49C2445.62 203.49 2459.54 209.349 2471.26 221.068C2482.98 232.786 2488.83 247.434 2488.83 264.279C2488.83 280.392 2482.98 294.308 2471.26 306.026C2459.54 317.745 2445.62 323.604 2428.78 323.604C2411.93 323.604 2398.02 317.745 2386.3 306.026C2374.58 294.308 2368.72 280.392 2368.72 264.279Z" fill="black"/>
<path d="M2679.25 212.28H2581.84V742.539H2679.25V212.28Z" fill="black"/>
<path d="M2880.67 212.28H2783.26V742.539H2880.67V212.28Z" fill="black"/>
<path d="M3082.08 742.538H2984.67V382.196H3082.08V742.538ZM2972.95 264.279C2972.95 247.434 2978.81 233.518 2990.53 221.068C3002.25 209.349 3016.16 203.49 3033.01 203.49C3049.85 203.49 3063.77 209.349 3075.49 221.068C3087.21 232.786 3093.06 247.434 3093.06 264.279C3093.06 280.392 3087.21 294.308 3075.49 306.026C3063.77 317.745 3049.85 323.604 3033.01 323.604C3016.16 323.604 3002.25 317.745 2990.53 306.026C2978.81 294.308 2972.95 280.392 2972.95 264.279Z" fill="black"/>
<path d="M3282.76 637.808C3301.07 656.118 3322.31 664.906 3347.94 664.906C3373.57 664.906 3394.81 656.118 3413.12 637.808C3430.7 619.498 3439.49 594.596 3439.49 562.37C3439.49 530.145 3430.7 505.243 3413.12 486.933C3394.81 468.623 3373.57 459.834 3347.94 459.834C3322.31 459.834 3301.07 468.623 3282.76 486.933C3265.18 505.243 3256.39 530.145 3256.39 562.37C3256.39 594.596 3265.18 619.498 3282.76 637.808ZM3213.18 425.411C3249.06 389.523 3293.74 371.213 3347.94 371.213C3402.14 371.213 3447.55 389.523 3482.7 425.411C3519.32 461.299 3536.9 507.44 3536.9 562.37C3536.9 617.3 3519.32 663.442 3482.7 699.329C3447.55 735.217 3402.14 753.527 3347.94 753.527C3293.74 753.527 3249.06 735.217 3213.18 699.329C3177.29 663.442 3158.98 617.3 3158.98 562.37C3158.98 507.44 3177.29 461.299 3213.18 425.411Z" fill="black"/>
<path d="M3711.21 535.272V742.541H3613.8V382.2H3708.28V426.876C3718.53 409.298 3733.18 396.115 3752.22 386.594C3771.27 377.073 3791.04 372.678 3812.28 372.678C3854.76 372.678 3886.98 385.862 3908.96 412.228C3931.66 439.327 3942.65 473.75 3942.65 515.497V742.541H3845.24V532.342C3845.24 511.102 3840.11 493.525 3829.12 480.341C3817.41 467.158 3801.29 460.567 3778.59 460.567C3758.08 460.567 3741.97 467.891 3729.52 481.806C3717.07 495.722 3711.21 514.032 3711.21 535.272Z" fill="black"/>
<path fill-rule="evenodd" clip-rule="evenodd" d="M294.361 454.287C294.361 454.287 461.397 358.206 547.299 308.79C578.087 291.081 615.982 291.135 646.72 308.929C709.315 345.169 815.202 406.473 868.957 437.593C889.653 449.578 915.18 449.578 935.876 437.593C989.703 406.43 1095.81 345.003 1158.37 308.782C1188.97 291.068 1226.67 290.945 1257.38 308.455C1343.87 357.769 1513.15 454.287 1513.15 454.287V700.723C1513.15 700.723 1324.91 591.745 1244.02 544.911C1221.61 531.933 1193.96 531.933 1171.55 544.911C1114.67 577.84 1004.73 641.49 944.458 676.382C918.454 691.439 886.379 691.439 860.375 676.382C800.153 641.517 690.337 577.941 633.423 544.989C610.936 531.97 583.193 532.024 560.756 545.128C480.37 592.079 294.361 700.723 294.361 700.723V454.287Z" fill="url(#paint0_linear)"/>
<defs>
<linearGradient id="paint0_linear" x1="294.361" y1="497.464" x2="1513.15" y2="497.464" gradientUnits="userSpaceOnUse">
<stop stop-color="#FCA13A"/>
<stop offset="0.16" stop-color="#FD5A26"/>
<stop offset="0.34" stop-color="#9248AE"/>
<stop offset="0.5" stop-color="#6A41E1"/>
<stop offset="0.75" stop-color="#3BB1F7"/>
<stop offset="1" stop-color="#3CFBE9"/>
</linearGradient>
</defs>
</svg>
