<svg width="4213" height="1126" viewBox="0 0 4213 1126" fill="none" xmlns="http://www.w3.org/2000/svg">
<path d="M4063 65H150C67.1573 65 0 132.157 0 215V911C0 993.843 67.1572 1061 150 1061H4063C4145.84 1061 4213 993.843 4213 911V215C4213 132.157 4145.84 65 4063 65Z" fill="white"/>
<g clip-path="url(#clip0)">
<path fill-rule="evenodd" clip-rule="evenodd" d="M606 522.573C606 522.573 760.319 433.808 839.681 388.154C868.125 371.793 903.135 371.843 931.532 388.282C989.362 421.763 1087.19 478.4 1136.85 507.151C1155.97 518.223 1179.55 518.223 1198.67 507.151C1248.4 478.36 1346.43 421.61 1404.23 388.146C1432.5 371.781 1467.33 371.667 1495.71 387.845C1575.61 433.404 1732 522.573 1732 522.573V750.248C1732 750.248 1558.09 649.566 1483.36 606.298C1462.65 594.308 1437.11 594.308 1416.4 606.298C1363.86 636.72 1262.28 695.524 1206.6 727.76C1182.58 741.67 1152.95 741.67 1128.92 727.76C1073.28 695.549 971.828 636.814 919.248 606.37C898.473 594.343 872.842 594.392 852.114 606.499C777.847 649.875 606 750.248 606 750.248V522.573Z" fill="#47BB78"/>
</g>
<path d="M1918.93 344.636V781H2008.41V495.915H2012.04L2124.96 778.869H2185.9L2298.83 496.98H2302.45V781H2391.94V344.636H2278.16L2157.99 637.818H2152.88L2032.7 344.636H1918.93ZM2466.25 781H2557.01V453.727H2466.25V781ZM2511.84 411.54C2538.9 411.54 2561.06 390.872 2561.06 365.517C2561.06 340.375 2538.9 319.707 2511.84 319.707C2485 319.707 2462.84 340.375 2462.84 365.517C2462.84 390.872 2485 411.54 2511.84 411.54ZM2720.49 344.636H2629.72V781H2720.49V344.636ZM2883.97 344.636H2793.2V781H2883.97V344.636ZM2956.67 781H3047.44V453.727H2956.67V781ZM3002.27 411.54C3029.33 411.54 3051.49 390.872 3051.49 365.517C3051.49 340.375 3029.33 319.707 3002.27 319.707C2975.42 319.707 2953.27 340.375 2953.27 365.517C2953.27 390.872 2975.42 411.54 3002.27 411.54ZM3268.02 787.392C3367.31 787.392 3429.1 719.423 3429.1 618.642C3429.1 517.222 3367.31 449.466 3268.02 449.466C3168.73 449.466 3106.94 517.222 3106.94 618.642C3106.94 719.423 3168.73 787.392 3268.02 787.392ZM3268.45 717.08C3222.64 717.08 3199.2 675.105 3199.2 618.003C3199.2 560.901 3222.64 518.713 3268.45 518.713C3313.4 518.713 3336.84 560.901 3336.84 618.003C3336.84 675.105 3313.4 717.08 3268.45 717.08ZM3578.89 591.795C3579.1 549.608 3604.24 524.892 3640.89 524.892C3677.32 524.892 3699.27 548.756 3699.06 588.812V781H3789.82V572.619C3789.82 496.341 3745.08 449.466 3676.9 449.466C3628.32 449.466 3593.16 473.33 3578.46 511.469H3574.63V453.727H3488.12V781H3578.89V591.795Z" fill="black"/>
<defs>
<clipPath id="clip0">
<rect width="1126" height="1126" fill="white" transform="translate(606)"/>
</clipPath>
</defs>
</svg>
