<svg width="1703" height="410" viewBox="0 0 1703 410" fill="none" xmlns="http://www.w3.org/2000/svg">
<path fill-rule="evenodd" clip-rule="evenodd" d="M142.943 345.713C168.845 307.71 221.557 281.693 282.372 281.693C343.186 281.693 395.898 307.71 421.801 345.713C395.898 383.716 343.186 409.733 282.372 409.733C221.557 409.733 168.845 383.716 142.943 345.713Z" fill="url(#paint0_linear_301_35)"/>
<path d="M142.003 63.3403C167.889 25.7407 220.568 0 281.343 0C342.118 0 394.797 25.7407 420.683 63.3403C394.797 100.94 342.118 126.681 281.343 126.681C220.568 126.681 167.889 100.94 142.003 63.3403Z" fill="url(#paint1_linear_301_35)"/>
<path d="M284.006 205.615C246.344 242.901 195.264 263.848 142.003 263.848C88.7415 263.848 37.6615 242.901 0 205.615L142.003 63.3403L284.006 205.615Z" fill="url(#paint2_linear_301_35)"/>
<path d="M563.025 205.685C525.363 242.971 474.283 263.918 421.022 263.918C367.76 263.918 316.68 242.971 279.019 205.685L421.022 63.3403L563.025 205.685Z" fill="url(#paint3_linear_301_35)"/>
<path d="M685.79 100.273H746.472L810.562 256.636H813.29L877.381 100.273H938.062V333H890.335V181.523H888.403L828.176 331.864H795.676L735.449 180.955H733.517V333H685.79V100.273ZM977.693 333V158.455H1026.1V333H977.693ZM1002.01 135.955C994.814 135.955 988.64 133.568 983.489 128.795C978.413 123.947 975.875 118.152 975.875 111.409C975.875 104.742 978.413 99.0227 983.489 94.25C988.64 89.4015 994.814 86.9773 1002.01 86.9773C1009.21 86.9773 1015.34 89.4015 1020.42 94.25C1025.57 99.0227 1028.15 104.742 1028.15 111.409C1028.15 118.152 1025.57 123.947 1020.42 128.795C1015.34 133.568 1009.21 135.955 1002.01 135.955ZM1113.29 100.273V333H1064.88V100.273H1113.29ZM1200.48 100.273V333H1152.07V100.273H1200.48ZM1239.26 333V158.455H1287.66V333H1239.26ZM1263.57 135.955C1256.38 135.955 1250.2 133.568 1245.05 128.795C1239.98 123.947 1237.44 118.152 1237.44 111.409C1237.44 104.742 1239.98 99.0227 1245.05 94.25C1250.2 89.4015 1256.38 86.9773 1263.57 86.9773C1270.77 86.9773 1276.91 89.4015 1281.98 94.25C1287.13 99.0227 1289.71 104.742 1289.71 111.409C1289.71 118.152 1287.13 123.947 1281.98 128.795C1276.91 133.568 1270.77 135.955 1263.57 135.955ZM1405.31 336.409C1387.66 336.409 1372.39 332.659 1359.51 325.159C1346.71 317.583 1336.82 307.053 1329.85 293.568C1322.88 280.008 1319.4 264.288 1319.4 246.409C1319.4 228.379 1322.88 212.621 1329.85 199.136C1336.82 185.576 1346.71 175.045 1359.51 167.545C1372.39 159.97 1387.66 156.182 1405.31 156.182C1422.96 156.182 1438.19 159.97 1450.99 167.545C1463.87 175.045 1473.79 185.576 1480.76 199.136C1487.73 212.621 1491.22 228.379 1491.22 246.409C1491.22 264.288 1487.73 280.008 1480.76 293.568C1473.79 307.053 1463.87 317.583 1450.99 325.159C1438.19 332.659 1422.96 336.409 1405.31 336.409ZM1405.53 298.909C1413.56 298.909 1420.27 296.636 1425.65 292.091C1431.03 287.47 1435.08 281.182 1437.81 273.227C1440.61 265.273 1442.01 256.22 1442.01 246.068C1442.01 235.917 1440.61 226.864 1437.81 218.909C1435.08 210.955 1431.03 204.667 1425.65 200.045C1420.27 195.424 1413.56 193.114 1405.53 193.114C1397.43 193.114 1390.61 195.424 1385.08 200.045C1379.63 204.667 1375.5 210.955 1372.69 218.909C1369.97 226.864 1368.6 235.917 1368.6 246.068C1368.6 256.22 1369.97 265.273 1372.69 273.227C1375.5 281.182 1379.63 287.47 1385.08 292.091C1390.61 296.636 1397.43 298.909 1405.53 298.909ZM1571.1 232.091V333H1522.69V158.455H1568.83V189.25H1570.88C1574.74 179.098 1581.22 171.068 1590.31 165.159C1599.4 159.174 1610.42 156.182 1623.38 156.182C1635.5 156.182 1646.06 158.833 1655.08 164.136C1664.09 169.439 1671.1 177.015 1676.1 186.864C1681.1 196.636 1683.6 208.303 1683.6 221.864V333H1635.19V230.5C1635.27 219.818 1632.54 211.485 1627.01 205.5C1621.48 199.439 1613.87 196.409 1604.17 196.409C1597.66 196.409 1591.9 197.811 1586.9 200.614C1581.97 203.417 1578.11 207.508 1575.31 212.886C1572.58 218.189 1571.18 224.591 1571.1 232.091Z" fill="black"/>
<defs>
<linearGradient id="paint0_linear_301_35" x1="282.372" y1="281.693" x2="282.372" y2="409.733" gradientUnits="userSpaceOnUse">
<stop stop-color="#6E4FED"/>
<stop offset="0.692708" stop-color="#A96FDC"/>
</linearGradient>
<linearGradient id="paint1_linear_301_35" x1="281.512" y1="0" x2="281.512" y2="263.918" gradientUnits="userSpaceOnUse">
<stop offset="0.265625" stop-color="#ED9CA2"/>
<stop offset="0.9999" stop-color="#A96FDC"/>
<stop offset="1" stop-color="#A96FDC"/>
</linearGradient>
<linearGradient id="paint2_linear_301_35" x1="281.512" y1="0" x2="281.512" y2="263.918" gradientUnits="userSpaceOnUse">
<stop offset="0.265625" stop-color="#ED9CA2"/>
<stop offset="0.9999" stop-color="#A96FDC"/>
<stop offset="1" stop-color="#A96FDC"/>
</linearGradient>
<linearGradient id="paint3_linear_301_35" x1="281.512" y1="0" x2="281.512" y2="263.918" gradientUnits="userSpaceOnUse">
<stop offset="0.265625" stop-color="#ED9CA2"/>
<stop offset="0.9999" stop-color="#A96FDC"/>
<stop offset="1" stop-color="#A96FDC"/>
</linearGradient>
</defs>
</svg>
