<svg width="484" height="134" viewBox="0 0 484 134" fill="none" xmlns="http://www.w3.org/2000/svg">
<circle cx="67" cy="67" r="67" fill="black"/>
<circle cx="67" cy="67" r="67" fill="url(#paint0_radial)" fill-opacity="0.5"/>
<path fill-rule="evenodd" clip-rule="evenodd" d="M42.3728 105.947C46.7894 99.4669 55.7772 95.0309 66.1465 95.0309C76.5158 95.0309 85.5036 99.4669 89.9202 105.947C85.5036 112.426 76.5158 116.863 66.1465 116.863C55.7772 116.863 46.7894 112.426 42.3728 105.947Z" fill="url(#paint1_linear)"/>
<path d="M42.2126 57.8C46.6263 51.389 55.6084 47 65.9711 47C76.3338 47 85.3159 51.389 89.7296 57.8C85.3159 64.211 76.3338 68.6 65.9711 68.6C55.6084 68.6 46.6263 64.211 42.2126 57.8Z" fill="url(#paint2_linear)"/>
<path d="M66.4252 82.059C60.0036 88.4165 51.2941 91.9881 42.2126 91.9881C33.1311 91.9881 24.4216 88.4165 18 82.059L42.2126 57.8L66.4252 82.059Z" fill="url(#paint3_linear)"/>
<path d="M114 82.0709C107.578 88.4284 98.8689 92 89.7874 92C80.7059 92 71.9964 88.4284 65.5748 82.0709L89.7874 57.8L114 82.0709Z" fill="url(#paint4_linear)"/>
<path d="M206.9 84.2L230.3 30.7H246.5V100H232.7V51.3L211.7 100H202L181 51.3V100H167.3V30.7H183.5L206.9 84.2ZM260.148 100V50.9H273.348V100H260.148ZM259.848 41.5V29.6H273.748V41.5H259.848ZM298.927 30.7V100H285.727V30.7H298.927ZM324.122 30.7V100H310.922V30.7H324.122ZM336.417 100V50.9H349.617V100H336.417ZM336.117 41.5V29.6H350.017V41.5H336.117ZM387.796 50C392.596 50 396.763 50.6333 400.296 51.9C403.829 53.1 406.729 54.8333 408.996 57.1C411.263 59.3 412.929 61.9667 413.996 65.1C415.129 68.1667 415.696 71.6 415.696 75.4C415.696 83.6 413.363 89.9333 408.696 94.4C404.096 98.8 397.129 101 387.796 101C378.529 101 371.529 98.8 366.796 94.4C362.129 89.9333 359.796 83.6 359.796 75.4C359.796 71.6 360.329 68.1667 361.396 65.1C362.529 61.9667 364.229 59.3 366.496 57.1C368.829 54.8333 371.763 53.1 375.296 51.9C378.829 50.6333 382.996 50 387.796 50ZM387.796 59.2C385.196 59.2 382.963 59.6667 381.096 60.6C379.296 61.4667 377.796 62.6667 376.596 64.2C375.463 65.7333 374.629 67.5 374.096 69.5C373.563 71.4333 373.296 73.4333 373.296 75.5C373.296 77.5667 373.563 79.5667 374.096 81.5C374.629 83.4333 375.463 85.1333 376.596 86.6C377.796 88.0667 379.296 89.2667 381.096 90.2C382.963 91.0667 385.196 91.5 387.796 91.5C390.396 91.5 392.596 91.0667 394.396 90.2C396.263 89.2667 397.763 88.0667 398.896 86.6C400.096 85.1333 400.963 83.4333 401.496 81.5C402.029 79.5667 402.296 77.5667 402.296 75.5C402.296 73.4333 402.029 71.4333 401.496 69.5C400.963 67.5 400.096 65.7333 398.896 64.2C397.763 62.6667 396.263 61.4667 394.396 60.6C392.596 59.6667 390.396 59.2 387.796 59.2ZM437.773 50.9V55.7C439.639 53.6333 441.973 52.1667 444.773 51.3C447.639 50.3667 450.406 49.9 453.073 49.9C460.673 49.9 466.706 51.3333 471.173 54.2C475.639 57.0667 477.873 61.6667 477.873 68V100H464.673V68.6C464.673 67.1333 464.306 65.8333 463.573 64.7C462.906 63.5 461.973 62.5 460.773 61.7C459.573 60.9 458.173 60.3 456.573 59.9C454.973 59.4333 453.273 59.2 451.473 59.2C447.606 59.2 444.439 60.1333 441.973 62C439.506 63.8667 438.273 66.4667 438.273 69.8V100H425.073V50.9H437.773Z" fill="#777777"/>
<defs>
<radialGradient id="paint0_radial" cx="0" cy="0" r="1" gradientUnits="userSpaceOnUse" gradientTransform="translate(67 67) rotate(90) scale(67)">
<stop stop-color="#7263EF"/>
<stop offset="1" stop-color="#AE35DD"/>
</radialGradient>
<linearGradient id="paint1_linear" x1="66.1465" y1="95.0309" x2="66.1465" y2="116.863" gradientUnits="userSpaceOnUse">
<stop stop-color="#D0244E"/>
<stop offset="1" stop-color="#F44750"/>
</linearGradient>
<linearGradient id="paint2_linear" x1="66" y1="47" x2="66" y2="92" gradientUnits="userSpaceOnUse">
<stop stop-color="#F7CB6A"/>
<stop offset="0.770833" stop-color="#F44750"/>
<stop offset="1" stop-color="#D0244E"/>
</linearGradient>
<linearGradient id="paint3_linear" x1="66" y1="47" x2="66" y2="92" gradientUnits="userSpaceOnUse">
<stop stop-color="#F7CB6A"/>
<stop offset="0.770833" stop-color="#F44750"/>
<stop offset="1" stop-color="#D0244E"/>
</linearGradient>
<linearGradient id="paint4_linear" x1="66" y1="47" x2="66" y2="92" gradientUnits="userSpaceOnUse">
<stop stop-color="#F7CB6A"/>
<stop offset="0.770833" stop-color="#F44750"/>
<stop offset="1" stop-color="#D0244E"/>
</linearGradient>
</defs>
</svg>
