<?xml version="1.0" encoding="UTF-8" standalone="no"?>
<!DOCTYPE svg PUBLIC "-//W3C//DTD SVG 1.1//EN" "http://www.w3.org/Graphics/SVG/1.1/DTD/svg11.dtd">
<svg width="100%" height="100%" viewBox="0 0 1000 200" version="1.1" xmlns="http://www.w3.org/2000/svg" xmlns:xlink="http://www.w3.org/1999/xlink" xml:space="preserve" xmlns:serif="http://www.serif.com/" style="fill-rule:evenodd;clip-rule:evenodd;stroke-linejoin:round;stroke-miterlimit:2;">
    <g transform="matrix(0.988142,0,0,1,0,0)">
        <rect x="0" y="0" width="1012" height="200" style="fill:white;"/>
    </g>
    <g transform="matrix(3.89058,0,0,3.89058,-671.419,-1218.81)">
        <g transform="matrix(50,0,0,50,271.123,357.001)">
            <path d="M0.204,-0L0.071,-0L0.071,-0.492L0.198,-0.492L0.198,-0.432C0.211,-0.455 0.231,-0.473 0.258,-0.486C0.285,-0.499 0.313,-0.506 0.342,-0.506C0.413,-0.506 0.462,-0.479 0.488,-0.424C0.523,-0.479 0.575,-0.506 0.644,-0.506C0.694,-0.506 0.736,-0.49 0.771,-0.459C0.805,-0.428 0.822,-0.381 0.822,-0.319L0.822,-0L0.693,-0L0.693,-0.292C0.693,-0.32 0.686,-0.343 0.672,-0.36C0.657,-0.377 0.635,-0.385 0.606,-0.385C0.579,-0.385 0.557,-0.376 0.54,-0.357C0.523,-0.338 0.515,-0.315 0.515,-0.288L0.515,-0L0.383,-0L0.383,-0.292C0.383,-0.32 0.376,-0.343 0.361,-0.36C0.346,-0.377 0.325,-0.385 0.296,-0.385C0.268,-0.385 0.246,-0.376 0.229,-0.358C0.212,-0.339 0.204,-0.316 0.204,-0.288L0.204,-0Z" style="fill-rule:nonzero;"/>
        </g>
        <g transform="matrix(50,0,0,50,315.423,357.001)">
            <path d="M0.204,-0L0.071,-0L0.071,-0.492L0.204,-0.492L0.204,-0ZM0.055,-0.653C0.055,-0.676 0.063,-0.695 0.079,-0.712C0.095,-0.728 0.114,-0.736 0.137,-0.736C0.16,-0.736 0.179,-0.728 0.195,-0.712C0.211,-0.696 0.219,-0.676 0.219,-0.653C0.219,-0.631 0.211,-0.612 0.195,-0.596C0.179,-0.58 0.16,-0.572 0.137,-0.572C0.114,-0.572 0.095,-0.58 0.079,-0.596C0.063,-0.612 0.055,-0.631 0.055,-0.653Z" style="fill-rule:nonzero;"/>
        </g>
        <g transform="matrix(50,0,0,50,329.173,357.001)">
            <rect x="0.071" y="-0.724" width="0.133" height="0.724" style="fill-rule:nonzero;"/>
        </g>
        <g transform="matrix(50,0,0,50,342.923,357.001)">
            <rect x="0.071" y="-0.724" width="0.133" height="0.724" style="fill-rule:nonzero;"/>
        </g>
        <g transform="matrix(50,0,0,50,356.673,357.001)">
            <path d="M0.204,-0L0.071,-0L0.071,-0.492L0.204,-0.492L0.204,-0ZM0.055,-0.653C0.055,-0.676 0.063,-0.695 0.079,-0.712C0.095,-0.728 0.114,-0.736 0.137,-0.736C0.16,-0.736 0.179,-0.728 0.195,-0.712C0.211,-0.696 0.219,-0.676 0.219,-0.653C0.219,-0.631 0.211,-0.612 0.195,-0.596C0.179,-0.58 0.16,-0.572 0.137,-0.572C0.114,-0.572 0.095,-0.58 0.079,-0.596C0.063,-0.612 0.055,-0.631 0.055,-0.653Z" style="fill-rule:nonzero;"/>
        </g>
        <g transform="matrix(50,0,0,50,370.423,357.001)">
            <path d="M0.203,-0.143C0.228,-0.118 0.257,-0.106 0.292,-0.106C0.327,-0.106 0.356,-0.118 0.381,-0.143C0.405,-0.168 0.417,-0.202 0.417,-0.246C0.417,-0.29 0.405,-0.324 0.381,-0.349C0.356,-0.374 0.327,-0.386 0.292,-0.386C0.257,-0.386 0.228,-0.374 0.203,-0.349C0.179,-0.324 0.167,-0.29 0.167,-0.246C0.167,-0.202 0.179,-0.168 0.203,-0.143ZM0.108,-0.433C0.157,-0.482 0.218,-0.507 0.292,-0.507C0.366,-0.507 0.428,-0.482 0.476,-0.433C0.526,-0.384 0.55,-0.321 0.55,-0.246C0.55,-0.171 0.526,-0.108 0.476,-0.059C0.428,-0.01 0.366,0.015 0.292,0.015C0.218,0.015 0.157,-0.01 0.108,-0.059C0.059,-0.108 0.034,-0.171 0.034,-0.246C0.034,-0.321 0.059,-0.384 0.108,-0.433Z" style="fill-rule:nonzero;"/>
        </g>
        <g transform="matrix(50,0,0,50,399.623,357.001)">
            <path d="M0.204,-0.283L0.204,-0L0.071,-0L0.071,-0.492L0.2,-0.492L0.2,-0.431C0.214,-0.455 0.234,-0.473 0.26,-0.486C0.286,-0.499 0.313,-0.505 0.342,-0.505C0.4,-0.505 0.444,-0.487 0.474,-0.451C0.505,-0.414 0.52,-0.367 0.52,-0.31L0.52,-0L0.387,-0L0.387,-0.287C0.387,-0.316 0.38,-0.34 0.365,-0.358C0.349,-0.376 0.327,-0.385 0.296,-0.385C0.268,-0.385 0.246,-0.375 0.229,-0.356C0.212,-0.337 0.204,-0.312 0.204,-0.283Z" style="fill-rule:nonzero;"/>
        </g>
    </g>
    <g transform="matrix(0.711463,0,0,0.711463,-227.82,-210.229)">
        <path d="M342,427C342,427 404.358,391.131 436.427,372.683C447.921,366.072 462.068,366.092 473.543,372.735C496.911,386.264 536.441,409.15 556.509,420.768C564.235,425.242 573.765,425.242 581.491,420.768C601.586,409.134 641.197,386.202 664.553,372.68C675.975,366.067 690.051,366.021 701.517,372.558C733.805,390.968 797,427 797,427L797,519C797,519 726.727,478.316 696.528,460.832C688.16,455.987 677.84,455.987 669.472,460.832C648.239,473.125 607.195,496.887 584.695,509.913C574.987,515.534 563.013,515.534 553.305,509.913C530.823,496.897 489.826,473.163 468.579,460.861C460.184,456.001 449.827,456.021 441.451,460.913C411.441,478.441 342,519 342,519L342,427Z" style="fill:url(#_Linear1);"/>
    </g>
    <defs>
        <linearGradient id="_Linear1" x1="0" y1="0" x2="1" y2="0" gradientUnits="userSpaceOnUse" gradientTransform="matrix(455,0,0,455,342,443.119)"><stop offset="0" style="stop-color:rgb(252,161,58);stop-opacity:1"/><stop offset="0.16" style="stop-color:rgb(253,90,38);stop-opacity:1"/><stop offset="0.34" style="stop-color:rgb(146,72,174);stop-opacity:1"/><stop offset="0.5" style="stop-color:rgb(106,65,225);stop-opacity:1"/><stop offset="0.75" style="stop-color:rgb(59,177,247);stop-opacity:1"/><stop offset="1" style="stop-color:rgb(60,251,233);stop-opacity:1"/></linearGradient>
    </defs>
</svg>
