<svg width="3423" height="1126" viewBox="0 0 3423 1126" fill="none" xmlns="http://www.w3.org/2000/svg">
<path d="M3273 200H150C67.1573 200 0 267.157 0 350V776C0 858.843 67.1573 926 150 926H3273C3355.84 926 3423 858.843 3423 776V350C3423 267.157 3355.84 200 3273 200Z" fill="white"/>
<g clip-path="url(#clip0)">
<path fill-rule="evenodd" clip-rule="evenodd" d="M134 522.573C134 522.573 288.319 433.808 367.681 388.154C396.125 371.793 431.135 371.843 459.532 388.282C517.362 421.763 615.188 478.4 664.85 507.151C683.97 518.223 707.554 518.223 726.674 507.151C776.404 478.36 874.43 421.61 932.229 388.146C960.496 371.781 995.33 371.667 1023.71 387.845C1103.61 433.404 1260 522.573 1260 522.573V750.248C1260 750.248 1086.09 649.566 1011.36 606.298C990.65 594.308 965.111 594.308 944.402 606.298C891.857 636.72 790.284 695.524 734.603 727.76C710.578 741.67 680.946 741.67 656.921 727.76C601.285 695.549 499.828 636.814 447.248 606.37C426.473 594.343 400.842 594.392 380.114 606.499C305.847 649.875 134 750.248 134 750.248V522.573Z" fill="#47BB78"/>
</g>
<path d="M1446.93 344.636V781H1536.41V495.915H1540.04L1652.96 778.869H1713.9L1826.83 496.98H1830.45V781H1919.94V344.636H1806.16L1685.99 637.818H1680.88L1560.7 344.636H1446.93ZM1994.25 781H2085.01V453.727H1994.25V781ZM2039.84 411.54C2066.9 411.54 2089.06 390.872 2089.06 365.517C2089.06 340.375 2066.9 319.707 2039.84 319.707C2013 319.707 1990.84 340.375 1990.84 365.517C1990.84 390.872 2013 411.54 2039.84 411.54ZM2248.49 344.636H2157.72V781H2248.49V344.636ZM2411.97 344.636H2321.2V781H2411.97V344.636ZM2484.67 781H2575.44V453.727H2484.67V781ZM2530.27 411.54C2557.33 411.54 2579.49 390.872 2579.49 365.517C2579.49 340.375 2557.33 319.707 2530.27 319.707C2503.42 319.707 2481.27 340.375 2481.27 365.517C2481.27 390.872 2503.42 411.54 2530.27 411.54ZM2796.02 787.392C2895.31 787.392 2957.1 719.423 2957.1 618.642C2957.1 517.222 2895.31 449.466 2796.02 449.466C2696.73 449.466 2634.94 517.222 2634.94 618.642C2634.94 719.423 2696.73 787.392 2796.02 787.392ZM2796.45 717.08C2750.64 717.08 2727.2 675.105 2727.2 618.003C2727.2 560.901 2750.64 518.713 2796.45 518.713C2841.4 518.713 2864.84 560.901 2864.84 618.003C2864.84 675.105 2841.4 717.08 2796.45 717.08ZM3106.89 591.795C3107.1 549.608 3132.24 524.892 3168.89 524.892C3205.32 524.892 3227.27 548.756 3227.06 588.812V781H3317.82V572.619C3317.82 496.341 3273.08 449.466 3204.9 449.466C3156.32 449.466 3121.16 473.33 3106.46 511.469H3102.63V453.727H3016.12V781H3106.89V591.795Z" fill="black"/>
<defs>
<clipPath id="clip0">
<rect width="1126" height="1126" fill="white" transform="translate(134)"/>
</clipPath>
</defs>
</svg>
