<svg version="1.1" xmlns="http://www.w3.org/2000/svg" viewBox="0 0 1598.8932826306777 764.6712863971957" width="3197.7865652613555" height="1529.3425727943913">
  <!-- svg-source:excalidraw -->
  
  <defs>
    <style class="style-fonts">
      @font-face {
        font-family: "Virgil";
        src: url("https://excalidraw.com/Virgil.woff2");
      }
      @font-face {
        font-family: "Cascadia";
        src: url("https://excalidraw.com/Cascadia.woff2");
      }
    </style>
  </defs>
  <rect x="0" y="0" width="1598.8932826306777" height="764.6712863971957" fill="#ffffff"></rect><g stroke-linecap="round" transform="translate(308.2379428095678 177.5338049627776) rotate(0 65.28553777382501 65.28553777382513)"><path d="M32 0 M32 0 C50.4 1.08, 67.02 2.41, 98.57 0 M32 0 C49.61 1.01, 68.41 -0.39, 98.57 0 M98.57 0 C119.15 0.26, 131.94 10.23, 130.57 32 M98.57 0 C118.53 2.11, 129.35 8.61, 130.57 32 M130.57 32 C132.1 57.55, 129.52 82.6, 130.57 98.57 M130.57 32 C129.57 56.83, 129.37 82.66, 130.57 98.57 M130.57 98.57 C129.41 120.77, 119.79 129.25, 98.57 130.57 M130.57 98.57 C130.12 118.89, 119.8 129.03, 98.57 130.57 M98.57 130.57 C74.82 130.12, 46.35 131.55, 32 130.57 M98.57 130.57 C78 131.02, 58.47 130.69, 32 130.57 M32 130.57 C9.2 132.42, -0.96 119.73, 0 98.57 M32 130.57 C12.27 129.26, -1.33 119.9, 0 98.57 M0 98.57 C-1.32 72.66, -0.84 45.4, 0 32 M0 98.57 C-0.46 83.53, 0.41 68.82, 0 32 M0 32 C-0.37 8.81, 10.39 -0.82, 32 0 M0 32 C1.12 8.64, 11.42 0.2, 32 0" stroke="#000000" stroke-width="1" fill="none"></path></g><g transform="translate(337.52126608280514 215.37297304266895) rotate(0 35.75390625 24.412741600913023)"><text x="0" y="0" font-family="Cascadia, Segoe UI Emoji" font-size="40.68790266818846px" fill="#000000" text-anchor="start" style="white-space: pre;" direction="ltr" dominant-baseline="text-before-edge">div</text></g><g stroke-linecap="round" transform="translate(209.06361605852499 363.10422874535607) rotate(0 65.28553777382501 65.28553777382513)"><path d="M32 0 M32 0 C46.08 1.65, 59.52 -0.84, 98.57 0 M32 0 C47.87 -1.18, 64.38 -0.3, 98.57 0 M98.57 0 C121.27 -0.43, 129.38 12.5, 130.57 32 M98.57 0 C118.68 -2.05, 132.63 9.3, 130.57 32 M130.57 32 C130.56 46.77, 132.77 62.42, 130.57 98.57 M130.57 32 C129.61 48.99, 129.69 65.74, 130.57 98.57 M130.57 98.57 C130.46 118.58, 119.51 129.69, 98.57 130.57 M130.57 98.57 C130.46 118.36, 121.78 128.8, 98.57 130.57 M98.57 130.57 C79.57 131.72, 63.46 130.06, 32 130.57 M98.57 130.57 C83.56 131.72, 66.75 132.09, 32 130.57 M32 130.57 C9.7 130.39, 1.4 118.77, 0 98.57 M32 130.57 C9.34 130.57, 2.04 118.44, 0 98.57 M0 98.57 C-0.68 75.56, -0.86 54.28, 0 32 M0 98.57 C0.59 80.68, 0.37 60.63, 0 32 M0 32 C-0.27 9.84, 11.64 -1.76, 32 0 M0 32 C0.76 10.87, 10.06 -2.23, 32 0" stroke="#000000" stroke-width="1" fill="none"></path></g><g transform="translate(238.34693933176186 400.9433968252474) rotate(0 35.75390625 24.412741600913023)"><text x="0" y="0" font-family="Cascadia, Segoe UI Emoji" font-size="40.68790266818846px" fill="#000000" text-anchor="start" style="white-space: pre;" direction="ltr" dominant-baseline="text-before-edge">div</text></g><g stroke-linecap="round" transform="translate(408.37032995631944 361.9050781306946) rotate(0 65.28553777382501 65.28553777382513)"><path d="M32 0 M32 0 C53.12 -1.29, 74.07 -2.3, 98.57 0 M32 0 C55.94 0.63, 81.32 0.28, 98.57 0 M98.57 0 C118.71 1.83, 129.51 8.88, 130.57 32 M98.57 0 C121.96 -1.37, 129.21 12.88, 130.57 32 M130.57 32 C131.91 49.08, 129.36 68.53, 130.57 98.57 M130.57 32 C129.55 50.2, 130.08 66.87, 130.57 98.57 M130.57 98.57 C130.18 119.03, 119.81 129.23, 98.57 130.57 M130.57 98.57 C132.45 118.13, 119.09 132.48, 98.57 130.57 M98.57 130.57 C79.4 130.54, 58.7 130.46, 32 130.57 M98.57 130.57 C71.94 131.87, 46.3 130.86, 32 130.57 M32 130.57 C12.06 129.43, -1.15 119.9, 0 98.57 M32 130.57 C12.7 129.11, 0.55 117.89, 0 98.57 M0 98.57 C-1.02 77.63, -0.02 57.28, 0 32 M0 98.57 C-0.21 76.74, -0.16 56.35, 0 32 M0 32 C0.98 8.9, 11.33 0.18, 32 0 M0 32 C-0.6 8.43, 11 -1.83, 32 0" stroke="#000000" stroke-width="1" fill="none"></path></g><g transform="translate(437.65365322955677 399.74424621058597) rotate(0 35.75390625 24.412741600913023)"><text x="0" y="0" font-family="Cascadia, Segoe UI Emoji" font-size="40.68790266818846px" fill="#000000" text-anchor="start" style="white-space: pre;" direction="ltr" dominant-baseline="text-before-edge">div</text></g><g stroke-linecap="round" transform="translate(108.69527259290498 549.0936150423036) rotate(0 65.28553777382501 65.28553777382513)"><path d="M32 0 M32 0 C56.91 -1.47, 85.29 -0.78, 98.57 0 M32 0 C47.67 -0.31, 61.37 0.83, 98.57 0 M98.57 0 C118.84 -1.79, 132.36 9.47, 130.57 32 M98.57 0 C118.54 2.22, 130.14 9.92, 130.57 32 M130.57 32 C130.09 46.88, 130.43 62.26, 130.57 98.57 M130.57 32 C130.13 53.58, 129.99 76.04, 130.57 98.57 M130.57 98.57 C130.48 118.56, 121.54 129.03, 98.57 130.57 M130.57 98.57 C129.75 121.81, 119.66 128.97, 98.57 130.57 M98.57 130.57 C73.23 129.91, 52.32 131.49, 32 130.57 M98.57 130.57 C74.38 131.1, 51.85 130.62, 32 130.57 M32 130.57 C9.51 130.57, 1.77 118.63, 0 98.57 M32 130.57 C11.22 128.56, -0.06 118.45, 0 98.57 M0 98.57 C0.04 81.71, 0.76 68.27, 0 32 M0 98.57 C-0.01 74.08, 0.61 49.54, 0 32 M0 32 C0.66 10.84, 10.14 -1.94, 32 0 M0 32 C0.33 8.83, 9.36 -1.78, 32 0" stroke="#000000" stroke-width="1" fill="none"></path></g><g transform="translate(137.7831716210153 590.7203711601883) rotate(0 35.75390625 24.412741600913023)"><text x="0" y="0" font-family="Cascadia, Segoe UI Emoji" font-size="40.68790266818846px" fill="red" text-anchor="start" style="white-space: pre;" direction="ltr" dominant-baseline="text-before-edge">"1"</text></g><g stroke-linecap="round" transform="translate(308.00198649069944 547.8944644276421) rotate(0 65.28553777382501 65.28553777382513)"><path d="M32 0 M32 0 C51 -0.45, 65.89 -0.19, 98.57 0 M32 0 C52.25 1.06, 73.17 -0.75, 98.57 0 M98.57 0 C121.69 -1.19, 129.39 12.59, 130.57 32 M98.57 0 C119.47 -0.75, 129.13 12.46, 130.57 32 M130.57 32 C129.58 45.21, 130.92 59.88, 130.57 98.57 M130.57 32 C130.34 54.41, 130.49 77.03, 130.57 98.57 M130.57 98.57 C132.21 118.36, 119.19 132.23, 98.57 130.57 M130.57 98.57 C130.33 118.3, 121.3 130.69, 98.57 130.57 M98.57 130.57 C81.84 131.46, 62.68 128.93, 32 130.57 M98.57 130.57 C73.14 129.94, 45.73 130.51, 32 130.57 M32 130.57 C12.44 129.3, 0.48 118.16, 0 98.57 M32 130.57 C10.61 129.12, -1.66 118.25, 0 98.57 M0 98.57 C0.43 82.45, 1.38 65.83, 0 32 M0 98.57 C0.58 83.92, 0.42 71.11, 0 32 M0 32 C-0.52 8.73, 10.95 -1.59, 32 0 M0 32 C-1.3 8.89, 9.13 -0.69, 32 0" stroke="#000000" stroke-width="1" fill="none"></path></g><g transform="translate(337.28530976393677 585.7336325075335) rotate(0 35.75390625 24.412741600913023)"><text x="0" y="0" font-family="Cascadia, Segoe UI Emoji" font-size="40.68790266818846px" fill="#000000" text-anchor="start" style="white-space: pre;" direction="ltr" dominant-baseline="text-before-edge">div</text></g><g stroke-linecap="round"><g transform="translate(371.6378616679531 309.40500016419674) rotate(0 -48.99141533016217 27.258503342574386)"><path d="M-0.61 -0.9 C-16.78 7.94, -82.04 44.75, -98.07 53.8 M1.28 1.24 C-15.01 10.23, -82.86 46.53, -99.26 55.42" stroke="#000000" stroke-width="1" fill="none"></path></g><g transform="translate(371.6378616679531 309.40500016419674) rotate(0 -48.99141533016217 27.258503342574386)"><path d="M-80.79 32.27 C-83.18 39.11, -88.18 41.37, -97.42 54.35 M-79.89 33.99 C-83.49 37.3, -88.14 43.12, -100.08 54.92" stroke="#000000" stroke-width="1" fill="none"></path></g><g transform="translate(371.6378616679531 309.40500016419674) rotate(0 -48.99141533016217 27.258503342574386)"><path d="M-71.07 50.34 C-75.67 53.24, -82.76 51.61, -97.42 54.35 M-70.16 52.06 C-75.98 51.5, -82.67 53.52, -100.08 54.92" stroke="#000000" stroke-width="1" fill="none"></path></g></g><mask></mask><g stroke-linecap="round"><g transform="translate(371.5163822987761 310.4105793868289) rotate(0 51.825504131939624 24.909943576043588)"><path d="M-0.9 -0.45 C16.4 8.24, 87.05 43.14, 104.55 51.56 M0.83 -1.74 C17.91 6.68, 86.62 41.08, 103.69 49.86" stroke="#000000" stroke-width="1" fill="none"></path></g><g transform="translate(371.5163822987761 310.4105793868289) rotate(0 51.825504131939624 24.909943576043588)"><path d="M73.14 46.54 C86.13 47.38, 94.45 50.96, 102.62 48.08 M74.86 46.09 C85.15 47.22, 97.86 48.43, 103.19 49.41" stroke="#000000" stroke-width="1" fill="none"></path></g><g transform="translate(371.5163822987761 310.4105793868289) rotate(0 51.825504131939624 24.909943576043588)"><path d="M82.42 28.24 C91.92 35.69, 96.85 45.96, 102.62 48.08 M84.14 27.79 C90.71 35.99, 99.8 44.33, 103.19 49.41" stroke="#000000" stroke-width="1" fill="none"></path></g></g><mask></mask><g stroke-linecap="round"><g transform="translate(269.8718945668161 495.5316403049369) rotate(0 50.53683405359618 26.144343679887925)"><path d="M-0.45 0.16 C16.57 8.92, 84.79 42.88, 101.53 51.69 M1.51 -0.8 C18.5 8.22, 84.18 44.41, 101.01 53.09" stroke="#000000" stroke-width="1" fill="none"></path></g><g transform="translate(269.8718945668161 495.5316403049369) rotate(0 50.53683405359618 26.144343679887925)"><path d="M71.58 50.19 C78.25 48.81, 87.93 50, 99.22 54.88 M71.13 48.5 C77.8 50.35, 84.75 50.09, 100.55 52.76" stroke="#000000" stroke-width="1" fill="none"></path></g><g transform="translate(269.8718945668161 495.5316403049369) rotate(0 50.53683405359618 26.144343679887925)"><path d="M81.27 32.1 C85.39 35.19, 92.65 40.9, 99.22 54.88 M80.81 30.41 C85.05 36.7, 89.67 40.79, 100.55 52.76" stroke="#000000" stroke-width="1" fill="none"></path></g></g><mask></mask><g stroke-linecap="round"><g transform="translate(270.0254309917477 495.2583117242898) rotate(0 -49.979174000135004 26.79007743096622)"><path d="M0.16 0.82 C-16.2 9.6, -82.73 43.64, -99.03 52.22 M-1.22 0.2 C-17.67 9.16, -84.01 44.53, -100.12 53.38" stroke="#000000" stroke-width="1" fill="none"></path></g><g transform="translate(270.0254309917477 495.2583117242898) rotate(0 -49.979174000135004 26.79007743096622)"><path d="M-78.82 30.52 C-85.95 37.86, -90.31 39.29, -98.33 52.18 M-80.51 30.32 C-83.99 35.5, -90.07 41.26, -100.45 52.72" stroke="#000000" stroke-width="1" fill="none"></path></g><g transform="translate(270.0254309917477 495.2583117242898) rotate(0 -49.979174000135004 26.79007743096622)"><path d="M-69.07 48.57 C-78.33 51.87, -84.88 49.23, -98.33 52.18 M-70.76 48.38 C-76.76 49.19, -85.18 50.6, -100.45 52.72" stroke="#000000" stroke-width="1" fill="none"></path></g></g><mask></mask><g transform="translate(224.75996148325316 93.02868194673601) rotate(0 102.9111328125 23.421544390853114)"><text x="0" y="0" font-family="Cascadia, Segoe UI Emoji" font-size="39.035907318088455px" fill="red" text-anchor="start" style="white-space: pre;" direction="ltr" dominant-baseline="text-before-edge">count = 1</text></g><g stroke-linecap="round" transform="translate(76.09791939127854 518.1328006370009) rotate(0 96.8814903258384 96.02188107320603)"><path d="M140.67 9.33 C151.85 13.46, 161.2 24.45, 169.16 33.71 C177.12 42.97, 184.49 53.31, 188.45 64.88 C192.41 76.45, 193.84 90.94, 192.92 103.13 C192.01 115.32, 188.38 127.24, 182.93 138.03 C177.49 148.83, 169.54 159.7, 160.27 167.91 C151 176.13, 139.05 183.24, 127.32 187.3 C115.6 191.36, 102.15 193.24, 89.92 192.27 C77.69 191.29, 64.95 187.03, 53.93 181.46 C42.92 175.89, 31.96 168.07, 23.81 158.86 C15.67 149.64, 8.88 137.83, 5.08 126.17 C1.28 114.52, 0.26 100.9, 1.03 88.92 C1.79 76.95, 4.34 65.31, 9.66 54.34 C14.97 43.37, 23.48 31.3, 32.93 23.1 C42.39 14.9, 54.71 9.06, 66.39 5.13 C78.08 1.21, 90.27 -1.7, 103.04 -0.46 C115.82 0.79, 135.82 9.89, 143.02 12.62 C150.22 15.34, 147.09 14.47, 146.24 15.88 M72.89 1.91 C83.95 -2.26, 99.3 0.37, 111.5 2.43 C123.7 4.48, 135.73 8.12, 146.09 14.23 C156.44 20.35, 166.31 29.48, 173.63 39.11 C180.95 48.74, 187.02 60.25, 190.01 72.01 C193 83.77, 193.34 97.58, 191.57 109.66 C189.81 121.74, 185.62 133.85, 179.44 144.48 C173.25 155.11, 164.22 166.02, 154.47 173.44 C144.72 180.86, 133.22 186.1, 120.95 188.99 C108.68 191.87, 93.34 192.42, 80.86 190.74 C68.39 189.06, 56.66 185.13, 46.1 178.9 C35.54 172.68, 24.69 163.44, 17.5 153.39 C10.31 143.33, 5.91 130.5, 2.94 118.56 C-0.04 106.62, -1.99 93.93, -0.35 81.74 C1.3 69.56, 6.35 56.14, 12.8 45.46 C19.25 34.78, 28.26 24.57, 38.34 17.65 C48.42 10.73, 67.36 6.28, 73.29 3.92 C79.22 1.56, 73.47 2.07, 73.94 3.49" stroke="red" stroke-width="1" fill="none"></path></g><g stroke-linecap="round"><g transform="translate(319.465731886871 146.63551119130125) rotate(0 -70.22425611312872 182.6648578368388)"><path d="M-0.72 1.1 C-24.45 61.76, -118.37 303.23, -141.56 363.72 M1.11 0.63 C-22.3 61.43, -115.65 303.97, -139.18 364.7" stroke="red" stroke-width="1" fill="none"></path></g><g transform="translate(319.465731886871 146.63551119130125) rotate(0 -70.22425611312872 182.6648578368388)"><path d="M-136.77 333.64 C-140.66 347.53, -140.28 355.6, -137.25 364.32 M-139.42 334.2 C-139.4 342.4, -139.76 351.09, -139.76 365.13" stroke="red" stroke-width="1" fill="none"></path></g><g transform="translate(319.465731886871 146.63551119130125) rotate(0 -70.22425611312872 182.6648578368388)"><path d="M-117.62 341.03 C-128.55 352.09, -135.22 357.44, -137.25 364.32 M-120.27 341.59 C-125.33 347.96, -130.81 354.68, -139.76 365.13" stroke="red" stroke-width="1" fill="none"></path></g></g><mask></mask><g stroke-linecap="round" transform="translate(10 68.41136706926272) rotate(0 313.0719356068081 343.1299596639665)"><path d="M32 0 M32 0 C188 -2.78, 345.56 -2.54, 594.14 0 M32 0 C167.2 0.17, 302.97 0.1, 594.14 0 M594.14 0 C614.48 -0.91, 625.48 9.35, 626.14 32 M594.14 0 C616.26 -1.34, 627.14 10.54, 626.14 32 M626.14 32 C625.62 176.99, 626.31 322.44, 626.14 654.26 M626.14 32 C627.93 196.82, 628.23 361.06, 626.14 654.26 M626.14 654.26 C624.81 675.08, 617.26 687.32, 594.14 686.26 M626.14 654.26 C627.44 673.9, 617.61 685.15, 594.14 686.26 M594.14 686.26 C429.99 684.98, 267.47 684.47, 32 686.26 M594.14 686.26 C411.71 685.92, 229.49 685.98, 32 686.26 M32 686.26 C10.23 684.58, 0.28 675.66, 0 654.26 M32 686.26 C12.09 685.83, -2.14 675.28, 0 654.26 M0 654.26 C-0.95 493.29, -1.42 331.4, 0 32 M0 654.26 C1.68 458.41, 1.86 263.4, 0 32 M0 32 C-0.35 9.13, 10.74 0.42, 32 0 M0 32 C1.44 11.8, 11.5 -0.94, 32 0" stroke="#495057" stroke-width="1" fill="none"></path></g><g transform="translate(186.32287029637678 11.899882271874503) rotate(0 133.60546875 21.04875353514126)"><text x="0" y="0" font-family="Cascadia, Segoe UI Emoji" font-size="35.081255891902195px" fill="#495057" text-anchor="start" style="white-space: pre;" direction="ltr" dominant-baseline="text-before-edge">current block</text></g><g stroke-linecap="round" transform="translate(1260.6799869967713 176.38657793818902) rotate(0 65.28553777382513 65.28553777382513)"><path d="M32 0 M32 0 C52.57 -0.16, 77.34 1.43, 98.57 0 M32 0 C52.23 -0.83, 71.53 -1.02, 98.57 0 M98.57 0 C117.93 1.08, 131.86 10.71, 130.57 32 M98.57 0 C119.05 0.7, 129.74 12.86, 130.57 32 M130.57 32 C129.25 56.54, 131.47 81.69, 130.57 98.57 M130.57 32 C131.68 49.06, 131.23 66.6, 130.57 98.57 M130.57 98.57 C130.41 118.31, 119.06 131.33, 98.57 130.57 M130.57 98.57 C131.17 120.33, 122.02 132.52, 98.57 130.57 M98.57 130.57 C78.89 132.06, 57.66 132.01, 32 130.57 M98.57 130.57 C75.92 129.27, 55.17 129.03, 32 130.57 M32 130.57 C8.78 132.31, -1.98 121.03, 0 98.57 M32 130.57 C9.69 130.81, -1.45 119.92, 0 98.57 M0 98.57 C-0.53 79.83, -1.51 64.82, 0 32 M0 98.57 C0.94 79.99, 0.7 62.69, 0 32 M0 32 C-1.82 12.66, 9.47 1.33, 32 0 M0 32 C-0.06 12.17, 9.4 -1.39, 32 0" stroke="#000000" stroke-width="1" fill="none"></path></g><g transform="translate(1289.9633102700086 214.22574601808128) rotate(0 35.75390625 24.412741600913023)"><text x="0" y="0" font-family="Cascadia, Segoe UI Emoji" font-size="40.68790266818846px" fill="#000000" text-anchor="start" style="white-space: pre;" direction="ltr" dominant-baseline="text-before-edge">div</text></g><g stroke-linecap="round" transform="translate(1161.5056602457284 361.9570017207684) rotate(0 65.28553777382501 65.28553777382513)"><path d="M32 0 M32 0 C57.22 1.71, 78.5 -1.14, 98.57 0 M32 0 C53.58 -0.42, 74.16 0.99, 98.57 0 M98.57 0 C121.2 0.05, 129.82 11.28, 130.57 32 M98.57 0 C119.07 2.19, 132.18 8.42, 130.57 32 M130.57 32 C131.9 55.95, 129.52 79.88, 130.57 98.57 M130.57 32 C131.52 47.67, 131.05 62.23, 130.57 98.57 M130.57 98.57 C129.73 120.66, 120.42 130.94, 98.57 130.57 M130.57 98.57 C132.69 121.86, 119.86 132.78, 98.57 130.57 M98.57 130.57 C72.76 131.89, 49.97 132.13, 32 130.57 M98.57 130.57 C85.41 129.25, 70.67 131.01, 32 130.57 M32 130.57 C8.69 131.7, -0.85 120.11, 0 98.57 M32 130.57 C9.22 130.59, -0.93 119.94, 0 98.57 M0 98.57 C-1.32 83.4, -0.33 66.77, 0 32 M0 98.57 C0.08 78.35, -1.56 57.71, 0 32 M0 32 C-1.2 11.99, 10.61 1.31, 32 0 M0 32 C-1.27 9.28, 11.08 -1.34, 32 0" stroke="#000000" stroke-width="1" fill="none"></path></g><g transform="translate(1190.7889835189653 399.79616980065975) rotate(0 35.75390625 24.412741600913023)"><text x="0" y="0" font-family="Cascadia, Segoe UI Emoji" font-size="40.68790266818846px" fill="#000000" text-anchor="start" style="white-space: pre;" direction="ltr" dominant-baseline="text-before-edge">div</text></g><g stroke-linecap="round" transform="translate(1360.8123741435234 360.75785110610695) rotate(0 65.28553777382513 65.28553777382513)"><path d="M32 0 M32 0 C52.47 -1.67, 73.55 0.34, 98.57 0 M32 0 C46.53 1.11, 63.67 0.6, 98.57 0 M98.57 0 C119.16 0.61, 129.85 12.58, 130.57 32 M98.57 0 C121.52 -2.25, 131.8 9.9, 130.57 32 M130.57 32 C130.26 52.45, 129.75 72.96, 130.57 98.57 M130.57 32 C130.75 50.05, 130.41 70.08, 130.57 98.57 M130.57 98.57 C131.09 120.27, 121.74 132.27, 98.57 130.57 M130.57 98.57 C130.53 122.11, 121.5 130.76, 98.57 130.57 M98.57 130.57 C75.74 132.11, 49.82 129.31, 32 130.57 M98.57 130.57 C81.97 130.85, 66.27 130.54, 32 130.57 M32 130.57 C9.82 130.78, -1.26 119.92, 0 98.57 M32 130.57 C9.73 130.61, -1.39 119.3, 0 98.57 M0 98.57 C-0.01 83.6, 0.79 70.37, 0 32 M0 98.57 C-1.4 81.5, -1.09 63.1, 0 32 M0 32 C-0.06 11.97, 9.56 -1.21, 32 0 M0 32 C0.41 9.33, 9.73 -0.02, 32 0" stroke="#000000" stroke-width="1" fill="none"></path></g><g transform="translate(1390.0956974167598 398.5970191859983) rotate(0 35.75390625 24.412741600913023)"><text x="0" y="0" font-family="Cascadia, Segoe UI Emoji" font-size="40.68790266818846px" fill="#000000" text-anchor="start" style="white-space: pre;" direction="ltr" dominant-baseline="text-before-edge">div</text></g><g stroke-linecap="round" transform="translate(1061.1373167801084 547.9463880177159) rotate(0 65.28553777382501 65.28553777382513)"><path d="M32 0 M32 0 C58.33 1.29, 82.35 0.36, 98.57 0 M32 0 C46.87 -0.34, 60.08 -0.05, 98.57 0 M98.57 0 C119.18 1.91, 131.97 8.71, 130.57 32 M98.57 0 C121.14 -0.77, 130.46 12.45, 130.57 32 M130.57 32 C128.96 55.03, 129.96 75.49, 130.57 98.57 M130.57 32 C130.1 53.35, 130.78 74.13, 130.57 98.57 M130.57 98.57 C132.41 121.6, 119.87 132.49, 98.57 130.57 M130.57 98.57 C132.17 120.09, 121.09 129.16, 98.57 130.57 M98.57 130.57 C73.4 129.39, 50.84 131.61, 32 130.57 M98.57 130.57 C83.55 131.71, 70.08 131.25, 32 130.57 M32 130.57 C9.41 130.58, -0.81 119.94, 0 98.57 M32 130.57 C9.28 129.97, -1.69 118.19, 0 98.57 M0 98.57 C0.46 77.94, -0.41 54.87, 0 32 M0 98.57 C0.01 74.53, 0.58 49.81, 0 32 M0 32 C-1.1 9.46, 11.02 -1.16, 32 0 M0 32 C-0.93 10.64, 9.71 -0.64, 32 0" stroke="#000000" stroke-width="1" fill="none"></path></g><g transform="translate(1090.2252158082188 589.5731441356006) rotate(0 35.75390625 24.412741600913023)"><text x="0" y="0" font-family="Cascadia, Segoe UI Emoji" font-size="40.68790266818846px" fill="green" text-anchor="start" style="white-space: pre;" direction="ltr" dominant-baseline="text-before-edge">"2"</text></g><g stroke-linecap="round" transform="translate(1260.444030677903 546.7472374030535) rotate(0 65.28553777382513 65.28553777382513)"><path d="M32 0 M32 0 C47.03 -0.3, 63.01 -2.28, 98.57 0 M32 0 C55.19 0.29, 78.77 0.94, 98.57 0 M98.57 0 C121.31 -1.96, 131.64 10, 130.57 32 M98.57 0 C119.79 1.78, 131.05 9.72, 130.57 32 M130.57 32 C129.79 55.44, 130.43 77.13, 130.57 98.57 M130.57 32 C130.55 46.84, 131.21 62.16, 130.57 98.57 M130.57 98.57 C130.53 121.82, 121.29 130.73, 98.57 130.57 M130.57 98.57 C131.76 118.5, 121.03 131.22, 98.57 130.57 M98.57 130.57 C73.26 130.67, 48.75 128.16, 32 130.57 M98.57 130.57 C72.39 131.05, 46.44 130.95, 32 130.57 M32 130.57 C9.85 130.61, -1.21 119.38, 0 98.57 M32 130.57 C8.98 128.85, 0.9 119.33, 0 98.57 M0 98.57 C-0.67 79.71, 1.33 56.09, 0 32 M0 98.57 C0.37 72.61, -0.15 44.73, 0 32 M0 32 C0.36 9.51, 9.85 -0.02, 32 0 M0 32 C-0.96 10.03, 10.35 -1.8, 32 0" stroke="#000000" stroke-width="1" fill="none"></path></g><g transform="translate(1289.7273539511402 584.5864054829458) rotate(0 35.75390625 24.412741600913023)"><text x="0" y="0" font-family="Cascadia, Segoe UI Emoji" font-size="40.68790266818846px" fill="#000000" text-anchor="start" style="white-space: pre;" direction="ltr" dominant-baseline="text-before-edge">div</text></g><g stroke-linecap="round"><g transform="translate(1324.079905855157 308.25777313960907) rotate(0 -49.39964481461777 26.624273929103083)"><path d="M0 -1.04 C-16.56 8.15, -82.66 45.17, -98.8 54.28 M-1.46 1.03 C-17.72 9.94, -80.75 43.51, -96.71 52.5" stroke="#000000" stroke-width="1" fill="none"></path></g><g transform="translate(1324.079905855157 308.25777313960907) rotate(0 -49.39964481461777 26.624273929103083)"><path d="M-78.61 28.01 C-82.82 39.08, -90.72 44.83, -96.1 51.78 M-76.35 29.65 C-84.62 39.47, -92.2 47.19, -96.31 51.83" stroke="#000000" stroke-width="1" fill="none"></path></g><g transform="translate(1324.079905855157 308.25777313960907) rotate(0 -49.39964481461777 26.624273929103083)"><path d="M-68.78 46.02 C-76.27 50.85, -87.57 50.37, -96.1 51.78 M-66.51 47.66 C-78.8 50.26, -90.27 50.86, -96.31 51.83" stroke="#000000" stroke-width="1" fill="none"></path></g></g><mask></mask><g stroke-linecap="round"><g transform="translate(1323.95842648598 309.2633523622412) rotate(0 52.001651592877124 25.165820433519002)"><path d="M-1.04 -1.18 C16.6 7.4, 87.46 42.94, 105.04 51.51 M0.62 0.81 C18.23 9.06, 87.26 41.37, 104.43 49.8" stroke="#000000" stroke-width="1" fill="none"></path></g><g transform="translate(1323.95842648598 309.2633523622412) rotate(0 52.001651592877124 25.165820433519002)"><path d="M72.6 47.99 C82.82 47.89, 87.74 49.12, 103.71 51.71 M74.24 46.86 C86.37 48.02, 96.23 49.29, 103.76 50.64" stroke="#000000" stroke-width="1" fill="none"></path></g><g transform="translate(1323.95842648598 309.2633523622412) rotate(0 52.001651592877124 25.165820433519002)"><path d="M81.45 29.47 C89.61 33.61, 92.46 39.16, 103.71 51.71 M83.08 28.34 C91.76 36.41, 98.35 44.53, 103.76 50.64" stroke="#000000" stroke-width="1" fill="none"></path></g></g><mask></mask><g stroke-linecap="round"><g transform="translate(1222.3139387540195 494.3844132803483) rotate(0 50.15092096765875 26.738222464067803)"><path d="M-1.18 0.65 C15.73 9.48, 84.58 43.37, 101.48 51.98 M0.4 -0.06 C17.22 9.08, 84.47 45.16, 100.94 53.53" stroke="#000000" stroke-width="1" fill="none"></path></g><g transform="translate(1222.3139387540195 494.3844132803483) rotate(0 50.15092096765875 26.738222464067803)"><path d="M72.29 50.81 C80.15 50.27, 89.64 51.5, 102.85 54.94 M71.16 50.29 C77.46 50.02, 83.66 50.57, 101.78 53.37" stroke="#000000" stroke-width="1" fill="none"></path></g><g transform="translate(1222.3139387540195 494.3844132803483) rotate(0 50.15092096765875 26.738222464067803)"><path d="M81.83 32.64 C86.67 37.46, 93.29 44.15, 102.85 54.94 M80.7 32.12 C85.16 35.49, 89.44 39.72, 101.78 53.37" stroke="#000000" stroke-width="1" fill="none"></path></g></g><mask></mask><g stroke-linecap="round"><g transform="translate(1222.4674751789512 494.11108469970213) rotate(0 -49.513667713513996 26.962868568661634)"><path d="M0.65 0.78 C-15.64 9.72, -82.23 43.86, -98.74 52.49 M-0.47 0.14 C-16.82 9.35, -83.26 44.88, -99.68 53.79" stroke="#000000" stroke-width="1" fill="none"></path></g><g transform="translate(1222.4674751789512 494.11108469970213) rotate(0 -49.513667713513996 26.962868568661634)"><path d="M-78.43 31.43 C-84.95 36.89, -89.19 42.98, -98.27 51.83 M-78.95 31.59 C-87.26 39.7, -94.58 48.05, -99.84 54.18" stroke="#000000" stroke-width="1" fill="none"></path></g><g transform="translate(1222.4674751789512 494.11108469970213) rotate(0 -49.513667713513996 26.962868568661634)"><path d="M-68.7 49.5 C-77.12 51.15, -83.44 53.37, -98.27 51.83 M-69.22 49.66 C-80.91 51.37, -91.67 53.34, -99.84 54.18" stroke="#000000" stroke-width="1" fill="none"></path></g></g><mask></mask><g transform="translate(1177.2020056704564 92.16170151407778) rotate(0 102.9111328125 23.421544390853114)"><text x="0" y="0" font-family="Cascadia, Segoe UI Emoji" font-size="39.035907318088455px" fill="green" text-anchor="start" style="white-space: pre;" direction="ltr" dominant-baseline="text-before-edge">count = 2</text></g><g stroke-linecap="round" transform="translate(1028.539963578482 516.9855736124123) rotate(0 96.8814903258384 96.02188107320603)"><path d="M112.31 0.14 C124.29 0.23, 137.23 6.95, 147.67 13.59 C158.11 20.24, 167.7 30.15, 174.96 40.01 C182.21 49.87, 188.18 61.12, 191.19 72.78 C194.21 84.44, 194.81 97.81, 193.04 109.95 C191.26 122.1, 186.96 135.05, 180.55 145.66 C174.14 156.27, 164.69 166.47, 154.57 173.6 C144.45 180.74, 131.97 185.54, 119.83 188.49 C107.69 191.44, 93.89 193, 81.73 191.31 C69.57 189.61, 57.23 184.58, 46.89 178.3 C36.55 172.03, 27.03 163.4, 19.68 153.66 C12.32 143.91, 5.74 131.84, 2.76 119.81 C-0.22 107.79, -0.15 93.87, 1.82 81.5 C3.79 69.14, 8.19 56.04, 14.57 45.6 C20.94 35.17, 30.09 26.18, 40.08 18.87 C50.06 11.57, 61.76 4.68, 74.45 1.78 C87.15 -1.12, 108.29 1.02, 116.25 1.45 C124.21 1.88, 122.57 2.54, 122.21 4.35 M51 10.59 C60.48 3.77, 74.7 1.14, 86.97 -0.1 C99.25 -1.35, 112.85 -0.31, 124.63 3.11 C136.4 6.53, 148.23 12.45, 157.62 20.43 C167.02 28.41, 175.13 40, 181 50.98 C186.88 61.95, 191.39 73.94, 192.88 86.27 C194.36 98.61, 193.47 113.06, 189.93 124.97 C186.39 136.87, 179.27 148.69, 171.61 157.72 C163.95 166.75, 154.54 173.66, 143.99 179.15 C133.44 184.63, 120.6 189.17, 108.3 190.64 C95.99 192.11, 82.09 191.48, 70.16 187.99 C58.23 184.5, 46.63 177.36, 36.73 169.69 C26.82 162.01, 16.91 152.66, 10.73 141.92 C4.55 131.18, 0.75 117.58, -0.36 105.24 C-1.48 92.91, 0.42 79.59, 4.03 67.92 C7.64 56.25, 13.7 44.78, 21.31 35.23 C28.91 25.67, 44.67 14.35, 49.66 10.58 C54.66 6.82, 50.43 11.05, 51.27 12.62" stroke="green" stroke-width="1" fill="none"></path></g><g stroke-linecap="round"><g transform="translate(1271.736715512621 145.768530758643) rotate(0 -70.42440966671552 182.5851288786132)"><path d="M-0.45 0.37 C-24.11 61.3, -117.95 305.16, -141.19 365.66 M1.52 -0.49 C-22.41 60.14, -118.74 303.38, -142.37 364.14" stroke="green" stroke-width="1" fill="none"></path></g><g transform="translate(1271.736715512621 145.768530758643) rotate(0 -70.42440966671552 182.5851288786132)"><path d="M-141 333.42 C-139.97 346.48, -144.11 357.09, -143.03 364.04 M-141.2 333.48 C-140.99 345.29, -141.72 356.93, -142.45 363.34" stroke="green" stroke-width="1" fill="none"></path></g><g transform="translate(1271.736715512621 145.768530758643) rotate(0 -70.42440966671552 182.5851288786132)"><path d="M-121.9 340.93 C-127.84 351.18, -138.94 359.05, -143.03 364.04 M-122.1 340.98 C-129.12 349.89, -137.06 358.69, -142.45 363.34" stroke="green" stroke-width="1" fill="none"></path></g></g><mask></mask><g stroke-linecap="round" transform="translate(962.7494114170618 67.26414004467415) rotate(0 313.071935606808 343.1299596639665)"><path d="M32 0 M32 0 C201.71 0.08, 372.56 -1.47, 594.14 0 M32 0 C231.08 0.19, 429.38 0.27, 594.14 0 M594.14 0 C614.14 1.67, 625.81 11.46, 626.14 32 M594.14 0 C615.82 -0.19, 624.31 9.7, 626.14 32 M626.14 32 C627.53 242.94, 626.77 453.29, 626.14 654.26 M626.14 32 C626.1 262.01, 626.46 491.88, 626.14 654.26 M626.14 654.26 C624.19 674, 614.18 686.89, 594.14 686.26 M626.14 654.26 C624.09 673.43, 617.47 683.98, 594.14 686.26 M594.14 686.26 C393.32 686.5, 193.17 686.51, 32 686.26 M594.14 686.26 C459.11 684.77, 324.57 684.63, 32 686.26 M32 686.26 C10.96 688.22, -0.57 677.07, 0 654.26 M32 686.26 C12.3 684.17, 2.3 674.21, 0 654.26 M0 654.26 C-0.37 425.81, 0.21 197.87, 0 32 M0 654.26 C-0.08 492.8, -0.29 331.19, 0 32 M0 32 C-0.65 9.86, 9.74 0.04, 32 0 M0 32 C-2.11 9.38, 8.57 -1.47, 32 0" stroke="#495057" stroke-width="1" fill="none"></path></g><g transform="translate(1202.794659614039 10) rotate(0 92.49609374999989 21.04875353514126)"><text x="0" y="0" font-family="Cascadia, Segoe UI Emoji" font-size="35.081255891902195px" fill="#495057" text-anchor="start" style="white-space: pre;" direction="ltr" dominant-baseline="text-before-edge">new block</text></g><g stroke-linecap="round"><g transform="translate(353.9823843019358 142.79213119264932) rotate(0 444.93435013399085 26.857772027053215)"><path d="M-0.7 1.06 C70.9 9.99, 281.59 51.39, 430.14 53.08 C578.68 54.78, 814.05 18.04, 890.57 11.25 M1.13 0.57 C73.05 9.21, 284.21 49.51, 432.37 51.42 C580.52 53.33, 813.95 18.34, 890.07 12.02" stroke="#364fc7" stroke-width="1" fill="none"></path></g><g transform="translate(353.9823843019358 142.79213119264932) rotate(0 444.93435013399085 26.857772027053215)"><path d="M30.44 -6.55 C19.99 -2.25, 6.67 -2.36, -0.56 0.02 M28.76 -4.39 C19.5 -2.49, 9.35 -2.34, -1.41 1.44" stroke="#364fc7" stroke-width="1" fill="none"></path></g><g transform="translate(353.9823843019358 142.79213119264932) rotate(0 444.93435013399085 26.857772027053215)"><path d="M27.48 13.76 C18.12 11.07, 5.83 3.96, -0.56 0.02 M25.79 15.91 C17.66 11.52, 8.43 5.34, -1.41 1.44" stroke="#364fc7" stroke-width="1" fill="none"></path></g><g transform="translate(353.9823843019358 142.79213119264932) rotate(0 444.93435013399085 26.857772027053215)"><path d="M864.96 23.82 C873.97 21.75, 880.05 14.95, 890.21 10.98 M863.27 25.98 C871.73 22.35, 879.11 16.45, 889.36 12.4" stroke="#364fc7" stroke-width="1" fill="none"></path></g><g transform="translate(353.9823843019358 142.79213119264932) rotate(0 444.93435013399085 26.857772027053215)"><path d="M862.69 3.42 C872.4 8.4, 879.26 8.63, 890.21 10.98 M861 5.58 C869.97 8.33, 878.05 8.79, 889.36 12.4" stroke="#364fc7" stroke-width="1" fill="none"></path></g></g><mask></mask><g transform="translate(711.8562109161642 115.39480107394729) rotate(0 188.67688173922886 18.400488276282886)"><text x="0" y="0" font-family="Cascadia, Segoe UI Emoji" font-size="30.667480460471474px" fill="#364fc7" text-anchor="start" style="white-space: pre;" direction="ltr" dominant-baseline="text-before-edge">is "count" different?</text></g></svg>